# Blender 4.3.2
# www.blender.org
mtllib left_arm.mtl
o body.004
v -0.089700 -0.140940 -0.065460
v -0.089580 -0.046700 -0.064500
v -0.107840 0.045760 -0.064040
v 4.095480 -1.021200 -0.267500
v 0.872020 -0.538220 -0.731540
v 3.040600 -0.870860 0.682040
v 0.770140 -0.854020 -0.314280
v 3.331400 0.016300 -0.264420
v 4.186740 -1.027360 0.273160
v 4.332620 -0.462140 0.284360
v 4.376600 -0.455980 -0.256280
v 3.127260 -0.853460 -0.705180
v 3.273160 -0.288260 -0.693960
v 1.017920 0.027000 -0.720320
v -0.261120 -0.382560 -0.322240
v -0.115240 0.182660 -0.311020
v -0.159200 0.176520 0.229640
v 0.785340 -0.555600 0.655680
v 0.931240 0.009620 0.666880
v 3.186480 -0.305640 0.693240
v 0.726180 -0.860160 0.226360
v 2.981420 -1.175420 0.252720
v 3.025380 -1.169280 -0.287920
v 3.287440 0.010160 0.276240
v 1.032180 0.325400 0.249880
v 1.076160 0.331560 -0.290780
v 4.290580 -0.725100 -0.182020
v 4.256540 -0.721180 -0.094240
v 4.240060 -0.720040 -0.001460
v 4.241780 -0.721700 0.092760
v 4.261620 -0.726120 0.184780
v 4.298860 -0.733120 0.271060
v -0.132100 -0.138480 -0.351240
v -0.087320 -0.093820 -0.064920
v -0.123660 0.090200 -0.064000
v -0.148300 0.028420 -0.349980
v -0.096440 -0.000020 -0.064220
v -0.132000 -0.054240 -0.350400
v 4.074860 -0.194400 -0.252780
v 3.904200 -0.970360 -0.607580
v 3.761680 -1.203400 0.261400
v 4.037820 -0.427420 0.615980
v 1.081040 0.242920 -0.628460
v 0.024160 -0.416640 -0.654220
v 3.049920 -1.071400 -0.622320
v 0.167240 0.353260 0.234660
v -0.048300 -0.432020 0.558260
v -0.048180 -0.643580 -0.319300
v 3.236320 -0.083880 0.610060
v 0.749720 -0.775380 0.564120
v 4.109240 -0.200480 0.281300
v 3.995640 -0.412040 -0.596500
v 3.768200 -1.197320 -0.272660
v 3.893700 -0.985760 0.604900
v 3.308780 -0.068480 -0.602420
v 0.168280 0.141680 -0.643140
v 0.822180 -0.759980 -0.648340
v 0.210680 0.359320 -0.299400
v 0.095800 0.126300 0.569340
v -0.091620 -0.649660 0.214760
v 1.008580 0.227520 0.584020
v 2.977460 -1.086780 0.590160
v 4.206640 -1.029960 0.003320
v 4.354300 -0.457860 0.014660
v 4.258220 -0.747020 0.282620
v 4.302720 -0.740800 -0.264640
v 1.999820 -0.699140 -0.731600
v 2.147500 -0.127040 -0.720260
v 3.215040 -0.572640 -0.712600
v 0.932280 -0.253540 -0.739280
v -0.128180 0.184860 -0.041080
v -0.179760 -0.098080 -0.320380
v -0.224280 -0.104300 0.226860
v 1.911000 -0.716820 0.681980
v 2.058660 -0.144720 0.693320
v 0.843460 -0.271220 0.674300
v 3.126220 -0.590320 0.700980
v 0.730860 -0.868960 -0.044400
v 3.013600 -1.188040 -0.017720
v 1.849980 -1.031620 0.242580
v 1.894480 -1.025400 -0.304680
v 3.326720 0.025080 0.006340
v 1.043980 0.344180 -0.020340
v 2.163100 0.181540 0.266640
v 2.207600 0.187760 -0.280620
v 4.313820 -0.728040 -0.222980
v 4.356640 -1.001040 -0.131440
v 4.271420 -0.722800 -0.138980
v 4.331100 -0.998100 -0.065620
v 4.246040 -0.720260 -0.048260
v 4.318740 -0.997240 0.003980
v 4.238620 -0.720520 0.045700
v 4.320020 -0.998500 0.074640
v 4.249460 -0.723580 0.139260
v 4.334920 -1.001820 0.143640
v 4.278140 -0.729320 0.228840
v 4.362840 -1.007060 0.208360
v -0.137000 -0.091580 -0.348420
v -0.169220 0.071580 -0.347600
v -0.145080 -0.008420 -0.347780
v 3.631540 -1.114960 0.541200
v 3.694620 -1.100880 -0.555880
v 0.200780 -0.611280 -0.596980
v 0.137680 -0.625360 0.500120
v 3.859280 -0.232660 0.558700
v 3.922360 -0.218580 -0.538400
v 0.428500 0.271000 -0.579480
v 0.365420 0.256920 0.517620
v 4.149860 -0.192660 0.014760
v 3.948080 -0.725420 -0.661760
v 3.798280 -1.211080 -0.005440
v 3.982060 -0.709640 0.618200
v 2.197520 0.095060 -0.622700
v 0.081660 -0.134520 -0.656420
v 1.934660 -0.923360 -0.642900
v 0.175800 0.366900 -0.032540
v 0.008000 -0.150100 0.570900
v -0.087060 -0.651520 -0.052740
v 2.123840 0.079500 0.604620
v 1.860980 -0.938920 0.584420
v 4.264940 -0.745360 0.009660
v 2.075000 -0.412900 -0.742420
v 1.983500 -0.430960 0.704120
v 1.867780 -1.045740 -0.031400
v 2.189800 0.201880 -0.006660
v 4.329680 -0.927220 -0.196540
v 4.292080 -0.922560 -0.122040
v 4.269560 -0.920300 -0.041600
v 4.263000 -0.920540 0.041700
v 4.272600 -0.923260 0.124680
v 4.298040 -0.928340 0.204120
v 3.904740 -1.017860 0.047580
v 3.908020 -1.012200 0.145460
v 3.914200 -0.991980 0.239800
v 3.923000 -0.957980 0.326940
v 3.934120 -0.911480 0.403560
v 3.947120 -0.854300 0.466720
v 3.961480 -0.788620 0.513960
v 3.976680 -0.716960 0.543500
v 3.992140 -0.642080 0.554180
v 4.007220 -0.566880 0.545600
v 4.021380 -0.494220 0.518100
v 4.034060 -0.426900 0.472700
v 4.044780 -0.367500 0.411200
v 4.053120 -0.318320 0.335920
v 4.058760 -0.281240 0.249760
v 4.061500 -0.257700 0.156040
v 4.061220 -0.248560 0.058360
v 4.057940 -0.254220 -0.039520
v 4.051760 -0.274440 -0.133860
v 4.042940 -0.308440 -0.221000
v 4.031840 -0.354940 -0.297620
v 4.018840 -0.412120 -0.360780
v 4.004460 -0.477800 -0.408020
v 3.989260 -0.549460 -0.437560
v 3.973820 -0.624320 -0.448240
v 3.958740 -0.699520 -0.439660
v 3.944580 -0.772200 -0.412160
v 3.931900 -0.839520 -0.366760
v 3.921180 -0.898920 -0.305240
v 3.912840 -0.948100 -0.229960
v 3.907180 -0.985180 -0.143820
v 3.904460 -1.008720 -0.050100
v 4.081160 -0.424780 -0.362140
v 4.083700 -0.506880 0.516720
v 4.094160 -0.367600 -0.298980
v 4.069540 -0.579540 0.544240
v 4.105280 -0.321100 -0.222360
v 4.054460 -0.654740 0.552820
v 4.114100 -0.287100 -0.135220
v 4.039020 -0.729620 0.542140
v 4.120260 -0.266880 -0.040880
v 4.023820 -0.801280 0.512600
v 4.123560 -0.261220 0.057000
v 4.009440 -0.866960 0.465360
v 4.123840 -0.270340 0.154680
v 3.996460 -0.924140 0.402200
v 4.121100 -0.293900 0.248400
v 3.985340 -0.970640 0.325580
v 4.115440 -0.330980 0.334540
v 3.976520 -1.004640 0.238440
v 4.107100 -0.380160 0.409840
v 3.970360 -1.024860 0.144100
v 3.967060 -1.030520 0.046220
v 4.096380 -0.439560 0.471340
v 4.066800 -0.490460 -0.409380
v 4.051600 -0.562120 -0.438920
v 4.036160 -0.636980 -0.449600
v 4.021060 -0.712180 -0.441020
v 4.006920 -0.784860 -0.413520
v 3.994240 -0.852180 -0.368120
v 3.983520 -0.911580 -0.306620
v 3.975160 -0.960760 -0.231340
v 3.969520 -0.997840 -0.145180
v 3.966780 -1.021380 -0.051460
v 4.189040 -1.075600 0.041360
v 4.276440 -0.699840 0.547960
v 4.261000 -0.774720 0.537280
v 4.245800 -0.846360 0.507760
v 4.231420 -0.912040 0.460500
v 4.218420 -0.969220 0.397360
v 4.207300 -1.015720 0.320720
v 4.198500 -1.049720 0.233580
v 4.192320 -1.069960 0.139240
v 4.273560 -0.607200 -0.443760
v 4.258120 -0.682060 -0.454460
v 4.243040 -0.757280 -0.445880
v 4.228880 -0.829940 -0.418360
v 4.216200 -0.897260 -0.372980
v 4.205480 -0.956660 -0.311460
v 4.197140 -1.005840 -0.236180
v 4.191500 -1.042920 -0.150020
v 4.188760 -1.066480 -0.056320
v 4.057360 -0.363680 -0.528820
v 4.060700 -0.471820 0.628660
v 4.074460 -0.288360 -0.445660
v 4.042040 -0.567520 0.664880
v 4.089100 -0.227140 -0.344740
v 4.022180 -0.666560 0.676180
v 4.100720 -0.182360 -0.229960
v 4.001840 -0.765160 0.662120
v 4.108840 -0.155720 -0.105720
v 3.981820 -0.859540 0.623220
v 4.113160 -0.148260 0.023180
v 3.962900 -0.946040 0.561000
v 4.113540 -0.160300 0.151820
v 3.945780 -1.021340 0.477820
v 4.109940 -0.191320 0.275260
v 3.931140 -1.082580 0.376900
v 4.102500 -0.240160 0.388720
v 3.919540 -1.127360 0.262140
v 4.091520 -0.304920 0.487860
v 3.911420 -1.154000 0.137900
v 3.907080 -1.161440 0.008980
v 4.077400 -0.383160 0.568880
v 4.038420 -0.450200 -0.591040
v 4.018400 -0.544560 -0.629940
v 3.998080 -0.643160 -0.644020
v 3.978200 -0.742200 -0.632720
v 3.959560 -0.837900 -0.596480
v 3.942860 -0.926560 -0.536720
v 3.928740 -1.004800 -0.455700
v 3.917740 -1.069560 -0.356560
v 3.910320 -1.118400 -0.243080
v 3.906700 -1.149420 -0.119660
v 4.199420 -1.220820 0.002600
v 4.349700 -0.423060 -0.535220
v 4.353040 -0.531200 0.622260
v 4.366800 -0.347740 -0.452040
v 4.334380 -0.626880 0.658500
v 4.381440 -0.286520 -0.351140
v 4.314520 -0.725940 0.669800
v 4.294180 -0.824540 0.655720
v 4.274160 -0.918920 0.616820
v 4.255240 -1.005420 0.554600
v 4.238120 -1.080720 0.471440
v 4.223480 -1.141940 0.370520
v 4.211880 -1.186740 0.255740
v 4.383860 -0.364300 0.481480
v 4.203760 -1.213380 0.131500
v 4.369740 -0.442520 0.562500
v 4.330760 -0.509560 -0.597440
v 4.310740 -0.603940 -0.636340
v 4.290420 -0.702540 -0.650400
v 4.270540 -0.801580 -0.639100
v 4.251900 -0.897280 -0.602880
v 4.235200 -0.985940 -0.543100
v 4.221080 -1.064160 -0.462080
v 4.210080 -1.128940 -0.362940
v 4.202640 -1.177780 -0.249480
v 4.199040 -1.208800 -0.126060
vn 0.9849 -0.0314 -0.1701
vn 0.9890 -0.0125 -0.1473
vn 0.9850 0.0001 -0.1726
vn 0.9807 0.0967 -0.1698
vn 0.9722 0.1804 -0.1495
vn 0.9664 0.1917 -0.1714
vn 0.9865 0.0696 -0.1482
vn 0.9434 0.2851 -0.1693
vn 0.8909 0.4273 -0.1539
vn 0.9282 0.3306 -0.1708
vn 0.9536 0.2606 -0.1507
vn -0.8863 -0.1507 -0.4379
vn -0.9734 -0.1967 0.1176
vn -0.8632 -0.2833 -0.4179
vn -0.8966 -0.2900 -0.3347
vn -0.9268 -0.1259 -0.3538
vn -0.9542 -0.1429 -0.2630
vn -0.9276 -0.2758 -0.2519
vn -0.9443 -0.2851 -0.1641
vn -0.9776 -0.1207 -0.1722
vn -0.9870 -0.1406 -0.0783
vn -0.9588 -0.2736 -0.0763
vn -0.9583 -0.2856 0.0123
vn -0.9925 -0.1213 0.0160
vn -0.9835 -0.1440 0.1092
vn -0.9556 -0.2767 0.1015
vn -0.9379 -0.2914 0.1884
vn -0.9708 -0.1273 0.2032
vn -0.9440 -0.1528 0.2925
vn -0.9179 -0.2852 0.2758
vn -0.8839 -0.3022 0.3570
vn -0.9133 -0.1389 0.3829
vn -0.8436 -0.1710 0.5090
vn -0.4133 -0.2938 0.8619
vn -0.5315 0.8360 0.1364
vn -0.6441 0.3238 -0.6931
vn -0.8206 -0.5614 -0.1068
vn -0.8083 -0.4866 -0.3315
vn -0.8977 -0.4018 -0.1811
vn -0.8171 -0.5334 -0.2187
vn -0.7746 -0.3165 -0.5475
vn -0.8783 -0.3039 -0.3691
vn -0.7947 -0.4155 -0.4426
vn -0.8417 -0.1106 -0.5285
vn -0.7480 -0.1863 -0.6370
vn -0.8163 0.0220 -0.5772
vn -0.7156 -0.0277 -0.6980
vn -0.6798 0.1483 -0.7182
vn -0.7882 0.1677 -0.5922
vn -0.6125 0.4808 -0.6274
vn -0.7598 0.3120 -0.5704
vn -0.7143 0.5451 -0.4389
vn -0.5863 0.6085 -0.5347
vn -0.5661 0.7049 -0.4273
vn -0.6919 0.6755 -0.2550
vn -0.5522 0.7724 -0.3139
vn -0.5421 0.8162 -0.1999
vn -0.5353 0.8402 -0.0872
vn -0.6881 0.7075 -0.1609
vn -0.5323 0.8462 0.0247
vn -0.6878 0.7227 -0.0687
vn -0.6901 0.7234 0.0215
vn -0.6999 0.6862 0.1983
vn -0.5342 0.8080 0.2483
vn -0.7074 0.6464 0.2861
vn -0.5398 0.7605 0.3610
vn -0.7177 0.5886 0.3720
vn -0.5502 0.6888 0.4722
vn -0.5662 0.5888 0.5769
vn -0.7489 0.4092 0.5212
vn -0.5886 0.4579 0.6662
vn -0.7709 0.2869 0.5687
vn -0.6181 0.2986 0.7271
vn -0.6525 0.1223 0.7479
vn -0.8210 0.0144 0.5707
vn -0.6897 -0.0529 0.7222
vn -0.8444 -0.1104 0.5242
vn -0.7247 -0.2091 0.6565
vn -0.7543 -0.3363 0.5639
vn -0.7782 -0.4314 0.4563
vn -0.8642 -0.2149 0.4550
vn -0.8910 -0.3549 0.2832
vn -0.7959 -0.4986 0.3434
vn -0.8985 -0.3951 0.1915
vn -0.8081 -0.5424 0.2296
vn -0.9026 -0.4188 0.0993
vn -0.8165 -0.5654 0.1167
vn -0.9022 -0.4225 -0.0868
vn -0.8203 -0.5720 0.0048
vn -0.9039 -0.4278 0.0066
vn -0.8899 -0.3634 -0.2759
vn -0.6992 0.3223 -0.6382
vn -0.7305 0.1586 -0.6642
vn -0.7952 -0.1544 0.5864
vn 0.9929 -0.0204 0.1174
vn 0.6303 -0.7069 -0.3210
vn 0.6344 -0.6468 -0.4233
vn -0.8682 -0.4571 -0.1929
vn -0.6699 0.5479 0.5010
vn -0.7313 0.5103 0.4526
vn 0.9910 0.0793 -0.1079
vn 0.6627 -0.7002 0.2657
vn 0.6528 -0.7384 0.1690
vn -0.9952 -0.0939 -0.0262
vn -0.9961 -0.0855 0.0207
vn -0.8580 -0.4192 -0.2969
vn 0.9735 -0.1499 0.1730
vn 0.6612 -0.4423 -0.6060
vn 0.6863 -0.2972 -0.6638
vn 0.9431 -0.1141 -0.3122
vn 0.5043 -0.0944 0.8583
vn 0.7424 -0.3152 0.5912
vn -0.6435 0.6650 -0.3791
vn -0.6549 0.5817 -0.4825
vn -0.8583 -0.4104 0.3082
vn -0.7953 -0.1526 -0.5867
vn -0.7337 0.1418 0.6646
vn -0.7957 0.1511 0.5866
vn 0.9979 0.0625 0.0196
vn 0.6383 -0.7695 -0.0229
vn 0.6333 -0.7645 -0.1200
vn -0.9901 -0.0675 -0.1234
vn 0.9789 0.0399 -0.2002
vn 0.6922 -0.5603 0.4549
vn 0.6754 -0.6424 0.3622
vn -0.9959 -0.0657 0.0629
vn -0.9944 -0.0373 0.0992
vn -0.8763 -0.4817 0.0094
vn 0.9882 -0.0593 0.1413
vn 0.6441 -0.5597 -0.5214
vn -0.6734 0.4669 -0.5732
vn -0.8797 -0.2959 0.3723
vn -0.8217 -0.2670 0.5036
vn -0.8623 -0.2203 -0.4560
vn -0.8427 -0.3588 -0.4014
vn -0.6845 0.4368 0.5837
vn -0.8219 -0.2710 -0.5010
vn -0.7639 -0.0057 -0.6453
vn 0.5217 0.1344 -0.8425
vn 0.0766 0.4719 -0.8783
vn 0.1454 0.7811 -0.6073
vn 0.1578 0.8339 -0.5288
vn -0.8909 0.4295 -0.1479
vn 0.1429 0.6206 0.7710
vn -0.9158 0.3433 0.2085
vn 0.0665 0.2228 0.9726
vn -0.7060 0.2981 0.6424
vn -0.7647 -0.0148 0.6442
vn 0.7143 -0.4507 0.5353
vn -0.8429 -0.3510 0.4079
vn -0.8686 -0.4497 0.2080
vn -0.8742 -0.4769 -0.0908
vn -0.8745 -0.4728 0.1086
vn 0.9960 0.0133 0.0887
vn 0.6303 -0.7447 -0.2193
vn 0.9698 0.0015 -0.2440
vn 0.9632 -0.1999 0.1796
vn 0.9577 -0.2234 0.1811
vn -0.9932 -0.0883 -0.0754
vn 0.9946 0.0827 -0.0630
vn 0.6448 -0.7609 0.0730
vn -0.7344 0.4408 -0.5161
vn 0.9818 -0.1027 0.1600
vn 0.9859 0.0656 -0.1541
vn 0.9968 0.0767 -0.0203
vn -0.7002 0.6227 -0.3492
vn 0.9580 -0.0502 -0.2825
vn 0.7184 -0.1357 -0.6823
vn -0.6942 0.7113 0.1102
vn 0.9976 0.0411 0.0560
vn 0.8010 -0.3155 -0.5087
vn 0.7600 -0.6476 -0.0540
vn 0.6091 -0.7001 -0.3726
vn 0.4432 -0.1174 -0.8887
vn 0.2258 -0.9500 -0.2158
vn 0.4563 -0.4897 -0.7429
vn 0.2160 -0.9761 -0.0255
vn -0.0450 0.0301 -0.9985
vn -0.0178 -0.2001 -0.9796
vn -0.0747 -0.1778 -0.9812
vn -0.4642 0.1284 -0.8764
vn -0.2852 -0.6971 -0.6578
vn -0.5088 -0.2242 -0.8312
vn -0.0932 -0.7230 -0.6845
vn -0.1619 -0.7069 -0.6886
vn 0.0161 -0.2404 0.9705
vn -0.0140 -0.0162 0.9998
vn -0.0453 -0.2324 0.9716
vn 0.3615 -0.4847 0.7965
vn 0.0447 -0.0300 0.9985
vn 0.0825 -0.7853 0.6136
vn -0.0459 -0.7548 0.6544
vn -0.1968 -0.9617 -0.1907
vn -0.1382 -0.9901 -0.0225
vn -0.2047 -0.9785 -0.0261
vn -0.1321 -0.9721 -0.1936
vn -0.4286 -0.8398 -0.3331
vn 0.1394 0.9785 -0.1517
vn 0.2076 0.9779 0.0235
vn 0.2104 0.9679 -0.1378
vn 0.1823 0.7320 -0.6564
vn 0.4364 0.6599 -0.6116
vn 0.4781 0.8358 -0.2701
vn 0.7335 -0.6010 0.3176
vn 0.4545 -0.1278 0.8815
vn 0.9728 -0.2140 0.0889
vn 0.8577 -0.2218 0.4638
vn 0.1798 -0.9612 0.2090
vn 0.5180 0.8056 0.2876
vn 0.5004 0.2312 0.8344
vn 0.8142 0.3553 0.4592
vn 0.5459 0.8378 0.0028
vn 0.7654 0.4183 -0.4891
vn 0.7900 0.6090 0.0712
vn 0.5089 0.2746 -0.8159
vn 0.0591 -0.0041 -0.9982
vn 0.0469 -0.2097 -0.9766
vn 0.0140 0.0162 -0.9998
vn -0.0277 -0.7342 -0.6784
vn 0.1427 -0.7683 -0.6240
vn 0.0980 0.2202 -0.9705
vn 0.1130 0.7457 -0.6566
vn 0.0453 0.2324 -0.9716
vn 0.0459 0.7549 -0.6543
vn -0.0163 0.2404 -0.9705
vn -0.0643 0.7824 -0.6195
vn -0.3680 0.4630 -0.8064
vn -0.7546 0.1934 -0.6271
vn -0.7591 -0.1187 -0.6401
vn -0.2323 0.9444 -0.2325
vn -0.6282 0.6633 -0.4066
vn -0.2524 0.9676 -0.0021
vn -0.2551 0.9409 0.2226
vn -0.5017 0.8648 -0.0183
vn -0.6520 0.6634 0.3671
vn -0.4024 0.4440 0.8006
vn -0.3769 0.0880 0.9220
vn -0.1043 -0.2113 0.9718
vn -0.1375 -0.1564 0.9781
vn -0.0743 -0.0021 0.9972
vn -0.1129 -0.7456 0.6568
vn -0.2256 -0.7258 0.6499
vn -0.1824 -0.7318 0.6566
vn -0.0449 0.2105 0.9766
vn -0.0828 0.7643 0.6395
vn 0.0178 0.2001 0.9796
vn 0.0277 0.7342 0.6784
vn 0.0745 0.1779 0.9812
vn 0.0932 0.7231 0.6845
vn 0.2837 0.6978 0.6577
vn 0.1618 0.7070 0.6885
vn -0.1394 -0.9785 0.1520
vn -0.2044 -0.9687 0.1408
vn -0.2534 -0.9670 -0.0278
vn -0.2493 -0.9628 0.1047
vn -0.0796 -0.9859 0.1475
vn -0.0783 -0.9968 -0.0178
vn -0.0757 -0.9803 -0.1823
vn 0.1321 0.9722 0.1936
vn 0.1965 0.9618 0.1905
vn 0.1382 0.9901 0.0225
vn 0.0728 0.9809 0.1806
vn 0.0751 0.9970 0.0188
vn 0.0784 0.9860 -0.1469
vn 0.9832 0.1114 -0.1449
vn -0.8661 -0.1329 -0.4819
vn 0.9348 -0.1466 -0.3236
vn 0.1151 0.6477 -0.7532
vn 0.1568 0.6967 0.7000
vn 0.1090 0.4405 0.8911
vn -0.8038 0.1807 0.5668
vt 0.572616 0.769916
vt 0.571508 0.771072
vt 0.572672 0.771020
vt 0.572619 0.772123
vt 0.571319 0.773020
vt 0.572459 0.773216
vt 0.569968 0.771919
vt 0.572192 0.774289
vt 0.570754 0.774894
vt 0.571821 0.775330
vt 0.569648 0.773544
vt 0.675218 0.756233
vt 0.676133 0.751498
vt 0.676765 0.749769
vt 0.675253 0.751607
vt 0.674769 0.756287
vt 0.674420 0.756324
vt 0.676167 0.749838
vt 0.674726 0.751660
vt 0.674174 0.756346
vt 0.674034 0.756351
vt 0.675877 0.749858
vt 0.674572 0.751655
vt 0.674001 0.756340
vt 0.674075 0.756312
vt 0.675907 0.749829
vt 0.674797 0.751591
vt 0.674255 0.756268
vt 0.674540 0.756209
vt 0.676256 0.749751
vt 0.675393 0.751472
vt 0.674927 0.756134
vt 0.675412 0.756045
vt 0.676910 0.749628
vt 0.669852 0.767181
vt 0.668160 0.760347
vt 0.666173 0.749589
vt 0.666370 0.751009
vt 0.674175 0.748528
vt 0.666237 0.750141
vt 0.666816 0.753552
vt 0.674503 0.750549
vt 0.666565 0.752161
vt 0.675051 0.753517
vt 0.667113 0.755129
vt 0.675382 0.755219
vt 0.667445 0.756832
vt 0.667798 0.758593
vt 0.675736 0.756981
vt 0.668516 0.762025
vt 0.676097 0.758735
vt 0.676790 0.761952
vt 0.668853 0.763564
vt 0.669157 0.764903
vt 0.677355 0.764380
vt 0.669417 0.765992
vt 0.669624 0.766789
vt 0.669768 0.767262
vt 0.677561 0.765177
vt 0.669845 0.767395
vt 0.677706 0.765650
vt 0.677783 0.765783
vt 0.677725 0.765017
vt 0.669788 0.766629
vt 0.677593 0.764148
vt 0.669656 0.765761
vt 0.677398 0.762997
vt 0.669460 0.764609
vt 0.669209 0.763217
vt 0.676850 0.760028
vt 0.668912 0.761640
vt 0.676518 0.758326
vt 0.668580 0.759939
vt 0.668227 0.758177
vt 0.675803 0.754811
vt 0.667865 0.756423
vt 0.675447 0.753133
vt 0.667509 0.754745
vt 0.667173 0.753206
vt 0.666868 0.751867
vt 0.675110 0.751594
vt 0.674545 0.749166
vt 0.666608 0.750778
vt 0.674339 0.748369
vt 0.666402 0.749981
vt 0.674195 0.747895
vt 0.666257 0.749508
vt 0.674111 0.747977
vt 0.666180 0.749375
vt 0.674118 0.747763
vt 0.674307 0.749397
vt 0.678471 0.749743
vt 0.678276 0.748591
vt 0.677147 0.761605
vt 0.678308 0.747563
vt 0.678514 0.748360
vt 0.677790 0.765569
vt 0.679351 0.754413
vt 0.679020 0.752711
vt 0.679772 0.754005
vt 0.680133 0.755759
vt 0.677095 0.763291
vt 0.676165 0.756565
vt 0.678080 0.747171
vt 0.678086 0.746957
vt 0.678775 0.749449
vt 0.679079 0.750788
vt 0.678723 0.751134
vt 0.676453 0.760413
vt 0.674806 0.750255
vt 0.674754 0.751940
vt 0.680066 0.757929
vt 0.680422 0.759607
vt 0.681063 0.762485
vt 0.681324 0.763574
vt 0.681115 0.760799
vt 0.680487 0.757520
vt 0.679416 0.752326
vt 0.678144 0.747722
vt 0.679705 0.756175
vt 0.678163 0.747089
vt 0.675502 0.755865
vt 0.673252 0.749092
vt 0.673815 0.749297
vt 0.669717 0.756959
vt 0.665924 0.745172
vt 0.667619 0.750488
vt 0.665764 0.744849
vt 0.596555 0.767278
vt 0.621560 0.756841
vt 0.595143 0.760610
vt 0.576630 0.770066
vt 0.579420 0.758899
vt 0.575284 0.763458
vt 0.620034 0.751589
vt 0.593976 0.755415
vt 0.645939 0.752819
vt 0.621178 0.763122
vt 0.619480 0.756426
vt 0.665922 0.750127
vt 0.647944 0.759390
vt 0.659781 0.747101
vt 0.644460 0.747761
vt 0.592757 0.753213
vt 0.618467 0.748722
vt 0.591837 0.752863
vt 0.619093 0.749199
vt 0.573589 0.758142
vt 0.626427 0.777615
vt 0.652641 0.773805
vt 0.652750 0.773599
vt 0.652221 0.771613
vt 0.666593 0.768097
vt 0.671988 0.768663
vt 0.672785 0.749153
vt 0.667991 0.756595
vt 0.674617 0.755758
vt 0.674460 0.755719
vt 0.664907 0.745029
vt 0.670970 0.768521
vt 0.669297 0.763205
vt 0.676203 0.762392
vt 0.671922 0.768704
vt 0.677232 0.762536
vt 0.676711 0.762492
vt 0.670995 0.763565
vt 0.650025 0.759804
vt 0.647969 0.753226
vt 0.623321 0.763545
vt 0.646157 0.748121
vt 0.661259 0.747431
vt 0.651386 0.766465
vt 0.626191 0.775444
vt 0.625019 0.770241
vt 0.600039 0.778907
vt 0.598561 0.773849
vt 0.584754 0.779565
vt 0.578659 0.776536
vt 0.570507 0.770920
vt 0.568601 0.764256
vt 0.579652 0.781633
vt 0.572018 0.777496
vt 0.578835 0.781811
vt 0.578635 0.781491
vt 0.571715 0.777547
vt 0.570988 0.777352
vt 0.576962 0.776175
vt 0.574905 0.769701
vt 0.593113 0.760203
vt 0.573586 0.763097
vt 0.594474 0.766864
vt 0.618308 0.751224
vt 0.577943 0.758569
vt 0.592278 0.755055
vt 0.596530 0.773442
vt 0.583277 0.779235
vt 0.622939 0.769827
vt 0.598342 0.778546
vt 0.649356 0.766058
vt 0.624465 0.775079
vt 0.665115 0.767767
vt 0.650523 0.771252
vt 0.618050 0.749053
vt 0.591727 0.753069
vt 0.572678 0.757956
vt 0.572571 0.758000
vt 0.644553 0.745685
vt 0.645306 0.745389
vt 0.645583 0.745829
vt 0.625385 0.777469
vt 0.651721 0.773455
vt 0.626010 0.777946
vt 0.598895 0.780839
vt 0.599171 0.781279
vt 0.599925 0.780983
vt 0.569966 0.770264
vt 0.675762 0.756163
vt 0.680759 0.761145
vt 0.681366 0.762190
vt 0.680818 0.759222
vt 0.569464 0.770774
s 1
usemtl joints.001
f 1/1/1 98/2/2 34/3/3
f 2/4/4 100/5/5 37/6/6
f 2/4/4 98/2/2 38/7/7
f 3/8/8 99/9/9 35/10/10
f 3/8/8 100/5/5 36/11/11
f 27/12/12 126/13/13 87/14/14
f 27/12/12 127/15/15 88/16/16
f 28/17/17 127/15/15 89/18/18
f 28/17/17 128/19/19 90/20/20
f 29/21/21 128/19/19 91/22/22
f 29/21/21 129/23/23 92/24/24
f 30/25/25 129/23/23 93/26/26
f 30/25/25 130/27/27 94/28/28
f 31/29/29 130/27/27 95/30/30
f 31/29/29 131/31/31 96/32/32
f 32/33/33 131/31/31 97/34/34
f 147/35/35 155/36/36 163/37/37
f 161/38/38 194/39/39 162/40/40
f 159/41/41 192/42/42 160/43/43
f 190/44/44 159/41/41 158/45/45
f 189/46/46 158/45/45 157/47/47
f 156/48/48 189/46/46 157/47/47
f 155/36/36 188/49/49 156/48/48
f 154/50/50 187/51/51 155/36/36
f 164/52/52 154/50/50 153/53/53
f 152/54/54 164/52/52 153/53/53
f 168/55/55 152/54/54 151/56/56
f 150/57/57 168/55/55 151/56/56
f 149/58/58 170/59/59 150/57/57
f 148/60/60 172/61/61 149/58/58
f 147/35/35 174/62/62 148/60/60
f 178/63/63 147/35/35 146/64/64
f 180/65/65 146/64/64 145/66/66
f 182/67/67 145/66/66 144/68/68
f 143/69/69 182/67/67 144/68/68
f 165/70/70 143/69/69 142/71/71
f 167/72/72 142/71/71 141/73/73
f 140/74/74 167/72/72 141/73/73
f 171/75/75 140/74/74 139/76/76
f 173/77/77 139/76/76 138/78/78
f 137/79/79 173/77/77 138/78/78
f 136/80/80 175/81/81 137/79/79
f 179/82/82 136/80/80 135/83/83
f 181/84/84 135/83/83 134/85/85
f 194/39/39 163/37/37 162/40/40
f 183/86/86 134/85/85 133/87/87
f 195/88/88 132/89/89 163/37/37
f 184/90/90 133/87/87 132/89/89
f 160/43/43 193/91/91 161/38/38
f 188/49/49 237/51/92 238/49/93
f 175/81/81 223/77/94 173/77/77
f 210/92/95 269/93/96 268/92/97
f 193/91/91 244/39/98 194/39/39
f 165/70/70 235/94/99 185/94/100
f 203/95/101 257/96/102 258/95/103
f 174/62/62 226/97/104 224/62/105
f 192/42/42 243/91/106 193/91/91
f 207/98/107 266/99/108 265/98/109
f 198/100/110 252/101/111 253/100/112
f 164/52/52 216/102/113 214/52/114
f 181/84/84 229/82/115 179/82/82
f 189/46/46 240/44/116 190/44/44
f 171/75/75 219/103/117 169/103/118
f 213/104/119 246/105/120 271/104/121
f 182/67/67 230/65/122 180/65/65
f 201/106/123 255/107/124 256/106/125
f 170/59/59 222/61/126 220/59/127
f 195/88/88 234/90/128 184/90/90
f 209/108/129 268/92/97 267/108/130
f 187/51/51 236/109/131 237/51/92
f 177/110/132 225/81/133 175/81/81
f 191/111/134 242/42/135 192/42/42
f 167/72/72 215/70/136 165/70/70
f 269/93/96 244/39/98 243/91/106
f 241/111/137 268/92/97 242/42/135
f 266/99/108 241/111/137 240/44/116
f 265/98/109 240/44/116 239/46/138
f 238/49/93 265/98/109 239/46/138
f 263/112/139 238/49/93 237/51/92
f 236/109/131 263/112/139 237/51/92
f 214/52/114 262/113/140 236/109/131
f 249/114/141 214/52/114 216/102/113
f 251/115/142 216/102/113 218/55/143
f 261/116/144 232/67/145 235/94/99
f 215/70/136 261/116/144 235/94/99
f 250/117/146 215/70/136 217/72/147
f 219/103/117 250/117/146 217/72/147
f 253/100/112 219/103/117 221/75/148
f 223/77/94 253/100/112 221/75/148
f 225/81/133 254/118/149 223/77/94
f 256/106/125 225/81/133 227/110/150
f 257/96/102 227/110/150 229/82/115
f 231/84/151 257/96/102 229/82/115
f 244/39/98 271/104/121 245/88/152
f 233/86/153 258/95/103 231/84/151
f 271/104/121 234/90/128 245/88/152
f 246/105/120 233/86/153 234/90/128
f 242/42/135 269/93/96 243/91/106
f 211/93/154 270/119/155 269/93/96
f 183/86/86 231/84/151 181/84/84
f 168/55/55 220/59/127 218/55/143
f 200/107/156 254/118/149 255/107/124
f 206/120/157 263/112/139 205/112/158
f 178/63/63 230/65/122 228/63/159
f 204/121/160 258/95/103 260/121/161
f 169/103/118 217/72/147 167/72/72
f 190/44/44 241/111/137 191/111/134
f 179/82/82 227/110/150 177/110/132
f 186/109/162 214/52/114 236/109/131
f 208/99/163 267/108/130 266/99/108
f 184/90/90 233/86/153 183/86/86
f 172/61/61 224/62/105 222/61/126
f 202/96/164 256/106/125 257/96/102
f 185/94/100 232/67/145 182/67/67
f 196/105/165 260/121/161 246/105/120
f 173/77/77 221/75/148 171/75/75
f 189/46/46 238/49/93 239/46/138
f 194/39/39 245/88/152 195/88/88
f 166/102/166 218/55/143 216/102/113
f 199/118/167 253/100/112 254/118/149
f 207/98/107 264/120/168 206/120/157
f 176/97/169 228/63/159 226/97/104
f 212/119/170 271/104/121 270/119/155
f 1/1/1 33/216/265 98/2/2
f 2/4/4 38/7/7 100/5/5
f 2/4/4 34/3/3 98/2/2
f 3/8/8 36/11/11 99/9/9
f 3/8/8 37/6/6 100/5/5
f 27/12/12 86/217/266 126/13/13
f 27/12/12 87/14/14 127/15/15
f 28/17/17 88/16/16 127/15/15
f 28/17/17 89/18/18 128/19/19
f 29/21/21 90/20/20 128/19/19
f 29/21/21 91/22/22 129/23/23
f 30/25/25 92/24/24 129/23/23
f 30/25/25 93/26/26 130/27/27
f 31/29/29 94/28/28 130/27/27
f 31/29/29 95/30/30 131/31/31
f 32/33/33 96/32/32 131/31/31
f 163/37/37 132/89/89 133/87/87
f 133/87/87 134/85/85 135/83/83
f 135/83/83 136/80/80 137/79/79
f 137/79/79 138/78/78 139/76/76
f 139/76/76 140/74/74 141/73/73
f 141/73/73 142/71/71 143/69/69
f 143/69/69 144/68/68 145/66/66
f 145/66/66 146/64/64 147/35/35
f 147/35/35 148/60/60 149/58/58
f 149/58/58 150/57/57 151/56/56
f 151/56/56 152/54/54 153/53/53
f 153/53/53 154/50/50 155/36/36
f 155/36/36 156/48/48 157/47/47
f 157/47/47 158/45/45 159/41/41
f 159/41/41 160/43/43 161/38/38
f 161/38/38 162/40/40 163/37/37
f 163/37/37 133/87/87 135/83/83
f 135/83/83 137/79/79 139/76/76
f 139/76/76 141/73/73 143/69/69
f 143/69/69 145/66/66 147/35/35
f 147/35/35 149/58/58 151/56/56
f 151/56/56 153/53/53 155/36/36
f 155/36/36 157/47/47 159/41/41
f 159/41/41 161/38/38 163/37/37
f 163/37/37 135/83/83 139/76/76
f 139/76/76 143/69/69 147/35/35
f 147/35/35 151/56/56 155/36/36
f 155/36/36 159/41/41 163/37/37
f 163/37/37 139/76/76 147/35/35
f 161/38/38 193/91/91 194/39/39
f 159/41/41 191/111/134 192/42/42
f 190/44/44 191/111/134 159/41/41
f 189/46/46 190/44/44 158/45/45
f 156/48/48 188/49/49 189/46/46
f 155/36/36 187/51/51 188/49/49
f 154/50/50 186/109/162 187/51/51
f 164/52/52 186/109/162 154/50/50
f 152/54/54 166/102/166 164/52/52
f 168/55/55 166/102/166 152/54/54
f 150/57/57 170/59/59 168/55/55
f 149/58/58 172/61/61 170/59/59
f 148/60/60 174/62/62 172/61/61
f 147/35/35 176/97/169 174/62/62
f 178/63/63 176/97/169 147/35/35
f 180/65/65 178/63/63 146/64/64
f 182/67/67 180/65/65 145/66/66
f 143/69/69 185/94/100 182/67/67
f 165/70/70 185/94/100 143/69/69
f 167/72/72 165/70/70 142/71/71
f 140/74/74 169/103/118 167/72/72
f 171/75/75 169/103/118 140/74/74
f 173/77/77 171/75/75 139/76/76
f 137/79/79 175/81/81 173/77/77
f 136/80/80 177/110/132 175/81/81
f 179/82/82 177/110/132 136/80/80
f 181/84/84 179/82/82 135/83/83
f 194/39/39 195/88/88 163/37/37
f 183/86/86 181/84/84 134/85/85
f 195/88/88 184/90/90 132/89/89
f 184/90/90 183/86/86 133/87/87
f 160/43/43 192/42/42 193/91/91
f 188/49/49 187/51/51 237/51/92
f 175/81/81 225/81/133 223/77/94
f 210/92/95 211/93/154 269/93/96
f 193/91/91 243/91/106 244/39/98
f 165/70/70 215/70/136 235/94/99
f 203/95/101 202/96/164 257/96/102
f 174/62/62 176/97/169 226/97/104
f 192/42/42 242/42/135 243/91/106
f 207/98/107 208/99/163 266/99/108
f 198/100/110 197/101/267 252/101/111
f 164/52/52 166/102/166 216/102/113
f 181/84/84 231/84/151 229/82/115
f 189/46/46 239/46/138 240/44/116
f 171/75/75 221/75/148 219/103/117
f 213/104/119 196/105/165 246/105/120
f 182/67/67 232/67/145 230/65/122
f 201/106/123 200/107/156 255/107/124
f 170/59/59 172/61/61 222/61/126
f 195/88/88 245/88/152 234/90/128
f 209/108/129 210/92/95 268/92/97
f 187/51/51 186/109/162 236/109/131
f 177/110/132 227/110/150 225/81/133
f 191/111/134 241/111/137 242/42/135
f 167/72/72 217/72/147 215/70/136
f 269/93/96 270/119/155 244/39/98
f 241/111/137 267/108/130 268/92/97
f 266/99/108 267/108/130 241/111/137
f 265/98/109 266/99/108 240/44/116
f 238/49/93 264/120/168 265/98/109
f 263/112/139 264/120/168 238/49/93
f 236/109/131 262/113/140 263/112/139
f 214/52/114 247/218/268 262/113/140
f 249/114/141 247/218/268 214/52/114
f 251/115/142 249/114/141 216/102/113
f 261/116/144 259/219/269 232/67/145
f 215/70/136 248/220/270 261/116/144
f 250/117/146 248/220/270 215/70/136
f 219/103/117 252/101/111 250/117/146
f 253/100/112 252/101/111 219/103/117
f 223/77/94 254/118/149 253/100/112
f 225/81/133 255/107/124 254/118/149
f 256/106/125 255/107/124 225/81/133
f 257/96/102 256/106/125 227/110/150
f 231/84/151 258/95/103 257/96/102
f 244/39/98 270/119/155 271/104/121
f 233/86/153 260/121/161 258/95/103
f 271/104/121 246/105/120 234/90/128
f 246/105/120 260/121/161 233/86/153
f 242/42/135 268/92/97 269/93/96
f 211/93/154 212/119/170 270/119/155
f 183/86/86 233/86/153 231/84/151
f 168/55/55 170/59/59 220/59/127
f 200/107/156 199/118/167 254/118/149
f 206/120/157 264/120/168 263/112/139
f 178/63/63 180/65/65 230/65/122
f 204/121/160 203/95/101 258/95/103
f 169/103/118 219/103/117 217/72/147
f 190/44/44 240/44/116 241/111/137
f 179/82/82 229/82/115 227/110/150
f 186/109/162 164/52/52 214/52/114
f 208/99/163 209/108/129 267/108/130
f 184/90/90 234/90/128 233/86/153
f 172/61/61 174/62/62 224/62/105
f 202/96/164 201/106/123 256/106/125
f 185/94/100 235/94/99 232/67/145
f 196/105/165 204/121/160 260/121/161
f 173/77/77 223/77/94 221/75/148
f 189/46/46 188/49/49 238/49/93
f 194/39/39 244/39/98 245/88/152
f 166/102/166 168/55/55 218/55/143
f 199/118/167 198/100/110 253/100/112
f 207/98/107 265/98/109 264/120/168
f 176/97/169 178/63/63 228/63/159
f 212/119/170 213/104/119 271/104/121
usemtl limbs.002
f 66/122/171 63/123/172 4/124/173
f 4/124/173 110/125/174 66/122/171
f 53/126/175 40/127/176 4/124/173
f 4/124/173 111/128/177 53/126/175
f 70/129/178 67/130/179 5/131/180
f 5/131/180 114/132/181 70/129/178
f 5/131/180 103/133/182 44/134/183
f 5/131/180 115/135/184 57/136/185
f 6/137/186 123/138/187 74/139/188
f 54/140/189 77/141/190 6/137/186
f 6/137/186 101/142/191 54/140/189
f 74/139/188 62/143/192 6/137/186
f 7/144/193 124/145/194 78/146/195
f 57/136/185 81/147/196 7/144/193
f 7/144/193 103/133/182 57/136/185
f 78/146/195 48/148/197 7/144/193
f 85/149/198 82/150/199 8/151/200
f 55/152/201 85/149/198 8/151/200
f 8/151/200 106/153/202 55/152/201
f 82/150/199 39/154/203 8/151/200
f 9/155/204 112/156/205 54/140/189
f 9/155/204 121/157/206 65/158/207
f 9/155/204 111/128/177 63/123/172
f 54/140/189 41/159/208 9/155/204
f 51/160/209 42/161/210 10/162/211
f 10/162/211 109/163/212 51/160/209
f 42/161/210 65/158/207 10/162/211
f 11/164/213 109/163/212 64/165/214
f 52/166/215 39/154/203 11/164/213
f 66/122/171 52/166/215 11/164/213
f 69/167/216 40/127/176 12/168/217
f 12/168/217 122/169/218 69/167/216
f 45/170/219 67/130/179 12/168/217
f 12/168/217 102/171/220 45/170/219
f 13/172/221 106/153/202 52/166/215
f 13/172/221 113/173/222 55/152/201
f 69/167/216 68/174/223 13/172/221
f 13/172/221 110/125/174 69/167/216
f 43/175/224 68/174/223 14/176/225
f 14/176/225 107/177/226 43/175/224
f 70/129/178 56/178/227 14/176/225
f 14/176/225 122/169/218 70/129/178
f 72/179/228 44/134/183 15/180/229
f 44/134/183 48/148/197 15/180/229
f 58/181/230 56/178/227 16/182/231
f 16/182/231 116/183/232 58/181/230
f 16/182/231 114/132/181 72/179/228
f 46/184/233 71/185/234 17/186/235
f 59/187/236 46/184/233 17/186/235
f 17/186/235 117/188/237 59/187/236
f 18/189/238 117/188/237 47/190/239
f 74/139/188 76/191/240 18/189/238
f 18/189/238 120/192/241 74/139/188
f 18/189/238 104/193/242 50/194/243
f 19/195/244 108/196/245 59/187/236
f 75/197/246 61/198/247 19/195/244
f 19/195/244 123/138/187 75/197/246
f 59/187/236 76/191/240 19/195/244
f 20/199/248 119/200/249 75/197/246
f 20/199/248 105/201/250 49/202/251
f 20/199/248 112/156/205 42/161/210
f 75/197/246 77/141/190 20/199/248
f 80/203/252 50/194/243 21/204/253
f 78/146/195 80/203/252 21/204/253
f 21/204/253 118/205/254 78/146/195
f 21/204/253 104/193/242 60/206/255
f 22/207/256 101/142/191 62/143/192
f 79/208/257 41/159/208 22/207/256
f 22/207/256 124/145/194 79/208/257
f 62/143/192 80/203/252 22/207/256
f 53/126/175 79/208/257 23/209/258
f 23/209/258 102/171/220 53/126/175
f 23/209/258 115/135/184 45/170/219
f 79/208/257 81/147/196 23/209/258
f 84/210/259 49/202/251 24/211/260
f 24/211/260 125/212/261 84/210/259
f 51/160/209 82/150/199 24/211/260
f 24/211/260 105/201/250 51/160/209
f 25/213/262 108/196/245 61/198/247
f 25/213/262 116/183/232 46/184/233
f 84/210/259 83/214/263 25/213/262
f 25/213/262 119/200/249 84/210/259
f 58/181/230 83/214/263 26/215/264
f 26/215/264 107/177/226 58/181/230
f 85/149/198 43/175/224 26/215/264
f 26/215/264 125/212/261 85/149/198
f 66/122/171 121/157/206 63/123/172
f 4/124/173 40/127/176 110/125/174
f 53/126/175 102/171/220 40/127/176
f 4/124/173 63/123/172 111/128/177
f 70/129/178 122/169/218 67/130/179
f 5/131/180 44/134/183 114/132/181
f 5/131/180 57/136/185 103/133/182
f 5/131/180 67/130/179 115/135/184
f 6/137/186 77/141/190 123/138/187
f 54/140/189 112/156/205 77/141/190
f 6/137/186 62/143/192 101/142/191
f 74/139/188 120/192/241 62/143/192
f 7/144/193 81/147/196 124/145/194
f 57/136/185 115/135/184 81/147/196
f 7/144/193 48/148/197 103/133/182
f 78/146/195 118/205/254 48/148/197
f 85/149/198 125/212/261 82/150/199
f 55/152/201 113/173/222 85/149/198
f 8/151/200 39/154/203 106/153/202
f 82/150/199 109/163/212 39/154/203
f 9/155/204 65/158/207 112/156/205
f 9/155/204 63/123/172 121/157/206
f 9/155/204 41/159/208 111/128/177
f 54/140/189 101/142/191 41/159/208
f 51/160/209 105/201/250 42/161/210
f 10/162/211 64/165/214 109/163/212
f 42/161/210 112/156/205 65/158/207
f 11/164/213 39/154/203 109/163/212
f 52/166/215 106/153/202 39/154/203
f 66/122/171 110/125/174 52/166/215
f 69/167/216 110/125/174 40/127/176
f 12/168/217 67/130/179 122/169/218
f 45/170/219 115/135/184 67/130/179
f 12/168/217 40/127/176 102/171/220
f 13/172/221 55/152/201 106/153/202
f 13/172/221 68/174/223 113/173/222
f 69/167/216 122/169/218 68/174/223
f 13/172/221 52/166/215 110/125/174
f 43/175/224 113/173/222 68/174/223
f 14/176/225 56/178/227 107/177/226
f 70/129/178 114/132/181 56/178/227
f 14/176/225 68/174/223 122/169/218
f 72/179/228 114/132/181 44/134/183
f 44/134/183 103/133/182 48/148/197
f 58/181/230 107/177/226 56/178/227
f 16/182/231 71/185/234 116/183/232
f 16/182/231 56/178/227 114/132/181
f 46/184/233 116/183/232 71/185/234
f 59/187/236 108/196/245 46/184/233
f 17/186/235 73/221/271 117/188/237
f 18/189/238 76/191/240 117/188/237
f 74/139/188 123/138/187 76/191/240
f 18/189/238 50/194/243 120/192/241
f 18/189/238 47/190/239 104/193/242
f 19/195/244 61/198/247 108/196/245
f 75/197/246 119/200/249 61/198/247
f 19/195/244 76/191/240 123/138/187
f 59/187/236 117/188/237 76/191/240
f 20/199/248 49/202/251 119/200/249
f 20/199/248 42/161/210 105/201/250
f 20/199/248 77/141/190 112/156/205
f 75/197/246 123/138/187 77/141/190
f 80/203/252 120/192/241 50/194/243
f 78/146/195 124/145/194 80/203/252
f 21/204/253 60/206/255 118/205/254
f 21/204/253 50/194/243 104/193/242
f 22/207/256 41/159/208 101/142/191
f 79/208/257 111/128/177 41/159/208
f 22/207/256 80/203/252 124/145/194
f 62/143/192 120/192/241 80/203/252
f 53/126/175 111/128/177 79/208/257
f 23/209/258 45/170/219 102/171/220
f 23/209/258 81/147/196 115/135/184
f 79/208/257 124/145/194 81/147/196
f 84/210/259 119/200/249 49/202/251
f 24/211/260 82/150/199 125/212/261
f 51/160/209 109/163/212 82/150/199
f 24/211/260 49/202/251 105/201/250
f 25/213/262 46/184/233 108/196/245
f 25/213/262 83/214/263 116/183/232
f 84/210/259 125/212/261 83/214/263
f 25/213/262 61/198/247 119/200/249
f 58/181/230 116/183/232 83/214/263
f 26/215/264 43/175/224 107/177/226
f 85/149/198 113/173/222 43/175/224
f 26/215/264 83/214/263 125/212/261
