# Blender 4.3.2
# www.blender.org
mtllib left_leg.mtl
o body.009
v 1.484880 -4.349760 -0.508940
v -0.110480 -4.681580 -1.066940
v -0.629700 -4.736800 0.478720
v 1.119080 -4.431880 1.209400
v 0.314480 -6.915020 -0.461599
v 1.484880 -4.349760 0.476680
v 1.154740 -0.604760 0.675520
v 1.154720 -0.604240 -0.627760
v 0.617280 -4.592920 -0.322600
v -0.019900 -0.947420 -1.706260
v -0.741960 -1.071940 -1.431760
v -0.629700 -4.736800 -0.506880
v -1.264460 -1.110040 -0.623920
v -1.264460 -1.110720 0.678660
v 0.305640 -4.650520 1.406300
v -0.331680 -1.005200 1.790580
v 0.639700 -0.763700 1.591580
v 0.314480 -6.915020 0.343241
v 1.013280 -6.931400 0.428061
v 1.013280 -6.931400 -0.131099
v 0.130060 -4.665360 -0.751160
v 0.516500 -6.953460 -0.296539
v -0.504460 -1.036940 -1.680920
v -0.110480 -4.681580 1.209740
v -0.741960 -1.072960 1.591660
v 0.516500 -6.953460 0.423521
v -0.954500 0.338280 -0.806780
v 0.781240 -4.545420 1.385180
v 1.119080 -4.431880 -1.068660
v 0.639660 -0.762960 -1.434460
v 0.146960 -0.917300 1.767060
v 1.344420 -6.726360 0.343381
v 1.344420 -6.726360 -0.461740
v 0.130060 -4.665360 1.384320
v -0.504460 -1.037580 1.765420
v 0.305640 -4.650520 -0.322440
v 0.701420 -6.988640 -0.131079
v -0.331680 -1.004900 -1.706080
v 0.701420 -6.988640 0.428021
v 0.781240 -4.545420 -0.752020
v 0.146940 -0.916820 -1.681900
v 1.168340 -6.835380 0.423680
v 1.168340 -6.835380 -0.296719
v 0.617280 -4.592920 1.406480
v -0.019900 -0.947640 1.791080
v 1.455260 -2.041280 -0.562080
v -0.535300 -2.517600 -1.310360
v -1.127420 -2.559920 0.695340
v 0.919640 -2.203140 1.638000
v 1.455260 -2.041280 0.691240
v 0.251080 -2.390640 -1.044680
v -1.127420 -2.559920 -0.557960
v -0.068140 -2.449800 1.863080
v -0.244820 -2.482200 -1.289920
v -0.535300 -2.517600 1.638960
v 0.422140 -2.358640 1.829220
v 0.919640 -2.203140 -1.313520
v -0.244820 -2.482200 1.827840
v -0.068140 -2.449800 -1.044400
v 0.422140 -2.358640 -1.291300
v 0.251080 -2.390640 1.863340
v 0.812920 0.410100 -0.705200
v 1.373600 -4.356280 -0.862440
v 1.462040 -6.081120 0.336720
v 1.008880 -0.648260 1.275680
v -0.895480 -0.013360 -1.334820
v -0.285460 -4.702800 -0.860480
v 1.272400 -6.103020 -0.795919
v -1.319300 -0.041060 0.684800
v -0.285460 -4.702800 0.940720
v -0.214960 -6.352880 -0.470660
v 0.437120 0.291720 1.353720
v 0.205220 -6.305140 0.779920
v 0.812940 0.409280 0.682820
v 1.008840 -0.647440 -1.109940
v 1.462040 -6.081120 -0.471220
v 1.373600 -4.356280 0.939080
v 0.437060 0.292860 -1.337100
v -0.916360 -1.097480 -1.106380
v 0.205220 -6.305140 -0.795300
v -1.319300 -0.039940 -0.701980
v -0.916360 -1.098600 1.277700
v -0.214960 -6.352880 0.337200
v -0.895480 -0.014880 1.353480
v 1.272400 -6.103020 0.780001
v 1.504720 -4.363780 -0.048960
v 1.171840 -0.600860 -0.021440
v 1.377580 -1.665120 0.687940
v 1.377580 -1.664980 -0.579140
v 0.463220 -4.629400 -0.332460
v -0.175340 -0.975980 -1.717520
v 0.846940 -1.826260 -1.345160
v -0.136960 -2.071420 -1.492240
v -0.643200 -4.756980 -0.046920
v -1.280980 -1.113260 -0.017780
v -1.164860 -2.180540 -0.575100
v -1.164860 -2.180700 0.691820
v 0.463220 -4.629400 1.416320
v -0.175320 -0.976120 1.802100
v -0.589920 -2.139640 1.628540
v 0.180480 -2.012740 1.846940
v 0.317500 -6.966540 -0.078019
v 1.360080 -6.776080 -0.078019
v 0.863300 -6.990300 0.430061
v 0.863300 -6.990300 -0.133119
v -0.525880 0.053080 -1.561240
v 0.588540 -6.318280 0.935020
v 0.588540 -6.318280 -0.196020
v -0.525880 0.052620 1.511440
v -0.589920 -2.139380 -1.342120
v -0.136960 -2.071500 1.846620
v 0.715340 -7.074480 0.025821
v 0.061820 -4.670100 -1.054460
v 0.457440 -6.942220 -0.422579
v -0.571820 -1.047160 -1.617480
v 0.061820 -4.670100 1.339660
v -0.571820 -1.047920 1.720820
v 0.457440 -6.942220 0.403241
v 0.896520 -6.261520 -0.196120
v -0.217880 0.109400 1.512040
v -0.217900 0.109740 -1.561360
v 0.896520 -6.261520 0.935100
v 0.180480 -2.012680 -1.492500
v 0.846940 -1.826440 1.627800
v 1.031020 -7.016660 0.025821
v 0.871540 -4.515340 1.340460
v 0.871540 -4.515340 -1.055780
v 0.276060 -0.877260 -1.619180
v 0.276100 -0.877820 1.722340
v 1.217880 -6.804720 0.403461
v 1.217880 -6.804720 -0.422799
v -0.312660 -2.103900 -1.529600
v -0.696700 0.021340 -1.545680
v 0.411180 -6.312000 0.923900
v 0.411180 -6.312000 -0.510040
v -0.696700 0.020360 1.495900
v -0.312660 -2.104060 1.813780
v 0.525200 -7.022900 -0.016679
v 0.182060 -4.660980 1.390840
v -0.453280 -1.028000 1.772880
v 0.182060 -4.660980 -0.419640
v 0.571260 -6.963880 -0.170399
v -0.453280 -1.027440 -1.688380
v 0.571260 -6.963880 0.424841
v 0.350560 -1.981300 1.815220
v 1.054780 -6.194280 -0.510480
v -0.053180 0.138980 1.497480
v -0.053200 0.139700 -1.546300
v 1.054780 -6.194280 0.924320
v 0.350540 -1.981180 -1.530880
v 1.185120 -6.904000 -0.016679
v 0.734420 -4.558980 -0.420060
v 0.099280 -0.925560 -1.688860
v 1.124040 -6.862820 0.424940
v 1.124040 -6.862820 -0.170479
v 0.734420 -4.558980 1.391260
v 0.099300 -0.925960 1.773920
v 1.296200 -2.086080 -0.997600
v -0.753420 -2.544380 -0.993740
v -0.753420 -2.544380 1.310240
v 1.296200 -2.086080 1.306920
v 1.480400 -2.036940 -0.001080
v 0.091840 -2.420300 -1.060460
v -1.152440 -2.564880 0.003020
v 0.091840 -2.420300 1.879120
v -0.325600 -2.492540 -1.433780
v -0.325600 -2.492540 1.779000
v 0.552600 -2.318620 1.780200
v 0.552600 -2.318620 -1.436000
v -0.192480 -2.472600 1.838280
v -0.192480 -2.472600 -1.089800
v 0.373280 -2.367780 -1.090480
v 0.373280 -2.367780 1.838960
v 1.465200 -2.635440 -0.548160
v -0.426140 -3.075380 -1.248100
v -0.999800 -3.121060 0.640560
v 0.972220 -2.777180 1.529440
v 1.465200 -2.635440 0.636960
v 0.345480 -2.958380 -0.581740
v -0.999800 -3.121060 -0.544560
v 0.028220 -3.017120 1.747200
v -0.148160 -3.044960 -1.013320
v -0.426140 -3.075380 1.530240
v 0.514700 -2.922340 1.716660
v 0.972220 -2.777180 -1.250880
v -0.148160 -3.044960 1.715420
v 0.028220 -3.017120 -0.581500
v 0.514700 -2.922340 -1.014560
v 0.345480 -2.958380 1.747460
v 1.387100 -5.628180 0.688200
v 1.387100 -5.628180 -0.719880
v 0.005400 -5.901100 -0.718940
v 0.005400 -5.901100 0.688840
v 0.762560 0.103660 1.138120
v 0.762500 0.104680 -1.082000
v -0.973320 -0.306600 -1.078920
v -0.973320 -0.307960 1.139380
v 0.823340 0.412420 -0.038760
v 1.221740 -1.709600 -1.026840
v 1.478240 -6.113060 -0.080160
v 1.221740 -1.709800 1.300260
v -0.371360 0.081660 -1.568320
v -0.797180 -2.165920 -1.023060
v 0.746040 -6.306940 -0.201100
v -1.328800 -0.041920 -0.035860
v -0.797180 -2.166180 1.303260
v -0.218680 -6.388360 -0.079660
v -0.371360 0.081460 1.518660
v 0.746040 -6.306940 0.940100
v 1.400760 -1.660720 -0.006180
v 0.022140 -2.042000 -1.507200
v -1.187860 -2.184920 -0.002180
v 0.022140 -2.042020 1.861600
v 0.880540 -7.083420 0.025821
v -0.754280 0.011200 -1.492260
v 0.351480 -6.310000 0.887380
v 0.351480 -6.310000 -0.743420
v -0.754280 0.010060 1.459580
v -0.390100 -2.114280 -1.516300
v -0.390100 -2.114460 1.765960
v 0.464500 -7.006420 -0.053259
v 1.114820 -6.169060 -0.744020
v 0.075260 0.178220 1.461020
v 0.075220 0.179040 -1.493460
v 1.114820 -6.169060 0.887860
v 0.480700 -1.941320 -1.518400
v 0.480700 -1.941460 1.767240
v 1.234340 -6.868020 -0.053259
v -0.260620 -2.094280 -1.486680
v -0.646100 0.030740 -1.550300
v 0.463720 -6.313860 0.927200
v 0.463720 -6.313860 -0.269480
v -0.646100 0.029920 1.500500
v -0.260620 -2.094420 1.823520
v 0.581520 -7.038160 0.015181
v 0.301980 -1.990280 1.824280
v 1.009580 -6.213480 -0.269700
v -0.100220 0.130540 1.501640
v -0.100240 0.131140 -1.550600
v 1.009580 -6.213480 0.927400
v 0.301960 -1.990160 -1.487320
v 1.141100 -6.936180 0.015181
v 1.318200 -2.670440 -0.962660
v -0.633420 -3.100740 -0.959260
v -0.633420 -3.100740 1.216700
v 1.318200 -2.670440 1.213800
v 1.488980 -2.635860 -0.013060
v 0.187580 -2.989800 -0.595980
v -1.021840 -3.129980 -0.009460
v 0.187580 -2.989800 1.761700
v -0.225800 -3.053860 -1.302360
v -0.225800 -3.053860 1.667660
v 0.635100 -2.884760 1.668760
v 0.635100 -2.884760 -1.304340
v -0.095920 -3.036720 1.724840
v -0.095920 -3.036720 -0.675020
v 0.466360 -2.932640 -0.675640
v 0.466360 -2.932640 1.725460
v 1.155040 -7.511840 -0.622799
v 1.628440 -7.229780 -0.778699
v 0.383780 -7.531720 -0.707919
v 1.596300 -7.097220 -0.728099
v 0.351640 -7.399140 -0.657319
v 1.568700 -6.976380 -0.651919
v 0.324040 -7.278300 -0.581139
v 1.546700 -6.871920 -0.553059
v 0.302040 -7.173840 -0.482279
v 1.531160 -6.787860 -0.435319
v 0.286480 -7.089780 -0.364539
v 1.522640 -6.727420 -0.303259
v 0.277980 -7.029340 -0.232479
v 1.521500 -6.692940 -0.161920
v 0.276840 -6.994860 -0.091139
v 1.527780 -6.685720 -0.016739
v 0.283120 -6.987640 0.054041
v 1.541220 -6.706040 0.126701
v 0.296560 -7.007960 0.197481
v 1.561320 -6.753140 0.262881
v 0.316660 -7.055080 0.333661
v 1.587320 -6.825200 0.386580
v 0.342660 -7.127140 0.457361
v 1.618180 -6.919460 0.493021
v 0.373520 -7.221380 0.563801
v 1.652760 -7.032260 0.578140
v 0.408100 -7.334200 0.648921
v 1.689700 -7.159320 0.638660
v 0.445040 -7.461240 0.709441
v 1.727580 -7.295720 0.672261
v 1.764980 -7.436220 0.677621
v 1.663880 -7.368999 -0.801759
v 0.419220 -7.670920 -0.730979
v 1.205100 -7.454240 0.535421
v 1.175320 -7.347080 0.509021
v 1.146300 -7.247240 0.461481
v 1.119140 -7.158600 0.394581
v 1.094880 -7.084540 0.310941
v 1.074460 -7.027920 0.213741
v 1.058660 -6.990920 0.106741
v 1.048100 -6.974940 -0.005959
v 1.043160 -6.980620 -0.120039
v 1.044060 -7.007720 -0.231099
v 1.050740 -7.055200 -0.334879
v 1.062960 -7.121260 -0.427379
v 1.080240 -7.203340 -0.505059
v 1.101940 -7.298280 -0.564919
v 1.127180 -7.402440 -0.604679
v 1.013860 -7.504720 0.546201
v 0.984100 -7.397540 0.519801
v 0.955060 -7.297720 0.472241
v 0.927900 -7.209080 0.405361
v 0.903640 -7.135020 0.321721
v 0.883220 -7.078400 0.224521
v 0.867420 -7.041380 0.117521
v 0.856860 -7.025420 0.004821
v 0.851920 -7.031080 -0.109259
v 0.852820 -7.058180 -0.220319
v 0.859520 -7.105680 -0.324099
v 0.871740 -7.171721 -0.416599
v 0.889020 -7.253800 -0.494279
v 0.910700 -7.348740 -0.554139
v 0.935960 -7.452920 -0.593899
v 0.963800 -7.562300 -0.612019
v 1.181980 -7.496180 -0.774599
v 1.283080 -7.563400 0.704781
v 1.245680 -7.422900 0.699401
v 1.207800 -7.286500 0.665821
v 1.170860 -7.159440 0.605301
v 1.136280 -7.046640 0.520181
v 1.105420 -6.952380 0.413721
v 1.079420 -6.880320 0.290041
v 1.059320 -6.833220 0.153861
v 1.045880 -6.812900 0.010421
v 1.039600 -6.820120 -0.134759
v 1.040740 -6.854600 -0.276100
v 1.049240 -6.915040 -0.408179
v 1.064800 -6.999100 -0.525899
v 1.086800 -7.103560 -0.624759
v 1.114400 -7.224400 -0.700960
v 1.146520 -7.356960 -0.751539
v 0.976000 -7.494060 0.714601
v 0.938100 -7.357680 0.681021
v 0.901160 -7.230620 0.620501
v 0.866600 -7.117820 0.535381
v 0.835720 -7.023560 0.428921
v 0.809740 -6.951500 0.305221
v 0.789640 -6.904400 0.169041
v 0.776180 -6.884080 0.025621
v 0.769920 -6.891280 -0.119559
v 0.771040 -6.925780 -0.260899
v 0.779560 -6.986220 -0.392979
v 0.795120 -7.070280 -0.510699
v 0.817100 -7.174740 -0.609559
v 0.844700 -7.295580 -0.685759
v 0.876840 -7.428140 -0.736359
v 0.912280 -7.567360 -0.759399
v 1.703660 -7.518160 -0.794259
v 1.221760 -7.645340 -0.767099
v 0.612600 -5.522160 -0.867800
v 0.632960 -5.518500 -0.869840
v 0.632960 -5.518500 -0.969760
v 0.068540 -2.391760 -0.969760
v 0.593420 -5.525640 -0.965820
v 0.028980 -2.398900 -0.965820
v 0.555400 -5.532500 -0.954080
v -0.009040 -2.405760 -0.954080
v 0.520340 -5.538820 -0.935060
v -0.044080 -2.412080 -0.935060
v 0.489620 -5.544360 -0.909440
v -0.074800 -2.417640 -0.909440
v 0.464420 -5.548920 -0.878220
v -0.100020 -2.422180 -0.878220
v 0.445680 -5.552300 -0.842600
v -0.118740 -2.425560 -0.842600
v 0.434140 -5.554380 -0.803960
v -0.130280 -2.427660 -0.803960
v 0.430260 -5.555080 -0.763780
v -0.134180 -2.428360 -0.763780
v 0.434140 -5.554380 -0.723600
v -0.130280 -2.427660 -0.723600
v 0.445680 -5.552300 -0.684940
v -0.118740 -2.425560 -0.684940
v 0.464420 -5.548920 -0.649340
v -0.100020 -2.422180 -0.649340
v 0.489620 -5.544360 -0.618120
v -0.074800 -2.417640 -0.618120
v 0.520340 -5.538820 -0.592500
v -0.044080 -2.412080 -0.592500
v 0.555400 -5.532500 -0.573460
v -0.009040 -2.405760 -0.573460
v 0.593420 -5.525640 -0.561740
v 0.028980 -2.398900 -0.561740
v 0.632960 -5.518500 -0.557780
v 0.068540 -2.391760 -0.557780
v 0.672520 -5.511360 -0.561740
v 0.108080 -2.384620 -0.561740
v 0.710540 -5.504480 -0.573460
v 0.146120 -2.377760 -0.573460
v 0.745600 -5.498160 -0.592500
v 0.181160 -2.371420 -0.592500
v 0.776300 -5.492620 -0.618120
v 0.211880 -2.365880 -0.618120
v 0.801520 -5.488060 -0.649340
v 0.237080 -2.361340 -0.649340
v 0.820260 -5.484680 -0.684940
v 0.255820 -2.357960 -0.684940
v 0.831780 -5.482600 -0.723600
v 0.267360 -2.355860 -0.723600
v 0.835680 -5.481900 -0.763780
v 0.271260 -2.355160 -0.763780
v 0.831780 -5.482600 -0.803960
v 0.267360 -2.355860 -0.803960
v 0.820260 -5.484680 -0.842600
v 0.255820 -2.357960 -0.842600
v 0.801520 -5.488060 -0.878220
v 0.237080 -2.361340 -0.878220
v 0.776300 -5.492620 -0.909440
v 0.211880 -2.365880 -0.909440
v 0.745600 -5.498160 -0.935060
v 0.181160 -2.371420 -0.935060
v 0.710540 -5.504480 -0.954080
v 0.146120 -2.377760 -0.954080
v 0.672520 -5.511360 -0.965820
v 0.108080 -2.384620 -0.965820
v 0.593020 -5.525700 -0.861780
v 0.574980 -5.528960 -0.851980
v 0.559160 -5.531820 -0.838780
v 0.546180 -5.534160 -0.822700
v 0.536540 -5.535900 -0.804360
v 0.530600 -5.536980 -0.784480
v 0.528580 -5.537340 -0.763780
v 0.530600 -5.536980 -0.743080
v 0.536540 -5.535900 -0.723180
v 0.546180 -5.534160 -0.704860
v 0.559160 -5.531820 -0.688780
v 0.574980 -5.528960 -0.675580
v 0.593020 -5.525700 -0.665780
v 0.612600 -5.522160 -0.659740
v 0.632960 -5.518500 -0.657720
v 0.653340 -5.514820 -0.659740
v 0.672920 -5.511280 -0.665780
v 0.690960 -5.508020 -0.675580
v 0.706780 -5.505160 -0.688780
v 0.719760 -5.502820 -0.704860
v 0.729400 -5.501080 -0.723180
v 0.735340 -5.500020 -0.743080
v 0.737340 -5.499660 -0.763780
v 0.735340 -5.500020 -0.784480
v 0.729400 -5.501080 -0.804360
v 0.719760 -5.502820 -0.822700
v 0.706780 -5.505160 -0.838780
v 0.690960 -5.508020 -0.851980
v 0.672920 -5.511280 -0.861780
v 0.653340 -5.514820 -0.867800
v 1.298940 -8.703220 -0.899779
v 1.319300 -8.699560 -0.901799
v 1.279360 -8.706759 -0.893739
v 1.261300 -8.710020 -0.883939
v 1.245480 -8.712880 -0.870739
v 1.232500 -8.715220 -0.854679
v 1.222860 -8.716960 -0.836339
v 1.216920 -8.718019 -0.816439
v 1.214920 -8.718400 -0.795739
v 1.216920 -8.718019 -0.775039
v 1.222860 -8.716960 -0.755159
v 1.232500 -8.715220 -0.736819
v 1.245480 -8.712880 -0.720739
v 1.261300 -8.710020 -0.707539
v 1.279360 -8.706759 -0.697739
v 1.298940 -8.703220 -0.691719
v 1.319300 -8.699560 -0.689679
v 1.339660 -8.695880 -0.691719
v 1.359240 -8.692340 -0.697739
v 1.377280 -8.689080 -0.707539
v 1.393100 -8.686220 -0.720739
v 1.406080 -8.683880 -0.736819
v 1.415740 -8.682140 -0.755159
v 1.421680 -8.681060 -0.775039
v 1.423680 -8.680700 -0.795739
v 1.421680 -8.681060 -0.816439
v 1.415740 -8.682140 -0.836339
v 1.406080 -8.683880 -0.854679
v 1.393100 -8.686220 -0.870739
v 1.377280 -8.689080 -0.883939
v 1.359240 -8.692340 -0.893739
v 1.339660 -8.695880 -0.899779
v -1.608720 0.400500 -2.307420
v -2.069380 0.638360 -1.983460
v 0.566700 0.036020 -1.737940
v 0.149600 -0.255580 -1.902240
v -1.723920 0.079660 -1.548360
v -1.717220 -0.160640 -0.013200
v 0.140160 0.452880 -2.422020
v -0.554400 -0.312800 -2.200960
v 0.103880 -0.214760 -2.129280
v -1.275780 -0.211920 -1.898260
v -0.733140 0.302260 -2.553100
v 0.509900 0.026120 -1.836480
v -1.078040 -0.328060 -1.576320
v -1.601120 -0.139040 -0.926660
v -0.444620 -0.375140 -1.892560
v -1.666620 -0.043260 0.705240
v -2.027360 0.231540 -0.815900
v -1.909700 0.057020 0.114640
v -1.949460 0.081300 -0.502440
v -1.896480 0.010100 0.098520
v -2.041660 0.388700 -1.350340
v -1.922060 0.039740 -0.556620
v -1.825400 0.116420 0.740480
v -1.532300 0.469980 -2.202080
v 0.444080 0.091600 -1.677660
v 0.083560 -0.129440 -1.863700
v -1.629620 0.187540 -1.513280
v -1.634280 -0.038680 -0.015800
v 0.065260 0.481500 -2.298200
v -0.548080 -0.194980 -2.112400
v 0.041140 -0.113860 -2.041860
v -1.210420 -0.093320 -1.839760
v -0.724420 0.358480 -2.417000
v 0.399620 0.096300 -1.768140
v -1.022740 -0.193120 -1.554200
v -1.510340 -0.024680 -0.905760
v -0.445140 -0.231040 -1.861060
v -1.591820 0.072960 0.653680
v -1.787660 0.105260 0.086720
v -1.818160 0.142580 -0.545000
v 1.655140 -7.284040 -0.558819
v 1.633460 -7.194620 -0.524679
v 1.614840 -7.113100 -0.473279
v 1.600000 -7.042620 -0.406599
v 1.589520 -6.985900 -0.327159
v 1.583780 -6.945140 -0.238059
v 1.583000 -6.921860 -0.142719
v 1.587240 -6.917000 -0.044779
v 1.596320 -6.930720 0.052001
v 1.609880 -6.962500 0.143861
v 1.627400 -7.011100 0.227321
v 1.648240 -7.074680 0.299141
v 1.671560 -7.150800 0.356561
v 1.696480 -7.236500 0.397381
v 1.722040 -7.328520 0.420041
v 1.747260 -7.423320 0.423681
v 1.729840 -7.564780 -0.548099
v 1.679060 -7.377960 -0.574380
v 1.705900 -7.478600 -0.569319
v 0.415080 -7.595320 -0.450179
v 0.395200 -7.513300 -0.418879
v 0.378120 -7.438560 -0.371739
v 0.364520 -7.373940 -0.310599
v 0.354900 -7.321940 -0.237759
v 0.349640 -7.284540 -0.156059
v 0.348940 -7.263200 -0.068619
v 0.352820 -7.258740 0.021181
v 0.361140 -7.271320 0.109921
v 0.373560 -7.300460 0.194161
v 0.389640 -7.345040 0.270681
v 0.408740 -7.403340 0.336541
v 0.430120 -7.473120 0.389181
v 0.452980 -7.551720 0.426621
v 0.556100 -7.559980 -0.436159
v 0.536220 -7.477960 -0.404859
v 0.519160 -7.403220 -0.357719
v 0.505540 -7.338600 -0.296559
v 0.495920 -7.286600 -0.223739
v 0.490660 -7.249220 -0.142039
v 0.489960 -7.227880 -0.054599
v 0.493840 -7.223400 0.035201
v 0.502160 -7.235980 0.123941
v 0.514600 -7.265120 0.208181
v 0.530680 -7.309700 0.284701
v 0.549780 -7.368000 0.350561
v 0.571160 -7.437800 0.403221
v 1.518700 -7.320060 -0.551139
v 1.497020 -7.230620 -0.516999
v 1.478400 -7.149100 -0.465599
v 1.463560 -7.078640 -0.398899
v 1.453060 -7.021920 -0.319479
v 1.447320 -6.981140 -0.230379
v 1.446560 -6.957880 -0.135019
v 1.450800 -6.953000 -0.037079
v 1.459860 -6.966720 0.059681
v 1.473420 -6.998500 0.151561
v 1.490960 -7.047120 0.235001
v 1.511780 -7.110700 0.306821
v 1.535100 -7.186800 0.364241
v 1.560020 -7.272520 0.405081
v 1.585600 -7.364540 0.427741
v 1.610820 -7.459320 0.431361
v 1.593400 -7.600780 -0.540399
v 1.542600 -7.413980 -0.566679
v 1.569440 -7.514600 -0.561619
v 1.525160 -7.333179 -0.497939
v 1.506000 -7.254180 -0.467799
v 1.489560 -7.182180 -0.422379
v 1.476460 -7.119920 -0.363479
v 1.467180 -7.069820 -0.293319
v 1.462120 -7.033820 -0.214619
v 1.461440 -7.013260 -0.130379
v 1.465180 -7.008960 -0.043859
v 1.473180 -7.021080 0.041621
v 1.485160 -7.049140 0.122761
v 1.500660 -7.092080 0.196481
v 1.519060 -7.148240 0.259921
v 1.539660 -7.215480 0.310641
v 1.561660 -7.291180 0.346721
v 1.584240 -7.372480 0.366721
v 1.606520 -7.456200 0.369921
v 1.627640 -7.539160 0.356181
v 1.591140 -7.581160 -0.488459
v 1.546280 -7.416140 -0.511679
v 1.570000 -7.505040 -0.507219
v 1.623480 -7.307240 -0.503479
v 1.604340 -7.228220 -0.473339
v 1.587900 -7.156220 -0.427919
v 1.574780 -7.093980 -0.369019
v 1.565520 -7.043880 -0.298859
v 1.560440 -7.007860 -0.220159
v 1.559760 -6.987300 -0.135919
v 1.563500 -6.983000 -0.049399
v 1.571520 -6.995120 0.036081
v 1.583500 -7.023180 0.117221
v 1.598980 -7.066140 0.190941
v 1.617380 -7.122300 0.254381
v 1.637980 -7.189520 0.305101
v 1.660000 -7.265240 0.341181
v 1.682580 -7.346520 0.361181
v 1.704860 -7.430260 0.364381
v 1.725980 -7.513220 0.350641
v 1.745120 -7.592220 0.320501
v 1.761580 -7.664220 0.275101
v 1.774680 -7.726480 0.216181
v 1.783960 -7.776580 0.146021
v 1.789020 -7.812580 0.067321
v 1.789700 -7.833140 -0.016919
v 1.785960 -7.837440 -0.103439
v 1.777940 -7.825320 -0.188899
v 1.765960 -7.797260 -0.270059
v 1.750480 -7.754320 -0.343779
v 1.732080 -7.698160 -0.407219
v 1.711480 -7.630920 -0.457939
v 1.689460 -7.555220 -0.493999
v 1.644600 -7.390200 -0.517219
v 1.668320 -7.479080 -0.512759
v 0.561080 -7.570060 -0.395279
v 0.543140 -7.496080 -0.367039
v 0.527740 -7.428620 -0.324519
v 0.515460 -7.370320 -0.269339
v 0.506780 -7.323420 -0.203639
v 0.502020 -7.289680 -0.129919
v 0.501380 -7.270420 -0.051019
v 0.504900 -7.266400 0.030001
v 0.512400 -7.277740 0.110061
v 0.523620 -7.304040 0.186061
v 0.538120 -7.344260 0.255101
v 0.555360 -7.396860 0.314521
v 0.574640 -7.459820 0.362021
v 0.451740 -7.520200 -0.361899
v 0.436340 -7.452740 -0.319359
v 0.424060 -7.394460 -0.264199
v 0.415380 -7.347540 -0.198479
v 0.410640 -7.313800 -0.124759
v 0.410000 -7.294540 -0.045879
v 0.413500 -7.290520 0.035141
v 0.421000 -7.301860 0.115201
v 0.432220 -7.328160 0.191221
v 0.446740 -7.368380 0.260261
v 0.463960 -7.420979 0.319661
v 0.483260 -7.483940 0.367181
vn -0.7344 0.1571 -0.6603
vn -0.7032 0.1787 -0.6882
vn -0.6683 0.0353 -0.7431
vn -0.7007 0.0190 -0.7132
vn -0.4291 -0.0499 -0.9019
vn -0.6819 -0.0528 -0.7296
vn -0.7969 0.2532 -0.5485
vn 0.4190 0.6117 -0.6710
vn 0.4446 0.4809 -0.7556
vn -0.7722 0.1315 -0.6217
vn -0.7869 0.3911 -0.4773
vn -0.7576 0.4218 -0.4981
vn -0.7334 0.3092 -0.6054
vn -0.7635 0.2827 -0.5807
vn -0.8037 0.4779 -0.3544
vn -0.7750 0.5120 -0.3704
vn -0.8133 0.5400 -0.2167
vn -0.7848 0.5765 -0.2274
vn -0.8152 0.5750 -0.0696
vn -0.7867 0.6128 -0.0746
vn -0.8095 0.5815 0.0812
vn -0.7807 0.6196 0.0819
vn -0.7964 0.5595 0.2299
vn -0.7669 0.5967 0.2363
vn -0.7763 0.5097 0.3708
vn -0.7460 0.5450 0.3827
vn -0.7502 0.4343 0.4986
vn -0.7187 0.4668 0.5154
vn -0.7189 0.3362 0.6084
vn -0.6862 0.3649 0.6293
vn -0.6838 0.2191 0.6960
vn -0.6495 0.2434 0.7203
vn -0.6461 0.0876 0.7582
vn -0.6104 0.1068 0.7849
vn -0.6277 0.0173 0.7783
vn -0.3537 0.0443 0.9343
vn 0.4747 0.4806 -0.7373
vn 0.5083 0.3407 -0.7909
vn 0.4754 0.3364 -0.8129
vn 0.5259 0.2676 -0.8074
vn 0.4990 0.2637 -0.8255
vn 0.3993 0.7240 -0.5624
vn 0.4237 0.7181 -0.5522
vn 0.4461 0.6080 -0.6567
vn 0.3862 0.8138 -0.4343
vn 0.4082 0.8065 -0.4277
vn 0.3802 0.8777 -0.2916
vn 0.4005 0.8697 -0.2884
vn 0.3814 0.9138 -0.1397
vn 0.4006 0.9056 -0.1396
vn 0.3897 0.9208 0.0157
vn 0.4084 0.9127 0.0129
vn 0.4048 0.8987 0.1691
vn 0.4239 0.8909 0.1633
vn 0.4260 0.8482 0.3148
vn 0.4462 0.8411 0.3059
vn 0.4527 0.7713 0.4475
vn 0.4745 0.7652 0.4351
vn 0.4839 0.6706 0.5623
vn 0.5078 0.6663 0.5460
vn 0.5184 0.5498 0.6549
vn 0.5447 0.5482 0.6346
vn 0.7299 0.4390 0.5239
vn 0.5839 0.4154 0.6975
vn 0.9328 0.3060 0.1904
vn 0.6049 0.3448 0.7177
vn 0.5462 0.4742 -0.6905
vn 0.5777 0.3442 -0.7401
vn 0.6123 0.2033 -0.7641
vn 0.4975 0.6952 -0.5189
vn 0.5191 0.5927 -0.6158
vn 0.4823 0.7776 -0.4034
vn 0.4739 0.8369 -0.2738
vn 0.4728 0.8707 -0.1352
vn 0.4790 0.8778 0.0071
vn 0.4921 0.8579 0.1478
vn 0.5119 0.8117 0.2814
vn 0.5374 0.7410 0.4027
vn 0.5676 0.6486 0.5071
vn 0.6015 0.5379 0.5906
vn 0.6378 0.4133 0.6499
vn 0.6749 0.2796 0.6829
vn 0.0431 0.0496 0.9978
vn 0.6905 0.2102 0.6921
vn -0.6788 0.1454 0.7197
vn -0.7141 0.1973 0.6717
vn -0.7459 0.3114 0.5888
vn -0.7746 0.4072 0.4840
vn -0.7991 0.4807 0.3611
vn -0.8182 0.5290 0.2252
vn -0.8314 0.5497 0.0817
vn -0.8379 0.5422 -0.0635
vn -0.8375 0.5068 -0.2046
vn -0.8303 0.4448 -0.3358
vn -0.8165 0.3592 -0.4520
vn -0.5107 0.1072 -0.8530
vn -0.0865 0.1413 -0.9862
vn 0.6263 0.1284 -0.7689
vn 0.7515 0.1593 0.6403
vn 0.4728 0.2526 0.8442
vn 0.8388 -0.2067 0.5037
vn 0.8134 -0.0954 0.5738
vn 0.7614 -0.1551 -0.6294
vn 0.7933 -0.2590 -0.5510
vn 0.8824 -0.4677 0.0523
vn 0.8813 -0.4360 0.1825
vn 0.7838 0.0268 0.6204
vn 0.8217 -0.3459 -0.4529
vn 0.8735 -0.3803 0.3041
vn -0.8207 -0.4270 0.3797
vn -0.6208 -0.5594 0.5492
vn 0.8456 -0.4123 -0.3390
vn 0.8591 -0.3028 0.4125
vn 0.6747 0.1519 -0.7223
vn 0.6925 0.0875 -0.7161
vn 0.8642 -0.4556 -0.2136
vn 0.7274 -0.0382 -0.6851
vn 0.8765 -0.4744 -0.0815
vn -0.5339 -0.8354 -0.1308
vn -0.5406 -0.7989 -0.2636
vn -0.5950 -0.6520 0.4699
vn -0.5343 -0.8453 0.0046
vn -0.7774 -0.4528 0.4366
vn -0.5707 -0.5810 0.5803
vn -0.8043 -0.4948 -0.3291
vn -0.9655 -0.2548 0.0544
vn -0.5413 -0.8297 0.1367
vn -0.5748 -0.6493 -0.4980
vn -0.5543 -0.7904 0.2609
vn -0.5543 -0.7364 -0.3879
vn -0.5725 -0.7302 0.3730
vn -0.5188 -0.7632 0.3852
vn -0.5428 -0.6806 0.4922
vn -0.8592 0.3027 -0.4124
vn -0.8735 0.3802 -0.3041
vn -0.4802 -0.8770 -0.0139
vn -0.4809 -0.8625 -0.1574
vn 0.7095 0.1455 0.6895
vn 0.4218 0.2431 0.8735
vn -0.4999 -0.8253 0.2624
vn -0.4891 -0.8202 -0.2967
vn -0.5045 -0.7512 -0.4257
vn 0.8049 -0.2433 0.5412
vn 0.7778 -0.1248 0.6159
vn -0.4868 -0.8641 0.1279
vn -0.5265 -0.6577 -0.5387
vn -0.5520 -0.6033 -0.5756
vn 0.8418 -0.4281 0.3288
vn 0.8266 -0.3457 0.4442
vn 0.8121 -0.4622 -0.3560
vn 0.8318 -0.5085 -0.2224
vn 0.5704 0.5786 -0.5830
vn 0.5959 0.4673 -0.6531
vn 0.6490 0.0699 -0.7576
vn 0.6863 -0.0639 -0.7245
vn 0.7463 0.0052 0.6656
vn 0.8513 -0.5212 0.0606
vn 0.8501 -0.4875 0.1992
vn 0.7565 -0.2991 -0.5816
vn 0.7867 -0.3915 -0.4773
vn 0.8450 -0.5285 -0.0817
vn 0.6604 0.2134 -0.7199
vn 0.4441 -0.0107 -0.8959
vn 0.7226 -0.1885 -0.6651
vn -0.0077 0.2371 0.9715
vn 0.6274 0.1376 -0.7665
vn 0.5451 0.8275 0.1342
vn 0.5327 0.8463 0.0021
vn 0.6122 0.2033 -0.7641
vn 0.6514 0.0663 -0.7558
vn 0.6819 0.4100 0.6057
vn 0.6477 0.5271 0.5501
vn 0.6254 0.3451 -0.6998
vn 0.5279 0.8079 -0.2619
vn 0.5358 0.7522 -0.3835
vn 0.5875 0.7179 0.3735
vn 0.5636 0.7842 0.2596
vn 0.5159 0.0804 0.8529
vn 0.7168 0.2844 0.6366
vn 0.5191 0.5927 -0.6157
vn 0.5461 0.4743 -0.6905
vn 0.5269 0.8397 -0.1317
vn 0.6159 0.6310 0.4716
vn 0.5501 0.6748 -0.4920
vn 0.4975 0.6951 -0.5189
vn 0.4739 0.8369 -0.2739
vn 0.4728 0.8708 -0.1352
vn 0.4789 0.8778 0.0072
vn 0.6015 0.5380 0.5906
vn 0.6377 0.4133 0.6500
vn 0.6750 0.2795 0.6829
vn 0.7116 0.1417 0.6881
vn 0.8954 0.1591 0.4159
vn 0.9655 0.2548 -0.0544
vn 0.8556 0.1132 -0.5051
vn 0.0079 -0.2372 -0.9714
vn -0.9497 -0.0197 -0.3127
vn -0.8389 0.2065 -0.5035
vn 0.0924 -0.1398 0.9859
vn -0.8642 0.4556 0.2136
vn -0.8456 0.4123 0.3391
vn -0.1786 0.4952 -0.8502
vn -0.1964 0.5743 -0.7948
vn -0.9655 -0.2547 0.0541
vn -0.8813 0.4359 -0.1825
vn -0.8823 0.4677 -0.0522
vn -0.8216 0.3460 0.4530
vn -0.7933 0.2591 0.5510
vn -0.8765 0.4744 0.0815
vn -0.7822 0.2045 0.5885
vn -0.2062 0.8751 0.4379
vn -0.1712 0.7780 0.6045
vn -0.0401 -0.0609 -0.9973
vn -0.2600 0.9562 -0.1345
vn -0.2515 0.9659 0.0611
vn -0.1297 0.6510 0.7479
vn -0.1069 0.5778 0.8091
vn -0.2261 0.7151 -0.6615
vn -0.2470 0.8283 -0.5029
vn -0.2334 0.9385 0.2543
vn -0.2584 0.9097 -0.3251
vn 0.9836 -0.0043 -0.1805
vn 0.9819 0.0114 -0.1889
vn 0.9999 0.0118 -0.0037
vn 1.0000 -0.0032 -0.0027
vn 0.8295 -0.0265 -0.5579
vn 0.8233 -0.0076 -0.5676
vn 0.9591 -0.1122 -0.2599
vn 0.8395 -0.0589 -0.5401
vn 0.9949 -0.1005 -0.0025
vn -0.3946 -0.2084 -0.8949
vn -0.5390 -0.2127 -0.8150
vn 0.5058 -0.0732 -0.8595
vn 0.6425 -0.0089 -0.7662
vn -0.7115 -0.2143 -0.6692
vn -0.7521 -0.2009 -0.6276
vn -0.1839 -0.3260 -0.9273
vn -0.6633 -0.2529 -0.7043
vn 0.6765 -0.1409 -0.7229
vn -0.9056 -0.2622 0.3333
vn -0.9224 -0.2475 0.2966
vn -0.9743 -0.2253 -0.0036
vn -0.9711 -0.2388 -0.0025
vn -0.7775 -0.2721 0.5670
vn -0.8008 -0.2578 0.5405
vn -0.8250 -0.4465 0.3466
vn -0.7392 -0.3106 0.5976
vn -0.8708 -0.4916 -0.0027
vn 0.6232 -0.1163 0.7734
vn 0.5669 -0.1052 0.8171
vn 0.4183 -0.1213 0.9002
vn 0.4847 -0.1363 0.8640
vn 0.8810 -0.0581 0.4696
vn 0.8648 -0.0466 0.4999
vn 0.7441 -0.2282 0.6279
vn 0.8952 -0.0829 0.4380
vn 0.5669 -0.2914 0.7705
vn -0.3066 -0.7602 -0.5727
vn 0.5030 -0.6874 -0.5239
vn -0.1466 -0.9882 -0.0450
vn -0.4880 -0.8727 -0.0151
vn -0.8002 -0.4301 -0.4179
vn 0.9901 -0.0128 0.1396
vn 0.9899 0.0019 0.1414
vn 0.9739 -0.1122 0.1974
vn 0.9516 0.2451 0.1853
vn 0.9059 0.3220 0.2749
vn 0.7873 0.3255 0.5236
vn 0.8035 0.2542 0.5384
vn 0.9685 0.2031 0.1440
vn 0.9785 0.2061 -0.0033
vn 0.9693 0.2459 -0.0092
vn 0.8247 0.1781 0.5367
vn 0.9520 0.2514 -0.1747
vn 0.9384 0.3123 -0.1476
vn 0.9467 0.3213 -0.0219
vn 0.8066 0.1916 -0.5591
vn 0.7946 0.2584 -0.5494
vn 0.9639 0.1890 -0.1878
vn 0.8122 0.1202 -0.5709
vn -0.2507 -0.1544 -0.9557
vn -0.1588 -0.4079 -0.8991
vn -0.7380 -0.3871 -0.5527
vn -0.8274 -0.2029 -0.5236
vn 0.0204 -0.1129 -0.9934
vn 0.0740 -0.4017 -0.9128
vn -0.2000 -0.1282 -0.9714
vn 0.0155 -0.0854 -0.9962
vn -0.7851 -0.2055 -0.5842
vn 0.0904 -0.0123 -0.9958
vn 0.0611 0.1462 -0.9874
vn 0.0903 0.1468 -0.9850
vn -0.0001 -0.0222 -0.9998
vn 0.0048 -0.0278 -0.9996
vn -0.0249 0.1332 -0.9908
vn 0.1236 -0.4835 -0.8666
vn 0.0896 -0.4864 -0.8691
vn -0.3317 -0.4717 -0.8170
vn -0.7951 -0.1108 -0.5963
vn -0.8155 0.0584 -0.5758
vn -0.7104 -0.0386 -0.7028
vn -0.6379 -0.1080 -0.7625
vn -0.8334 -0.1024 -0.5430
vn -0.8477 0.0213 -0.5301
vn -0.7336 -0.1724 -0.6574
vn -0.8024 -0.1349 -0.5814
vn -0.3020 -0.2249 -0.9264
vn -0.8852 -0.2331 -0.4025
vn -0.9015 -0.2194 -0.3732
vn -0.9394 -0.0842 -0.3324
vn -0.9225 0.0514 -0.3825
vn -0.9976 -0.0692 -0.0019
vn -0.9988 -0.0483 -0.0013
vn -0.9305 -0.1120 -0.3486
vn -0.9957 -0.0929 -0.0033
vn -0.9570 -0.0587 0.2841
vn -0.9683 -0.0340 0.2475
vn -0.8639 -0.0498 0.5011
vn -0.8702 -0.0123 0.4925
vn -0.9554 -0.0896 0.2815
vn -0.8480 -0.0879 0.5227
vn -0.0659 -0.2485 0.9664
vn -0.0915 -0.2160 0.9721
vn -0.1335 -0.2198 0.9664
vn -0.1021 -0.2515 0.9625
vn 0.0426 -0.2328 0.9716
vn 0.0359 -0.1972 0.9797
vn -0.0521 -0.4561 0.8884
vn 0.0812 -0.4406 0.8940
vn -0.0953 -0.4586 0.8835
vn -0.1297 0.1296 0.9830
vn -0.1295 0.2302 0.9645
vn -0.1555 0.2204 0.9629
vn -0.1623 0.1195 0.9795
vn -0.0291 0.1506 0.9882
vn -0.0474 0.2486 0.9675
vn -0.1377 0.0221 0.9902
vn -0.0097 0.0478 0.9988
vn -0.1786 0.0109 0.9839
vn 0.4446 0.2064 0.8716
vn 0.3987 0.2879 0.8707
vn 0.2187 0.2696 0.9378
vn 0.2667 0.1856 0.9457
vn 0.4819 0.1206 0.8679
vn 0.3198 0.0963 0.9426
vn -0.5340 -0.7663 0.3573
vn -0.3735 -0.8173 0.4387
vn -0.4855 -0.4560 0.7459
vn -0.5876 -0.4314 0.6846
vn 0.3932 -0.7576 0.5210
vn 0.4788 -0.7177 0.5056
vn 0.2547 -0.3977 0.8815
vn 0.2126 -0.4101 0.8869
vn 0.4543 -0.8819 -0.1257
vn 0.4959 -0.8656 -0.0700
vn 0.1531 -0.8339 0.5303
vn 0.1791 -0.9735 -0.1421
vn 0.1913 -0.5725 -0.7973
vn -0.2046 -0.7544 -0.6237
vn 0.1041 -0.5672 -0.8170
vn 0.9702 0.1367 -0.2001
vn 0.9701 0.0914 -0.2249
vn 0.8218 -0.1231 -0.5563
vn 0.8431 0.0772 -0.5322
vn 0.9634 0.0947 -0.2509
vn 0.8015 0.0615 -0.5948
vn 0.7045 -0.6192 -0.3467
vn 0.4400 -0.6456 -0.6242
vn -0.1549 -0.9853 -0.0717
vn -0.0653 -0.9958 -0.0634
vn -0.2369 -0.0539 -0.9700
vn -0.4373 0.0359 -0.8986
vn -0.1362 0.1046 -0.9851
vn 0.0008 -0.0224 -0.9997
vn 0.3942 -0.1872 -0.8998
vn 0.4604 -0.3299 -0.8241
vn -0.6860 -0.2883 0.6681
vn -0.6763 -0.2666 0.6867
vn -0.5289 -0.2854 0.7993
vn -0.5126 -0.2568 0.8193
vn -0.7474 -0.0177 0.6642
vn -0.7403 0.0510 0.6703
vn -0.5691 0.0211 0.8220
vn -0.5840 0.0984 0.8058
vn -0.7183 -0.0789 0.6912
vn -0.5449 -0.0591 0.8364
vn -0.2725 -0.8222 0.4997
vn -0.1890 -0.8408 0.5073
vn -0.2749 -0.4576 0.8456
vn -0.8097 0.2481 -0.5318
vn 0.3329 -0.1698 0.9276
vn 0.3095 -0.1407 0.9404
vn 0.2043 -0.1629 0.9653
vn 0.1866 -0.2028 0.9613
vn 0.3988 -0.3445 0.8499
vn 0.3595 -0.1029 -0.9275
vn 0.4376 -0.0767 -0.8959
vn -0.5646 -0.2131 -0.7974
vn -0.4176 -0.2395 -0.8765
vn 0.4215 -0.2535 -0.8707
vn -0.5646 -0.3509 -0.7470
vn 0.5262 0.1132 -0.8428
vn 0.4940 0.1882 -0.8489
vn 0.3696 0.0755 -0.9261
vn 0.3668 0.1739 -0.9139
vn 0.5317 0.0176 -0.8468
vn 0.2246 -0.1387 -0.9645
vn 0.1859 0.1750 0.9669
vn 0.1426 0.2688 0.9526
vn 0.0649 0.2613 0.9631
vn 0.1076 0.1695 0.9796
vn 0.2398 0.0852 0.9671
vn 0.1626 0.0739 0.9839
vn 0.8133 -0.4863 0.3193
vn 0.8264 -0.5629 -0.0154
vn 0.6313 -0.6408 0.4368
vn 0.4868 -0.8723 -0.0465
vn 0.6253 -0.5554 -0.5482
vn -0.2324 -0.8128 -0.5341
vn -0.3082 -0.2724 0.9115
vn -0.3178 -0.2406 0.9171
vn -0.3564 0.0726 0.9315
vn -0.3719 0.1654 0.9134
vn -0.3570 -0.0246 0.9338
vn 0.2852 -0.0641 -0.9563
vn 0.2877 -0.3315 -0.8985
vn 0.2295 -0.0553 -0.9717
vn 0.0255 -0.6041 -0.7965
vn -0.1099 -0.9860 -0.1257
vn -0.0804 -0.0440 -0.9958
vn -0.1092 0.1146 -0.9874
vn 0.0558 -0.4960 -0.8665
vn -0.0971 -0.8473 0.5221
vn -0.9538 -0.1893 -0.2332
vn -0.9294 -0.2386 -0.2815
vn -0.9394 -0.2265 -0.2575
vn 0.1053 0.0093 -0.9944
vn 0.2317 0.1653 -0.9586
vn -0.2964 -0.3168 -0.9010
vn 0.5463 -0.6729 0.4988
vn 0.4052 -0.9119 -0.0652
vn -0.4579 -0.8197 -0.3442
vn 0.1509 -0.2119 0.9656
vn 0.1630 -0.1731 0.9713
vn 0.0730 0.1671 0.9832
vn 0.0364 0.2609 0.9647
vn 0.1197 0.0695 0.9904
vn 0.9757 0.1022 -0.1937
vn 0.9939 0.1100 -0.0036
vn 0.8200 0.0586 -0.5694
vn -0.6523 -0.2046 -0.7298
vn 0.2012 -0.2125 -0.9562
vn -0.7759 -0.1694 -0.6077
vn -0.9417 -0.1680 0.2914
vn -0.9870 -0.1606 -0.0036
vn -0.8266 -0.1750 0.5349
vn 0.5194 0.0073 0.8545
vn 0.3639 -0.0155 0.9313
vn 0.8437 0.0687 0.5324
vn 0.9834 0.1043 0.1483
vn 0.0169 -0.6843 -0.7290
vn -0.5850 -0.5963 -0.5497
vn 0.1270 -0.6866 -0.7158
vn -0.9189 -0.1657 -0.3579
vn -0.1238 -0.1000 0.9873
vn -0.1692 -0.1081 0.9796
vn 0.0139 -0.0759 0.9970
vn 0.9108 -0.0672 -0.4072
vn 0.7468 -0.3685 -0.5536
vn -0.6866 -0.1720 0.7064
vn -0.5200 -0.1583 0.8394
vn 0.2787 -0.0319 0.9599
vn 0.1971 -0.0435 0.9794
vn 0.5017 -0.0376 -0.8642
vn -0.0980 -0.2724 -0.9572
vn -0.3356 -0.1345 0.9324
vn 0.2230 -0.6486 -0.7278
vn -0.7820 -0.3897 -0.4865
vn 0.1516 -0.0514 0.9871
vn 0.2805 -0.7867 0.5500
vn 0.3362 -0.8698 0.3612
vn 0.3051 -0.7835 -0.5413
vn 0.6234 -0.7352 -0.2661
vn -0.0505 -0.9908 0.1255
vn -0.6336 -0.7393 -0.2279
vn -0.4431 -0.8040 -0.3966
vn 0.0506 -0.9340 0.3536
vn -0.6585 -0.6522 -0.3756
vn -0.5451 -0.6481 -0.5319
vn 0.1542 -0.9014 0.4046
vn -0.0428 -0.7986 -0.6003
vn -0.1038 -0.5397 -0.8354
vn 0.1862 -0.4247 -0.8860
vn -0.6994 -0.7103 -0.0794
vn -0.6941 -0.7005 -0.1661
vn -0.7492 -0.6588 0.0690
vn -0.8999 -0.4352 0.0278
vn 0.0935 -0.9937 0.0624
vn 0.0021 -0.9847 0.1742
vn -0.6465 -0.7414 0.1797
vn -0.6118 0.7489 0.2544
vn -0.2907 0.8038 0.5190
vn -0.3268 0.3433 0.8805
vn -0.3033 -0.1815 0.9355
vn 0.6513 0.4100 0.6385
vn 0.3830 0.8364 0.3921
vn 0.5335 0.8387 0.1097
vn 0.9196 -0.1121 0.3764
vn 0.0445 0.8065 0.5896
vn 0.1746 0.5616 0.8088
vn 0.1147 0.5338 0.8378
vn 0.3301 0.5882 0.7383
vn -0.1835 0.4116 0.8927
vn 0.6014 0.7964 0.0638
vn 0.9942 -0.0635 0.0864
vn 0.8368 -0.5464 0.0341
vn -0.0033 -0.7413 -0.6712
vn -0.1904 -0.0312 -0.9812
vn -0.3737 -0.0713 -0.9248
vn -0.1282 -0.7663 -0.6296
vn -0.1523 -0.7243 0.6724
vn -0.1243 -0.7717 0.6237
vn -0.0005 -0.7476 0.6642
vn -0.0180 -0.7001 0.7138
vn 0.1218 -0.6749 -0.7278
vn -0.0180 -0.7000 -0.7139
vn -0.2616 0.6495 -0.7140
vn -0.1218 0.6749 -0.7278
vn 0.1275 -0.7152 -0.6872
vn 0.0003 0.0101 -0.9999
vn -0.1523 -0.7244 -0.6723
vn -0.3960 0.6254 -0.6724
vn 0.3877 -0.6641 -0.6393
vn 0.3740 0.0900 -0.9230
vn 0.1906 0.0510 -0.9803
vn 0.2596 -0.6890 -0.6766
vn 0.1217 -0.6748 0.7279
vn 0.1287 -0.7216 0.6803
vn 0.2593 -0.6960 0.6696
vn 0.2617 -0.6496 0.7138
vn -0.2761 -0.7466 -0.6053
vn -0.5197 0.6030 -0.6053
vn 0.5064 -0.6408 -0.5770
vn 0.5430 0.1255 -0.8303
vn 0.3861 -0.6706 0.6334
vn 0.3960 -0.6252 0.6725
vn -0.3848 -0.7662 -0.5148
vn -0.6284 0.5833 -0.5147
vn 0.6106 -0.6205 -0.4921
vn 0.6908 0.1561 -0.7059
vn 0.5037 -0.6470 0.5723
vn 0.5198 -0.6029 0.6052
vn -0.4737 -0.7824 -0.4043
vn -0.7175 0.5673 -0.4043
vn 0.6966 -0.6041 -0.3870
vn 0.8121 0.1808 -0.5547
vn 0.6078 -0.6261 0.4885
vn 0.6284 -0.5835 0.5145
vn -0.5400 -0.7943 -0.2786
vn -0.7835 0.5555 -0.2785
vn 0.7606 -0.5920 -0.2665
vn 0.9024 0.1986 -0.3823
vn 0.6938 -0.6084 0.3854
vn 0.7174 -0.5673 0.4045
vn -0.5805 -0.8018 -0.1420
vn -0.8244 0.5479 -0.1420
vn 0.7996 -0.5850 -0.1357
vn 0.9583 0.2087 -0.1951
vn 0.7580 -0.5953 0.2665
vn 0.7836 -0.5552 0.2787
vn -0.5944 -0.8041 -0.0000
vn -0.8381 0.5455 -0.0000
vn 0.8125 -0.5830 0.0004
vn 0.9775 0.2109 -0.0006
vn 0.7984 -0.5865 0.1363
vn 0.8243 -0.5480 0.1420
vn -0.5808 -0.8016 0.1420
vn -0.8244 0.5479 0.1420
vn 0.9594 0.2050 0.1939
vn 0.8381 -0.5455 -0.0000
vn -0.5399 -0.7944 0.2782
vn -0.7835 0.5554 0.2786
vn 0.9044 0.1913 0.3815
vn 0.8243 -0.5480 -0.1421
vn -0.4740 -0.7821 0.4045
vn -0.7174 0.5673 0.4044
vn 0.8149 0.1702 0.5540
vn 0.7837 -0.5554 -0.2783
vn -0.3848 -0.7661 0.5148
vn -0.6284 0.5833 0.5147
vn 0.6942 0.1427 0.7055
vn 0.7174 -0.5672 -0.4044
vn -0.2762 -0.7466 0.6052
vn -0.5198 0.6030 0.6051
vn 0.5466 0.1096 0.8302
vn 0.6284 -0.5835 -0.5145
vn -0.3960 0.6253 0.6725
vn 0.3781 0.0724 0.9229
vn 0.5197 -0.6029 -0.6053
vn -0.2616 0.6496 0.7139
vn 0.1943 0.0321 0.9804
vn 0.3957 -0.6253 -0.6726
vn -0.1218 0.6748 0.7279
vn 0.2617 -0.6495 -0.7139
vn 0.0179 0.7001 0.7139
vn 0.0038 -0.0092 1.0000
vn 0.1524 0.7242 0.6726
vn -0.1872 -0.0502 0.9810
vn 0.2762 0.7467 0.6051
vn -0.3708 -0.0893 0.9244
vn -0.2425 -0.7891 -0.5643
vn 0.3848 0.7662 0.5146
vn -0.2379 -0.7939 0.5596
vn -0.5406 -0.1250 0.8319
vn -0.3417 -0.8091 -0.4781
vn 0.4737 0.7823 0.4044
vn -0.3370 -0.8130 0.4748
vn -0.6895 -0.1559 0.7073
vn -0.4222 -0.8257 -0.3742
vn 0.5399 0.7944 0.2783
vn -0.4179 -0.8286 0.3725
vn -0.8112 -0.1808 0.5561
vn -0.4815 -0.8380 -0.2569
vn 0.5807 0.8017 0.1419
vn -0.4781 -0.8400 0.2565
vn -0.9023 -0.1985 0.3827
vn -0.5175 -0.8457 -0.1306
vn 0.5945 0.8041 -0.0000
vn -0.5155 -0.8468 0.1310
vn -0.9583 -0.2087 0.1949
vn -0.5287 -0.8488 0.0004
vn 0.5807 0.8017 -0.1420
vn -0.9775 -0.2109 -0.0006
vn 0.5400 0.7942 -0.2786
vn -0.9589 -0.2049 -0.1961
vn 0.4737 0.7823 -0.4044
vn -0.9035 -0.1911 -0.3837
vn 0.3848 0.7662 -0.5146
vn 0.2761 0.7466 -0.6052
vn -0.8131 -0.1698 -0.5567
vn 0.1523 0.7243 -0.6725
vn 0.0179 0.7000 -0.7140
vn -0.5431 -0.1088 -0.8326
vn -0.6915 -0.1421 -0.7083
vt 0.567089 0.339383
vt 0.567381 0.341113
vt 0.568133 0.338008
vt 0.567680 0.336943
vt 0.568964 0.334747
vt 0.568332 0.334381
vt 0.548868 0.339851
vt 0.560417 0.342277
vt 0.561064 0.339446
vt 0.549514 0.337020
vt 0.566176 0.343529
vt 0.566219 0.346391
vt 0.566734 0.343944
vt 0.566581 0.341607
vt 0.565890 0.345077
vt 0.565855 0.348360
vt 0.565733 0.346189
vt 0.565655 0.349775
vt 0.565712 0.346824
vt 0.565629 0.350583
vt 0.565828 0.346957
vt 0.565776 0.350752
vt 0.566075 0.346582
vt 0.566091 0.350276
vt 0.566445 0.345715
vt 0.566561 0.349173
vt 0.566923 0.344389
vt 0.567170 0.347485
vt 0.567492 0.342655
vt 0.567893 0.345277
vt 0.568128 0.340578
vt 0.568703 0.342635
vt 0.568808 0.338240
vt 0.569568 0.339659
vt 0.569505 0.335730
vt 0.570456 0.336464
vt 0.562609 0.338201
vt 0.563201 0.335761
vt 0.561816 0.336341
vt 0.563853 0.333199
vt 0.562647 0.333080
vt 0.559902 0.344723
vt 0.561697 0.342347
vt 0.562101 0.340425
vt 0.559538 0.346692
vt 0.561410 0.343894
vt 0.559338 0.348108
vt 0.561254 0.345007
vt 0.559312 0.348916
vt 0.561233 0.345642
vt 0.559459 0.349085
vt 0.561348 0.345774
vt 0.559774 0.348609
vt 0.561596 0.345400
vt 0.560245 0.347506
vt 0.561966 0.344533
vt 0.560853 0.345818
vt 0.562444 0.343207
vt 0.561576 0.343610
vt 0.563012 0.341472
vt 0.562386 0.340968
vt 0.563649 0.339396
vt 0.563251 0.337992
vt 0.564328 0.337058
vt 0.564139 0.334797
vt 0.565026 0.334547
vt 0.578668 0.344093
vt 0.579421 0.340987
vt 0.580251 0.337726
vt 0.577507 0.349370
vt 0.578022 0.346923
vt 0.577142 0.351339
vt 0.576943 0.352754
vt 0.576916 0.353562
vt 0.577063 0.353731
vt 0.577378 0.353255
vt 0.577849 0.352152
vt 0.578458 0.350464
vt 0.579181 0.348256
vt 0.579991 0.345614
vt 0.580856 0.342638
vt 0.581744 0.339443
vt 0.571332 0.333173
vt 0.582619 0.336152
vt 0.551702 0.335566
vt 0.550837 0.338542
vt 0.550027 0.341184
vt 0.549304 0.343392
vt 0.548695 0.345080
vt 0.548224 0.346183
vt 0.547909 0.346659
vt 0.547762 0.346490
vt 0.547789 0.345682
vt 0.547988 0.344267
vt 0.548352 0.342297
vt 0.550267 0.333915
vt 0.551097 0.330654
vt 0.581183 0.334233
vt 0.580607 0.337516
vt 0.581236 0.335159
vt 0.579103 0.343721
vt 0.579539 0.341811
vt 0.580431 0.342838
vt 0.579885 0.344620
vt 0.578357 0.348200
vt 0.578375 0.347655
vt 0.580047 0.339716
vt 0.579397 0.346110
vt 0.578510 0.346700
vt 0.550535 0.334346
vt 0.550135 0.336097
vt 0.578986 0.347248
vt 0.578755 0.345371
vt 0.582204 0.336454
vt 0.581614 0.338674
vt 0.578669 0.347993
vt 0.581015 0.340830
vt 0.578456 0.348314
vt 0.549737 0.340014
vt 0.550028 0.339332
vt 0.549816 0.337611
vt 0.549542 0.340309
vt 0.553838 0.335174
vt 0.553438 0.336925
vt 0.551353 0.335287
vt 0.551888 0.333446
vt 0.549451 0.340204
vt 0.551000 0.332425
vt 0.550852 0.336922
vt 0.549467 0.339705
vt 0.550404 0.338288
vt 0.549591 0.338829
vt 0.552894 0.339657
vt 0.553119 0.338438
vt 0.552845 0.341137
vt 0.553040 0.340842
vt 0.577411 0.336673
vt 0.578040 0.334316
vt 0.552771 0.340532
vt 0.553331 0.340160
vt 0.553708 0.339115
vt 0.575907 0.342877
vt 0.576343 0.340968
vt 0.552754 0.341032
vt 0.554155 0.337750
vt 0.554656 0.336115
vt 0.575313 0.345856
vt 0.575559 0.344528
vt 0.575790 0.346405
vt 0.575473 0.347149
vt 0.578418 0.337831
vt 0.577819 0.339986
vt 0.576851 0.338873
vt 0.575161 0.347356
vt 0.575179 0.346811
vt 0.576689 0.343777
vt 0.576201 0.345266
vt 0.575260 0.347470
vt 0.577235 0.341994
vt 0.581796 0.333141
vt 0.578600 0.332297
vt 0.579008 0.335611
vt 0.579569 0.333411
vt 0.580076 0.331316
vt 0.580512 0.329406
vt 0.580860 0.327756
vt 0.581106 0.326427
vt 0.581240 0.325472
vt 0.581258 0.324927
vt 0.581159 0.324813
vt 0.580947 0.325134
vt 0.580629 0.325879
vt 0.580218 0.327017
vt 0.579730 0.328507
vt 0.579184 0.330290
vt 0.554304 0.333253
vt 0.569895 0.331254
vt 0.576059 0.408447
vt 0.575598 0.448603
vt 0.576154 0.448593
vt 0.576524 0.408119
vt 0.573452 0.408295
vt 0.572154 0.447783
vt 0.575524 0.367893
vt 0.573768 0.378502
vt 0.575903 0.367145
vt 0.538690 0.400675
vt 0.531296 0.438298
vt 0.535988 0.438802
vt 0.542726 0.400944
vt 0.534591 0.400178
vt 0.526441 0.437704
vt 0.546085 0.362646
vt 0.541404 0.372110
vt 0.549511 0.362532
vt 0.532803 0.399382
vt 0.524134 0.437228
vt 0.523618 0.437019
vt 0.532487 0.398909
vt 0.542518 0.361528
vt 0.542431 0.360696
vt 0.567490 0.406524
vt 0.564050 0.445283
vt 0.556154 0.442763
vt 0.561692 0.404569
vt 0.571082 0.367380
vt 0.567391 0.365833
vt 0.548644 0.348360
vt 0.551993 0.347723
vt 0.552158 0.346219
vt 0.548715 0.347153
vt 0.568326 0.496168
vt 0.560320 0.519921
vt 0.559139 0.512762
vt 0.564909 0.495150
vt 0.573545 0.471331
vt 0.574088 0.471434
vt 0.568726 0.496260
vt 0.569895 0.470284
vt 0.568325 0.496180
vt 0.560319 0.519940
vt 0.560563 0.519994
vt 0.564908 0.495169
vt 0.559138 0.512786
vt 0.573545 0.471334
vt 0.569895 0.470289
vt 0.555736 0.402752
vt 0.549370 0.441039
vt 0.552202 0.441641
vt 0.558480 0.403547
vt 0.552128 0.401898
vt 0.545672 0.440303
vt 0.562277 0.363667
vt 0.558752 0.362603
vt 0.564925 0.364793
vt 0.540811 0.488142
vt 0.536174 0.512904
vt 0.538930 0.513406
vt 0.543603 0.488654
vt 0.537171 0.487473
vt 0.532579 0.512247
vt 0.545505 0.463190
vt 0.541796 0.462503
vt 0.548351 0.463717
vt 0.523898 0.485225
vt 0.520302 0.510021
vt 0.523610 0.510596
vt 0.527883 0.485806
vt 0.519813 0.484627
vt 0.518479 0.503152
vt 0.527460 0.460222
vt 0.522605 0.459601
vt 0.532140 0.460810
vt 0.517935 0.484333
vt 0.516651 0.509398
vt 0.517548 0.484258
vt 0.516428 0.509352
vt 0.520268 0.459258
vt 0.519729 0.459156
vt 0.517935 0.484317
vt 0.516651 0.509372
vt 0.519813 0.484601
vt 0.518479 0.503120
vt 0.520268 0.459254
vt 0.522605 0.459594
vt 0.548437 0.401402
vt 0.541939 0.439663
vt 0.539031 0.439203
vt 0.545542 0.401158
vt 0.555063 0.362338
vt 0.552139 0.362441
vt 0.533508 0.486789
vt 0.528960 0.511567
vt 0.526144 0.511035
vt 0.530660 0.486255
vt 0.537171 0.487470
vt 0.532579 0.512242
vt 0.538070 0.461812
vt 0.535173 0.461275
vt 0.556262 0.492445
vt 0.551516 0.517167
vt 0.543041 0.514508
vt 0.547745 0.489772
vt 0.561116 0.467552
vt 0.552537 0.464858
vt 0.565012 0.347976
vt 0.567607 0.349583
vt 0.565428 0.345979
vt 0.568006 0.347865
vt 0.561499 0.346597
vt 0.561903 0.344415
vt 0.544324 0.401055
vt 0.537807 0.439010
vt 0.550909 0.362485
vt 0.553376 0.347460
vt 0.554659 0.347216
vt 0.554899 0.345476
vt 0.553580 0.345833
vt 0.529461 0.486045
vt 0.524959 0.510834
vt 0.526144 0.511054
vt 0.530660 0.486268
vt 0.533954 0.461053
vt 0.535173 0.461279
vt 0.523898 0.485202
vt 0.520302 0.509985
vt 0.527883 0.485788
vt 0.523610 0.510570
vt 0.527460 0.460216
vt 0.532140 0.460806
vt 0.518920 0.518258
vt 0.559577 0.403865
vt 0.553334 0.441883
vt 0.565984 0.365242
vt 0.556261 0.492463
vt 0.551515 0.517194
vt 0.547744 0.489785
vt 0.543040 0.514528
vt 0.561116 0.467557
vt 0.552537 0.464862
vt 0.544720 0.488848
vt 0.540032 0.513589
vt 0.538930 0.513391
vt 0.543604 0.488645
vt 0.549489 0.463925
vt 0.548351 0.463715
vt 0.572768 0.352779
vt 0.573135 0.351615
vt 0.569805 0.350944
vt 0.570190 0.349461
vt 0.529461 0.486030
vt 0.524959 0.510811
vt 0.533954 0.461050
vt 0.557707 0.346636
vt 0.558033 0.344625
vt 0.533508 0.486796
vt 0.528960 0.511578
vt 0.538070 0.461814
vt 0.544719 0.488859
vt 0.540031 0.513606
vt 0.549489 0.463928
vt 0.568644 0.350225
vt 0.569037 0.348618
vt 0.540812 0.488137
vt 0.536174 0.512896
vt 0.545505 0.463189
vt 0.575365 0.462520
vt 0.575954 0.462622
vt 0.571639 0.461471
vt 0.528739 0.451363
vt 0.533651 0.451950
vt 0.523630 0.450736
vt 0.521145 0.450372
vt 0.520559 0.450255
vt 0.562819 0.458729
vt 0.554222 0.456024
vt 0.547159 0.454337
vt 0.550021 0.454872
vt 0.543429 0.453642
vt 0.539681 0.452951
vt 0.536769 0.452417
vt 0.535543 0.452192
vt 0.551165 0.455087
vt 0.554552 0.511178
vt 0.544782 0.504347
vt 0.543711 0.505304
vt 0.553221 0.510946
vt 0.503774 0.507077
vt 0.500897 0.512200
vt 0.511394 0.505370
vt 0.516026 0.502650
vt 0.492805 0.525286
vt 0.503596 0.519715
vt 0.530863 0.501547
vt 0.528292 0.503007
vt 0.524105 0.517414
vt 0.544561 0.520942
vt 0.495731 0.511020
vt 0.491744 0.516766
vt 0.491881 0.520688
vt 0.496258 0.510770
vt 0.496054 0.511383
vt 0.495350 0.511427
vt 0.501054 0.506571
vt 0.502240 0.509321
vt 0.496974 0.512512
vt 0.550638 0.512590
vt 0.542241 0.507667
vt 0.543235 0.507302
vt 0.551679 0.512480
vt 0.517322 0.505811
vt 0.512925 0.508148
vt 0.503106 0.514727
vt 0.505900 0.509756
vt 0.528440 0.505767
vt 0.530851 0.504922
vt 0.524309 0.518731
vt 0.505386 0.521343
vt 0.542806 0.521612
vt 0.498126 0.513492
vt 0.498836 0.513057
vt 0.502997 0.509428
vt 0.503992 0.512043
vt 0.555627 0.380986
vt 0.571703 0.306474
vt 0.571244 0.306391
vt 0.555168 0.380903
vt 0.554287 0.380744
vt 0.555178 0.380905
vt 0.556104 0.381072
vt 0.541957 0.454143
vt 0.542883 0.454311
vt 0.572180 0.306560
vt 0.541066 0.453983
vt 0.557040 0.381241
vt 0.573116 0.306729
vt 0.572657 0.306646
vt 0.556581 0.381158
vt 0.557030 0.381239
vt 0.553466 0.380596
vt 0.540245 0.453835
vt 0.557462 0.381317
vt 0.573538 0.306805
vt 0.557921 0.381400
vt 0.552746 0.380466
vt 0.539525 0.453705
vt 0.557833 0.381384
vt 0.573909 0.306872
vt 0.558742 0.381548
vt 0.552156 0.380359
vt 0.538935 0.453598
vt 0.558137 0.381439
vt 0.574213 0.306927
vt 0.559461 0.381678
vt 0.551717 0.380280
vt 0.538496 0.453519
vt 0.558363 0.381479
vt 0.574439 0.306968
vt 0.560052 0.381784
vt 0.551447 0.380231
vt 0.538226 0.453470
vt 0.558502 0.381505
vt 0.574578 0.306993
vt 0.560491 0.381864
vt 0.551356 0.380215
vt 0.538135 0.453454
vt 0.558549 0.381513
vt 0.574625 0.307002
vt 0.560761 0.381912
vt 0.560852 0.381929
vt 0.543809 0.454478
vt 0.544700 0.454639
vt 0.545521 0.454787
vt 0.554745 0.380826
vt 0.546241 0.454917
vt 0.570822 0.306315
vt 0.554375 0.380760
vt 0.546831 0.455023
vt 0.570451 0.306248
vt 0.554071 0.380705
vt 0.547270 0.455103
vt 0.570147 0.306193
vt 0.553845 0.380664
vt 0.547540 0.455151
vt 0.569921 0.306152
vt 0.553706 0.380639
vt 0.547631 0.455168
vt 0.569782 0.306127
vt 0.553659 0.380630
vt 0.569735 0.306119
s 1
usemtl joints.004
f 305/1/1 338/2/2 339/3/3 306/4/4
f 306/4/4 339/3/3 323/5/5 259/6/6
f 265/7/7 352/8/8 353/9/9 263/10/10
f 303/11/11 336/12/12 337/13/13 304/14/14
f 302/15/15 335/16/16 336/12/12 303/11/11
f 301/17/17 334/18/18 335/16/16 302/15/15
f 300/19/19 333/20/20 334/18/18 301/17/17
f 299/21/21 332/22/22 333/20/20 300/19/19
f 298/23/23 331/24/24 332/22/22 299/21/21
f 297/25/25 330/26/26 331/24/24 298/23/23
f 296/27/27 329/28/28 330/26/26 297/25/25
f 295/29/29 328/30/30 329/28/28 296/27/27
f 294/31/31 327/32/32 328/30/30 295/29/29
f 293/33/33 326/34/34 327/32/32 294/31/31
f 292/35/35 325/36/36 326/34/34 293/33/33
f 353/9/9 320/37/37 321/38/38 354/39/39
f 354/39/39 321/38/38 322/40/40 355/41/41
f 304/14/14 337/13/13 338/2/2 305/1/1
f 351/42/42 318/43/43 319/44/44 352/8/8
f 350/45/45 317/46/46 318/43/43 351/42/42
f 349/47/47 316/48/48 317/46/46 350/45/45
f 348/49/49 315/50/50 316/48/48 349/47/47
f 347/51/51 314/52/52 315/50/50 348/49/49
f 346/53/53 313/54/54 314/52/52 347/51/51
f 345/55/55 312/56/56 313/54/54 346/53/53
f 344/57/57 311/58/58 312/56/56 345/55/55
f 343/59/59 310/60/60 311/58/58 344/57/57
f 342/61/61 309/62/62 310/60/60 343/59/59
f 341/63/63 308/64/64 309/62/62 342/61/61
f 340/65/65 307/66/66 308/64/64 341/63/63
f 338/2/2 262/67/67 260/68/68 339/3/3
f 339/3/3 260/68/68 290/69/69 323/5/5
f 352/8/8 319/44/44 320/37/37 353/9/9
f 336/12/12 266/70/70 264/71/71 337/13/13
f 335/16/16 268/72/72 266/70/70 336/12/12
f 334/18/18 270/73/73 268/72/72 335/16/16
f 333/20/20 272/74/74 270/73/73 334/18/18
f 332/22/22 274/75/75 272/74/74 333/20/20
f 331/24/24 276/76/76 274/75/75 332/22/22
f 330/26/26 278/77/77 276/76/76 331/24/24
f 329/28/28 280/78/78 278/77/77 330/26/26
f 328/30/30 282/79/79 280/78/78 329/28/28
f 327/32/32 284/80/80 282/79/79 328/30/30
f 326/34/34 286/81/81 284/80/80 327/32/32
f 325/36/36 288/82/82 286/81/81 326/34/34
f 324/83/83 289/84/84 288/82/82 325/36/36
f 287/85/85 341/63/63 342/61/61 285/86/86
f 285/86/86 342/61/61 343/59/59 283/87/87
f 283/87/87 343/59/59 344/57/57 281/88/88
f 281/88/88 344/57/57 345/55/55 279/89/89
f 279/89/89 345/55/55 346/53/53 277/90/90
f 277/90/90 346/53/53 347/51/51 275/91/91
f 275/91/91 347/51/51 348/49/49 273/92/92
f 273/92/92 348/49/49 349/47/47 271/93/93
f 271/93/93 349/47/47 350/45/45 269/94/94
f 269/94/94 350/45/45 351/42/42 267/95/95
f 267/95/95 351/42/42 352/8/8 265/7/7
f 319/44/44 304/14/14 305/1/1 320/37/37
f 261/96/96 354/39/39 355/41/41 291/97/97
f 263/10/10 353/9/9 354/39/39 261/96/96
f 356/98/98 290/69/69 543/99/99 544/100/100
f 307/66/66 292/35/35 293/33/33 308/64/64
f 308/64/64 293/33/33 294/31/31 309/62/62
f 309/62/62 294/31/31 295/29/29 310/60/60
f 310/60/60 295/29/29 296/27/27 311/58/58
f 311/58/58 296/27/27 297/25/25 312/56/56
f 312/56/56 297/25/25 298/23/23 313/54/54
f 313/54/54 298/23/23 299/21/21 314/52/52
f 314/52/52 299/21/21 300/19/19 315/50/50
f 315/50/50 300/19/19 301/17/17 316/48/48
f 316/48/48 301/17/17 302/15/15 317/46/46
f 317/46/46 302/15/15 303/11/11 318/43/43
f 318/43/43 303/11/11 304/14/14 319/44/44
f 264/71/71 528/101/101 527/102/102 262/67/67
f 321/38/38 306/4/4 259/6/6 322/40/40
f 320/37/37 305/1/1 306/4/4 321/38/38
f 282/79/79 284/80/80 538/103/103 537/104/104
f 270/73/73 272/74/74 532/105/105 531/106/106
f 290/69/69 260/68/68 526/107/107 543/99/99
f 280/78/78 282/79/79 537/104/104 536/108/108
f 268/72/72 270/73/73 531/106/106 530/109/109
f 265/7/7 263/10/10 546/110/110 547/111/111
f 278/77/77 280/78/78 536/108/108 535/112/112
f 266/70/70 268/72/72 530/109/109 529/113/113
f 288/82/82 289/84/84 541/114/114 540/115/115
f 276/76/76 278/77/77 535/112/112 534/116/116
f 264/71/71 266/70/70 529/113/113 528/101/101
f 286/81/81 288/82/82 540/115/115 539/117/117
f 274/75/75 276/76/76 534/116/116 533/118/118
f 284/80/80 286/81/81 539/117/117 538/103/103
f 272/74/74 274/75/75 533/118/118 532/105/105
f 260/68/68 262/67/67 527/102/102 526/107/107
f 279/89/89 277/90/90 553/119/119 554/120/120
f 267/95/95 265/7/7 547/111/111 548/121/121
f 277/90/90 275/91/91 552/122/122 553/119/119
f 547/111/111 546/110/110 560/123/123 561/124/124
f 287/85/85 285/86/86 557/125/125 558/126/126
f 275/91/91 273/92/92 551/127/127 552/122/122
f 263/10/10 261/96/96 545/128/126 546/110/110
f 285/86/86 283/87/87 556/129/128 557/125/125
f 273/92/92 271/93/93 550/130/129 551/127/127
f 283/87/87 281/88/88 555/131/130 556/129/128
f 271/93/93 269/94/94 549/132/131 550/130/129
f 281/88/88 279/89/89 554/120/120 555/131/130
f 269/94/94 267/95/95 548/121/121 549/132/131
f 563/133/132 562/134/133 646/134/134 647/133/135
f 553/119/119 552/122/122 566/135/136 567/136/137
f 544/100/100 543/99/99 589/137/138 590/138/139
f 550/130/129 549/132/131 563/133/132 564/139/140
f 555/131/130 554/120/120 568/140/141 569/141/142
f 528/101/101 574/142/143 573/143/144 527/102/102
f 552/122/122 551/127/127 565/144/145 566/135/136
f 557/125/125 556/129/128 570/145/146 571/146/147
f 549/132/131 548/121/121 562/134/133 563/133/132
f 554/120/120 553/119/119 567/136/137 568/140/141
f 551/127/127 550/130/129 564/139/140 565/144/145
f 556/129/128 555/131/130 569/141/142 570/145/146
f 548/121/121 547/111/111 561/124/124 562/134/133
f 529/113/113 530/109/109 576/147/148 575/148/149
f 534/116/116 535/112/112 581/149/150 580/150/151
f 573/143/144 574/142/143 593/142/152 592/143/153
f 539/117/117 540/115/115 586/151/154 585/152/155
f 526/107/107 527/102/102 573/143/144 572/153/156
f 531/106/106 532/105/105 578/154/157 577/155/158
f 536/108/108 537/104/104 583/156/159 582/157/160
f 528/101/101 529/113/113 575/148/149 574/142/143
f 533/118/118 534/116/116 580/150/151 579/158/161
f 590/138/139 589/137/138 609/137/162 610/138/163
f 538/103/103 539/117/117 585/152/155 584/159/164
f 543/99/99 526/107/107 572/153/156 589/137/138
f 530/109/109 531/106/106 577/155/158 576/147/148
f 535/112/112 536/108/108 582/157/160 581/149/150
f 542/160/165 544/100/100 590/138/139 588/161/165
f 540/115/115 541/114/114 587/162/166 586/151/154
f 532/105/105 533/118/118 579/158/161 578/154/157
f 537/104/104 538/103/103 584/159/164 583/156/159
f 579/158/161 580/150/151 599/150/167 598/158/168
f 610/138/163 609/137/162 641/137/169 642/138/170
f 584/159/164 585/152/155 604/152/171 603/159/172
f 589/137/138 572/153/156 591/153/173 609/137/162
f 576/147/148 577/155/158 596/155/174 595/147/175
f 581/149/150 582/157/160 601/157/176 600/149/177
f 586/151/154 587/162/166 606/162/178 605/151/179
f 592/143/153 593/142/152 613/142/180 612/143/181
f 578/154/157 579/158/161 598/158/168 597/154/182
f 583/156/159 584/159/164 603/159/172 602/156/183
f 575/148/149 576/147/148 595/147/175 594/148/184
f 580/150/151 581/149/150 600/149/177 599/150/167
f 585/152/155 586/151/154 605/151/179 604/152/171
f 572/153/156 573/143/144 592/143/153 591/153/173
f 577/155/158 578/154/157 597/154/182 596/155/174
f 582/157/160 583/156/159 602/156/183 601/157/176
f 574/142/143 575/148/149 594/148/184 593/142/152
f 641/137/169 611/153/68 612/143/181 613/142/180 614/148/185 615/147/72 616/155/186 617/154/187 618/158/188 619/150/76 620/149/77 621/157/78 622/156/79 623/159/189 624/152/190 625/151/191 626/162/192 627/163/193 628/164/194 629/165/194 630/166/194 631/167/194 632/168/194 633/169/194 634/170/194 635/171/194 636/172/194 637/173/194 638/174/194 639/175/194 640/161/195 642/138/170
f 603/159/172 604/152/171 624/152/190 623/159/189
f 609/137/162 591/153/173 611/153/68 641/137/169
f 595/147/175 596/155/174 616/155/186 615/147/72
f 600/149/177 601/157/176 621/157/78 620/149/77
f 608/161/196 610/138/163 642/138/170 640/161/195
f 605/151/179 606/162/178 626/162/192 625/151/191
f 560/123/123 644/123/197 645/124/198 561/124/124
f 597/154/182 598/158/168 618/158/188 617/154/187
f 602/156/183 603/159/172 623/159/189 622/156/79
f 594/148/184 595/147/175 615/147/72 614/148/185
f 599/150/167 600/149/177 620/149/77 619/150/76
f 604/152/171 605/151/179 625/151/191 624/152/190
f 591/153/173 592/143/153 612/143/181 611/153/68
f 596/155/174 597/154/182 617/154/187 616/155/186
f 601/157/176 602/156/183 622/156/79 621/157/78
f 606/162/178 607/163/199 627/163/193 626/162/192
f 593/142/152 594/148/184 614/148/185 613/142/180
f 598/158/168 599/150/167 619/150/76 618/158/188
f 568/140/141 567/136/137 651/136/200 652/140/201
f 645/124/198 644/123/197 656/123/202 657/124/203
f 560/123/123 559/176/204 643/176/204 644/123/197
f 565/144/145 564/139/140 648/139/205 649/144/206
f 570/145/146 569/141/142 653/141/207 654/145/208
f 562/134/133 561/124/124 645/124/198 646/134/134
f 567/136/137 566/135/136 650/135/209 651/136/200
f 564/139/140 563/133/132 647/133/135 648/139/205
f 569/141/142 568/140/141 652/140/201 653/141/207
f 566/135/136 565/144/145 649/144/206 650/135/209
f 571/146/147 570/145/146 654/145/208 655/146/210
f 653/141/207 652/140/201 664/140/211 665/141/212
f 356/98/98 357/177/213 323/5/5 290/69/69
f 650/135/209 649/144/206 661/144/214 662/135/215
f 655/146/210 654/145/208 666/145/216 667/146/217
f 647/133/135 646/134/134 658/134/218 659/133/219
f 652/140/201 651/136/200 663/136/220 664/140/211
f 649/144/206 648/139/205 660/139/221 661/144/214
f 654/145/208 653/141/207 665/141/212 666/145/216
f 646/134/134 645/124/198 657/124/203 658/134/218
f 651/136/200 650/135/209 662/135/215 663/136/220
f 648/139/205 647/133/135 659/133/219 660/139/221
f 337/13/13 264/71/71 262/67/67 338/2/2
usemtl limbs.005
f 1/178/222 174/179/223 247/180/224 86/181/225
f 1/178/222 63/182/226 243/183/227 174/179/223
f 1/178/222 76/184/228 191/185/229 63/182/226
f 1/178/222 86/181/225 200/186/230 76/184/228
f 2/187/231 175/188/232 251/189/233 113/190/234
f 2/187/231 67/191/235 244/192/236 175/188/232
f 2/187/231 80/193/237 192/194/238 67/191/235
f 2/187/231 113/190/234 217/195/239 80/193/237
f 3/196/240 176/197/241 249/198/242 94/199/243
f 3/196/240 70/191/244 245/192/245 176/197/241
f 3/196/240 83/200/246 193/194/247 70/191/244
f 3/196/240 94/199/243 207/201/248 83/200/246
f 4/202/249 177/203/250 253/204/251 126/205/252
f 4/202/249 77/182/253 246/183/254 177/203/250
f 4/202/249 85/206/255 190/185/256 77/182/253
f 4/202/249 126/205/252 225/207/257 85/206/255
f 5/208/258 114/209/259 221/210/260 102/211/261
f 5/208/258 80/193/237 217/195/239 114/209/259
f 5/208/258 71/200/262 192/194/238 80/193/237
f 5/208/258 102/211/261 207/201/248 71/200/262
f 6/178/263 178/179/264 246/183/254 77/182/253
f 6/178/263 86/181/225 247/180/224 178/179/264
f 6/178/263 64/184/265 200/186/230 86/181/225
f 6/178/263 77/182/253 190/185/256 64/184/265
f 7/212/266 74/213/267 194/214/268 65/215/269
f 7/212/266 88/216/270 210/217/271 87/218/272
f 7/212/266 65/215/269 201/219/273 88/216/270
f 8/220/274 62/221/275 198/222/276 87/218/272
f 8/220/274 75/223/277 195/224/278 62/221/275
f 8/220/274 89/225/279 199/226/280 75/223/277
f 8/220/274 87/218/272 210/217/271 89/225/279
f 9/227/281 179/228/282 257/229/283 152/230/284
f 9/227/281 90/231/285 248/232/286 179/228/282
f 9/227/281 119/233/287 204/234/288 90/231/285
f 9/227/281 152/230/284 237/235/289 119/233/287
f 10/236/290 121/237/291 239/238/292 153/239/293
f 10/236/290 91/240/294 202/241/295 121/237/291
f 10/236/290 123/242/296 211/243/297 91/240/294
f 10/236/290 153/239/293 241/244/298 123/242/296
f 11/245/299 66/246/300 215/247/301 115/248/302
f 11/245/299 79/249/303 196/250/304 66/246/300
f 11/245/299 110/251/305 203/252/306 79/249/303
f 11/245/299 115/248/302 219/253/307 110/251/305
f 12/196/308 180/197/309 244/192/236 67/191/235
f 12/196/308 94/199/243 249/198/242 180/197/309
f 12/196/308 71/200/262 207/201/248 94/199/243
f 12/196/308 67/191/235 192/194/238 71/200/262
f 13/254/310 81/255/311 196/250/304 79/249/303
f 13/254/310 95/256/312 205/257/313 81/255/311
f 13/254/310 96/258/314 212/259/315 95/256/312
f 13/254/310 79/249/303 203/252/306 96/258/314
f 14/260/316 69/261/317 205/257/313 95/256/312
f 14/260/316 82/262/318 197/263/319 69/261/317
f 14/260/316 97/264/320 206/265/321 82/262/318
f 14/260/316 95/256/312 212/259/315 97/264/320
f 15/266/322 181/267/323 255/268/324 139/269/325
f 15/266/322 98/231/326 250/232/327 181/267/323
f 15/266/322 107/270/328 209/234/329 98/231/326
f 15/266/322 139/269/325 231/271/330 107/270/328
f 16/272/331 109/273/332 233/274/333 140/275/334
f 16/272/331 99/276/335 208/277/336 109/273/332
f 16/272/331 111/278/337 213/243/338 99/276/335
f 16/272/331 140/275/334 234/279/339 111/278/337
f 17/280/340 72/281/341 223/282/342 129/283/343
f 17/280/340 65/215/269 194/214/268 72/281/341
f 17/280/340 124/284/344 201/219/273 65/215/269
f 17/280/340 129/283/343 227/285/345 124/284/344
f 18/208/346 118/209/347 216/195/348 73/193/349
f 18/208/346 102/211/261 221/210/260 118/209/347
f 18/208/346 83/200/246 207/201/248 102/211/261
f 18/208/346 73/193/349 193/194/247 83/200/246
f 19/286/350 154/287/351 240/235/352 122/233/353
f 19/286/350 125/288/354 242/289/355 154/287/351
f 19/286/350 104/290/356 214/291/357 125/288/354
f 19/286/350 122/233/353 209/234/329 104/290/356
f 20/286/358 155/287/359 242/289/355 125/288/354
f 20/286/358 119/233/287 237/235/289 155/287/359
f 20/286/358 105/290/360 204/234/288 119/233/287
f 20/286/358 125/288/354 214/291/357 105/290/360
f 21/292/361 182/293/362 256/268/363 141/269/364
f 21/292/361 113/190/234 251/189/233 182/293/362
f 21/292/361 135/294/365 217/195/239 113/190/234
f 21/292/361 141/269/364 232/271/366 135/294/365
f 22/295/367 142/296/368 235/297/369 138/298/370
f 22/295/367 135/294/365 232/271/366 142/296/368
f 22/295/367 114/209/259 217/195/239 135/294/365
f 22/295/367 138/298/370 221/210/260 114/209/259
f 23/299/371 133/300/372 230/301/373 143/302/374
f 23/299/371 115/248/302 215/247/301 133/300/372
f 23/299/371 132/303/375 219/253/307 115/248/302
f 23/299/371 143/302/374 229/304/376 132/303/375
f 24/187/377 183/188/378 245/192/245 70/191/244
f 24/187/377 116/190/379 252/189/380 183/188/378
f 24/187/377 73/193/349 216/195/348 116/190/379
f 24/187/377 70/191/244 193/194/247 73/193/349
f 25/305/381 84/306/382 197/263/319 82/262/318
f 25/305/381 117/307/383 218/308/384 84/306/382
f 25/305/381 100/309/385 220/310/386 117/307/383
f 25/305/381 82/262/318 206/265/321 100/309/385
f 26/295/387 144/296/388 231/271/330 134/294/389
f 26/295/387 138/298/370 235/297/369 144/296/388
f 26/295/387 118/209/347 221/210/260 138/298/370
f 26/295/387 134/294/389 216/195/348 118/209/347
f 27/311/390 66/246/300 196/250/304 81/255/311
f 28/312/391 184/313/392 258/229/393 156/230/394
f 28/312/391 126/205/252 253/204/251 184/313/392
f 28/312/391 149/314/395 225/207/257 126/205/252
f 28/312/391 156/230/394 240/235/352 149/314/395
f 29/202/396 185/203/397 243/183/227 63/182/226
f 29/202/396 127/205/398 254/204/399 185/203/397
f 29/202/396 68/206/400 222/207/401 127/205/398
f 29/202/396 63/182/226 191/185/229 68/206/400
f 30/315/402 78/316/403 195/224/278 75/223/277
f 30/315/402 128/317/404 224/318/405 78/316/403
f 30/315/402 92/319/406 226/320/407 128/317/404
f 30/315/402 75/223/277 199/226/280 92/319/406
f 31/321/408 147/322/409 238/323/410 157/324/411
f 31/321/408 129/283/343 223/282/342 147/322/409
f 31/321/408 145/325/412 227/285/345 129/283/343
f 31/321/408 157/324/411 236/326/413 145/325/412
f 32/327/414 64/184/265 190/185/256 85/206/255
f 32/327/414 103/328/415 200/186/230 64/184/265
f 32/327/414 130/329/416 228/330/417 103/328/415
f 32/327/414 85/206/255 225/207/257 130/329/416
f 33/327/418 76/184/228 200/186/230 103/328/415
f 33/327/418 68/206/400 191/185/229 76/184/228
f 33/327/418 131/329/419 222/207/401 68/206/400
f 33/327/418 103/328/415 228/330/417 131/329/419
f 34/292/420 186/293/421 252/189/380 116/190/379
f 34/292/420 139/269/325 255/268/324 186/293/421
f 34/292/420 134/294/389 231/271/330 139/269/325
f 34/292/420 116/190/379 216/195/348 134/294/389
f 35/331/422 136/332/423 218/308/384 117/307/383
f 35/331/422 140/275/334 233/274/333 136/332/423
f 35/331/422 137/333/424 234/279/339 140/275/334
f 35/331/422 117/307/383 220/310/386 137/333/424
f 36/266/425 187/267/426 248/232/286 90/231/285
f 36/266/425 141/269/364 256/268/363 187/267/426
f 36/266/425 108/270/427 232/271/366 141/269/364
f 36/266/425 90/231/285 204/234/288 108/270/427
f 37/334/428 105/290/360 214/291/357 112/335/429
f 37/334/428 108/270/427 204/234/288 105/290/360
f 37/334/428 142/296/368 232/271/366 108/270/427
f 37/334/428 112/335/429 235/297/369 142/296/368
f 38/336/430 106/337/431 202/241/295 91/240/294
f 38/336/430 143/302/374 230/301/373 106/337/431
f 38/336/430 93/338/432 229/304/376 143/302/374
f 38/336/430 91/240/294 211/243/297 93/338/432
f 39/334/433 104/290/356 209/234/329 107/270/328
f 39/334/433 112/335/429 214/291/357 104/290/356
f 39/334/433 144/296/388 235/297/369 112/335/429
f 39/334/433 107/270/328 231/271/330 144/296/388
f 40/312/434 188/313/435 254/204/399 127/205/398
f 40/312/434 152/230/284 257/229/283 188/313/435
f 40/312/434 146/314/436 237/235/289 152/230/284
f 40/312/434 127/205/398 222/207/401 146/314/436
f 41/339/437 148/340/438 224/318/405 128/317/404
f 41/339/437 153/239/293 239/238/292 148/340/438
f 41/339/437 150/341/439 241/244/298 153/239/293
f 41/339/437 128/317/404 226/320/407 150/341/439
f 42/342/440 130/329/416 225/207/257 149/314/395
f 42/342/440 151/343/441 228/330/417 130/329/416
f 42/342/440 154/287/351 242/289/355 151/343/441
f 42/342/440 149/314/395 240/235/352 154/287/351
f 43/342/442 131/329/419 228/330/417 151/343/441
f 43/342/442 146/314/436 222/207/401 131/329/419
f 43/342/442 155/287/359 237/235/289 146/314/436
f 43/342/442 151/343/441 242/289/355 155/287/359
f 44/227/443 189/228/444 250/232/327 98/231/326
f 44/227/443 156/230/394 258/229/393 189/228/444
f 44/227/443 122/233/353 240/235/352 156/230/394
f 44/227/443 98/231/326 209/234/329 122/233/353
f 45/344/445 120/345/446 208/277/336 99/276/335
f 45/344/445 157/324/411 238/323/410 120/345/446
f 45/344/445 101/346/447 236/326/413 157/324/411
f 45/344/445 99/276/335 213/243/338 101/346/447
f 46/347/448 89/225/279 210/217/271 162/348/449
f 46/347/448 158/349/450 199/226/280 89/225/279
f 46/347/448 174/179/223 243/183/227 158/349/450
f 46/347/448 162/348/449 247/180/224 174/179/223
f 47/350/451 110/251/305 219/253/307 166/351/452
f 47/350/451 159/352/453 203/252/306 110/251/305
f 47/350/451 175/188/232 244/192/236 159/352/453
f 47/350/451 166/351/452 251/189/233 175/188/232
f 48/353/454 97/264/320 212/259/315 164/354/455
f 48/353/454 160/352/456 206/265/321 97/264/320
f 48/353/454 176/197/241 245/192/245 160/352/456
f 48/353/454 164/354/455 249/198/242 176/197/241
f 49/355/457 124/284/344 227/285/345 168/356/458
f 49/355/457 161/349/459 201/219/273 124/284/344
f 49/355/457 177/203/250 246/183/254 161/349/459
f 49/355/457 168/356/458 253/204/251 177/203/250
f 50/347/460 88/216/270 201/219/273 161/349/459
f 50/347/460 162/348/449 210/217/271 88/216/270
f 50/347/460 178/179/264 247/180/224 162/348/449
f 50/347/460 161/349/459 246/183/254 178/179/264
f 51/357/461 123/242/296 241/244/298 172/358/462
f 51/357/461 163/359/463 211/243/297 123/242/296
f 51/357/461 179/228/282 248/232/286 163/359/463
f 51/357/461 172/358/462 257/229/283 179/228/282
f 52/353/464 96/258/314 203/252/306 159/352/453
f 52/353/464 164/354/455 212/259/315 96/258/314
f 52/353/464 180/197/309 249/198/242 164/354/455
f 52/353/464 159/352/453 244/192/236 180/197/309
f 53/360/465 111/278/337 234/279/339 170/361/466
f 53/360/465 165/359/467 213/243/338 111/278/337
f 53/360/465 181/267/323 250/232/327 165/359/467
f 53/360/465 170/361/466 255/268/324 181/267/323
f 54/362/468 132/303/375 229/304/376 171/361/469
f 54/362/468 166/351/452 219/253/307 132/303/375
f 54/362/468 182/293/362 251/189/233 166/351/452
f 54/362/468 171/361/469 256/268/363 182/293/362
f 55/350/470 100/309/385 206/265/321 160/352/456
f 55/350/470 167/351/471 220/310/386 100/309/385
f 55/350/470 183/188/378 252/189/380 167/351/471
f 55/350/470 160/352/456 245/192/245 183/188/378
f 56/363/472 145/325/412 236/326/413 173/358/473
f 56/363/472 168/356/458 227/285/345 145/325/412
f 56/363/472 184/313/392 253/204/251 168/356/458
f 56/363/472 173/358/473 258/229/393 184/313/392
f 57/355/474 92/319/406 199/226/280 158/349/450
f 57/355/474 169/356/475 226/320/407 92/319/406
f 57/355/474 185/203/397 254/204/399 169/356/475
f 57/355/474 158/349/450 243/183/227 185/203/397
f 58/362/476 137/333/424 220/310/386 167/351/471
f 58/362/476 170/361/466 234/279/339 137/333/424
f 58/362/476 186/293/421 255/268/324 170/361/466
f 58/362/476 167/351/471 252/189/380 186/293/421
f 59/360/477 93/338/432 211/243/297 163/359/463
f 59/360/477 171/361/469 229/304/376 93/338/432
f 59/360/477 187/267/426 256/268/363 171/361/469
f 59/360/477 163/359/463 248/232/286 187/267/426
f 60/363/478 150/341/439 226/320/407 169/356/475
f 60/363/478 172/358/462 241/244/298 150/341/439
f 60/363/478 188/313/435 257/229/283 172/358/462
f 60/363/478 169/356/475 254/204/399 188/313/435
f 61/357/479 101/346/447 213/243/338 165/359/467
f 61/357/479 173/358/473 236/326/413 101/346/447
f 61/357/479 189/228/444 258/229/393 173/358/473
f 61/357/479 165/359/467 250/232/327 189/228/444
usemtl torso.001
f 488/364/480 489/365/481 494/366/482 497/367/483
f 499/368/484 490/369/485 495/370/486 498/371/487
f 490/369/485 487/372/488 486/373/489 495/370/486
f 489/365/481 500/374/490 493/375/491 494/366/482
f 495/370/486 486/373/489 496/376/492 493/375/491
f 494/366/482 493/375/491 496/376/492 492/377/493
f 500/374/490 498/371/487 495/370/486 493/375/491
f 499/368/484 507/378/494 502/379/495 506/380/495 490/369/485
f 505/381/496 503/382/497 504/383/497 507/378/494
f 491/384/498 505/381/496 507/378/494 499/368/484
f 501/385/499 508/386/500 505/381/496 491/384/498
f 519/387/501 516/388/502 511/389/503 510/390/504
f 520/391/505 517/392/506 512/393/507 521/394/508
f 516/388/502 515/395/509 522/396/510 511/389/503
f 515/395/509 518/397/511 509/398/512 517/392/506
f 514/399/513 518/397/511 515/395/509 516/388/502
f 515/395/509 517/392/506 520/391/505 522/396/510
f 521/394/508 525/400/514 524/401/514 513/402/515
f 489/365/481 488/364/480 510/390/504 511/389/503
f 491/384/498 499/368/484 521/394/508 513/402/515
f 501/385/499 491/384/498 513/402/515 523/403/516
f 500/374/490 489/365/481 511/389/503 522/396/510
f 498/371/487 500/374/490 522/396/510 520/391/505
f 499/368/484 498/371/487 520/391/505 521/394/508
usemtl hydraulics.003
f 358/404/517 454/405/518 456/406/519 424/407/520
f 388/408/521 436/407/522 437/404/523 390/409/524
f 360/410/525 362/409/526 363/411/527 361/412/528
f 359/410/529 455/413/530 454/405/518 358/404/517
f 360/410/525 359/410/529 358/404/517 362/409/526
f 362/409/526 364/408/531 365/414/532 363/411/527
f 452/415/533 484/416/534 485/417/535 453/418/536
f 392/410/537 438/410/538 439/418/539 394/419/540
f 364/408/531 366/420/541 367/421/542 365/414/532
f 451/422/543 483/423/544 484/416/534 452/415/533
f 394/419/540 439/418/539 440/415/545 396/424/546
f 366/420/541 368/425/547 369/426/548 367/421/542
f 450/427/549 482/428/550 483/423/544 451/422/543
f 396/424/546 440/415/545 441/422/551 398/429/552
f 368/425/547 370/430/553 371/431/554 369/426/548
f 449/432/555 481/433/556 482/428/550 450/427/549
f 398/429/552 441/422/551 442/427/557 400/434/558
f 370/430/553 372/435/559 373/436/560 371/431/554
f 448/437/561 480/438/562 481/433/556 449/432/555
f 400/434/558 442/427/557 443/432/563 402/439/564
f 372/435/559 374/440/565 375/441/566 373/436/560
f 447/442/567 479/443/568 480/438/562 448/437/561
f 402/439/564 443/432/563 444/437/569 404/444/570
f 374/440/565 376/445/571 377/446/572 375/441/566
f 446/447/573 478/448/574 479/443/568 447/442/567
f 404/444/570 444/437/569 445/442/575 406/449/576
f 376/445/571 378/440/577 379/441/578 377/446/572
f 445/442/575 477/443/579 478/448/574 446/447/573
f 406/449/576 445/442/575 446/447/573 408/450/580
f 378/440/577 380/435/581 381/436/582 379/441/578
f 444/437/569 476/438/583 477/443/579 445/442/575
f 408/450/580 446/447/573 447/442/567 410/449/584
f 380/435/581 382/430/585 383/431/586 381/436/582
f 443/432/563 475/433/587 476/438/583 444/437/569
f 410/449/584 447/442/567 448/437/561 412/444/588
f 382/430/585 384/425/589 385/426/590 383/431/586
f 442/427/557 474/428/591 475/433/587 443/432/563
f 412/444/588 448/437/561 449/432/555 414/439/592
f 384/425/589 386/420/593 387/421/594 385/426/590
f 441/422/551 473/423/595 474/428/591 442/427/557
f 414/439/592 449/432/555 450/427/549 416/434/596
f 386/420/593 388/408/521 389/414/597 387/421/594
f 440/415/545 472/416/598 473/423/595 441/422/551
f 416/434/596 450/427/549 451/422/543 418/429/599
f 388/408/521 390/409/524 391/411/600 389/414/597
f 439/418/539 471/417/601 472/416/598 440/415/545
f 418/429/599 451/422/543 452/415/533 420/424/602
f 390/409/524 392/410/537 393/412/603 391/411/600
f 453/418/536 485/417/535 455/413/530 359/410/529
f 420/424/602 452/415/533 453/418/536 422/419/604
f 392/410/537 394/419/540 395/451/605 393/412/603
f 438/410/538 470/413/606 471/417/601 439/418/539
f 422/419/604 453/418/536 359/410/529 360/410/525
f 394/419/540 396/424/546 397/452/607 395/451/605
f 437/404/523 469/405/608 470/413/606 438/410/538
f 362/409/526 358/404/517 424/407/520 364/408/531
f 396/424/546 398/429/552 399/453/609 397/452/607
f 436/407/522 468/406/610 469/405/608 437/404/523
f 364/408/531 424/407/520 425/454/611 366/420/541
f 398/429/552 400/434/558 401/455/612 399/453/609
f 435/454/613 467/456/614 468/406/610 436/407/522
f 366/420/541 425/454/611 426/457/615 368/425/547
f 400/434/558 402/439/564 403/458/616 401/455/612
f 434/457/617 466/459/618 467/456/614 435/454/613
f 368/425/547 426/457/615 427/460/619 370/430/553
f 402/439/564 404/444/570 405/461/620 403/458/616
f 433/460/621 465/462/622 466/459/618 434/457/617
f 370/430/553 427/460/619 428/463/623 372/435/559
f 404/444/570 406/449/576 407/464/624 405/461/620
f 432/463/625 464/465/626 465/462/622 433/460/621
f 372/435/559 428/463/623 429/466/627 374/440/565
f 406/449/576 408/450/580 409/467/628 407/464/624
f 431/466/629 463/468/630 464/465/626 432/463/625
f 374/440/565 429/466/627 430/469/631 376/445/571
f 408/450/580 410/449/584 411/464/632 409/467/628
f 430/469/631 462/470/633 463/468/630 431/466/629
f 376/445/571 430/469/631 431/466/629 378/440/577
f 410/449/584 412/444/588 413/461/634 411/464/632
f 429/466/627 461/468/635 462/470/633 430/469/631
f 378/440/577 431/466/629 432/463/625 380/435/581
f 412/444/588 414/439/592 415/458/636 413/461/634
f 428/463/623 460/465/637 461/468/635 429/466/627
f 380/435/581 432/463/625 433/460/621 382/430/585
f 414/439/592 416/434/596 417/455/638 415/458/636
f 382/430/585 433/460/621 434/457/617 384/425/589
f 416/434/596 418/429/599 419/453/639 417/455/638
f 386/420/593 435/454/613 436/407/522 388/408/521
f 427/460/619 459/462/640 460/465/637 428/463/623
f 418/429/599 420/424/602 421/452/641 419/453/639
f 363/411/527 365/414/532 367/421/542 369/426/548 371/431/554 373/436/560 375/441/566 377/446/572 379/441/578 381/436/582 383/431/586 385/426/590 387/421/594 389/414/597 391/411/600 393/412/603 395/451/605 397/452/607 399/453/609 401/455/612 403/458/616 405/461/620 407/464/624 409/467/628 411/464/632 413/461/634 415/458/636 417/455/638 419/453/639 421/452/641 423/451/642 361/412/528
f 422/419/604 360/410/525 361/412/528 423/451/642
f 420/424/602 422/419/604 423/451/642 421/452/641
f 424/407/520 456/406/519 457/456/643 425/454/611
f 390/409/524 437/404/523 438/410/538 392/410/537
f 384/425/589 434/457/617 435/454/613 386/420/593
f 425/454/611 457/456/643 458/459/644 426/457/615
f 426/457/615 458/459/644 459/462/640 427/460/619
