# Blender 4.3.2
# www.blender.org
mtllib right_arm.mtl
o body.002
v -0.136020 0.020300 -0.283260
v -0.117660 -0.072120 -0.283360
v -0.081640 -0.159200 -0.284260
v -0.029360 -0.237580 -0.285960
v 0.037200 -0.304260 -0.288360
v 0.037360 0.438940 -0.294000
v -0.029240 0.372340 -0.290600
v -0.081560 0.294020 -0.287720
v 0.066880 0.041020 -0.016720
v -0.135980 0.114540 -0.283980
v -0.117600 0.206960 -0.285480
v 0.077860 -0.014280 -0.016780
v -4.440020 -0.856100 -0.390760
v -1.110300 -0.387080 -0.924520
v 0.084180 -0.222760 0.001000
v -3.253120 -0.690980 0.534080
v -1.001240 -0.695620 -0.503660
v -3.559960 0.179780 -0.422480
v -4.406740 -0.852760 0.149020
v -4.551640 -0.287180 0.152880
v -4.605480 -0.290540 -0.386900
v -3.365100 -0.698020 -0.851400
v -3.510000 -0.132440 -0.847560
v -1.255180 0.178480 -0.920660
v 0.030360 -0.226120 -0.538780
v -0.114540 0.339460 -0.534940
v -0.060700 0.342820 0.004860
v -0.998300 -0.380060 0.460960
v -1.143180 0.185520 0.464820
v -3.398000 -0.125400 0.537920
v -0.947400 -0.692280 0.036120
v -3.202220 -1.003200 0.109220
v -3.256060 -1.006540 -0.430560
v -3.506120 0.183120 0.117300
v -1.251320 0.494060 0.044200
v -1.305140 0.490700 -0.495600
v -4.891080 -0.614980 -0.561260
v -4.799700 -0.601100 -0.542880
v -4.713620 -0.588040 -0.506820
v -4.636140 -0.576280 -0.454460
v -4.570260 -0.566280 -0.387820
v -4.518500 -0.558420 -0.309460
v -4.482840 -0.553020 -0.222400
v -4.464660 -0.550260 -0.129980
v -4.464660 -0.550260 -0.035740
v -4.482840 -0.553020 0.056700
v -4.518500 -0.558420 0.143760
v -4.570260 -0.566280 0.222120
v -4.636140 -0.576280 0.288760
v -4.713620 -0.588040 0.341120
v -4.799700 -0.601100 0.377180
v -4.990080 -0.276720 -0.082860
v -4.885260 -0.967360 -0.082860
v -0.076200 0.027040 -0.010100
v -0.097720 0.023200 -0.560780
v -0.138320 0.067420 -0.283520
v -0.129100 -0.026360 -0.283200
v -0.059700 -0.056040 -0.010180
v -0.081280 -0.059620 -0.560860
v -0.101800 -0.116560 -0.283720
v -0.027340 -0.134320 -0.011000
v -0.049020 -0.137640 -0.561680
v -0.057420 -0.199700 -0.285020
v 0.019660 -0.204760 -0.012520
v -0.002160 -0.207880 -0.563200
v 0.002280 -0.272560 -0.287080
v 0.079480 -0.264680 -0.014680
v 0.057460 -0.267620 -0.565360
v 0.075060 -0.332400 -0.289800
v 0.057600 0.398280 -0.570400
v 0.002420 0.407280 -0.292240
v 0.019780 0.343440 -0.016680
v -0.002060 0.338600 -0.567340
v -0.057320 0.334460 -0.289080
v -0.027260 0.273040 -0.014100
v -0.048940 0.268440 -0.564760
v -0.101720 0.251380 -0.286500
v -0.059660 0.194800 -0.012080
v -0.081240 0.190440 -0.562760
v -0.129080 0.161200 -0.284620
v -0.076180 0.111740 -0.010740
v -0.097700 0.107640 -0.561420
v -4.381180 -0.029300 -0.392120
v -4.035200 -0.811740 -0.736460
v -3.995700 -1.029540 0.134260
v -4.250760 -0.247120 0.478380
v -1.316340 0.396120 -0.831500
v -0.261000 -0.265580 -0.864860
v -3.286560 -0.914560 -0.766120
v -0.386760 0.520160 0.012700
v -0.166400 -0.259640 0.346180
v -0.182840 -0.486700 -0.527340
v -3.449040 0.094940 0.451740
v -0.964660 -0.601480 0.372700
v -4.328000 -0.026000 0.141080
v -4.240760 -0.253060 -0.732660
v -4.048860 -1.032860 -0.398940
v -4.107660 -0.805780 0.474580
v -3.543640 0.088980 -0.759300
v -0.404120 0.293100 -0.861040
v -1.059240 -0.607420 -0.838340
v -0.439940 0.516840 -0.520500
v -0.309520 0.299040 0.349980
v -0.129660 -0.483380 0.005860
v -1.221740 0.402060 0.379540
v -3.191960 -0.908620 0.444920
v -4.431600 -0.860120 -0.120320
v -4.578240 -0.287640 -0.116420
v -4.477680 -0.572180 0.154820
v -4.532160 -0.575580 -0.391560
v -2.238120 -0.546080 -0.901140
v -2.384780 0.026380 -0.897260
v -3.452620 -0.417200 -0.862200
v -1.170300 -0.102480 -0.936200
v 0.050000 -0.226060 -0.269260
v -0.096640 0.346420 -0.265360
v -0.050560 0.058480 -0.540500
v 0.003920 0.061880 0.005880
v -2.123500 -0.538880 0.510660
v -2.270160 0.033580 0.514560
v -1.055680 -0.095300 0.475620
v -3.337980 -0.410000 0.549600
v -0.957040 -0.705840 -0.234320
v -3.239340 -1.020560 -0.160320
v -2.070960 -0.861500 0.075880
v -2.125440 -0.864900 -0.470500
v -3.550320 0.193340 -0.152060
v -1.268020 0.508060 -0.226040
v -2.381920 0.352400 0.084140
v -2.436420 0.349000 -0.462240
v -4.863420 -0.875740 -0.441660
v -4.844940 -0.607980 -0.554360
v -4.794880 -0.865340 -0.427880
v -4.873500 -0.347340 -0.427880
v -4.755780 -0.594440 -0.527000
v -4.730320 -0.855540 -0.400820
v -4.808940 -0.337560 -0.400820
v -4.673600 -0.581960 -0.482560
v -4.672220 -0.846720 -0.361560
v -4.750820 -0.328740 -0.361560
v -4.601580 -0.571040 -0.422780
v -4.622800 -0.839220 -0.311580
v -4.701420 -0.321220 -0.311580
v -4.542460 -0.562060 -0.349940
v -4.583980 -0.833320 -0.252820
v -4.662600 -0.315340 -0.252820
v -4.498540 -0.555400 -0.266820
v -4.557240 -0.829260 -0.187520
v -4.635860 -0.311280 -0.187520
v -4.471500 -0.551300 -0.176640
v -4.543600 -0.827200 -0.118200
v -4.622220 -0.309200 -0.118200
v -4.462360 -0.549920 -0.082860
v -4.543600 -0.827200 -0.047520
v -4.622220 -0.309200 -0.047520
v -4.471500 -0.551300 0.010940
v -4.557240 -0.829260 0.021800
v -4.635860 -0.311280 0.021800
v -4.498540 -0.555400 0.101120
v -4.583980 -0.833320 0.087100
v -4.662600 -0.315340 0.087100
v -4.542460 -0.562060 0.184240
v -4.622800 -0.839220 0.145880
v -4.701420 -0.321220 0.145880
v -4.601580 -0.571040 0.257080
v -4.672220 -0.846720 0.195860
v -4.750820 -0.328740 0.195860
v -4.673600 -0.581960 0.316860
v -4.730320 -0.855540 0.235120
v -4.808940 -0.337540 0.235120
v -4.755780 -0.594440 0.361280
v -4.794880 -0.865340 0.262160
v -0.075460 0.068880 -0.012000
v -0.092400 0.065940 -0.557400
v -0.067280 -0.014300 -0.011740
v -0.084220 -0.017240 -0.557120
v -0.043060 -0.094280 -0.012180
v -0.060000 -0.097220 -0.557560
v -0.003720 -0.168000 -0.013340
v -0.020660 -0.170940 -0.558740
v 0.049220 -0.232620 -0.015160
v 0.032280 -0.235560 -0.560560
v 0.096820 -0.288620 -0.562980
v 0.049340 0.370240 -0.019740
v 0.032400 0.367280 -0.565140
v -0.003640 0.305660 -0.016940
v -0.020580 0.302720 -0.562320
v -0.043000 0.231980 -0.014660
v -0.059940 0.229040 -0.560040
v -0.067260 0.152020 -0.013000
v -0.084200 0.149080 -0.558380
v -3.846880 -0.936540 0.408400
v -3.929980 -0.941780 -0.687440
v -0.436800 -0.458880 -0.800960
v -0.353700 -0.453660 0.294880
v -4.073040 -0.053700 0.414420
v -4.156140 -0.058920 -0.681420
v -0.662960 0.423960 -0.794940
v -0.579860 0.429180 0.300900
v -4.373460 -0.022820 -0.124760
v -4.291440 -0.535380 -0.741260
v -4.037180 -1.041880 -0.131700
v -4.195360 -0.529340 0.484580
v -2.432720 0.250260 -0.802760
v -0.318160 0.016540 -0.871000
v -2.171660 -0.768800 -0.809680
v -0.400180 0.529080 -0.254500
v -0.222080 0.022580 0.354860
v -0.139120 -0.489980 -0.261420
v -2.336640 0.256300 0.423100
v -2.075580 -0.762760 0.416160
v -4.489380 -0.575340 -0.117960
v -2.313100 -0.259940 -0.915660
v -0.049300 0.061040 -0.267380
v -2.195200 -0.252540 0.529060
v -2.093780 -0.880440 -0.197440
v -2.413580 0.367940 -0.188940
v -4.826320 -0.801420 -0.500960
v -4.884560 -0.417720 -0.500960
v -4.747260 -0.789420 -0.476700
v -4.805500 -0.405720 -0.476700
v -4.674400 -0.778360 -0.437300
v -4.732620 -0.394660 -0.437300
v -4.610520 -0.768660 -0.384280
v -4.668760 -0.384960 -0.384280
v -4.558120 -0.760700 -0.319680
v -4.616340 -0.377020 -0.319680
v -4.519160 -0.754800 -0.245980
v -4.577400 -0.371100 -0.245980
v -4.495180 -0.751160 -0.166020
v -4.553420 -0.367460 -0.166020
v -4.487080 -0.749920 -0.082860
v -4.545320 -0.366220 -0.082860
v -4.495180 -0.751160 0.000320
v -4.553420 -0.367460 0.000320
v -4.519160 -0.754800 0.080280
v -4.577400 -0.371100 0.080280
v -4.558100 -0.760700 0.153980
v -4.616340 -0.377000 0.153980
v -4.610520 -0.768660 0.218580
v -4.668760 -0.384960 0.218580
v -4.674400 -0.778360 0.271600
v -4.732620 -0.394660 0.271600
v -4.747260 -0.789420 0.310980
v -4.805500 -0.405720 0.310980
v -4.807000 -0.984480 -0.081800
v -4.128900 -0.847740 -0.081800
v -4.130400 -0.840340 0.016020
v -4.808480 -0.977080 0.016020
v -4.134820 -0.818440 0.110080
v -4.812900 -0.955180 0.110080
v -4.141980 -0.782880 0.196760
v -4.820080 -0.919620 0.196760
v -4.151640 -0.735020 0.272720
v -4.829720 -0.871780 0.272740
v -4.163400 -0.676720 0.335080
v -4.841480 -0.813460 0.335080
v -4.176820 -0.610180 0.381420
v -4.854900 -0.746920 0.381420
v -4.191380 -0.538000 0.409940
v -4.206520 -0.462920 0.419580
v -4.221660 -0.387840 0.409940
v -4.236220 -0.315660 0.381420
v -4.249620 -0.249120 0.335080
v -4.261400 -0.190800 0.272720
v -4.271040 -0.142960 0.196760
v -4.278220 -0.107400 0.110080
v -4.956300 -0.244140 0.110080
v -4.282620 -0.085500 0.016020
v -4.960720 -0.222240 0.016020
v -4.284120 -0.078100 -0.081800
v -4.962200 -0.214840 -0.081800
v -4.282620 -0.085500 -0.179600
v -4.960720 -0.222240 -0.179600
v -4.278220 -0.107400 -0.273660
v -4.956300 -0.244140 -0.273660
v -4.271040 -0.142960 -0.360340
v -4.949120 -0.279700 -0.360340
v -4.261380 -0.190820 -0.436320
v -4.939480 -0.327560 -0.436320
v -4.249620 -0.249120 -0.498660
v -4.927720 -0.385880 -0.498680
v -4.236220 -0.315660 -0.545000
v -4.914300 -0.452400 -0.545000
v -4.221660 -0.387840 -0.573540
v -4.899740 -0.524600 -0.573540
v -4.206520 -0.462920 -0.583160
v -4.884600 -0.599660 -0.583160
v -4.191380 -0.538000 -0.573540
v -4.869460 -0.674740 -0.573540
v -4.176820 -0.610180 -0.545000
v -4.854900 -0.746920 -0.545000
v -4.163400 -0.676720 -0.498660
v -4.841480 -0.813460 -0.498660
v -4.151640 -0.735020 -0.436320
v -4.829720 -0.871780 -0.436320
v -4.141980 -0.782880 -0.360340
v -4.820080 -0.919640 -0.360340
v -4.134820 -0.818440 -0.273660
v -4.812900 -0.955200 -0.273660
v -4.130400 -0.840340 -0.179600
v -4.808480 -0.977080 -0.179600
v 0.077880 0.152720 -0.018040
v 0.066880 0.097420 -0.017140
v 0.067360 0.068880 -0.017980
v 0.072800 0.013500 -0.017800
v 0.088940 -0.039740 -0.018100
v 0.072820 0.124240 -0.018640
v 0.044440 0.037180 -0.566440
v 0.055440 -0.018240 -0.566500
v 0.077040 -0.070460 -0.567060
v 0.108380 -0.117460 -0.568060
v 0.108460 0.248240 -0.570840
v 0.077080 0.201280 -0.569120
v 0.055480 0.149100 -0.567780
v 0.044440 0.093680 -0.566880
v 0.048000 0.065780 -0.564180
v 0.053460 0.010120 -0.564000
v 0.069680 -0.043400 -0.564300
v 0.096000 -0.092740 -0.565080
v 0.131440 -0.135980 -0.566300
v 0.131520 0.267420 -0.569360
v 0.096060 0.224220 -0.567480
v 0.069720 0.174920 -0.565960
v 0.053500 0.121420 -0.564840
v 0.046020 0.037440 -0.530220
v 0.057020 -0.017980 -0.530280
v 0.078620 -0.070180 -0.530820
v 0.078660 0.201560 -0.532880
v 0.057060 0.149360 -0.531540
v 0.046040 0.093960 -0.530640
v 0.049580 0.066040 -0.527960
v 0.055060 0.010380 -0.527760
v 0.071260 -0.043140 -0.528080
v 0.071300 0.175200 -0.529720
v 0.055080 0.121700 -0.528620
v -4.309300 -0.261160 -0.498660
v -4.295900 -0.327700 0.381420
v -4.321060 -0.202840 -0.436320
v -4.281340 -0.399880 0.409940
v -4.330720 -0.154980 -0.360340
v -4.266200 -0.474960 0.419580
v -4.337900 -0.119420 -0.273660
v -4.251060 -0.550020 0.409940
v -4.342300 -0.097520 -0.179600
v -4.236500 -0.622220 0.381420
v -4.343800 -0.090140 -0.081800
v -4.223080 -0.688740 0.335080
v -4.342300 -0.097520 0.016020
v -4.211320 -0.747060 0.272720
v -4.337900 -0.119420 0.110080
v -4.201660 -0.794920 0.196760
v -4.330720 -0.154980 0.196760
v -4.194500 -0.830480 0.110080
v -4.321060 -0.202840 0.272720
v -4.190080 -0.852380 0.016020
v -4.188580 -0.859780 -0.081800
v -4.309300 -0.261160 0.335080
v -4.295900 -0.327700 -0.545000
v -4.281340 -0.399880 -0.573540
v -4.266200 -0.474960 -0.583160
v -4.251060 -0.550020 -0.573540
v -4.236500 -0.622220 -0.545000
v -4.223080 -0.688740 -0.498660
v -4.211320 -0.747060 -0.436320
v -4.201660 -0.794920 -0.360340
v -4.194500 -0.830480 -0.273660
v -4.190080 -0.852380 -0.179600
v -4.380840 -0.898540 -0.081800
v -4.501560 -0.299940 -0.498660
v -4.488140 -0.366460 0.381420
v -4.513320 -0.241620 -0.436320
v -4.473580 -0.438640 0.409940
v -4.522980 -0.193760 -0.360340
v -4.458440 -0.513720 0.419580
v -4.530140 -0.158200 -0.273660
v -4.443300 -0.588800 0.409940
v -4.534560 -0.136300 -0.179600
v -4.428740 -0.660980 0.381420
v -4.536060 -0.128900 -0.081800
v -4.415340 -0.727520 0.335080
v -4.534560 -0.136300 0.016020
v -4.403580 -0.785840 0.272720
v -4.530140 -0.158200 0.110080
v -4.393920 -0.833680 0.196760
v -4.522980 -0.193760 0.196760
v -4.386740 -0.869240 0.110080
v -4.513320 -0.241620 0.272720
v -4.382340 -0.891140 0.016020
v -4.501560 -0.299940 0.335080
v -4.488140 -0.366460 -0.545000
v -4.473580 -0.438640 -0.573540
v -4.458440 -0.513720 -0.583160
v -4.443300 -0.588800 -0.573540
v -4.428740 -0.660980 -0.545000
v -4.415340 -0.727520 -0.498660
v -4.403580 -0.785820 -0.436320
v -4.393920 -0.833680 -0.360340
v -4.386740 -0.869240 -0.273660
v -4.382340 -0.891140 -0.179600
v -4.290520 -0.177140 -0.689220
v -4.272180 -0.268120 0.514280
v -4.306600 -0.097380 -0.603960
v -4.252260 -0.366820 0.553300
v -4.319800 -0.031940 -0.500060
v -4.231560 -0.469480 0.566460
v -4.329620 0.016680 -0.381520
v -4.210860 -0.572160 0.553300
v -4.335660 0.046620 -0.252900
v -4.190960 -0.670860 0.514280
v -4.337700 0.056740 -0.119160
v -4.172600 -0.761840 0.450920
v -4.335640 0.046620 0.014600
v -4.156520 -0.841600 0.365660
v -4.329620 0.016680 0.143220
v -4.143320 -0.907040 0.261760
v -4.319800 -0.031940 0.261760
v -4.133520 -0.955660 0.143220
v -4.306600 -0.097380 0.365660
v -4.127480 -0.985600 0.014600
v -4.125440 -0.995720 -0.119160
v -4.290520 -0.177140 0.450920
v -4.272180 -0.268120 -0.752580
v -4.252260 -0.366820 -0.791600
v -4.231560 -0.469480 -0.804760
v -4.210860 -0.572160 -0.791600
v -4.190960 -0.670860 -0.752580
v -4.172600 -0.761840 -0.689220
v -4.156520 -0.841580 -0.603960
v -4.143320 -0.907040 -0.500060
v -4.133520 -0.955660 -0.381520
v -4.127480 -0.985600 -0.252900
v -4.388340 -1.048740 -0.119160
v -4.553420 -0.230160 -0.689220
v -4.535080 -0.321120 0.514280
v -4.569500 -0.150400 -0.603960
v -4.515180 -0.419840 0.553300
v -4.582700 -0.084960 -0.500060
v -4.494460 -0.522500 0.566460
v -4.592520 -0.036340 -0.381520
v -4.473760 -0.625160 0.553300
v -4.598560 -0.006380 -0.252900
v -4.453860 -0.723880 0.514280
v -4.600600 0.003720 -0.119160
v -4.435520 -0.814860 0.450920
v -4.598560 -0.006380 0.014600
v -4.419420 -0.894620 0.365660
v -4.592520 -0.036340 0.143220
v -4.406220 -0.960040 0.261760
v -4.582700 -0.084960 0.261760
v -4.396420 -1.008680 0.143220
v -4.569500 -0.150400 0.365660
v -4.390380 -1.038620 0.014600
v -4.553420 -0.230160 0.450920
v -4.535080 -0.321140 -0.752580
v -4.515180 -0.419840 -0.791600
v -4.494460 -0.522500 -0.804760
v -4.473760 -0.625160 -0.791600
v -4.453860 -0.723880 -0.752580
v -4.435500 -0.814860 -0.689220
v -4.419420 -0.894600 -0.603960
v -4.406240 -0.960060 -0.500060
v -4.396420 -1.008680 -0.381520
v -4.390380 -1.038620 -0.252900
v -4.830720 -0.435540 0.381420
v -4.860440 -0.719460 0.392260
v -4.821560 -0.508820 0.409940
v -4.930840 -0.276020 0.196760
v -4.825480 -0.587740 0.419580
v -4.886420 -0.316860 0.272720
v -4.842380 -0.669280 0.409940
v -4.852620 -0.370720 0.335080
vn -0.9946 -0.0978 0.0357
vn -0.6244 -0.0587 0.7789
vn -0.6111 0.0064 0.7915
vn -0.9994 0.0005 0.0353
vn -0.6607 -0.0065 -0.7506
vn -0.6962 -0.0713 -0.7143
vn -0.6484 -0.1279 -0.7505
vn -0.9802 -0.1947 0.0359
vn -0.5991 -0.1198 0.7917
vn -0.9565 -0.2896 0.0356
vn -0.5990 -0.1861 0.7788
vn -0.6710 -0.1984 -0.7145
vn -0.6137 -0.2445 -0.7507
vn -0.9235 -0.3821 0.0350
vn -0.7316 -0.3255 0.5991
vn -0.8816 -0.4708 0.0340
vn -0.8590 -0.4628 0.2191
vn -0.6212 -0.3180 -0.7162
vn -0.5574 -0.3530 -0.7515
vn -0.8313 -0.5549 0.0327
vn -0.8100 -0.5448 0.2172
vn -0.7730 -0.6337 0.0310
vn -0.7514 -0.6234 0.2162
vn -0.5488 -0.4256 -0.7195
vn -0.5739 -0.6056 -0.5513
vn -0.7071 -0.7065 0.0291
vn -0.6877 -0.6939 0.2137
vn -0.6599 -0.7505 -0.0357
vn -0.6818 -0.6997 0.2135
vn -0.6323 -0.7580 -0.1604
vn -0.5284 -0.8334 -0.1622
vn -0.7208 0.6733 -0.1648
vn -0.5764 0.5991 -0.5557
vn -0.7080 0.7049 -0.0433
vn -0.7726 0.6344 0.0228
vn -0.7503 0.6274 0.2083
vn -0.6872 0.6970 0.2048
vn -0.5476 0.4119 -0.7283
vn -0.5609 0.3426 -0.7537
vn -0.8310 0.5557 0.0256
vn -0.8094 0.5483 0.2102
vn -0.8815 0.4714 0.0279
vn -0.8581 0.4671 0.2133
vn -0.6202 0.3050 -0.7228
vn -0.6164 0.2328 -0.7523
vn -0.9234 0.3828 0.0301
vn -0.9005 0.3782 0.2147
vn -0.6247 0.0718 0.7776
vn 0.0418 0.0079 0.9991
vn 0.0455 0.0082 0.9989
vn 0.0454 0.0078 0.9989
vn -0.9946 0.0983 0.0345
vn -0.5977 0.1322 0.7907
vn -0.9802 0.1952 0.0334
vn -0.6500 0.1151 -0.7512
vn -0.6959 0.0586 -0.7157
vn -0.9564 0.2905 0.0318
vn -0.7789 0.2345 0.5816
vn -0.6703 0.1856 -0.7185
vn 0.0420 0.0087 0.9991
vn 0.0348 -0.0275 0.9990
vn 0.0418 0.0072 0.9991
vn 0.0562 -0.0276 0.9980
vn 0.0455 0.0079 0.9989
vn -0.2117 -0.3666 -0.9060
vn 0.3723 -0.0737 -0.9252
vn 0.2404 -0.4317 -0.8694
vn 0.1416 -0.8739 -0.4651
vn 0.2870 0.0436 -0.9569
vn 0.2660 -0.8557 -0.4438
vn 0.5347 0.4156 -0.7358
vn 0.2155 0.3900 -0.8952
vn 0.2967 0.4167 -0.8592
vn 0.3784 0.0574 -0.9239
vn 0.4048 -0.4067 -0.8189
vn 0.4661 0.0707 -0.8819
vn 0.3491 -0.8431 -0.4090
vn 0.1550 0.8661 -0.4752
vn 0.4174 0.5315 -0.7370
vn 0.5493 0.0834 -0.8315
vn 0.5563 -0.3837 -0.7371
vn 0.6272 0.0952 -0.7730
vn 0.4238 -0.8318 -0.3585
vn 0.1580 0.9201 -0.3583
vn 0.5502 0.5517 -0.6268
vn 0.6991 0.1061 -0.7071
vn 0.6892 -0.3636 -0.6268
vn 0.7642 0.1160 -0.6344
vn 0.4874 -0.8221 -0.2942
vn 0.2215 0.9297 -0.2942
vn 0.6593 0.5682 -0.4924
vn 0.8221 0.1248 -0.5555
vn 0.7982 -0.3470 -0.4924
vn 0.8719 0.1324 -0.4714
vn 0.5373 -0.8146 -0.2186
vn 0.2715 0.9373 -0.2186
vn 0.7402 0.5805 -0.3392
vn 0.9134 0.1386 -0.3826
vn 0.8791 -0.3348 -0.3392
vn 0.9461 0.1436 -0.2902
vn 0.5717 -0.8093 -0.1347
vn 0.3058 0.9425 -0.1347
vn 0.7901 0.5881 -0.1730
vn 0.9697 0.1472 -0.1951
vn 0.9290 -0.3272 -0.1730
vn 0.9839 0.1494 -0.0981
vn 0.5892 -0.8067 -0.0455
vn 0.3233 0.9452 -0.0455
vn 0.8069 0.5906 -0.0000
vn 0.9887 0.1500 -0.0000
vn 0.9458 -0.3246 -0.0000
vn 0.9839 0.1494 0.0981
vn 0.5892 -0.8067 0.0455
vn 0.3234 0.9452 0.0455
vn 0.7901 0.5881 0.1731
vn 0.9697 0.1472 0.1952
vn 0.9290 -0.3272 0.1731
vn 0.9461 0.1436 0.2903
vn 0.5717 -0.8094 0.1347
vn 0.3058 0.9425 0.1347
vn 0.7402 0.5805 0.3392
vn 0.9134 0.1386 0.3827
vn 0.8791 -0.3348 0.3393
vn 0.8720 0.1324 0.4713
vn 0.5373 -0.8146 0.2185
vn 0.2715 0.9373 0.2185
vn 0.6593 0.5683 0.4924
vn 0.8221 0.1248 0.5555
vn 0.7982 -0.3470 0.4924
vn 0.7642 0.1160 0.6345
vn 0.4874 -0.8221 0.2942
vn 0.2214 0.9297 0.2942
vn 0.5502 0.5517 0.6268
vn 0.6991 0.1061 0.7071
vn 0.6892 -0.3636 0.6268
vn 0.6272 0.0952 0.7730
vn 0.4238 -0.8318 0.3585
vn 0.2412 0.8792 0.4109
vn 0.4557 0.4409 0.7733
vn 0.5493 0.0834 0.8315
vn 0.5563 -0.3837 0.7371
vn 0.4660 0.0707 0.8820
vn 0.3491 -0.8431 0.4090
vn 0.3832 0.4156 0.8249
vn 0.6652 0.4355 0.6065
vn 0.5439 -0.0476 0.8378
vn 0.4048 -0.4067 0.8190
vn -0.0319 -0.3394 0.9401
vn 0.2308 -0.8605 0.4542
vn 0.1470 0.9887 -0.0289
vn 0.3930 -0.9192 -0.0247
vn -0.6794 -0.6772 -0.2825
vn -0.6751 -0.7134 -0.1880
vn 0.1880 -0.9321 -0.3096
vn 0.1750 -0.8678 -0.4651
vn -0.7028 -0.5392 -0.4640
vn -0.6883 -0.6203 -0.3760
vn 0.1554 -0.7704 -0.6183
vn 0.1280 -0.6344 -0.7623
vn -0.7234 -0.4321 -0.5386
vn 0.0921 -0.4565 -0.8850
vn -0.7492 -0.3016 -0.5897
vn 0.0484 -0.2400 -0.9696
vn -0.7782 -0.1570 -0.6080
vn -0.0000 -0.0000 -1.0000
vn -0.8077 -0.0126 -0.5894
vn -0.0484 0.2400 -0.9696
vn -0.8346 0.1175 -0.5382
vn -0.0920 0.4565 -0.8850
vn -0.8573 0.2240 -0.4635
vn -0.1279 0.6345 -0.7623
vn -0.8756 0.3039 -0.3755
vn -0.1554 0.7704 -0.6183
vn -0.8895 0.3594 -0.2820
vn -0.1750 0.8678 -0.4651
vn -0.8997 0.3941 -0.1877
vn -0.1880 0.9321 -0.3096
vn -0.9065 0.4116 -0.0946
vn -0.1953 0.9685 -0.1545
vn -0.9101 0.4144 -0.0028
vn -0.1977 0.9803 -0.0000
vn -0.9106 0.4037 0.0882
vn -0.1953 0.9685 0.1545
vn -0.9994 0.0183 0.0278
vn -0.1923 0.9537 0.2311
vn -0.8911 0.2808 0.3565
vn -0.9903 -0.0292 0.1356
vn -0.1663 0.8246 0.5407
vn -0.1576 0.7815 0.6037
vn -0.8759 0.2011 0.4385
vn -0.1297 0.6431 0.7547
vn -0.8559 0.0980 0.5078
vn -0.0922 0.4575 0.8844
vn -0.8312 -0.0258 0.5553
vn -0.0462 0.2289 0.9724
vn -0.8037 -0.1623 0.5724
vn 0.0049 -0.0242 0.9997
vn -0.7758 -0.2988 0.5558
vn 0.0550 -0.2726 0.9605
vn -0.7501 -0.4226 0.5086
vn 0.0714 -0.3540 0.9325
vn 0.0920 -0.4564 0.8850
vn -0.7283 -0.5257 0.4396
vn 0.1280 -0.6344 0.7623
vn -0.7110 -0.6056 0.3574
vn 0.1554 -0.7705 0.6182
vn -0.6978 -0.6637 0.2694
vn 0.1750 -0.8678 0.4651
vn 0.8197 -0.5729 -0.0000
vn 0.8177 -0.5646 -0.1118
vn 0.8118 -0.5391 -0.2243
vn 0.8014 -0.4937 -0.3375
vn 0.7858 -0.4247 -0.4497
vn 0.7641 -0.3274 -0.5559
vn 0.7361 -0.1989 -0.6470
vn 0.7026 -0.0413 -0.7103
vn 0.6667 0.1344 -0.7331
vn 0.6317 0.3104 -0.7103
vn 0.6014 0.4686 -0.6470
vn 0.5775 0.5979 -0.5559
vn 0.5598 0.6960 -0.4497
vn 0.5475 0.7657 -0.3375
vn 0.5395 0.8116 -0.2243
vn 0.5351 0.8374 -0.1118
vn 0.5335 0.8458 -0.0000
vn 0.5351 0.8374 0.1118
vn 0.5395 0.8116 0.2243
vn 0.5475 0.7657 0.3375
vn 0.5597 0.6961 0.4497
vn 0.5775 0.5979 0.5558
vn 0.6014 0.4686 0.6471
vn 0.6318 0.3104 0.7103
vn 0.6666 0.1344 0.7332
vn 0.7027 -0.0413 0.7103
vn 0.7360 -0.1988 0.6471
vn 0.7641 -0.3275 0.5559
vn 0.7858 -0.4247 0.4497
vn 0.8014 -0.4937 0.3376
vn 0.8118 -0.5391 0.2243
vn 0.8177 -0.5646 0.1118
vn -0.6881 -0.7032 0.1793
vn 0.1880 -0.9321 0.3096
vn -0.6742 -0.7324 -0.0947
vn 0.1953 -0.9685 -0.1544
vn -0.6809 -0.7270 0.0886
vn 0.1953 -0.9685 0.1545
vn -0.6764 -0.7365 -0.0027
vn 0.1977 -0.9803 -0.0000
vn 0.6636 -0.2910 -0.6892
vn 0.5722 -0.1887 -0.7981
vn 0.5946 -0.0674 -0.8012
vn 0.7218 -0.0049 -0.6921
vn -0.0435 -0.0145 -0.9990
vn -0.0497 -0.0081 -0.9987
vn -0.0487 -0.0083 -0.9988
vn -0.0422 -0.0021 -0.9991
vn 0.5704 0.1767 -0.8021
vn 0.6648 0.2818 -0.6918
vn 0.5943 0.0560 -0.8023
vn 0.7075 0.1411 -0.6925
vn 0.3311 -0.1173 -0.9363
vn 0.7070 -0.1510 -0.6909
vn 0.3311 0.0989 -0.9384
vn 0.0168 -0.0741 -0.9971
vn 0.0157 0.0578 -0.9982
vn 0.9237 0.3808 -0.0431
vn 0.9628 0.2664 -0.0440
vn 0.9566 0.2881 -0.0439
vn 0.9244 -0.3795 -0.0374
vn 0.9579 -0.2843 -0.0397
vn 0.9612 -0.2731 -0.0398
vn 0.9803 -0.1931 -0.0414
vn 0.9946 -0.0948 -0.0429
vn 0.9990 0.0008 -0.0437
vn 0.9941 0.0988 -0.0442
vn 0.9799 0.1943 -0.0444
vn 0.8961 -0.4015 -0.1894
vn 0.8861 -0.3659 -0.2845
vn 0.8724 -0.3092 -0.3786
vn 0.8543 -0.2282 -0.4671
vn 0.8317 -0.1205 -0.5420
vn 0.8048 0.0107 -0.5934
vn 0.7754 0.1563 -0.6118
vn 0.7463 0.3019 -0.5932
vn 0.7204 0.4332 -0.5417
vn 0.6998 0.5409 -0.4666
vn 0.6853 0.6224 -0.3780
vn 0.6764 0.6796 -0.2840
vn 0.6720 0.7160 -0.1891
vn 0.6711 0.7352 -0.0952
vn 0.6732 0.7395 -0.0027
vn 0.6778 0.7298 0.0891
vn 0.6848 0.7060 0.1805
vn 0.6945 0.6664 0.2713
vn 0.7075 0.6080 0.3602
vn 0.7247 0.5277 0.4431
vn 0.7464 0.4240 0.5130
vn 0.7720 0.2991 0.5609
vn 0.7999 0.1611 0.5781
vn 0.8273 0.0230 0.5614
vn 0.8518 -0.1024 0.5137
vn 0.8718 -0.2070 0.4439
vn 0.8869 -0.2880 0.3611
vn 0.8974 -0.3472 0.2722
vn 0.9038 -0.3878 0.1811
vn 0.9026 -0.4197 -0.0954
vn 0.9066 -0.4125 0.0895
vn 0.9061 -0.4230 -0.0025
vn -0.8826 0.4701 0.0023
vn -0.8783 0.4683 -0.0961
vn -0.6296 -0.7769 0.0022
vn -0.6339 -0.7670 0.0995
vn 0.6525 0.6463 0.3958
vn 0.6658 0.5614 0.4914
vn -0.8160 0.2779 -0.5068
vn -0.7872 0.1628 -0.5948
vn -0.6464 -0.7036 0.2951
vn -0.6558 -0.6441 0.3937
vn 0.6235 0.7758 -0.0970
vn 0.6265 0.7795 0.0021
vn 0.8786 -0.4669 0.1002
vn 0.8785 -0.4777 0.0021
vn -0.6623 -0.4551 -0.5952
vn -0.6439 -0.5726 -0.5074
vn -0.7443 -0.1500 0.6508
vn -0.7771 0.0062 0.6293
vn 0.6594 0.4560 -0.5978
vn 0.6411 0.5739 -0.5096
vn 0.8509 -0.3441 0.3968
vn 0.8654 -0.4033 0.2974
vn -0.8697 0.3963 0.2942
vn -0.8787 0.4352 0.1962
vn 0.8130 -0.2809 -0.5101
vn 0.7843 -0.1648 -0.5981
vn 0.7099 0.3073 0.6338
vn 0.7404 0.1494 0.6553
vn -0.8700 0.4520 -0.1970
vn -0.8571 0.4182 -0.3008
vn -0.6394 -0.7433 0.1968
vn 0.6362 0.7458 0.1978
vn 0.6431 0.7060 0.2965
vn -0.7541 0.0182 -0.6565
vn -0.7197 -0.1451 -0.6789
vn -0.6694 -0.5596 0.4887
vn -0.6883 -0.4467 0.5715
vn 0.6240 0.7204 -0.3027
vn 0.6223 0.7572 -0.1985
vn 0.8744 -0.4429 0.1983
vn -0.6270 -0.7183 -0.3014
vn -0.6254 -0.7549 -0.1975
vn -0.8083 0.1448 0.5707
vn -0.8348 0.2557 0.4876
vn 0.7170 0.1446 -0.6819
vn 0.6852 0.3092 -0.6595
vn 0.8042 -0.1479 0.5757
vn 0.8306 -0.2602 0.4924
vn -0.8828 0.4592 0.0992
vn -0.6326 -0.6593 -0.4064
vn 0.8663 -0.4582 -0.1990
vn 0.8537 -0.4233 -0.3034
vn 0.6847 0.4480 0.5749
vn -0.8393 0.3619 -0.4057
vn 0.6309 0.7694 0.0999
vn 0.8361 -0.3659 -0.4087
vn 0.7513 -0.0194 -0.6597
vn -0.6880 -0.3089 -0.6567
vn 0.6297 0.6610 -0.4082
vn -0.8552 0.3382 0.3927
vn 0.7731 -0.0081 0.6342
vn -0.7136 -0.3067 0.6298
vn 0.8745 -0.4752 -0.0973
vn -0.6266 -0.7734 -0.0965
vn -0.7256 -0.6282 -0.2809
vn -0.7664 -0.6390 0.0652
vn -0.9628 -0.2555 0.0880
vn -0.9177 -0.2579 -0.3021
vn -0.5229 -0.1569 -0.8378
vn -0.3272 -0.4374 -0.8376
vn -0.1684 -0.7626 -0.6246
vn -0.2358 -0.9448 -0.2275
vn -0.2012 -0.9793 0.0219
vn 0.0559 -0.2025 -0.9777
vn -0.0023 -0.2128 -0.9771
vn -0.0322 -0.0015 -0.9995
vn 0.0264 0.0132 -0.9996
vn 0.4431 0.1185 -0.8886
vn 0.4995 -0.2280 -0.8358
vn 0.2974 -0.6930 -0.6567
vn 0.1440 -0.7258 -0.6726
vn 0.0798 -0.7349 -0.6735
vn 0.9587 -0.1802 0.2200
vn 0.9794 -0.1774 -0.0965
vn 0.9645 0.2457 -0.0970
vn 0.9440 0.2401 0.2263
vn 0.5170 0.1255 0.8467
vn 0.5681 -0.2294 0.7903
vn 0.3429 -0.6956 0.6313
vn 0.5561 -0.8069 0.1990
vn 0.5576 -0.8286 -0.0497
vn 0.0044 -0.2302 0.9731
vn 0.0609 -0.2105 0.9757
vn 0.0322 0.0014 0.9995
vn -0.0261 -0.0131 0.9996
vn -0.4345 -0.1165 0.8931
vn -0.3563 -0.4586 0.8141
vn -0.0820 -0.7685 0.6345
vn 0.0635 -0.7460 0.6629
vn 0.1232 -0.7342 0.6676
vn 0.1915 -0.9652 -0.1784
vn 0.2025 -0.9792 -0.0138
vn 0.1364 -0.9906 -0.0074
vn 0.1289 -0.9763 -0.1739
vn 0.5260 -0.8052 -0.2739
vn -0.2037 0.9664 -0.1567
vn -0.2020 0.9793 0.0138
vn -0.1364 0.9906 0.0074
vn -0.1402 0.9768 -0.1621
vn -0.1232 0.7344 -0.6674
vn -0.1916 0.7190 -0.6681
vn -0.3699 0.6645 -0.6493
vn -0.5623 0.7885 -0.2491
vn -0.5458 0.8365 0.0487
vn -0.7265 -0.5935 0.3465
vn -0.8910 -0.2301 0.3915
vn -0.1884 -0.9554 0.2272
vn -0.9060 0.2005 0.3729
vn -0.4908 0.2360 0.8387
vn -0.2940 0.6945 0.6566
vn -0.5153 0.8111 0.2769
vn -0.9743 0.2038 0.0955
vn -0.9376 0.2134 -0.2744
vn -0.4740 0.2259 -0.8510
vn -0.0653 -0.2347 -0.9699
vn -0.0970 -0.0220 -0.9950
vn 0.0167 -0.7446 -0.6673
vn -0.1259 0.1984 -0.9720
vn -0.0609 0.2105 -0.9757
vn -0.0042 0.2301 -0.9732
vn -0.0631 0.7466 -0.6622
vn 0.0777 0.7653 -0.6389
vn 0.3680 0.4372 -0.8206
vn 0.9170 -0.1799 -0.3561
vn 0.9001 0.2324 -0.3685
vn 0.7579 0.5569 -0.3397
vn 0.2340 0.9403 -0.2472
vn 0.2489 0.9681 -0.0303
vn 0.8028 0.5905 -0.0829
vn 0.7970 0.5630 0.2185
vn 0.2597 0.9447 0.2003
vn 0.1207 0.7703 0.6262
vn 0.4321 0.4467 0.7835
vn 0.1209 -0.2016 0.9720
vn 0.0921 0.0164 0.9956
vn 0.1884 -0.7265 0.6608
vn 0.0599 0.2344 0.9703
vn -0.0198 0.7487 0.6626
vn -0.0798 0.7349 0.6734
vn 0.0023 0.2127 0.9771
vn -0.0557 0.2027 0.9777
vn -0.1438 0.7260 0.6725
vn 0.2042 -0.9663 0.1569
vn 0.1403 -0.9767 0.1624
vn 0.0817 -0.9827 0.1659
vn 0.0751 -0.9972 -0.0016
vn 0.0694 -0.9834 -0.1676
vn -0.1910 0.9652 0.1784
vn -0.1289 0.9763 0.1738
vn -0.0685 0.9836 0.1671
vn -0.0737 0.9973 0.0014
vn -0.0805 0.9830 -0.1651
vt 0.408262 0.769743
vt 0.411329 0.770064
vt 0.409681 0.770881
vt 0.408208 0.770847
vt 0.409284 0.770812
vt 0.410794 0.769971
vt 0.409475 0.768863
vt 0.408424 0.768650
vt 0.409872 0.768932
vt 0.408692 0.767578
vt 0.411652 0.768440
vt 0.411116 0.768347
vt 0.410043 0.766990
vt 0.409064 0.766537
vt 0.410439 0.767059
vt 0.409536 0.765538
vt 0.412284 0.766910
vt 0.411749 0.766817
vt 0.410964 0.765263
vt 0.410103 0.764590
vt 0.411361 0.765332
vt 0.410761 0.763702
vt 0.413203 0.765533
vt 0.412667 0.765440
vt 0.412205 0.763750
vt 0.411502 0.762883
vt 0.412601 0.763819
vt 0.412320 0.762140
vt 0.414372 0.764362
vt 0.413836 0.764269
vt 0.413716 0.762507
vt 0.413206 0.761482
vt 0.412323 0.779549
vt 0.413839 0.777325
vt 0.412207 0.777870
vt 0.411505 0.778807
vt 0.410763 0.777989
vt 0.413205 0.776248
vt 0.412604 0.777939
vt 0.412669 0.776155
vt 0.410966 0.776358
vt 0.410105 0.777102
vt 0.411363 0.776427
vt 0.409538 0.776154
vt 0.412286 0.774872
vt 0.411750 0.774779
vt 0.410044 0.774632
vt 0.409066 0.775155
vt 0.410441 0.774701
vt 0.411330 0.771719
vt 0.408263 0.771950
vt 0.409873 0.772828
vt 0.408425 0.773043
vt 0.409476 0.772759
vt 0.410794 0.771626
vt 0.408694 0.774115
vt 0.411653 0.773343
vt 0.411117 0.773250
vt 0.296882 0.754862
vt 0.297963 0.755027
vt 0.298399 0.750495
vt 0.297530 0.748755
vt 0.299023 0.755187
vt 0.299136 0.748998
vt 0.297035 0.759483
vt 0.297294 0.761131
vt 0.298887 0.759764
vt 0.300051 0.755343
vt 0.300251 0.750777
vt 0.301039 0.755493
vt 0.300648 0.749228
vt 0.298806 0.761361
vt 0.300594 0.760023
vt 0.301976 0.755636
vt 0.301958 0.751036
vt 0.302854 0.755769
vt 0.302009 0.749434
vt 0.300167 0.761567
vt 0.302090 0.760250
vt 0.303663 0.755892
vt 0.303454 0.751262
vt 0.304397 0.756003
vt 0.303166 0.749610
vt 0.301325 0.761743
vt 0.303317 0.760436
vt 0.305048 0.756102
vt 0.304681 0.751449
vt 0.305609 0.756187
vt 0.304076 0.749748
vt 0.302234 0.761881
vt 0.304230 0.760575
vt 0.306077 0.756258
vt 0.305594 0.751587
vt 0.306445 0.756314
vt 0.304702 0.749843
vt 0.302860 0.761976
vt 0.304792 0.760660
vt 0.306710 0.756354
vt 0.306156 0.751673
vt 0.306870 0.756378
vt 0.305021 0.749891
vt 0.303180 0.762025
vt 0.304981 0.760689
vt 0.306924 0.756386
vt 0.306345 0.751701
vt 0.304791 0.760660
vt 0.306155 0.751673
vt 0.303454 0.751263
vt 0.294563 0.762785
vt 0.297019 0.746608
vt 0.302516 0.748527
vt 0.302684 0.747694
vt 0.298713 0.746893
vt 0.298545 0.747726
vt 0.302015 0.751014
vt 0.302290 0.749648
vt 0.298319 0.748847
vt 0.298044 0.750213
vt 0.301700 0.752572
vt 0.297729 0.751772
vt 0.301359 0.754263
vt 0.297388 0.753462
vt 0.301005 0.756022
vt 0.297034 0.755221
vt 0.300650 0.757780
vt 0.296679 0.756979
vt 0.300309 0.759471
vt 0.296338 0.758670
vt 0.299995 0.761030
vt 0.296024 0.760229
vt 0.299719 0.762396
vt 0.295749 0.761595
vt 0.299493 0.763516
vt 0.295522 0.762716
vt 0.299325 0.764349
vt 0.295354 0.763549
vt 0.299222 0.764862
vt 0.295251 0.764062
vt 0.299187 0.765036
vt 0.295216 0.764235
vt 0.295693 0.762750
vt 0.296243 0.761694
vt 0.296724 0.760370
vt 0.297117 0.758828
vt 0.297408 0.757126
vt 0.297585 0.755332
vt 0.297641 0.753513
vt 0.301700 0.752573
vt 0.297600 0.752415
vt 0.314735 0.749410
vt 0.314700 0.749584
vt 0.314596 0.750097
vt 0.314428 0.750929
vt 0.314202 0.752050
vt 0.313927 0.753416
vt 0.313613 0.754975
vt 0.313272 0.756666
vt 0.312917 0.758424
vt 0.312562 0.760183
vt 0.312221 0.761873
vt 0.311907 0.763432
vt 0.311632 0.764798
vt 0.311406 0.765919
vt 0.311238 0.766752
vt 0.311134 0.767265
vt 0.311099 0.767438
vt 0.302788 0.747181
vt 0.298817 0.746380
vt 0.302787 0.747181
vt 0.302822 0.747008
vt 0.298852 0.746207
vt 0.306655 0.748495
vt 0.306487 0.749328
vt 0.306261 0.750449
vt 0.305985 0.751815
vt 0.305671 0.753373
vt 0.305330 0.755064
vt 0.304975 0.756823
vt 0.304621 0.758581
vt 0.304280 0.760272
vt 0.303966 0.761830
vt 0.303690 0.763196
vt 0.303464 0.764317
vt 0.303296 0.765150
vt 0.303193 0.765663
vt 0.303158 0.765836
vt 0.306758 0.747982
vt 0.306793 0.747809
vt 0.306966 0.749214
vt 0.307645 0.749120
vt 0.306291 0.755791
vt 0.305289 0.755785
vt 0.310928 0.756727
vt 0.313017 0.750254
vt 0.319394 0.747208
vt 0.314848 0.745074
vt 0.315121 0.744863
vt 0.385441 0.760200
vt 0.359023 0.756476
vt 0.357267 0.763178
vt 0.384036 0.766867
vt 0.403996 0.769655
vt 0.405335 0.763046
vt 0.401217 0.758519
vt 0.386637 0.755039
vt 0.360581 0.751259
vt 0.413420 0.764049
vt 0.412620 0.763972
vt 0.410294 0.770697
vt 0.411540 0.770717
vt 0.406246 0.769796
vt 0.407550 0.763186
vt 0.403164 0.758641
vt 0.408411 0.757945
vt 0.408190 0.757790
vt 0.335249 0.753082
vt 0.361708 0.756645
vt 0.360029 0.763352
vt 0.333261 0.759663
vt 0.313178 0.756868
vt 0.315233 0.750393
vt 0.321341 0.747330
vt 0.336681 0.747984
vt 0.362831 0.751401
vt 0.387996 0.752973
vt 0.389031 0.752734
vt 0.362405 0.748644
vt 0.361663 0.749008
vt 0.407165 0.757867
vt 0.328062 0.773478
vt 0.328287 0.773796
vt 0.354914 0.777886
vt 0.354379 0.777442
vt 0.354466 0.775129
vt 0.328444 0.771352
vt 0.314097 0.767887
vt 0.308826 0.768581
vt 0.309006 0.768733
vt 0.308227 0.749293
vt 0.306566 0.755865
vt 0.316093 0.745152
vt 0.304833 0.762540
vt 0.311880 0.763479
vt 0.316043 0.768010
vt 0.310071 0.768658
vt 0.304210 0.762530
vt 0.303572 0.762462
vt 0.309665 0.763340
vt 0.332626 0.752917
vt 0.330576 0.759495
vt 0.334466 0.747845
vt 0.329232 0.766165
vt 0.355588 0.769885
vt 0.382048 0.773448
vt 0.380615 0.778546
vt 0.395919 0.779198
vt 0.401982 0.776132
vt 0.412159 0.763971
vt 0.410264 0.770637
vt 0.408766 0.777219
vt 0.401144 0.781374
vt 0.402075 0.781660
vt 0.409184 0.777382
vt 0.410027 0.777297
vt 0.402389 0.781451
vt 0.397866 0.779320
vt 0.404198 0.776272
vt 0.388065 0.760365
vt 0.386721 0.767035
vt 0.388853 0.755179
vt 0.384671 0.773613
vt 0.382831 0.778685
vt 0.356716 0.775271
vt 0.358273 0.770054
vt 0.331855 0.766330
vt 0.330660 0.771491
vt 0.389257 0.753052
vt 0.362939 0.749088
vt 0.336441 0.745769
vt 0.335571 0.745362
vt 0.335180 0.745691
vt 0.329323 0.773557
vt 0.355655 0.777522
vt 0.382138 0.780840
vt 0.381747 0.781168
vt 0.380877 0.780761
s 1
usemtl joints.005
f 1/1/1 54/2/2 173/3/3 56/4/4
f 1/1/1 56/4/4 174/5/5 55/6/6
f 1/1/1 55/6/6 176/7/7 57/8/8
f 1/1/1 57/8/8 175/9/9 54/2/2
f 2/10/10 58/11/11 175/9/9 57/8/8
f 2/10/10 57/8/8 176/7/7 59/12/12
f 2/10/10 59/12/12 178/13/13 60/14/14
f 2/10/10 60/14/14 177/15/15 58/11/11
f 3/16/16 61/17/17 177/15/15 60/14/14
f 3/16/16 60/14/14 178/13/13 62/18/18
f 3/16/16 62/18/18 180/19/19 63/20/20
f 3/16/16 63/20/20 179/21/21 61/17/17
f 4/22/22 64/23/23 179/21/21 63/20/20
f 4/22/22 63/20/20 180/19/19 65/24/24
f 4/22/22 65/24/24 182/25/25 66/26/26
f 4/22/22 66/26/26 181/27/27 64/23/23
f 5/28/28 67/29/29 181/27/27 66/26/26
f 5/28/28 66/26/26 182/25/25 68/30/30
f 5/28/28 68/30/30 183/31/31 69/32/31
f 6/33/32 70/34/32 185/35/33 71/36/34
f 7/37/35 72/38/36 184/39/37 71/36/34
f 7/37/35 71/36/34 185/35/33 73/40/38
f 7/37/35 73/40/38 187/41/39 74/42/40
f 7/37/35 74/42/40 186/43/41 72/38/36
f 8/44/42 75/45/43 186/43/41 74/42/40
f 8/44/42 74/42/40 187/41/39 76/46/44
f 8/44/42 76/46/44 189/47/45 77/48/46
f 8/44/42 77/48/46 188/49/47 75/45/43
f 81/50/48 173/3/3 305/3/49 304/50/50
f 173/3/3 54/2/2 9/2/51 305/3/49
f 10/51/52 81/50/48 190/52/53 80/53/54
f 10/51/52 80/53/54 191/54/55 82/55/56
f 10/51/52 82/55/56 174/5/5 56/4/4
f 10/51/52 56/4/4 173/3/3 81/50/48
f 11/56/57 78/57/58 188/49/47 77/48/46
f 11/56/57 77/48/46 189/47/45 79/58/59
f 11/56/57 79/58/59 191/54/55 80/53/54
f 11/56/57 80/53/54 190/52/53 78/57/58
f 190/52/53 81/50/48 304/50/50 308/52/60
f 78/57/58 190/52/53 308/52/60 303/57/61
f 54/2/2 175/9/9 306/9/62 9/2/51
f 58/11/11 177/15/15 307/15/63 12/11/64
f 37/59/65 132/60/66 218/61/67 131/62/68
f 38/63/69 133/64/70 218/61/67 132/60/66
f 38/63/69 132/60/66 219/65/71 134/66/72
f 38/63/69 134/66/72 221/67/73 135/68/74
f 38/63/69 135/68/74 220/69/75 133/64/70
f 39/70/76 136/71/77 220/69/75 135/68/74
f 39/70/76 135/68/74 221/67/73 137/72/78
f 39/70/76 137/72/78 223/73/79 138/74/80
f 39/70/76 138/74/80 222/75/81 136/71/77
f 40/76/82 139/77/83 222/75/81 138/74/80
f 40/76/82 138/74/80 223/73/79 140/78/84
f 40/76/82 140/78/84 225/79/85 141/80/86
f 40/76/82 141/80/86 224/81/87 139/77/83
f 41/82/88 142/83/89 224/81/87 141/80/86
f 41/82/88 141/80/86 225/79/85 143/84/90
f 41/82/88 143/84/90 227/85/91 144/86/92
f 41/82/88 144/86/92 226/87/93 142/83/89
f 42/88/94 145/89/95 226/87/93 144/86/92
f 42/88/94 144/86/92 227/85/91 146/90/96
f 42/88/94 146/90/96 229/91/97 147/92/98
f 42/88/94 147/92/98 228/93/99 145/89/95
f 43/94/100 148/95/101 228/93/99 147/92/98
f 43/94/100 147/92/98 229/91/97 149/96/102
f 43/94/100 149/96/102 231/97/103 150/98/104
f 43/94/100 150/98/104 230/99/105 148/95/101
f 44/100/106 151/101/107 230/99/105 150/98/104
f 44/100/106 150/98/104 231/97/103 152/102/108
f 44/100/106 152/102/108 233/103/109 153/104/110
f 44/100/106 153/104/110 232/105/111 151/101/107
f 45/100/112 154/101/113 232/105/111 153/104/110
f 45/100/112 153/104/110 233/103/109 155/102/114
f 45/100/112 155/102/114 235/106/115 156/98/116
f 45/100/112 156/98/116 234/107/117 154/101/113
f 46/94/118 157/95/119 234/107/117 156/98/116
f 46/94/118 156/98/116 235/106/115 158/96/120
f 46/94/118 158/96/120 237/91/121 159/92/122
f 46/94/118 159/92/122 236/93/123 157/95/119
f 47/88/124 160/89/125 236/93/123 159/92/122
f 47/88/124 159/92/122 237/91/121 161/90/126
f 47/88/124 161/90/126 239/85/127 162/86/128
f 47/88/124 162/86/128 238/87/129 160/89/125
f 48/82/130 163/83/131 238/87/129 162/86/128
f 48/82/130 162/86/128 239/85/127 164/84/132
f 48/82/130 164/84/132 241/79/133 165/80/134
f 48/82/130 165/80/134 240/108/135 163/83/131
f 49/76/136 166/77/137 240/108/135 165/80/134
f 49/76/136 165/80/134 241/79/133 167/78/138
f 49/76/136 167/78/138 243/73/139 168/74/140
f 49/76/136 168/74/140 242/75/141 166/77/137
f 50/70/142 169/71/143 242/75/141 168/74/140
f 50/70/142 168/74/140 243/73/139 170/72/144
f 50/70/142 170/72/144 245/67/145 171/68/146
f 50/70/142 171/68/146 244/69/147 169/71/143
f 51/63/148 172/64/149 244/69/147 171/68/146
f 52/109/150 167/78/138 241/79/133 164/84/132
f 52/109/150 164/84/132 239/85/127 161/90/126
f 52/109/150 161/90/126 237/91/121 158/96/120
f 52/109/150 158/96/120 235/106/115 155/102/114
f 52/109/150 155/102/114 233/103/109 152/102/108
f 52/109/150 152/102/108 231/97/103 149/96/102
f 52/109/150 149/96/102 229/91/97 146/90/96
f 52/109/150 146/90/96 227/85/91 143/84/90
f 52/109/150 143/84/90 225/79/85 140/78/84
f 52/109/150 140/78/84 223/73/79 137/72/78
f 53/110/151 131/62/68 218/61/67 133/64/70
f 53/110/151 133/64/70 220/69/75 136/71/77
f 53/110/151 136/71/77 222/75/81 139/77/83
f 53/110/151 139/77/83 224/81/87 142/83/89
f 53/110/151 142/83/89 226/87/93 145/89/95
f 53/110/151 145/89/95 228/93/99 148/95/101
f 53/110/151 148/95/101 230/99/105 151/101/107
f 53/110/151 151/101/107 232/105/111 154/101/113
f 53/110/151 154/101/113 234/107/117 157/95/119
f 53/110/151 157/95/119 236/93/123 160/89/125
f 53/110/151 160/89/125 238/87/129 163/83/131
f 53/110/151 163/83/131 240/108/135 166/77/137
f 53/110/151 166/77/137 242/75/141 169/71/143
f 53/110/151 169/71/143 244/69/147 172/64/149
f 398/111/152 399/112/153 300/113/154 298/114/155
f 396/115/156 397/116/157 296/117/158 294/118/159
f 395/119/160 396/115/156 294/118/159 292/120/161
f 394/121/162 395/119/160 292/120/161 290/122/163
f 393/123/164 394/121/162 290/122/163 288/124/165
f 392/125/166 393/123/164 288/124/165 286/126/167
f 391/127/168 392/125/166 286/126/167 284/128/169
f 370/129/170 391/127/168 284/128/169 282/130/171
f 372/131/172 370/129/170 282/130/171 280/132/173
f 374/133/174 372/131/172 280/132/173 278/134/175
f 376/135/176 374/133/174 278/134/175 276/136/177
f 378/137/178 376/135/176 276/136/177 274/138/179
f 380/139/180 378/137/178 274/138/179 272/140/181
f 382/137/182 380/139/180 272/140/181 270/138/183
f 384/135/184 382/137/182 270/138/183 268/136/185
f 388/131/186 386/133/187 468/141/188 470/142/189
f 390/129/190 388/131/186 470/142/189 472/143/191
f 371/127/192 390/129/190 472/143/191 465/144/193
f 373/125/194 371/127/192 465/144/193 467/145/195
f 375/123/196 373/125/194 467/145/195 469/146/197
f 377/121/198 375/123/196 469/146/197 471/147/199
f 379/148/200 377/121/198 471/147/199 466/149/201 259/120/202
f 381/115/203 379/148/200 259/120/202 257/118/204
f 383/116/205 381/115/203 257/118/204 255/117/206
f 385/111/207 383/116/205 255/117/206 253/114/208
f 247/150/209 301/151/210 299/152/211 297/153/212 295/154/213 293/155/214 291/156/215 289/157/216 287/158/217 285/159/218 283/160/219 281/161/220 279/162/221 277/163/222 275/164/223 273/165/224 271/166/225 269/165/226 267/164/227 266/163/228 265/162/229 264/161/230 263/160/231 262/159/232 261/158/233 260/157/234 258/156/235 256/155/236 254/154/237 252/153/238 250/152/239 248/151/240
f 387/112/241 385/111/207 253/114/208 251/113/242
f 399/112/153 400/167/243 302/168/244 300/113/154
f 389/169/245 387/112/241 251/113/242 249/168/246
f 400/167/243 369/170/247 246/171/248 302/168/244
f 369/170/247 389/169/245 249/168/246 246/171/248
f 397/116/157 398/111/152 298/114/155 296/117/158
f 175/9/9 58/11/11 12/11/64 306/9/62
f 79/58/59 189/47/45 324/47/249 315/58/250
f 174/5/5 82/55/56 316/55/251 317/5/252
f 187/41/39 73/40/38 313/40/253 323/41/254
f 65/24/24 180/19/19 320/19/255 312/24/256
f 178/13/13 59/12/12 310/12/257 319/13/258
f 176/7/7 55/6/6 309/6/259 318/7/260
f 76/46/44 187/41/39 323/41/254 314/46/261
f 191/54/55 79/58/59 315/58/250 325/54/262
f 62/18/18 178/13/13 319/13/258 311/18/263
f 182/25/25 65/24/24 312/24/256 321/25/264
f 82/55/56 191/54/55 325/54/262 316/55/251
f 73/40/38 185/35/33 322/35/265 313/40/253
f 189/47/45 76/46/44 314/46/261 324/47/249
f 59/12/12 176/7/7 318/7/260 310/12/257
f 180/19/19 62/18/18 311/18/263 320/19/255
f 55/6/6 174/5/5 317/5/252 309/6/259
f 311/18/263 319/13/258 334/13/266 328/18/267
f 319/13/258 310/12/257 327/12/268 334/13/266
f 315/58/250 324/47/249 335/47/269 330/58/270
f 324/47/249 314/46/261 329/46/271 335/47/269
f 316/55/251 325/54/262 336/54/272 331/55/273
f 309/6/259 317/5/252 332/5/274 326/6/275
f 325/54/262 315/58/250 330/58/270 336/54/272
f 310/12/257 318/7/260 333/7/276 327/12/268
f 317/5/252 316/55/251 331/55/273 332/5/274
f 318/7/260 309/6/259 326/6/275 333/7/276
f 297/153/212 299/152/211 367/172/277 366/173/278
f 293/155/214 295/154/213 365/174/279 364/175/280
f 291/156/215 293/155/214 364/175/280 363/176/281
f 289/157/216 291/156/215 363/176/281 362/177/282
f 287/158/217 289/157/216 362/177/282 361/178/283
f 285/159/218 287/158/217 361/178/283 360/179/284
f 283/160/219 285/159/218 360/179/284 359/180/285
f 281/161/220 283/160/219 359/180/285 337/181/286
f 279/162/221 281/161/220 337/181/286 339/182/287
f 277/163/222 279/162/221 339/182/287 341/183/288
f 275/164/223 277/163/222 341/183/288 343/184/289
f 273/165/224 275/164/223 343/184/289 345/185/290
f 271/166/225 273/165/224 345/185/290 347/186/291
f 269/165/226 271/166/225 347/186/291 349/185/292
f 267/164/227 269/165/226 349/185/292 351/184/293
f 266/163/228 267/164/227 351/184/293 353/183/294
f 265/162/229 266/163/228 353/183/294 355/182/295
f 264/161/230 265/162/229 355/182/295 358/181/296
f 263/160/231 264/161/230 358/181/296 338/180/297
f 262/159/232 263/160/231 338/180/297 340/179/298
f 261/158/233 262/159/232 340/179/298 342/178/299
f 260/157/234 261/158/233 342/178/299 344/177/300
f 258/156/235 260/157/234 344/177/300 346/176/301
f 256/155/236 258/156/235 346/176/301 348/175/302
f 254/154/237 256/155/236 348/175/302 350/174/303
f 252/153/238 254/154/237 350/174/303 352/173/304
f 250/152/239 252/153/238 352/173/304 354/172/305
f 299/152/211 301/151/210 368/187/306 367/172/277
f 248/151/240 250/152/239 354/172/305 356/187/307
f 301/151/210 247/150/209 357/188/308 368/187/306
f 247/150/209 248/151/240 356/187/307 357/188/308
f 295/154/213 297/153/212 366/173/278 365/174/279
f 378/137/178 380/139/180 444/139/309 442/137/310
f 389/169/245 369/170/247 433/170/311 453/169/312
f 358/181/296 355/182/295 419/182/313 422/181/314
f 391/127/168 370/129/170 434/129/315 455/127/316
f 383/116/205 385/111/207 449/111/317 447/116/318
f 347/186/291 345/185/290 409/185/319 411/186/320
f 357/188/308 356/187/307 420/187/321 421/188/322
f 396/115/156 395/119/160 459/119/323 460/115/324
f 373/125/194 375/123/196 439/123/325 437/125/326
f 337/181/286 359/180/285 423/180/327 401/181/328
f 352/173/304 350/174/303 414/174/329 416/173/330
f 384/135/184 386/133/187 450/133/331 448/135/332
f 363/176/281 364/175/280 428/175/333 427/176/334
f 342/178/299 340/179/298 404/179/335 406/178/336
f 374/133/174 376/135/176 440/135/337 438/133/338
f 387/112/241 389/169/245 453/169/312 451/112/339
f 353/183/294 351/184/293 415/184/340 417/183/341
f 393/123/164 392/125/166 456/125/342 457/123/343
f 379/148/200 381/115/203 445/115/344 443/148/345
f 343/184/289 341/183/288 405/183/346 407/184/347
f 356/187/307 354/172/305 418/172/348 420/187/321
f 399/112/153 398/111/152 462/111/349 463/112/350
f 390/129/190 371/127/192 435/127/351 454/129/352
f 360/179/284 361/178/283 425/178/353 424/179/354
f 348/175/302 346/176/301 410/176/355 412/175/356
f 380/139/180 382/137/182 446/137/357 444/139/309
f 398/111/152 397/116/157 461/116/358 462/111/349
f 366/173/278 367/172/277 431/172/359 430/173/360
f 338/180/297 358/181/296 422/181/314 402/180/361
f 370/129/170 372/131/172 436/131/362 434/129/315
f 385/111/207 387/112/241 451/112/339 449/111/317
f 349/185/292 347/186/291 411/186/320 413/185/363
f 430/173/360 431/172/359 463/112/350 462/111/349
f 428/175/333 429/174/364 461/116/358 460/115/324
f 427/176/334 428/175/333 460/115/324 459/119/323
f 426/177/365 427/176/334 459/119/323 458/121/366
f 425/178/353 426/177/365 458/121/366 457/123/343
f 424/179/354 425/178/353 457/123/343 456/125/342
f 423/180/327 424/179/354 456/125/342 455/127/316
f 401/181/328 423/180/327 455/127/316 434/129/315
f 403/182/367 401/181/328 434/129/315 436/131/362
f 405/183/346 403/182/367 436/131/362 438/133/338
f 407/184/347 405/183/346 438/133/338 440/135/337
f 409/185/319 407/184/347 440/135/337 442/137/310
f 411/186/320 409/185/319 442/137/310 444/139/309
f 413/185/363 411/186/320 444/139/309 446/137/357
f 415/184/340 413/185/363 446/137/357 448/135/332
f 417/183/341 415/184/340 448/135/332 450/133/331
f 419/182/313 417/183/341 450/133/331 452/131/368
f 422/181/314 419/182/313 452/131/368 454/129/352
f 402/180/361 422/181/314 454/129/352 435/127/351
f 404/179/335 402/180/361 435/127/351 437/125/326
f 406/178/336 404/179/335 437/125/326 439/123/325
f 408/177/369 406/178/336 439/123/325 441/121/370
f 410/176/355 408/177/369 441/121/370 443/148/345
f 412/175/356 410/176/355 443/148/345 445/115/344
f 414/174/329 412/175/356 445/115/344 447/116/318
f 416/173/330 414/174/329 447/116/318 449/111/317
f 418/172/348 416/173/330 449/111/317 451/112/339
f 431/172/359 432/187/371 464/167/372 463/112/350
f 420/187/321 418/172/348 451/112/339 453/169/312
f 432/187/371 421/188/322 433/170/311 464/167/372
f 421/188/322 420/187/321 453/169/312 433/170/311
f 429/174/364 430/173/360 462/111/349 461/116/358
f 346/176/301 344/177/300 408/177/369 410/176/355
f 361/178/283 362/177/282 426/177/365 425/178/353
f 388/131/186 390/129/190 454/129/352 452/131/368
f 367/172/277 368/187/306 432/187/371 431/172/359
f 341/183/288 339/182/287 403/182/367 405/183/346
f 377/121/198 379/148/200 443/148/345 441/121/370
f 394/121/162 393/123/164 457/123/343 458/121/366
f 351/184/293 349/185/292 413/185/363 415/184/340
f 400/167/243 399/112/153 463/112/350 464/167/372
f 372/131/172 374/133/174 438/133/338 436/131/362
f 340/179/298 338/180/297 402/180/361 404/179/335
f 364/175/280 365/174/279 429/174/364 428/175/333
f 382/137/182 384/135/184 448/135/332 446/137/357
f 350/174/303 348/175/302 412/175/356 414/174/329
f 359/180/285 360/179/284 424/179/354 423/180/327
f 371/127/192 373/125/194 437/125/326 435/127/351
f 397/116/157 396/115/156 460/115/324 461/116/358
f 368/187/306 357/188/308 421/188/322 432/187/371
f 345/185/290 343/184/289 407/184/347 409/185/319
f 381/115/203 383/116/205 447/116/318 445/115/344
f 392/125/166 391/127/168 455/127/316 456/125/342
f 355/182/295 353/183/294 417/183/341 419/182/313
f 369/170/247 400/167/243 464/167/372 433/170/311
f 376/135/176 378/137/178 442/137/310 440/135/337
f 344/177/300 342/178/299 406/178/336 408/177/369
f 362/177/282 363/176/281 427/176/334 426/177/365
f 386/133/187 388/131/186 452/131/368 450/133/331
f 354/172/305 352/173/304 416/173/330 418/172/348
f 339/182/287 337/181/286 401/181/328 403/182/367
f 375/123/196 377/121/198 441/121/370 439/123/325
f 395/119/160 394/121/162 458/121/366 459/119/323
f 365/174/279 366/173/278 430/173/360 429/174/364
usemtl limbs.006
f 13/189/373 107/190/374 212/191/375 110/192/376
f 13/189/373 110/192/376 201/193/377 84/194/378
f 13/189/373 84/194/378 193/195/379 97/196/380
f 13/189/373 97/196/380 202/197/381 107/190/374
f 14/198/382 111/199/383 213/200/384 114/201/385
f 14/198/382 114/201/385 205/202/386 88/203/387
f 14/198/382 88/203/387 194/204/388 101/205/389
f 14/198/382 101/205/389 206/206/390 111/199/383
f 15/207/391 115/208/392 214/209/393 118/210/394
f 15/207/391 118/210/394 208/211/395 91/212/396
f 15/207/391 91/212/396 195/213/397 104/214/398
f 15/207/391 104/214/398 209/215/399 115/208/392
f 16/216/400 119/217/401 215/218/402 122/219/403
f 16/216/400 122/219/403 203/220/404 98/221/405
f 16/216/400 98/221/405 192/222/406 106/223/407
f 16/216/400 106/223/407 211/224/408 119/217/401
f 17/225/409 123/226/410 216/227/411 126/228/412
f 17/225/409 126/228/412 206/206/390 101/205/389
f 17/225/409 101/205/389 194/204/388 92/229/413
f 17/225/409 92/229/413 209/215/399 123/226/410
f 18/230/414 127/231/415 217/232/416 130/233/417
f 18/230/414 130/233/417 204/234/418 99/235/419
f 18/230/414 99/235/419 197/236/420 83/237/421
f 18/230/414 83/237/421 200/238/422 127/231/415
f 19/239/423 98/221/405 203/220/404 109/240/424
f 19/239/423 109/240/424 212/191/375 107/190/374
f 19/239/423 107/190/374 202/197/381 85/241/425
f 19/239/423 85/241/425 192/222/406 98/221/405
f 20/242/426 86/243/427 196/244/428 95/245/429
f 20/242/426 95/245/429 200/238/422 108/246/430
f 20/242/426 108/246/430 212/191/375 109/240/424
f 20/242/426 109/240/424 203/220/404 86/243/427
f 21/247/431 108/246/430 200/238/422 83/237/421
f 21/247/431 83/237/421 197/236/420 96/248/432
f 21/247/431 96/248/432 201/193/377 110/192/376
f 21/247/431 110/192/376 212/191/375 108/246/430
f 22/249/433 84/194/378 201/193/377 113/250/434
f 22/249/433 113/250/434 213/200/384 111/199/383
f 22/249/433 111/199/383 206/206/390 89/251/435
f 22/249/433 89/251/435 193/195/379 84/194/378
f 23/252/436 96/248/432 197/236/420 99/235/419
f 23/252/436 99/235/419 204/234/418 112/253/437
f 23/252/436 112/253/437 213/200/384 113/250/434
f 23/252/436 113/250/434 201/193/377 96/248/432
f 24/254/438 112/253/437 204/234/418 87/255/439
f 24/254/438 87/255/439 198/256/440 100/257/441
f 24/254/438 100/257/441 205/202/386 114/201/385
f 24/254/438 114/201/385 213/200/384 112/253/437
f 25/258/442 88/203/387 205/202/386 117/259/443
f 25/258/442 117/259/443 214/209/393 115/208/392
f 25/258/442 115/208/392 209/215/399 92/229/413
f 25/258/442 92/229/413 194/204/388 88/203/387
f 26/260/444 100/257/441 198/256/440 102/261/445
f 26/260/444 102/261/445 207/262/446 116/263/447
f 26/260/444 116/263/447 214/209/393 117/259/443
f 26/260/444 117/259/443 205/202/386 100/257/441
f 27/264/448 116/263/447 207/262/446 90/265/449
f 27/264/448 90/265/449 199/266/450 103/267/451
f 27/264/448 103/267/451 208/211/395 118/210/394
f 27/264/448 118/210/394 214/209/393 116/263/447
f 28/268/452 91/212/396 208/211/395 121/269/453
f 28/268/452 121/269/453 215/218/402 119/217/401
f 28/268/452 119/217/401 211/224/408 94/270/454
f 28/268/452 94/270/454 195/213/397 91/212/396
f 29/271/455 103/267/451 199/266/450 105/272/456
f 29/271/455 105/272/456 210/273/457 120/274/458
f 29/271/455 120/274/458 215/218/402 121/269/453
f 29/271/455 121/269/453 208/211/395 103/267/451
f 30/275/459 120/274/458 210/273/457 93/276/460
f 30/275/459 93/276/460 196/244/428 86/243/427
f 30/275/459 86/243/427 203/220/404 122/219/403
f 30/275/459 122/219/403 215/218/402 120/274/458
f 31/277/461 94/270/454 211/224/408 125/278/462
f 31/277/461 125/278/462 216/227/411 123/226/410
f 31/277/461 123/226/410 209/215/399 104/214/398
f 31/277/461 104/214/398 195/213/397 94/270/454
f 32/279/463 106/223/407 192/222/406 85/241/425
f 32/279/463 85/241/425 202/197/381 124/280/464
f 32/279/463 124/280/464 216/227/411 125/278/462
f 32/279/463 125/278/462 211/224/408 106/223/407
f 33/281/465 124/280/464 202/197/381 97/196/380
f 33/281/465 97/196/380 193/195/379 89/251/435
f 33/281/465 89/251/435 206/206/390 126/228/412
f 33/281/465 126/228/412 216/227/411 124/280/464
f 34/282/466 93/276/460 210/273/457 129/283/467
f 34/282/466 129/283/467 217/232/416 127/231/415
f 34/282/466 127/231/415 200/238/422 95/245/429
f 34/282/466 95/245/429 196/244/428 93/276/460
f 35/284/468 105/272/456 199/266/450 90/265/449
f 35/284/468 90/265/449 207/262/446 128/285/469
f 35/284/468 128/285/469 217/232/416 129/283/467
f 35/284/468 129/283/467 210/273/457 105/272/456
f 36/286/470 128/285/469 207/262/446 102/261/445
f 36/286/470 102/261/445 198/256/440 87/255/439
f 36/286/470 87/255/439 204/234/418 130/233/417
f 36/286/470 130/233/417 217/232/416 128/285/469
