# Blender 4.3.2
# www.blender.org
mtllib left_arm.mtl
o body.004
v -0.089700 -0.140940 -0.065460
v -0.089580 -0.046700 -0.064500
v -0.107840 0.045760 -0.064040
v 4.095480 -1.021200 -0.267500
v 0.872020 -0.538220 -0.731540
v 3.040600 -0.870860 0.682040
v 0.770140 -0.854020 -0.314280
v 3.331400 0.016300 -0.264420
v 4.186740 -1.027360 0.273160
v 4.332620 -0.462140 0.284360
v 4.376600 -0.455980 -0.256280
v 3.127260 -0.853460 -0.705180
v 3.273160 -0.288260 -0.693960
v 1.017920 0.027000 -0.720320
v -0.261120 -0.382560 -0.322240
v -0.115240 0.182660 -0.311020
v -0.159200 0.176520 0.229640
v 0.785340 -0.555600 0.655680
v 0.931240 0.009620 0.666880
v 3.186480 -0.305640 0.693240
v 0.726180 -0.860160 0.226360
v 2.981420 -1.175420 0.252720
v 3.025380 -1.169280 -0.287920
v 3.287440 0.010160 0.276240
v 1.032180 0.325400 0.249880
v 1.076160 0.331560 -0.290780
v 4.290580 -0.725100 -0.182020
v 4.256540 -0.721180 -0.094240
v 4.240060 -0.720040 -0.001460
v 4.241780 -0.721700 0.092760
v 4.261620 -0.726120 0.184780
v 4.298860 -0.733120 0.271060
v -0.132100 -0.138480 -0.351240
v -0.087320 -0.093820 -0.064920
v -0.123660 0.090200 -0.064000
v -0.148300 0.028420 -0.349980
v -0.096440 -0.000020 -0.064220
v -0.132000 -0.054240 -0.350400
v 4.074860 -0.194400 -0.252780
v 3.904200 -0.970360 -0.607580
v 3.761680 -1.203400 0.261400
v 4.037820 -0.427420 0.615980
v 1.081040 0.242920 -0.628460
v 0.024160 -0.416640 -0.654220
v 3.049920 -1.071400 -0.622320
v 0.167240 0.353260 0.234660
v -0.048300 -0.432020 0.558260
v -0.048180 -0.643580 -0.319300
v 3.236320 -0.083880 0.610060
v 0.749720 -0.775380 0.564120
v 4.109240 -0.200480 0.281300
v 3.995640 -0.412040 -0.596500
v 3.768200 -1.197320 -0.272660
v 3.893700 -0.985760 0.604900
v 3.308780 -0.068480 -0.602420
v 0.168280 0.141680 -0.643140
v 0.822180 -0.759980 -0.648340
v 0.210680 0.359320 -0.299400
v 0.095800 0.126300 0.569340
v -0.091620 -0.649660 0.214760
v 1.008580 0.227520 0.584020
v 2.977460 -1.086780 0.590160
v 4.206640 -1.029960 0.003320
v 4.354300 -0.457860 0.014660
v 4.258220 -0.747020 0.282620
v 4.302720 -0.740800 -0.264640
v 1.999820 -0.699140 -0.731600
v 2.147500 -0.127040 -0.720260
v 3.215040 -0.572640 -0.712600
v 0.932280 -0.253540 -0.739280
v -0.128180 0.184860 -0.041080
v -0.179760 -0.098080 -0.320380
v -0.224280 -0.104300 0.226860
v 1.911000 -0.716820 0.681980
v 2.058660 -0.144720 0.693320
v 0.843460 -0.271220 0.674300
v 3.126220 -0.590320 0.700980
v 0.730860 -0.868960 -0.044400
v 3.013600 -1.188040 -0.017720
v 1.849980 -1.031620 0.242580
v 1.894480 -1.025400 -0.304680
v 3.326720 0.025080 0.006340
v 1.043980 0.344180 -0.020340
v 2.163100 0.181540 0.266640
v 2.207600 0.187760 -0.280620
v 4.313820 -0.728040 -0.222980
v 4.356640 -1.001040 -0.131440
v 4.271420 -0.722800 -0.138980
v 4.331100 -0.998100 -0.065620
v 4.246040 -0.720260 -0.048260
v 4.318740 -0.997240 0.003980
v 4.238620 -0.720520 0.045700
v 4.320020 -0.998500 0.074640
v 4.249460 -0.723580 0.139260
v 4.334920 -1.001820 0.143640
v 4.278140 -0.729320 0.228840
v 4.362840 -1.007060 0.208360
v -0.137000 -0.091580 -0.348420
v -0.169220 0.071580 -0.347600
v -0.145080 -0.008420 -0.347780
v 3.631540 -1.114960 0.541200
v 3.694620 -1.100880 -0.555880
v 0.200780 -0.611280 -0.596980
v 0.137680 -0.625360 0.500120
v 3.859280 -0.232660 0.558700
v 3.922360 -0.218580 -0.538400
v 0.428500 0.271000 -0.579480
v 0.365420 0.256920 0.517620
v 4.149860 -0.192660 0.014760
v 3.948080 -0.725420 -0.661760
v 3.798280 -1.211080 -0.005440
v 3.982060 -0.709640 0.618200
v 2.197520 0.095060 -0.622700
v 0.081660 -0.134520 -0.656420
v 1.934660 -0.923360 -0.642900
v 0.175800 0.366900 -0.032540
v 0.008000 -0.150100 0.570900
v -0.087060 -0.651520 -0.052740
v 2.123840 0.079500 0.604620
v 1.860980 -0.938920 0.584420
v 4.264940 -0.745360 0.009660
v 2.075000 -0.412900 -0.742420
v 1.983500 -0.430960 0.704120
v 1.867780 -1.045740 -0.031400
v 2.189800 0.201880 -0.006660
v 4.329680 -0.927220 -0.196540
v 4.292080 -0.922560 -0.122040
v 4.269560 -0.920300 -0.041600
v 4.263000 -0.920540 0.041700
v 4.272600 -0.923260 0.124680
v 4.298040 -0.928340 0.204120
v 3.904740 -1.017860 0.047580
v 3.908020 -1.012200 0.145460
v 3.914200 -0.991980 0.239800
v 3.923000 -0.957980 0.326940
v 3.934120 -0.911480 0.403560
v 3.947120 -0.854300 0.466720
v 3.961480 -0.788620 0.513960
v 3.976680 -0.716960 0.543500
v 3.992140 -0.642080 0.554180
v 4.007220 -0.566880 0.545600
v 4.021380 -0.494220 0.518100
v 4.034060 -0.426900 0.472700
v 4.044780 -0.367500 0.411200
v 4.053120 -0.318320 0.335920
v 4.058760 -0.281240 0.249760
v 4.061500 -0.257700 0.156040
v 4.061220 -0.248560 0.058360
v 4.057940 -0.254220 -0.039520
v 4.051760 -0.274440 -0.133860
v 4.042940 -0.308440 -0.221000
v 4.031840 -0.354940 -0.297620
v 4.018840 -0.412120 -0.360780
v 4.004460 -0.477800 -0.408020
v 3.989260 -0.549460 -0.437560
v 3.973820 -0.624320 -0.448240
v 3.958740 -0.699520 -0.439660
v 3.944580 -0.772200 -0.412160
v 3.931900 -0.839520 -0.366760
v 3.921180 -0.898920 -0.305240
v 3.912840 -0.948100 -0.229960
v 3.907180 -0.985180 -0.143820
v 3.904460 -1.008720 -0.050100
v 4.081160 -0.424780 -0.362140
v 4.083700 -0.506880 0.516720
v 4.094160 -0.367600 -0.298980
v 4.069540 -0.579540 0.544240
v 4.105280 -0.321100 -0.222360
v 4.054460 -0.654740 0.552820
v 4.114100 -0.287100 -0.135220
v 4.039020 -0.729620 0.542140
v 4.120260 -0.266880 -0.040880
v 4.023820 -0.801280 0.512600
v 4.123560 -0.261220 0.057000
v 4.009440 -0.866960 0.465360
v 4.123840 -0.270340 0.154680
v 3.996460 -0.924140 0.402200
v 4.121100 -0.293900 0.248400
v 3.985340 -0.970640 0.325580
v 4.115440 -0.330980 0.334540
v 3.976520 -1.004640 0.238440
v 4.107100 -0.380160 0.409840
v 3.970360 -1.024860 0.144100
v 3.967060 -1.030520 0.046220
v 4.096380 -0.439560 0.471340
v 4.066800 -0.490460 -0.409380
v 4.051600 -0.562120 -0.438920
v 4.036160 -0.636980 -0.449600
v 4.021060 -0.712180 -0.441020
v 4.006920 -0.784860 -0.413520
v 3.994240 -0.852180 -0.368120
v 3.983520 -0.911580 -0.306620
v 3.975160 -0.960760 -0.231340
v 3.969520 -0.997840 -0.145180
v 3.966780 -1.021380 -0.051460
v 4.189040 -1.075600 0.041360
v 4.276440 -0.699840 0.547960
v 4.261000 -0.774720 0.537280
v 4.245800 -0.846360 0.507760
v 4.231420 -0.912040 0.460500
v 4.218420 -0.969220 0.397360
v 4.207300 -1.015720 0.320720
v 4.198500 -1.049720 0.233580
v 4.192320 -1.069960 0.139240
v 4.273560 -0.607200 -0.443760
v 4.258120 -0.682060 -0.454460
v 4.243040 -0.757280 -0.445880
v 4.228880 -0.829940 -0.418360
v 4.216200 -0.897260 -0.372980
v 4.205480 -0.956660 -0.311460
v 4.197140 -1.005840 -0.236180
v 4.191500 -1.042920 -0.150020
v 4.188760 -1.066480 -0.056320
v 4.057360 -0.363680 -0.528820
v 4.060700 -0.471820 0.628660
v 4.074460 -0.288360 -0.445660
v 4.042040 -0.567520 0.664880
v 4.089100 -0.227140 -0.344740
v 4.022180 -0.666560 0.676180
v 4.100720 -0.182360 -0.229960
v 4.001840 -0.765160 0.662120
v 4.108840 -0.155720 -0.105720
v 3.981820 -0.859540 0.623220
v 4.113160 -0.148260 0.023180
v 3.962900 -0.946040 0.561000
v 4.113540 -0.160300 0.151820
v 3.945780 -1.021340 0.477820
v 4.109940 -0.191320 0.275260
v 3.931140 -1.082580 0.376900
v 4.102500 -0.240160 0.388720
v 3.919540 -1.127360 0.262140
v 4.091520 -0.304920 0.487860
v 3.911420 -1.154000 0.137900
v 3.907080 -1.161440 0.008980
v 4.077400 -0.383160 0.568880
v 4.038420 -0.450200 -0.591040
v 4.018400 -0.544560 -0.629940
v 3.998080 -0.643160 -0.644020
v 3.978200 -0.742200 -0.632720
v 3.959560 -0.837900 -0.596480
v 3.942860 -0.926560 -0.536720
v 3.928740 -1.004800 -0.455700
v 3.917740 -1.069560 -0.356560
v 3.910320 -1.118400 -0.243080
v 3.906700 -1.149420 -0.119660
v 4.199420 -1.220820 0.002600
v 4.349700 -0.423060 -0.535220
v 4.353040 -0.531200 0.622260
v 4.366800 -0.347740 -0.452040
v 4.334380 -0.626880 0.658500
v 4.381440 -0.286520 -0.351140
v 4.314520 -0.725940 0.669800
v 4.294180 -0.824540 0.655720
v 4.274160 -0.918920 0.616820
v 4.255240 -1.005420 0.554600
v 4.238120 -1.080720 0.471440
v 4.223480 -1.141940 0.370520
v 4.211880 -1.186740 0.255740
v 4.383860 -0.364300 0.481480
v 4.203760 -1.213380 0.131500
v 4.369740 -0.442520 0.562500
v 4.330760 -0.509560 -0.597440
v 4.310740 -0.603940 -0.636340
v 4.290420 -0.702540 -0.650400
v 4.270540 -0.801580 -0.639100
v 4.251900 -0.897280 -0.602880
v 4.235200 -0.985940 -0.543100
v 4.221080 -1.064160 -0.462080
v 4.210080 -1.128940 -0.362940
v 4.202640 -1.177780 -0.249480
v 4.199040 -1.208800 -0.126060
vn 0.9867 0.0321 -0.1593
vn 0.9872 -0.0014 -0.1594
vn 0.9872 -0.0018 -0.1594
vn 0.9827 0.0911 -0.1609
vn 0.9830 0.0880 -0.1609
vn 0.9686 0.1905 -0.1600
vn 0.9686 0.1906 -0.1600
vn 0.9463 0.2800 -0.1617
vn 0.9470 0.2776 -0.1617
vn 0.9085 0.3855 -0.1615
vn -0.8769 -0.2165 -0.4291
vn -0.9791 -0.1831 -0.0880
vn -0.9114 -0.2269 -0.3433
vn -0.9433 -0.2089 -0.2581
vn -0.9605 -0.2219 -0.1678
vn -0.9605 -0.2219 -0.1679
vn -0.9753 -0.2066 -0.0775
vn -0.9749 -0.2224 0.0138
vn -0.9748 -0.2224 0.0138
vn -0.9720 -0.2099 0.1056
vn -0.9539 -0.2283 0.1948
vn -0.9333 -0.2185 0.2849
vn -0.8984 -0.2395 0.3683
vn -0.8984 -0.2395 0.3682
vn -0.6361 -0.2479 0.7307
vn -0.8205 -0.5717 0.0048
vn -0.8165 -0.5654 0.1167
vn -0.8085 -0.5419 0.2295
vn -0.7959 -0.4986 0.3434
vn -0.7782 -0.4315 0.4563
vn -0.7543 -0.3362 0.5639
vn -0.7245 -0.2092 0.6568
vn -0.6897 -0.0529 0.7221
vn -0.6529 0.1224 0.7475
vn -0.6182 0.2986 0.7271
vn -0.5887 0.4579 0.6662
vn -0.5662 0.5887 0.5769
vn -0.5502 0.6887 0.4721
vn -0.5398 0.7605 0.3610
vn -0.5339 0.8082 0.2484
vn -0.5315 0.8360 0.1364
vn -0.5320 0.8464 0.0247
vn -0.5355 0.8400 -0.0872
vn -0.5421 0.8162 -0.2000
vn -0.5522 0.7724 -0.3139
vn -0.5666 0.7047 -0.4270
vn -0.5865 0.6085 -0.5346
vn -0.6124 0.4808 -0.6275
vn -0.6441 0.3238 -0.6930
vn -0.6797 0.1483 -0.7183
vn -0.7156 -0.0277 -0.6980
vn -0.7480 -0.1863 -0.6369
vn -0.7747 -0.3164 -0.5475
vn -0.7946 -0.4155 -0.4427
vn -0.8083 -0.4866 -0.3315
vn -0.8167 -0.5339 -0.2189
vn -0.8206 -0.5614 -0.1068
vn -0.8899 -0.3634 -0.2759
vn -0.8977 -0.4018 -0.1811
vn -0.8623 -0.2203 -0.4559
vn -0.8783 -0.3039 -0.3691
vn -0.8417 -0.1105 -0.5285
vn -0.8163 0.0220 -0.5772
vn -0.7882 0.1677 -0.5922
vn -0.7598 0.3120 -0.5704
vn -0.7344 0.4408 -0.5161
vn -0.7143 0.5451 -0.4389
vn -0.7002 0.6227 -0.3493
vn -0.6919 0.6755 -0.2550
vn -0.6882 0.7075 -0.1609
vn -0.6878 0.7227 -0.0687
vn -0.6901 0.7234 0.0215
vn -0.6942 0.7113 0.1102
vn -0.6998 0.6862 0.1983
vn -0.7074 0.6463 0.2861
vn -0.7177 0.5886 0.3720
vn -0.7312 0.5103 0.4526
vn -0.7489 0.4092 0.5212
vn -0.7709 0.2869 0.5687
vn -0.7957 0.1511 0.5865
vn -0.8210 0.0144 0.5707
vn -0.8444 -0.1104 0.5242
vn -0.8642 -0.2148 0.4550
vn -0.8797 -0.2959 0.3723
vn -0.8910 -0.3550 0.2831
vn -0.8984 -0.3951 0.1915
vn -0.9022 -0.4225 -0.0868
vn -0.9026 -0.4188 0.0993
vn -0.9039 -0.4278 0.0066
vn -0.6992 0.3222 -0.6382
vn -0.7305 0.1586 -0.6642
vn -0.8217 -0.2669 0.5036
vn -0.7952 -0.1544 0.5864
vn 0.9929 -0.0204 0.1174
vn 0.9960 0.0133 0.0888
vn 0.6303 -0.7069 -0.3210
vn 0.6344 -0.6468 -0.4233
vn -0.8580 -0.4191 -0.2970
vn -0.8682 -0.4571 -0.1929
vn -0.6844 0.4368 0.5837
vn -0.6699 0.5479 0.5011
vn 0.9910 0.0794 -0.1079
vn 0.9859 0.0656 -0.1541
vn 0.6627 -0.7002 0.2657
vn 0.6528 -0.7385 0.1690
vn -0.9952 -0.0938 -0.0263
vn -0.9961 -0.0854 0.0207
vn -0.8427 -0.3588 -0.4014
vn 0.9735 -0.1499 0.1729
vn 0.9818 -0.1027 0.1600
vn 0.6612 -0.4423 -0.6060
vn 0.6863 -0.2972 -0.6638
vn 0.9431 -0.1141 -0.3122
vn 0.9348 -0.1466 -0.3236
vn 0.5044 -0.0944 0.8583
vn 0.7424 -0.3152 0.5912
vn -0.6435 0.6650 -0.3791
vn -0.6548 0.5818 -0.4825
vn -0.8686 -0.4497 0.2080
vn -0.8583 -0.4104 0.3082
vn -0.7639 -0.0057 -0.6453
vn -0.7953 -0.1526 -0.5867
vn -0.7647 -0.0148 0.6442
vn -0.7336 0.1417 0.6646
vn 0.9979 0.0625 0.0195
vn 0.9968 0.0767 -0.0203
vn 0.6383 -0.7695 -0.0229
vn 0.6333 -0.7645 -0.1200
vn -0.9158 0.3434 0.2085
vn -0.9901 -0.0675 -0.1234
vn 0.9789 0.0400 -0.2002
vn 0.9698 0.0015 -0.2440
vn 0.6922 -0.5604 0.4549
vn 0.6753 -0.6424 0.3622
vn -0.9959 -0.0657 0.0629
vn -0.9944 -0.0373 0.0992
vn -0.8742 -0.4769 -0.0908
vn -0.8763 -0.4818 0.0094
vn 0.9882 -0.0593 0.1413
vn 0.6441 -0.5597 -0.5214
vn -0.6734 0.4668 -0.5732
vn -0.8428 -0.3510 0.4079
vn -0.8219 -0.2710 -0.5010
vn -0.7060 0.2981 0.6424
vn 0.6304 -0.7447 -0.2193
vn 0.7184 -0.1357 -0.6823
vn 0.5217 0.1344 -0.8425
vn 0.0766 0.4719 -0.8783
vn 0.1151 0.6476 -0.7532
vn 0.1454 0.7811 -0.6073
vn -0.8909 0.4295 -0.1479
vn 0.1578 0.8339 -0.5288
vn 0.1429 0.6207 0.7710
vn 0.1568 0.6967 0.7000
vn 0.1089 0.4405 0.8911
vn 0.0665 0.2228 0.9726
vn 0.7143 -0.4507 0.5353
vn -0.8744 -0.4728 0.1086
vn 0.6448 -0.7609 0.0730
vn 0.9976 0.0411 0.0560
vn 0.9580 -0.0502 -0.2825
vn 0.9578 -0.2233 0.1812
vn 0.9632 -0.1999 0.1796
vn -0.9932 -0.0883 -0.0755
vn 0.9946 0.0827 -0.0630
vn 0.6585 -0.6767 -0.3293
vn 0.8164 -0.2860 -0.5017
vn 0.9445 -0.3259 -0.0422
vn 0.7592 -0.6495 -0.0431
vn 0.4216 -0.5074 -0.7515
vn 0.4258 -0.1299 -0.8955
vn 0.2161 -0.9498 -0.2262
vn 0.1554 -0.7642 -0.6260
vn 0.2125 -0.9766 -0.0317
vn -0.0741 -0.1851 -0.9799
vn -0.0446 0.0309 -0.9985
vn 0.0140 0.0162 -0.9998
vn -0.0159 -0.1954 -0.9806
vn -0.5150 -0.2125 -0.8304
vn -0.4591 0.1348 -0.8781
vn -0.1575 -0.7136 -0.6826
vn -0.3105 -0.6809 -0.6633
vn -0.0933 -0.7227 -0.6848
vn 0.0130 -0.2474 0.9688
vn 0.0444 -0.0309 0.9985
vn -0.0140 -0.0162 0.9998
vn -0.0434 -0.2277 0.9728
vn 0.3698 -0.4768 0.7975
vn 0.4505 -0.1329 0.8828
vn -0.0527 -0.7575 0.6507
vn 0.0937 -0.7806 0.6180
vn -0.1122 -0.7458 0.6566
vn -0.1963 -0.9616 -0.1919
vn -0.1337 -0.9729 -0.1888
vn -0.1382 -0.9901 -0.0225
vn -0.2043 -0.9785 -0.0274
vn -0.4236 -0.8418 -0.3346
vn -0.2527 -0.9671 -0.0295
vn 0.2086 0.9671 -0.1459
vn 0.1389 0.9793 -0.1473
vn 0.1382 0.9901 0.0225
vn 0.2069 0.9782 0.0180
vn 0.1848 0.7337 -0.6538
vn 0.1123 0.7460 -0.6565
vn 0.5019 0.8302 -0.2428
vn 0.3741 0.6920 -0.6175
vn 0.5510 0.8343 0.0158
vn 0.7293 -0.6042 0.3211
vn 0.8527 -0.2192 0.4742
vn 0.1843 -0.9618 0.2024
vn 0.8041 0.3765 0.4602
vn 0.5216 0.8053 0.2817
vn 0.3071 0.6824 0.6633
vn 0.5064 0.2204 0.8336
vn 0.7482 0.6633 0.0146
vn 0.7737 0.4323 -0.4631
vn 0.4816 0.2649 -0.8354
vn 0.0337 -0.2331 -0.9719
vn 0.0636 0.0017 -0.9980
vn -0.0328 -0.7352 -0.6771
vn 0.1047 0.2309 -0.9673
vn 0.0434 0.2277 -0.9728
vn -0.0132 0.2474 -0.9688
vn 0.0522 0.7582 -0.6500
vn -0.3822 0.4522 -0.8059
vn -0.0880 0.7766 -0.6238
vn -0.7505 -0.1579 -0.6418
vn -0.7467 0.2046 -0.6329
vn -0.6115 0.6732 -0.4158
vn -0.2369 0.9448 -0.2262
vn -0.4938 0.8691 -0.0294
vn -0.2478 0.9688 -0.0086
vn -0.6394 0.6655 0.3850
vn -0.2544 0.9413 0.2217
vn -0.4169 0.4333 0.7990
vn -0.1079 0.7592 0.6418
vn -0.7813 0.2131 0.5867
vn -0.3790 0.0861 0.9214
vn -0.1035 -0.2186 0.9703
vn -0.0738 -0.0011 0.9973
vn -0.1426 -0.1497 0.9784
vn -0.1776 -0.7379 0.6512
vn -0.2318 -0.7166 0.6578
vn -0.0418 0.2172 0.9752
vn 0.0332 0.7368 0.6753
vn 0.0159 0.1954 0.9806
vn 0.0933 0.7228 0.6848
vn 0.0739 0.1852 0.9799
vn 0.1573 0.7137 0.6825
vn -0.2029 -0.9686 0.1435
vn -0.1389 -0.9792 0.1476
vn -0.2535 -0.9612 0.1084
vn -0.0805 -0.9854 0.1501
vn -0.0773 -0.9969 -0.0173
vn -0.0748 -0.9801 -0.1837
vn 0.1959 0.9617 0.1919
vn 0.1337 0.9729 0.1887
vn 0.0732 0.9803 0.1832
vn 0.0754 0.9970 0.0177
vn 0.0792 0.9856 -0.1491
vt 0.572616 0.769916
vt 0.569966 0.770264
vt 0.571508 0.771072
vt 0.572672 0.771020
vt 0.572619 0.772123
vt 0.569968 0.771919
vt 0.571319 0.773020
vt 0.572459 0.773216
vt 0.572192 0.774289
vt 0.569648 0.773544
vt 0.570754 0.774894
vt 0.571821 0.775330
vt 0.675218 0.756233
vt 0.675762 0.756163
vt 0.676133 0.751498
vt 0.676765 0.749769
vt 0.675253 0.751607
vt 0.674769 0.756287
vt 0.674420 0.756324
vt 0.676167 0.749838
vt 0.674726 0.751660
vt 0.674174 0.756346
vt 0.674034 0.756351
vt 0.675877 0.749858
vt 0.674572 0.751655
vt 0.674001 0.756340
vt 0.674075 0.756312
vt 0.675907 0.749829
vt 0.674797 0.751591
vt 0.674255 0.756268
vt 0.674540 0.756209
vt 0.676256 0.749751
vt 0.675393 0.751472
vt 0.674927 0.756134
vt 0.675412 0.756045
vt 0.676910 0.749628
vt 0.666180 0.749375
vt 0.666257 0.749508
vt 0.666402 0.749981
vt 0.666608 0.750778
vt 0.666868 0.751867
vt 0.667173 0.753206
vt 0.667509 0.754745
vt 0.667865 0.756423
vt 0.668227 0.758177
vt 0.668580 0.759939
vt 0.668912 0.761640
vt 0.669209 0.763217
vt 0.669460 0.764609
vt 0.669656 0.765761
vt 0.669788 0.766629
vt 0.669852 0.767181
vt 0.669845 0.767395
vt 0.669768 0.767262
vt 0.669624 0.766789
vt 0.669417 0.765992
vt 0.669157 0.764903
vt 0.668853 0.763564
vt 0.668516 0.762025
vt 0.668160 0.760347
vt 0.667798 0.758593
vt 0.667445 0.756832
vt 0.667113 0.755129
vt 0.666816 0.753552
vt 0.666565 0.752161
vt 0.666370 0.751009
vt 0.666237 0.750141
vt 0.666173 0.749589
vt 0.674307 0.749397
vt 0.674175 0.748528
vt 0.674754 0.751940
vt 0.674503 0.750549
vt 0.675051 0.753517
vt 0.675382 0.755219
vt 0.675736 0.756981
vt 0.676097 0.758735
vt 0.676453 0.760413
vt 0.676790 0.761952
vt 0.677095 0.763291
vt 0.677355 0.764380
vt 0.677561 0.765177
vt 0.677706 0.765650
vt 0.677783 0.765783
vt 0.677790 0.765569
vt 0.677725 0.765017
vt 0.677593 0.764148
vt 0.677398 0.762997
vt 0.677147 0.761605
vt 0.676850 0.760028
vt 0.676518 0.758326
vt 0.676165 0.756565
vt 0.675803 0.754811
vt 0.675447 0.753133
vt 0.675110 0.751594
vt 0.674806 0.750255
vt 0.674545 0.749166
vt 0.674339 0.748369
vt 0.674111 0.747977
vt 0.674195 0.747895
vt 0.674118 0.747763
vt 0.678471 0.749743
vt 0.678276 0.748591
vt 0.678308 0.747563
vt 0.678514 0.748360
vt 0.679351 0.754413
vt 0.679020 0.752711
vt 0.679772 0.754005
vt 0.680133 0.755759
vt 0.678080 0.747171
vt 0.678086 0.746957
vt 0.678775 0.749449
vt 0.679079 0.750788
vt 0.678723 0.751134
vt 0.678144 0.747722
vt 0.679705 0.756175
vt 0.680066 0.757929
vt 0.680422 0.759607
vt 0.680759 0.761145
vt 0.681063 0.762485
vt 0.681324 0.763574
vt 0.681115 0.760799
vt 0.681366 0.762190
vt 0.680818 0.759222
vt 0.680487 0.757520
vt 0.679416 0.752326
vt 0.678163 0.747089
vt 0.673815 0.749297
vt 0.675502 0.755865
vt 0.674617 0.755758
vt 0.673252 0.749092
vt 0.667619 0.750488
vt 0.669717 0.756959
vt 0.665924 0.745172
vt 0.661259 0.747431
vt 0.665764 0.744849
vt 0.595143 0.760610
vt 0.596555 0.767278
vt 0.623321 0.763545
vt 0.621560 0.756841
vt 0.575284 0.763458
vt 0.576630 0.770066
vt 0.593976 0.755415
vt 0.579420 0.758899
vt 0.620034 0.751589
vt 0.645939 0.752819
vt 0.647944 0.759390
vt 0.621178 0.763122
vt 0.619480 0.756426
vt 0.665922 0.750127
vt 0.667991 0.756595
vt 0.644460 0.747761
vt 0.659781 0.747101
vt 0.618308 0.751224
vt 0.592757 0.753213
vt 0.619093 0.749199
vt 0.618467 0.748722
vt 0.591837 0.752863
vt 0.573589 0.758142
vt 0.572678 0.757956
vt 0.652750 0.773599
vt 0.626427 0.777615
vt 0.626010 0.777946
vt 0.652641 0.773805
vt 0.652221 0.771613
vt 0.626191 0.775444
vt 0.671988 0.768663
vt 0.666593 0.768097
vt 0.671922 0.768704
vt 0.672785 0.749153
vt 0.674460 0.755719
vt 0.664907 0.745029
vt 0.676203 0.762392
vt 0.670970 0.768521
vt 0.665115 0.767767
vt 0.669297 0.763205
vt 0.676711 0.762492
vt 0.677232 0.762536
vt 0.670995 0.763565
vt 0.647969 0.753226
vt 0.650025 0.759804
vt 0.646157 0.748121
vt 0.651386 0.766465
vt 0.625019 0.770241
vt 0.598561 0.773849
vt 0.600039 0.778907
vt 0.578659 0.776536
vt 0.584754 0.779565
vt 0.568601 0.764256
vt 0.570507 0.770920
vt 0.572018 0.777496
vt 0.579652 0.781633
vt 0.571715 0.777547
vt 0.578835 0.781811
vt 0.570988 0.777352
vt 0.578635 0.781491
vt 0.576962 0.776175
vt 0.583277 0.779235
vt 0.569464 0.770774
vt 0.574905 0.769701
vt 0.593113 0.760203
vt 0.594474 0.766864
vt 0.573586 0.763097
vt 0.592278 0.755055
vt 0.577943 0.758569
vt 0.596530 0.773442
vt 0.598342 0.778546
vt 0.622939 0.769827
vt 0.624465 0.775079
vt 0.649356 0.766058
vt 0.650523 0.771252
vt 0.591727 0.753069
vt 0.618050 0.749053
vt 0.572571 0.758000
vt 0.644553 0.745685
vt 0.645306 0.745389
vt 0.645583 0.745829
vt 0.651721 0.773455
vt 0.625385 0.777469
vt 0.598895 0.780839
vt 0.599171 0.781279
vt 0.599925 0.780983
s 1
usemtl joints.001
f 1/1/1 33/2/1 98/3/2 34/4/3
f 2/5/4 38/6/5 100/7/6 37/8/7
f 2/5/4 34/4/3 98/3/2 38/6/5
f 3/9/8 36/10/9 99/11/10 35/12/10
f 3/9/8 37/8/7 100/7/6 36/10/9
f 27/13/11 86/14/12 126/15/12 87/16/11
f 27/13/11 87/16/11 127/17/13 88/18/13
f 28/19/14 88/18/13 127/17/13 89/20/14
f 28/19/14 89/20/14 128/21/15 90/22/16
f 29/23/17 90/22/16 128/21/15 91/24/17
f 29/23/17 91/24/17 129/25/18 92/26/19
f 30/27/20 92/26/19 129/25/18 93/28/20
f 30/27/20 93/28/20 130/29/21 94/30/21
f 31/31/22 94/30/21 130/29/21 95/32/22
f 31/31/22 95/32/22 131/33/23 96/34/24
f 32/35/25 96/34/24 131/33/23 97/36/25
f 132/37/26 133/38/27 134/39/28 135/40/29 136/41/30 137/42/31 138/43/32 139/44/33 140/45/34 141/46/35 142/47/36 143/48/37 144/49/38 145/50/39 146/51/40 147/52/41 148/53/42 149/54/43 150/55/44 151/56/45 152/57/46 153/58/47 154/59/48 155/60/49 156/61/50 157/62/51 158/63/52 159/64/53 160/65/54 161/66/55 162/67/56 163/68/57
f 161/66/55 193/69/58 194/70/59 162/67/56
f 159/64/53 191/71/60 192/72/61 160/65/54
f 158/63/52 190/73/62 191/71/60 159/64/53
f 157/62/51 189/74/63 190/73/62 158/63/52
f 156/61/50 188/75/64 189/74/63 157/62/51
f 155/60/49 187/76/65 188/75/64 156/61/50
f 154/59/48 186/77/66 187/76/65 155/60/49
f 153/58/47 164/78/67 186/77/66 154/59/48
f 152/57/46 166/79/68 164/78/67 153/58/47
f 151/56/45 168/80/69 166/79/68 152/57/46
f 150/55/44 170/81/70 168/80/69 151/56/45
f 149/54/43 172/82/71 170/81/70 150/55/44
f 148/53/42 174/83/72 172/82/71 149/54/43
f 147/52/41 176/84/73 174/83/72 148/53/42
f 146/51/40 178/85/74 176/84/73 147/52/41
f 145/50/39 180/86/75 178/85/74 146/51/40
f 144/49/38 182/87/76 180/86/75 145/50/39
f 143/48/37 185/88/77 182/87/76 144/49/38
f 142/47/36 165/89/78 185/88/77 143/48/37
f 141/46/35 167/90/79 165/89/78 142/47/36
f 140/45/34 169/91/80 167/90/79 141/46/35
f 139/44/33 171/92/81 169/91/80 140/45/34
f 138/43/32 173/93/82 171/92/81 139/44/33
f 137/42/31 175/94/83 173/93/82 138/43/32
f 136/41/30 177/95/84 175/94/83 137/42/31
f 135/40/29 179/96/85 177/95/84 136/41/30
f 134/39/28 181/97/86 179/96/85 135/40/29
f 162/67/56 194/70/59 195/98/87 163/68/57
f 133/38/27 183/99/88 181/97/86 134/39/28
f 163/68/57 195/98/87 184/100/89 132/37/26
f 132/37/26 184/100/89 183/99/88 133/38/27
f 160/65/54 192/72/61 193/69/58 161/66/55
f 188/75/64 187/76/65 237/76/90 238/75/91
f 173/93/82 175/94/83 225/94/92 223/93/93
f 210/101/94 211/102/95 269/102/96 268/101/97
f 194/70/59 193/69/58 243/69/98 244/70/99
f 185/88/77 165/89/78 215/89/100 235/88/101
f 203/103/102 202/104/103 257/104/104 258/103/105
f 174/83/72 176/84/73 226/84/106 224/83/107
f 193/69/58 192/72/61 242/72/108 243/69/98
f 207/105/109 208/106/110 266/106/111 265/105/112
f 198/107/113 197/108/114 252/108/115 253/107/116
f 164/78/67 166/79/68 216/79/117 214/78/118
f 179/96/85 181/97/86 231/97/119 229/96/120
f 190/73/62 189/74/63 239/74/121 240/73/122
f 169/91/80 171/92/81 221/92/123 219/91/124
f 213/109/125 196/110/126 246/110/127 271/109/128
f 180/86/75 182/87/76 232/87/129 230/86/130
f 201/111/131 200/112/132 255/112/133 256/111/134
f 170/81/70 172/82/71 222/82/135 220/81/136
f 184/100/89 195/98/87 245/98/137 234/100/138
f 209/113/139 210/101/94 268/101/97 267/113/140
f 187/76/65 186/77/66 236/77/141 237/76/90
f 175/94/83 177/95/84 227/95/142 225/94/92
f 192/72/61 191/71/60 241/71/143 242/72/108
f 165/89/78 167/90/79 217/90/144 215/89/100
f 243/69/98 269/102/96 270/114/145 244/70/99
f 241/71/143 267/113/140 268/101/97 242/72/108
f 240/73/122 266/106/111 267/113/140 241/71/143
f 239/74/121 265/105/112 266/106/111 240/73/122
f 238/75/91 264/115/146 265/105/112 239/74/121
f 237/76/90 263/116/147 264/115/146 238/75/91
f 236/77/141 262/117/148 263/116/147 237/76/90
f 214/78/118 247/118/149 262/117/148 236/77/141
f 216/79/117 249/119/150 247/118/149 214/78/118
f 218/80/151 251/120/152 249/119/150 216/79/117
f 235/88/101 261/121/153 259/122/154 232/87/129
f 215/89/100 248/123/155 261/121/153 235/88/101
f 217/90/144 250/124/156 248/123/155 215/89/100
f 219/91/124 252/108/115 250/124/156 217/90/144
f 221/92/123 253/107/116 252/108/115 219/91/124
f 223/93/93 254/125/157 253/107/116 221/92/123
f 225/94/92 255/112/133 254/125/157 223/93/93
f 227/95/142 256/111/134 255/112/133 225/94/92
f 229/96/120 257/104/104 256/111/134 227/95/142
f 231/97/119 258/103/105 257/104/104 229/96/120
f 244/70/99 270/114/145 271/109/128 245/98/137
f 233/99/158 260/126/159 258/103/105 231/97/119
f 245/98/137 271/109/128 246/110/127 234/100/138
f 234/100/138 246/110/127 260/126/159 233/99/158
f 242/72/108 268/101/97 269/102/96 243/69/98
f 211/102/95 212/114/160 270/114/145 269/102/96
f 181/97/86 183/99/88 233/99/158 231/97/119
f 168/80/69 170/81/70 220/81/136 218/80/151
f 200/112/132 199/125/161 254/125/157 255/112/133
f 205/116/162 206/115/163 264/115/146 263/116/147
f 178/85/74 180/86/75 230/86/130 228/85/164
f 204/126/165 203/103/102 258/103/105 260/126/159
f 167/90/79 169/91/80 219/91/124 217/90/144
f 191/71/60 190/73/62 240/73/122 241/71/143
f 177/95/84 179/96/85 229/96/120 227/95/142
f 186/77/66 164/78/67 214/78/118 236/77/141
f 208/106/110 209/113/139 267/113/140 266/106/111
f 183/99/88 184/100/89 234/100/138 233/99/158
f 172/82/71 174/83/72 224/83/107 222/82/135
f 202/104/103 201/111/131 256/111/134 257/104/104
f 182/87/76 185/88/77 235/88/101 232/87/129
f 196/110/126 204/126/165 260/126/159 246/110/127
f 171/92/81 173/93/82 223/93/93 221/92/123
f 189/74/63 188/75/64 238/75/91 239/74/121
f 195/98/87 194/70/59 244/70/99 245/98/137
f 166/79/68 168/80/69 218/80/151 216/79/117
f 199/125/161 198/107/113 253/107/116 254/125/157
f 206/115/163 207/105/109 265/105/112 264/115/146
f 176/84/73 178/85/74 228/85/164 226/84/106
f 212/114/160 213/109/125 271/109/128 270/114/145
usemtl limbs.002
f 4/127/166 66/128/167 121/129/168 63/130/169
f 4/127/166 40/131/170 110/132/171 66/128/167
f 4/127/166 53/133/172 102/134/173 40/131/170
f 4/127/166 63/130/169 111/135/174 53/133/172
f 5/136/175 70/137/176 122/138/177 67/139/178
f 5/136/175 44/140/179 114/141/180 70/137/176
f 5/136/175 57/142/181 103/143/182 44/140/179
f 5/136/175 67/139/178 115/144/183 57/142/181
f 6/145/184 77/146/185 123/147/186 74/148/187
f 6/145/184 54/149/188 112/150/189 77/146/185
f 6/145/184 62/151/190 101/152/191 54/149/188
f 6/145/184 74/148/187 120/153/192 62/151/190
f 7/154/193 81/155/194 124/156/195 78/157/196
f 7/154/193 57/142/181 115/144/183 81/155/194
f 7/154/193 48/158/197 103/143/182 57/142/181
f 7/154/193 78/157/196 118/159/198 48/158/197
f 8/160/199 85/161/200 125/162/201 82/163/202
f 8/160/199 55/164/203 113/165/204 85/161/200
f 8/160/199 39/166/205 106/167/206 55/164/203
f 8/160/199 82/163/202 109/168/207 39/166/205
f 9/169/208 65/170/209 112/150/189 54/149/188
f 9/169/208 63/130/169 121/129/168 65/170/209
f 9/169/208 41/171/210 111/135/174 63/130/169
f 9/169/208 54/149/188 101/152/191 41/171/210
f 10/172/211 51/173/212 105/174/213 42/175/214
f 10/172/211 64/176/215 109/168/207 51/173/212
f 10/172/211 42/175/214 112/150/189 65/170/209
f 11/177/216 39/166/205 109/168/207 64/176/215
f 11/177/216 52/178/217 106/167/206 39/166/205
f 11/177/216 66/128/167 110/132/171 52/178/217
f 12/179/218 69/180/219 110/132/171 40/131/170
f 12/179/218 67/139/178 122/138/177 69/180/219
f 12/179/218 45/181/220 115/144/183 67/139/178
f 12/179/218 40/131/170 102/134/173 45/181/220
f 13/182/221 55/164/203 106/167/206 52/178/217
f 13/182/221 68/183/222 113/165/204 55/164/203
f 13/182/221 69/180/219 122/138/177 68/183/222
f 13/182/221 52/178/217 110/132/171 69/180/219
f 14/184/223 43/185/224 113/165/204 68/183/222
f 14/184/223 56/186/225 107/187/226 43/185/224
f 14/184/223 70/137/176 114/141/180 56/186/225
f 14/184/223 68/183/222 122/138/177 70/137/176
f 15/188/227 72/189/228 114/141/180 44/140/179
f 15/188/227 44/140/179 103/143/182 48/158/197
f 16/190/229 58/191/230 107/187/226 56/186/225
f 16/190/229 71/192/231 116/193/232 58/191/230
f 16/190/229 56/186/225 114/141/180 72/189/228
f 17/194/233 46/195/234 116/193/232 71/192/231
f 17/194/233 59/196/235 108/197/236 46/195/234
f 17/194/233 73/198/237 117/199/238 59/196/235
f 18/200/239 76/201/240 117/199/238 47/202/241
f 18/200/239 74/148/187 123/147/186 76/201/240
f 18/200/239 50/203/242 120/153/192 74/148/187
f 18/200/239 47/202/241 104/204/243 50/203/242
f 19/205/244 61/206/245 108/197/236 59/196/235
f 19/205/244 75/207/246 119/208/247 61/206/245
f 19/205/244 76/201/240 123/147/186 75/207/246
f 19/205/244 59/196/235 117/199/238 76/201/240
f 20/209/248 49/210/249 119/208/247 75/207/246
f 20/209/248 42/175/214 105/174/213 49/210/249
f 20/209/248 77/146/185 112/150/189 42/175/214
f 20/209/248 75/207/246 123/147/186 77/146/185
f 21/211/250 80/212/251 120/153/192 50/203/242
f 21/211/250 78/157/196 124/156/195 80/212/251
f 21/211/250 60/213/252 118/159/198 78/157/196
f 21/211/250 50/203/242 104/204/243 60/213/252
f 22/214/253 41/171/210 101/152/191 62/151/190
f 22/214/253 79/215/254 111/135/174 41/171/210
f 22/214/253 80/212/251 124/156/195 79/215/254
f 22/214/253 62/151/190 120/153/192 80/212/251
f 23/216/255 53/133/172 111/135/174 79/215/254
f 23/216/255 45/181/220 102/134/173 53/133/172
f 23/216/255 81/155/194 115/144/183 45/181/220
f 23/216/255 79/215/254 124/156/195 81/155/194
f 24/217/256 84/218/257 119/208/247 49/210/249
f 24/217/256 82/163/202 125/162/201 84/218/257
f 24/217/256 51/173/212 109/168/207 82/163/202
f 24/217/256 49/210/249 105/174/213 51/173/212
f 25/219/258 46/195/234 108/197/236 61/206/245
f 25/219/258 83/220/259 116/193/232 46/195/234
f 25/219/258 84/218/257 125/162/201 83/220/259
f 25/219/258 61/206/245 119/208/247 84/218/257
f 26/221/260 58/191/230 116/193/232 83/220/259
f 26/221/260 43/185/224 107/187/226 58/191/230
f 26/221/260 85/161/200 113/165/204 43/185/224
f 26/221/260 83/220/259 125/162/201 85/161/200
