# Blender 4.3.2
# www.blender.org
mtllib right_arm.mtl
o body.002
v -0.136020 0.020300 -0.283260
v -0.117660 -0.072120 -0.283360
v -0.081640 -0.159200 -0.284260
v -0.029360 -0.237580 -0.285960
v 0.037200 -0.304260 -0.288360
v 0.037360 0.438940 -0.294000
v -0.029240 0.372340 -0.290600
v -0.081560 0.294020 -0.287720
v 0.066880 0.041020 -0.016720
v -0.135980 0.114540 -0.283980
v -0.117600 0.206960 -0.285480
v 0.077860 -0.014280 -0.016780
v -4.440020 -0.856100 -0.390760
v -1.110300 -0.387080 -0.924520
v 0.084180 -0.222760 0.001000
v -3.253120 -0.690980 0.534080
v -1.001240 -0.695620 -0.503660
v -3.559960 0.179780 -0.422480
v -4.406740 -0.852760 0.149020
v -4.551640 -0.287180 0.152880
v -4.605480 -0.290540 -0.386900
v -3.365100 -0.698020 -0.851400
v -3.510000 -0.132440 -0.847560
v -1.255180 0.178480 -0.920660
v 0.030360 -0.226120 -0.538780
v -0.114540 0.339460 -0.534940
v -0.060700 0.342820 0.004860
v -0.998300 -0.380060 0.460960
v -1.143180 0.185520 0.464820
v -3.398000 -0.125400 0.537920
v -0.947400 -0.692280 0.036120
v -3.202220 -1.003200 0.109220
v -3.256060 -1.006540 -0.430560
v -3.506120 0.183120 0.117300
v -1.251320 0.494060 0.044200
v -1.305140 0.490700 -0.495600
v -4.891080 -0.614980 -0.561260
v -4.799700 -0.601100 -0.542880
v -4.713620 -0.588040 -0.506820
v -4.636140 -0.576280 -0.454460
v -4.570260 -0.566280 -0.387820
v -4.518500 -0.558420 -0.309460
v -4.482840 -0.553020 -0.222400
v -4.464660 -0.550260 -0.129980
v -4.464660 -0.550260 -0.035740
v -4.482840 -0.553020 0.056700
v -4.518500 -0.558420 0.143760
v -4.570260 -0.566280 0.222120
v -4.636140 -0.576280 0.288760
v -4.713620 -0.588040 0.341120
v -4.799700 -0.601100 0.377180
v -4.990080 -0.276720 -0.082860
v -4.885260 -0.967360 -0.082860
v -0.076200 0.027040 -0.010100
v -0.097720 0.023200 -0.560780
v -0.138320 0.067420 -0.283520
v -0.129100 -0.026360 -0.283200
v -0.059700 -0.056040 -0.010180
v -0.081280 -0.059620 -0.560860
v -0.101800 -0.116560 -0.283720
v -0.027340 -0.134320 -0.011000
v -0.049020 -0.137640 -0.561680
v -0.057420 -0.199700 -0.285020
v 0.019660 -0.204760 -0.012520
v -0.002160 -0.207880 -0.563200
v 0.002280 -0.272560 -0.287080
v 0.079480 -0.264680 -0.014680
v 0.057460 -0.267620 -0.565360
v 0.075060 -0.332400 -0.289800
v 0.057600 0.398280 -0.570400
v 0.002420 0.407280 -0.292240
v 0.019780 0.343440 -0.016680
v -0.002060 0.338600 -0.567340
v -0.057320 0.334460 -0.289080
v -0.027260 0.273040 -0.014100
v -0.048940 0.268440 -0.564760
v -0.101720 0.251380 -0.286500
v -0.059660 0.194800 -0.012080
v -0.081240 0.190440 -0.562760
v -0.129080 0.161200 -0.284620
v -0.076180 0.111740 -0.010740
v -0.097700 0.107640 -0.561420
v -4.381180 -0.029300 -0.392120
v -4.035200 -0.811740 -0.736460
v -3.995700 -1.029540 0.134260
v -4.250760 -0.247120 0.478380
v -1.316340 0.396120 -0.831500
v -0.261000 -0.265580 -0.864860
v -3.286560 -0.914560 -0.766120
v -0.386760 0.520160 0.012700
v -0.166400 -0.259640 0.346180
v -0.182840 -0.486700 -0.527340
v -3.449040 0.094940 0.451740
v -0.964660 -0.601480 0.372700
v -4.328000 -0.026000 0.141080
v -4.240760 -0.253060 -0.732660
v -4.048860 -1.032860 -0.398940
v -4.107660 -0.805780 0.474580
v -3.543640 0.088980 -0.759300
v -0.404120 0.293100 -0.861040
v -1.059240 -0.607420 -0.838340
v -0.439940 0.516840 -0.520500
v -0.309520 0.299040 0.349980
v -0.129660 -0.483380 0.005860
v -1.221740 0.402060 0.379540
v -3.191960 -0.908620 0.444920
v -4.431600 -0.860120 -0.120320
v -4.578240 -0.287640 -0.116420
v -4.477680 -0.572180 0.154820
v -4.532160 -0.575580 -0.391560
v -2.238120 -0.546080 -0.901140
v -2.384780 0.026380 -0.897260
v -3.452620 -0.417200 -0.862200
v -1.170300 -0.102480 -0.936200
v 0.050000 -0.226060 -0.269260
v -0.096640 0.346420 -0.265360
v -0.050560 0.058480 -0.540500
v 0.003920 0.061880 0.005880
v -2.123500 -0.538880 0.510660
v -2.270160 0.033580 0.514560
v -1.055680 -0.095300 0.475620
v -3.337980 -0.410000 0.549600
v -0.957040 -0.705840 -0.234320
v -3.239340 -1.020560 -0.160320
v -2.070960 -0.861500 0.075880
v -2.125440 -0.864900 -0.470500
v -3.550320 0.193340 -0.152060
v -1.268020 0.508060 -0.226040
v -2.381920 0.352400 0.084140
v -2.436420 0.349000 -0.462240
v -4.863420 -0.875740 -0.441660
v -4.844940 -0.607980 -0.554360
v -4.794880 -0.865340 -0.427880
v -4.873500 -0.347340 -0.427880
v -4.755780 -0.594440 -0.527000
v -4.730320 -0.855540 -0.400820
v -4.808940 -0.337560 -0.400820
v -4.673600 -0.581960 -0.482560
v -4.672220 -0.846720 -0.361560
v -4.750820 -0.328740 -0.361560
v -4.601580 -0.571040 -0.422780
v -4.622800 -0.839220 -0.311580
v -4.701420 -0.321220 -0.311580
v -4.542460 -0.562060 -0.349940
v -4.583980 -0.833320 -0.252820
v -4.662600 -0.315340 -0.252820
v -4.498540 -0.555400 -0.266820
v -4.557240 -0.829260 -0.187520
v -4.635860 -0.311280 -0.187520
v -4.471500 -0.551300 -0.176640
v -4.543600 -0.827200 -0.118200
v -4.622220 -0.309200 -0.118200
v -4.462360 -0.549920 -0.082860
v -4.543600 -0.827200 -0.047520
v -4.622220 -0.309200 -0.047520
v -4.471500 -0.551300 0.010940
v -4.557240 -0.829260 0.021800
v -4.635860 -0.311280 0.021800
v -4.498540 -0.555400 0.101120
v -4.583980 -0.833320 0.087100
v -4.662600 -0.315340 0.087100
v -4.542460 -0.562060 0.184240
v -4.622800 -0.839220 0.145880
v -4.701420 -0.321220 0.145880
v -4.601580 -0.571040 0.257080
v -4.672220 -0.846720 0.195860
v -4.750820 -0.328740 0.195860
v -4.673600 -0.581960 0.316860
v -4.730320 -0.855540 0.235120
v -4.808940 -0.337540 0.235120
v -4.755780 -0.594440 0.361280
v -4.794880 -0.865340 0.262160
v -0.075460 0.068880 -0.012000
v -0.092400 0.065940 -0.557400
v -0.067280 -0.014300 -0.011740
v -0.084220 -0.017240 -0.557120
v -0.043060 -0.094280 -0.012180
v -0.060000 -0.097220 -0.557560
v -0.003720 -0.168000 -0.013340
v -0.020660 -0.170940 -0.558740
v 0.049220 -0.232620 -0.015160
v 0.032280 -0.235560 -0.560560
v 0.096820 -0.288620 -0.562980
v 0.049340 0.370240 -0.019740
v 0.032400 0.367280 -0.565140
v -0.003640 0.305660 -0.016940
v -0.020580 0.302720 -0.562320
v -0.043000 0.231980 -0.014660
v -0.059940 0.229040 -0.560040
v -0.067260 0.152020 -0.013000
v -0.084200 0.149080 -0.558380
v -3.846880 -0.936540 0.408400
v -3.929980 -0.941780 -0.687440
v -0.436800 -0.458880 -0.800960
v -0.353700 -0.453660 0.294880
v -4.073040 -0.053700 0.414420
v -4.156140 -0.058920 -0.681420
v -0.662960 0.423960 -0.794940
v -0.579860 0.429180 0.300900
v -4.373460 -0.022820 -0.124760
v -4.291440 -0.535380 -0.741260
v -4.037180 -1.041880 -0.131700
v -4.195360 -0.529340 0.484580
v -2.432720 0.250260 -0.802760
v -0.318160 0.016540 -0.871000
v -2.171660 -0.768800 -0.809680
v -0.400180 0.529080 -0.254500
v -0.222080 0.022580 0.354860
v -0.139120 -0.489980 -0.261420
v -2.336640 0.256300 0.423100
v -2.075580 -0.762760 0.416160
v -4.489380 -0.575340 -0.117960
v -2.313100 -0.259940 -0.915660
v -0.049300 0.061040 -0.267380
v -2.195200 -0.252540 0.529060
v -2.093780 -0.880440 -0.197440
v -2.413580 0.367940 -0.188940
v -4.826320 -0.801420 -0.500960
v -4.884560 -0.417720 -0.500960
v -4.747260 -0.789420 -0.476700
v -4.805500 -0.405720 -0.476700
v -4.674400 -0.778360 -0.437300
v -4.732620 -0.394660 -0.437300
v -4.610520 -0.768660 -0.384280
v -4.668760 -0.384960 -0.384280
v -4.558120 -0.760700 -0.319680
v -4.616340 -0.377020 -0.319680
v -4.519160 -0.754800 -0.245980
v -4.577400 -0.371100 -0.245980
v -4.495180 -0.751160 -0.166020
v -4.553420 -0.367460 -0.166020
v -4.487080 -0.749920 -0.082860
v -4.545320 -0.366220 -0.082860
v -4.495180 -0.751160 0.000320
v -4.553420 -0.367460 0.000320
v -4.519160 -0.754800 0.080280
v -4.577400 -0.371100 0.080280
v -4.558100 -0.760700 0.153980
v -4.616340 -0.377000 0.153980
v -4.610520 -0.768660 0.218580
v -4.668760 -0.384960 0.218580
v -4.674400 -0.778360 0.271600
v -4.732620 -0.394660 0.271600
v -4.747260 -0.789420 0.310980
v -4.805500 -0.405720 0.310980
v -4.807000 -0.984480 -0.081800
v -4.128900 -0.847740 -0.081800
v -4.130400 -0.840340 0.016020
v -4.808480 -0.977080 0.016020
v -4.134820 -0.818440 0.110080
v -4.812900 -0.955180 0.110080
v -4.141980 -0.782880 0.196760
v -4.820080 -0.919620 0.196760
v -4.151640 -0.735020 0.272720
v -4.829720 -0.871780 0.272740
v -4.163400 -0.676720 0.335080
v -4.841480 -0.813460 0.335080
v -4.176820 -0.610180 0.381420
v -4.854900 -0.746920 0.381420
v -4.191380 -0.538000 0.409940
v -4.206520 -0.462920 0.419580
v -4.221660 -0.387840 0.409940
v -4.236220 -0.315660 0.381420
v -4.249620 -0.249120 0.335080
v -4.261400 -0.190800 0.272720
v -4.271040 -0.142960 0.196760
v -4.278220 -0.107400 0.110080
v -4.956300 -0.244140 0.110080
v -4.282620 -0.085500 0.016020
v -4.960720 -0.222240 0.016020
v -4.284120 -0.078100 -0.081800
v -4.962200 -0.214840 -0.081800
v -4.282620 -0.085500 -0.179600
v -4.960720 -0.222240 -0.179600
v -4.278220 -0.107400 -0.273660
v -4.956300 -0.244140 -0.273660
v -4.271040 -0.142960 -0.360340
v -4.949120 -0.279700 -0.360340
v -4.261380 -0.190820 -0.436320
v -4.939480 -0.327560 -0.436320
v -4.249620 -0.249120 -0.498660
v -4.927720 -0.385880 -0.498680
v -4.236220 -0.315660 -0.545000
v -4.914300 -0.452400 -0.545000
v -4.221660 -0.387840 -0.573540
v -4.899740 -0.524600 -0.573540
v -4.206520 -0.462920 -0.583160
v -4.884600 -0.599660 -0.583160
v -4.191380 -0.538000 -0.573540
v -4.869460 -0.674740 -0.573540
v -4.176820 -0.610180 -0.545000
v -4.854900 -0.746920 -0.545000
v -4.163400 -0.676720 -0.498660
v -4.841480 -0.813460 -0.498660
v -4.151640 -0.735020 -0.436320
v -4.829720 -0.871780 -0.436320
v -4.141980 -0.782880 -0.360340
v -4.820080 -0.919640 -0.360340
v -4.134820 -0.818440 -0.273660
v -4.812900 -0.955200 -0.273660
v -4.130400 -0.840340 -0.179600
v -4.808480 -0.977080 -0.179600
v 0.077880 0.152720 -0.018040
v 0.066880 0.097420 -0.017140
v 0.067360 0.068880 -0.017980
v 0.072800 0.013500 -0.017800
v 0.088940 -0.039740 -0.018100
v 0.072820 0.124240 -0.018640
v 0.044440 0.037180 -0.566440
v 0.055440 -0.018240 -0.566500
v 0.077040 -0.070460 -0.567060
v 0.108380 -0.117460 -0.568060
v 0.108460 0.248240 -0.570840
v 0.077080 0.201280 -0.569120
v 0.055480 0.149100 -0.567780
v 0.044440 0.093680 -0.566880
v 0.048000 0.065780 -0.564180
v 0.053460 0.010120 -0.564000
v 0.069680 -0.043400 -0.564300
v 0.096000 -0.092740 -0.565080
v 0.131440 -0.135980 -0.566300
v 0.131520 0.267420 -0.569360
v 0.096060 0.224220 -0.567480
v 0.069720 0.174920 -0.565960
v 0.053500 0.121420 -0.564840
v 0.046020 0.037440 -0.530220
v 0.057020 -0.017980 -0.530280
v 0.078620 -0.070180 -0.530820
v 0.078660 0.201560 -0.532880
v 0.057060 0.149360 -0.531540
v 0.046040 0.093960 -0.530640
v 0.049580 0.066040 -0.527960
v 0.055060 0.010380 -0.527760
v 0.071260 -0.043140 -0.528080
v 0.071300 0.175200 -0.529720
v 0.055080 0.121700 -0.528620
v -4.309300 -0.261160 -0.498660
v -4.295900 -0.327700 0.381420
v -4.321060 -0.202840 -0.436320
v -4.281340 -0.399880 0.409940
v -4.330720 -0.154980 -0.360340
v -4.266200 -0.474960 0.419580
v -4.337900 -0.119420 -0.273660
v -4.251060 -0.550020 0.409940
v -4.342300 -0.097520 -0.179600
v -4.236500 -0.622220 0.381420
v -4.343800 -0.090140 -0.081800
v -4.223080 -0.688740 0.335080
v -4.342300 -0.097520 0.016020
v -4.211320 -0.747060 0.272720
v -4.337900 -0.119420 0.110080
v -4.201660 -0.794920 0.196760
v -4.330720 -0.154980 0.196760
v -4.194500 -0.830480 0.110080
v -4.321060 -0.202840 0.272720
v -4.190080 -0.852380 0.016020
v -4.188580 -0.859780 -0.081800
v -4.309300 -0.261160 0.335080
v -4.295900 -0.327700 -0.545000
v -4.281340 -0.399880 -0.573540
v -4.266200 -0.474960 -0.583160
v -4.251060 -0.550020 -0.573540
v -4.236500 -0.622220 -0.545000
v -4.223080 -0.688740 -0.498660
v -4.211320 -0.747060 -0.436320
v -4.201660 -0.794920 -0.360340
v -4.194500 -0.830480 -0.273660
v -4.190080 -0.852380 -0.179600
v -4.380840 -0.898540 -0.081800
v -4.501560 -0.299940 -0.498660
v -4.488140 -0.366460 0.381420
v -4.513320 -0.241620 -0.436320
v -4.473580 -0.438640 0.409940
v -4.522980 -0.193760 -0.360340
v -4.458440 -0.513720 0.419580
v -4.530140 -0.158200 -0.273660
v -4.443300 -0.588800 0.409940
v -4.534560 -0.136300 -0.179600
v -4.428740 -0.660980 0.381420
v -4.536060 -0.128900 -0.081800
v -4.415340 -0.727520 0.335080
v -4.534560 -0.136300 0.016020
v -4.403580 -0.785840 0.272720
v -4.530140 -0.158200 0.110080
v -4.393920 -0.833680 0.196760
v -4.522980 -0.193760 0.196760
v -4.386740 -0.869240 0.110080
v -4.513320 -0.241620 0.272720
v -4.382340 -0.891140 0.016020
v -4.501560 -0.299940 0.335080
v -4.488140 -0.366460 -0.545000
v -4.473580 -0.438640 -0.573540
v -4.458440 -0.513720 -0.583160
v -4.443300 -0.588800 -0.573540
v -4.428740 -0.660980 -0.545000
v -4.415340 -0.727520 -0.498660
v -4.403580 -0.785820 -0.436320
v -4.393920 -0.833680 -0.360340
v -4.386740 -0.869240 -0.273660
v -4.382340 -0.891140 -0.179600
v -4.290520 -0.177140 -0.689220
v -4.272180 -0.268120 0.514280
v -4.306600 -0.097380 -0.603960
v -4.252260 -0.366820 0.553300
v -4.319800 -0.031940 -0.500060
v -4.231560 -0.469480 0.566460
v -4.329620 0.016680 -0.381520
v -4.210860 -0.572160 0.553300
v -4.335660 0.046620 -0.252900
v -4.190960 -0.670860 0.514280
v -4.337700 0.056740 -0.119160
v -4.172600 -0.761840 0.450920
v -4.335640 0.046620 0.014600
v -4.156520 -0.841600 0.365660
v -4.329620 0.016680 0.143220
v -4.143320 -0.907040 0.261760
v -4.319800 -0.031940 0.261760
v -4.133520 -0.955660 0.143220
v -4.306600 -0.097380 0.365660
v -4.127480 -0.985600 0.014600
v -4.125440 -0.995720 -0.119160
v -4.290520 -0.177140 0.450920
v -4.272180 -0.268120 -0.752580
v -4.252260 -0.366820 -0.791600
v -4.231560 -0.469480 -0.804760
v -4.210860 -0.572160 -0.791600
v -4.190960 -0.670860 -0.752580
v -4.172600 -0.761840 -0.689220
v -4.156520 -0.841580 -0.603960
v -4.143320 -0.907040 -0.500060
v -4.133520 -0.955660 -0.381520
v -4.127480 -0.985600 -0.252900
v -4.388340 -1.048740 -0.119160
v -4.553420 -0.230160 -0.689220
v -4.535080 -0.321120 0.514280
v -4.569500 -0.150400 -0.603960
v -4.515180 -0.419840 0.553300
v -4.582700 -0.084960 -0.500060
v -4.494460 -0.522500 0.566460
v -4.592520 -0.036340 -0.381520
v -4.473760 -0.625160 0.553300
v -4.598560 -0.006380 -0.252900
v -4.453860 -0.723880 0.514280
v -4.600600 0.003720 -0.119160
v -4.435520 -0.814860 0.450920
v -4.598560 -0.006380 0.014600
v -4.419420 -0.894620 0.365660
v -4.592520 -0.036340 0.143220
v -4.406220 -0.960040 0.261760
v -4.582700 -0.084960 0.261760
v -4.396420 -1.008680 0.143220
v -4.569500 -0.150400 0.365660
v -4.390380 -1.038620 0.014600
v -4.553420 -0.230160 0.450920
v -4.535080 -0.321140 -0.752580
v -4.515180 -0.419840 -0.791600
v -4.494460 -0.522500 -0.804760
v -4.473760 -0.625160 -0.791600
v -4.453860 -0.723880 -0.752580
v -4.435500 -0.814860 -0.689220
v -4.419420 -0.894600 -0.603960
v -4.406240 -0.960060 -0.500060
v -4.396420 -1.008680 -0.381520
v -4.390380 -1.038620 -0.252900
v -4.830720 -0.435540 0.381420
v -4.860440 -0.719460 0.392260
v -4.821560 -0.508820 0.409940
v -4.930840 -0.276020 0.196760
v -4.825480 -0.587740 0.419580
v -4.886420 -0.316860 0.272720
v -4.842380 -0.669280 0.409940
v -4.852620 -0.370720 0.335080
vn -0.9947 -0.0977 0.0320
vn -0.6132 0.0066 0.7899
vn -0.9995 0.0007 0.0308
vn -0.6638 -0.0074 -0.7479
vn -0.6966 -0.0719 -0.7138
vn -0.6514 -0.1283 -0.7478
vn -0.9803 -0.1948 0.0313
vn -0.6011 -0.1202 0.7901
vn -0.6255 -0.0585 0.7780
vn -0.9566 -0.2897 0.0318
vn -0.6717 -0.1978 -0.7140
vn -0.6169 -0.2447 -0.7480
vn -0.9235 -0.3823 0.0304
vn -0.7337 -0.3268 0.5958
vn -0.5999 -0.1869 0.7779
vn -0.8816 -0.4710 0.0304
vn -0.6228 -0.3162 -0.7156
vn -0.5610 -0.3530 -0.7488
vn -0.8313 -0.5551 0.0285
vn -0.8104 -0.5463 0.2117
vn -0.8593 -0.4649 0.2131
vn -0.7728 -0.6340 0.0278
vn -0.5515 -0.4234 -0.7188
vn -0.5791 -0.6065 -0.5448
vn -0.7071 -0.7067 0.0254
vn -0.6875 -0.6959 0.2077
vn -0.7507 -0.6265 0.2098
vn -0.6503 -0.7586 -0.0413
vn -0.6383 -0.7557 -0.1466
vn -0.4727 -0.8680 -0.1521
vn -0.5917 -0.7873 -0.1733
vn -0.6768 0.7147 -0.1765
vn -0.5822 0.5991 -0.5496
vn -0.7191 0.6932 -0.0489
vn -0.7725 0.6347 0.0206
vn -0.6556 0.7292 0.1959
vn -0.5513 0.4085 -0.7274
vn -0.5651 0.3418 -0.7509
vn -0.8309 0.5559 0.0224
vn -0.8094 0.5508 0.2038
vn -0.7483 0.6323 0.2006
vn -0.8814 0.4718 0.0250
vn -0.6227 0.3015 -0.7220
vn -0.6201 0.2317 -0.7495
vn -0.9234 0.3829 0.0263
vn -0.9011 0.3800 0.2088
vn -0.8577 0.4710 0.2063
vn 0.0455 0.0082 0.9989
vn -0.6257 0.0730 0.7766
vn 0.0454 0.0079 0.9989
vn 0.0418 0.0079 0.9991
vn -0.9947 0.0984 0.0309
vn -0.5997 0.1332 0.7891
vn -0.9803 0.1954 0.0291
vn -0.6533 0.1140 -0.7485
vn -0.6967 0.0568 -0.7151
vn -0.9564 0.2908 0.0285
vn -0.6718 0.1828 -0.7178
vn -0.7803 0.2371 0.5788
vn 0.0420 0.0088 0.9991
vn 0.0348 -0.0273 0.9990
vn 0.0454 0.0078 0.9989
vn 0.0850 -0.2798 -0.9563
vn 0.2409 -0.4409 -0.8646
vn 0.1169 -0.8300 -0.5454
vn 0.2870 0.0436 -0.9569
vn 0.2219 -0.0605 -0.9732
vn 0.6747 0.4466 -0.5877
vn 0.1983 0.4518 -0.8698
vn 0.2779 0.4746 -0.8352
vn 0.3783 0.0574 -0.9239
vn 0.4044 -0.4161 -0.8144
vn 0.2818 -0.8068 -0.5193
vn 0.4661 0.0707 -0.8819
vn 0.1906 0.8377 -0.5118
vn 0.4134 0.5403 -0.7330
vn 0.5493 0.0834 -0.8315
vn 0.5550 -0.3933 -0.7330
vn 0.3790 -0.7920 -0.4786
vn 0.6272 0.0952 -0.7730
vn 0.2145 0.8822 -0.4193
vn 0.5455 0.5603 -0.6234
vn 0.6991 0.1061 -0.7071
vn 0.6872 -0.3732 -0.6233
vn 0.4664 -0.7787 -0.4195
vn 0.7642 0.1160 -0.6345
vn 0.2887 0.8934 -0.3443
vn 0.6539 0.5767 -0.4897
vn 0.8221 0.1247 -0.5555
vn 0.7956 -0.3567 -0.4898
vn 0.5409 -0.7674 -0.3443
vn 0.8720 0.1324 -0.4714
vn 0.3473 0.9022 -0.2558
vn 0.7344 0.5889 -0.3372
vn 0.9134 0.1386 -0.3827
vn 0.8761 -0.3445 -0.3372
vn 0.5993 -0.7586 -0.2558
vn 0.9461 0.1436 -0.2902
vn 0.3874 0.9083 -0.1576
vn 0.7840 0.5964 -0.1720
vn 0.9697 0.1472 -0.1951
vn 0.9257 -0.3370 -0.1720
vn 0.6395 -0.7525 -0.1576
vn 0.9839 0.1493 -0.0981
vn 0.4080 0.9114 -0.0533
vn 0.8008 0.5990 -0.0000
vn 0.9887 0.1500 -0.0000
vn 0.9424 -0.3344 -0.0000
vn 0.6600 -0.7494 -0.0533
vn 0.9839 0.1493 0.0981
vn 0.4080 0.9114 0.0533
vn 0.7839 0.5965 0.1722
vn 0.9697 0.1472 0.1951
vn 0.9256 -0.3370 0.1722
vn 0.6600 -0.7494 0.0533
vn 0.9461 0.1436 0.2902
vn 0.3874 0.9083 0.1576
vn 0.7344 0.5890 0.3374
vn 0.9134 0.1386 0.3827
vn 0.8760 -0.3446 0.3374
vn 0.6395 -0.7525 0.1576
vn 0.8720 0.1324 0.4713
vn 0.3472 0.9022 0.2557
vn 0.6539 0.5767 0.4896
vn 0.8221 0.1248 0.5555
vn 0.7956 -0.3567 0.4897
vn 0.5993 -0.7586 0.2558
vn 0.7642 0.1160 0.6345
vn 0.2887 0.8934 0.3443
vn 0.5455 0.5603 0.6234
vn 0.6991 0.1061 0.7071
vn 0.6872 -0.3732 0.6233
vn 0.5408 -0.7674 0.3443
vn 0.6272 0.0952 0.7730
vn 0.2833 0.8517 0.4408
vn 0.4324 0.4980 0.7517
vn 0.5493 0.0834 0.8315
vn 0.5550 -0.3933 0.7330
vn 0.4664 -0.7787 0.4195
vn 0.4660 0.0707 0.8820
vn 0.3613 0.4767 0.8014
vn 0.7740 0.4617 0.4334
vn 0.4054 -0.0326 0.9135
vn 0.4044 -0.4161 0.8145
vn 0.3789 -0.7920 0.4786
vn 0.2687 -0.2520 0.9297
vn 0.0519 0.9985 -0.0198
vn 0.3164 -0.9485 -0.0168
vn 0.2219 -0.8142 0.5365
vn -0.6794 -0.6772 -0.2824
vn 0.1880 -0.9321 -0.3095
vn 0.1750 -0.8678 -0.4651
vn -0.6883 -0.6203 -0.3760
vn 0.1280 -0.6344 -0.7623
vn -0.7028 -0.5392 -0.4640
vn 0.0921 -0.4565 -0.8850
vn -0.7233 -0.4321 -0.5386
vn -0.7492 -0.3016 -0.5896
vn 0.0484 -0.2400 -0.9696
vn -0.0000 -0.0000 -1.0000
vn -0.7782 -0.1570 -0.6080
vn -0.0484 0.2400 -0.9696
vn -0.8077 -0.0126 -0.5894
vn -0.8346 0.1176 -0.5382
vn -0.0920 0.4564 -0.8850
vn -0.8573 0.2240 -0.4635
vn -0.1279 0.6345 -0.7623
vn -0.1554 0.7705 -0.6183
vn -0.8756 0.3038 -0.3755
vn -0.1750 0.8678 -0.4651
vn -0.8895 0.3594 -0.2820
vn -0.1880 0.9321 -0.3096
vn -0.8997 0.3941 -0.1877
vn -0.9065 0.4116 -0.0946
vn -0.1953 0.9685 -0.1545
vn -0.1977 0.9803 -0.0000
vn -0.9101 0.4144 -0.0028
vn -0.9107 0.4036 0.0882
vn -0.1953 0.9685 0.1545
vn -0.1923 0.9537 0.2311
vn -0.9994 0.0182 0.0278
vn -0.9903 -0.0291 0.1356
vn -0.1576 0.7815 0.6036
vn -0.8911 0.2808 0.3566
vn -0.1297 0.6431 0.7547
vn -0.8759 0.2010 0.4386
vn -0.0922 0.4575 0.8844
vn -0.8559 0.0980 0.5078
vn -0.8313 -0.0258 0.5553
vn -0.0462 0.2289 0.9724
vn -0.8038 -0.1623 0.5724
vn 0.0049 -0.0242 0.9997
vn -0.7758 -0.2988 0.5558
vn 0.0550 -0.2728 0.9605
vn 0.0713 -0.3539 0.9325
vn 0.0920 -0.4563 0.8851
vn -0.7283 -0.5257 0.4396
vn 0.1280 -0.6344 0.7623
vn -0.7110 -0.6056 0.3575
vn 0.1554 -0.7705 0.6182
vn 0.1750 -0.8678 0.4650
vn -0.6978 -0.6637 0.2693
vn 0.5351 0.8374 -0.1118
vn 0.6317 0.3104 0.7103
vn 0.8177 -0.5646 0.1118
vn 0.1880 -0.9321 0.3096
vn -0.6881 -0.7031 0.1793
vn -0.6742 -0.7324 -0.0947
vn -0.6751 -0.7134 -0.1881
vn -0.6810 -0.7269 0.0885
vn 0.1953 -0.9685 0.1545
vn -0.6764 -0.7365 -0.0026
vn 0.1953 -0.9685 -0.1544
vn 0.1977 -0.9803 -0.0000
vn 0.1554 -0.7704 -0.6183
vn 0.0418 0.0072 0.9991
vn 0.5722 -0.1888 -0.7981
vn 0.5945 -0.0674 -0.8013
vn 0.7219 -0.0050 -0.6920
vn -0.0434 -0.0144 -0.9990
vn -0.0496 -0.0081 -0.9987
vn -0.0422 -0.0021 -0.9991
vn 0.5704 0.1769 -0.8021
vn 0.6648 0.2818 -0.6918
vn 0.5943 0.0559 -0.8023
vn 0.7075 0.1411 -0.6925
vn 0.3311 -0.1173 -0.9363
vn 0.7070 -0.1510 -0.6909
vn 0.3311 0.0988 -0.9384
vn 0.0166 -0.0740 -0.9971
vn 0.6636 -0.2910 -0.6892
vn -0.0486 -0.0085 -0.9988
vn 0.9628 0.2665 -0.0440
vn 0.9566 0.2880 -0.0440
vn 0.9237 0.3808 -0.0430
vn 0.9579 -0.2843 -0.0396
vn 0.9612 -0.2731 -0.0398
vn 0.9245 -0.3794 -0.0374
vn 0.9946 -0.0948 -0.0429
vn 0.9941 0.0988 -0.0442
vn 0.9803 -0.1929 -0.0413
vn 0.9990 0.0006 -0.0436
vn 0.9799 0.1943 -0.0447
vn 0.8116 -0.5394 -0.2244
vn 0.8861 -0.3659 -0.2845
vn 0.8014 -0.4937 -0.3375
vn 0.7640 -0.3274 -0.5560
vn 0.8724 -0.3092 -0.3786
vn 0.8542 -0.2282 -0.4671
vn 0.7361 -0.1988 -0.6470
vn 0.8317 -0.1206 -0.5420
vn 0.7026 -0.0413 -0.7104
vn 0.8048 0.0108 -0.5934
vn 0.6667 0.1344 -0.7331
vn 0.7754 0.1563 -0.6118
vn 0.7463 0.3019 -0.5932
vn 0.6317 0.3104 -0.7104
vn 0.7204 0.4331 -0.5417
vn 0.6010 0.4687 -0.6474
vn 0.6998 0.5409 -0.4667
vn 0.5775 0.5979 -0.5559
vn 0.5599 0.6959 -0.4496
vn 0.6853 0.6224 -0.3780
vn 0.5474 0.7658 -0.3376
vn 0.6764 0.6796 -0.2840
vn 0.5388 0.8120 -0.2245
vn 0.6720 0.7160 -0.1891
vn 0.6711 0.7352 -0.0952
vn 0.5331 0.8461 -0.0000
vn 0.6731 0.7395 -0.0026
vn 0.6778 0.7298 0.0891
vn 0.5351 0.8373 0.1118
vn 0.5388 0.8120 0.2245
vn 0.6849 0.7060 0.1805
vn 0.6945 0.6663 0.2713
vn 0.5474 0.7657 0.3376
vn 0.7075 0.6081 0.3602
vn 0.5590 0.6964 0.4500
vn 0.7247 0.5277 0.4431
vn 0.5776 0.5979 0.5558
vn 0.6010 0.4686 0.6475
vn 0.7464 0.4239 0.5130
vn 0.7720 0.2991 0.5609
vn 0.6666 0.1344 0.7332
vn 0.7999 0.1611 0.5781
vn 0.8272 0.0230 0.5614
vn 0.7026 -0.0413 0.7103
vn 0.8518 -0.1024 0.5137
vn 0.7361 -0.1988 0.6470
vn 0.8718 -0.2070 0.4440
vn 0.7640 -0.3275 0.5559
vn 0.8869 -0.2880 0.3611
vn 0.7857 -0.4248 0.4497
vn 0.8974 -0.3472 0.2722
vn 0.8015 -0.4936 0.3375
vn 0.8116 -0.5394 0.2244
vn 0.9038 -0.3878 0.1811
vn 0.9026 -0.4197 -0.0954
vn 0.8961 -0.4015 -0.1894
vn 0.9066 -0.4124 0.0896
vn 0.8177 -0.5647 -0.1118
vn 0.9061 -0.4230 -0.0025
vn 0.8199 -0.5725 -0.0000
vn 0.7857 -0.4248 -0.4497
vn -0.8826 0.4701 0.0023
vn -0.8783 0.4683 -0.0961
vn -0.6339 -0.7670 0.0995
vn 0.6524 0.6462 0.3958
vn 0.6658 0.5614 0.4914
vn -0.8160 0.2779 -0.5068
vn -0.7872 0.1628 -0.5948
vn -0.6464 -0.7036 0.2951
vn -0.6558 -0.6441 0.3937
vn 0.6265 0.7794 0.0021
vn 0.8786 -0.4669 0.1002
vn 0.8785 -0.4776 0.0020
vn -0.6439 -0.5727 -0.5074
vn -0.7771 0.0062 0.6293
vn 0.6411 0.5739 -0.5096
vn 0.8654 -0.4033 0.2974
vn -0.8697 0.3963 0.2942
vn -0.8787 0.4352 0.1962
vn 0.8130 -0.2809 -0.5101
vn 0.7843 -0.1648 -0.5981
vn 0.7099 0.3073 0.6337
vn 0.7405 0.1494 0.6553
vn -0.8700 0.4520 -0.1970
vn -0.8571 0.4181 -0.3008
vn -0.6394 -0.7433 0.1969
vn 0.6431 0.7060 0.2965
vn -0.7541 0.0182 -0.6565
vn -0.7197 -0.1451 -0.6789
vn -0.7501 -0.4226 0.5086
vn -0.6694 -0.5596 0.4886
vn -0.6883 -0.4467 0.5715
vn 0.6223 0.7572 -0.1985
vn 0.8744 -0.4429 0.1983
vn -0.6254 -0.7549 -0.1975
vn -0.8348 0.2557 0.4876
vn 0.6852 0.3092 -0.6595
vn 0.8306 -0.2602 0.4924
vn -0.8828 0.4592 0.0992
vn -0.6270 -0.7183 -0.3014
vn 0.8663 -0.4582 -0.1990
vn 0.8537 -0.4233 -0.3034
vn 0.6847 0.4481 0.5749
vn -0.8393 0.3619 -0.4057
vn 0.6309 0.7694 0.0999
vn 0.8361 -0.3659 -0.4087
vn -0.6623 -0.4551 -0.5952
vn -0.6880 -0.3089 -0.6567
vn 0.7513 -0.0194 -0.6597
vn 0.7170 0.1446 -0.6819
vn 0.6594 0.4560 -0.5977
vn 0.6297 0.6610 -0.4082
vn 0.6240 0.7204 -0.3027
vn 0.6235 0.7758 -0.0970
vn 0.6362 0.7458 0.1977
vn -0.8552 0.3382 0.3927
vn -0.8083 0.1448 0.5707
vn -0.7443 -0.1500 0.6508
vn 0.7731 -0.0081 0.6342
vn -0.7136 -0.3067 0.6298
vn 0.8042 -0.1479 0.5757
vn 0.8509 -0.3441 0.3968
vn -0.6266 -0.7733 -0.0965
vn 0.8745 -0.4752 -0.0973
vn -0.6296 -0.7769 0.0022
vn -0.6326 -0.6592 -0.4064
vn -0.7337 -0.6202 -0.2776
vn -0.9607 -0.2612 0.0937
vn -0.9323 -0.2767 -0.2330
vn -0.5087 -0.1481 -0.8481
vn -0.3189 -0.4506 -0.8338
vn -0.2338 -0.9450 -0.2287
vn -0.7821 -0.6210 0.0506
vn -0.0004 -0.2175 -0.9761
vn 0.0268 0.0123 -0.9996
vn 0.0566 -0.1953 -0.9791
vn 0.4482 0.1120 -0.8869
vn 0.4932 -0.2397 -0.8362
vn 0.2722 -0.7091 -0.6505
vn 0.1483 -0.7192 -0.6788
vn 0.0796 -0.7352 -0.6732
vn 0.9818 -0.1644 -0.0952
vn 0.9464 0.2413 0.2146
vn 0.9602 -0.1750 0.2178
vn 0.5619 -0.2407 0.7914
vn 0.5590 -0.8051 0.1982
vn 0.0013 -0.2231 0.9748
vn 0.0322 0.0014 0.9995
vn -0.0265 -0.0123 0.9996
vn -0.3476 -0.4666 0.8133
vn -0.0686 -0.7732 0.6304
vn 0.0568 -0.7432 0.6667
vn 0.0627 -0.2153 0.9745
vn 0.1920 -0.9653 -0.1771
vn 0.1365 -0.9906 -0.0074
vn 0.1272 -0.9756 -0.1787
vn 0.5210 -0.8059 -0.2812
vn 0.2029 -0.9791 -0.0125
vn -0.2023 0.9792 0.0125
vn -0.1409 0.9759 -0.1664
vn -0.2051 0.9666 -0.1539
vn -0.1932 0.7206 -0.6659
vn -0.3832 0.6541 -0.6521
vn -0.5597 0.7902 -0.2497
vn -0.5510 0.8335 0.0408
vn -0.7314 -0.5898 0.3424
vn -0.4385 -0.1114 0.8918
vn -0.8980 -0.2267 0.3772
vn -0.2013 -0.9793 0.0214
vn -0.1835 -0.9549 0.2336
vn -0.4847 0.2467 0.8392
vn -0.5116 0.8114 0.2827
vn -0.9102 0.1833 0.3715
vn -0.9764 0.1938 0.0950
vn -0.9387 0.2158 -0.2687
vn -0.4558 0.2601 -0.8512
vn -0.1002 -0.0206 -0.9948
vn -0.0711 -0.2252 -0.9717
vn -0.0322 -0.0015 -0.9995
vn 0.0143 -0.7461 -0.6656
vn -0.2292 -0.7493 -0.6213
vn -0.1261 0.1915 -0.9734
vn -0.1239 0.7342 -0.6675
vn -0.0627 0.2153 -0.9745
vn -0.0568 0.7433 -0.6666
vn -0.0011 0.2232 -0.9748
vn 0.0541 0.7712 -0.6343
vn 0.3538 0.4480 -0.8210
vn 0.9085 0.2277 -0.3503
vn 0.9211 -0.1594 -0.3551
vn 0.9622 0.2520 -0.1033
vn 0.5642 -0.8247 -0.0400
vn 0.2293 0.9398 -0.2534
vn 0.7678 0.5477 -0.3324
vn 0.2536 0.9670 -0.0239
vn 0.8144 0.5751 -0.0775
vn 0.2604 0.9443 0.2012
vn 0.8038 0.5587 0.2043
vn 0.4175 0.4574 0.7851
vn 0.5227 0.1184 0.8443
vn 0.1218 -0.1943 0.9734
vn 0.0925 0.0154 0.9956
vn 0.1239 -0.7340 0.6677
vn 0.1934 -0.7203 0.6661
vn 0.3152 -0.7116 0.6279
vn 0.0630 0.2276 0.9717
vn 0.0956 0.7754 0.6243
vn -0.0143 0.7461 0.6657
vn 0.0004 0.2174 0.9761
vn -0.0563 0.1954 0.9791
vn -0.0797 0.7352 0.6731
vn -0.1482 0.7194 0.6787
vn -0.2707 0.7098 0.6504
vn 0.1409 -0.9759 0.1667
vn 0.2056 -0.9664 0.1542
vn 0.0807 -0.9832 0.1634
vn 0.0747 -0.9972 -0.0027
vn 0.0690 -0.9839 -0.1649
vn -0.1272 0.9757 0.1787
vn -0.1917 0.9654 0.1770
vn -0.1365 0.9906 0.0074
vn -0.0682 0.9840 0.1645
vn -0.0734 0.9973 0.0024
vn -0.0797 0.9834 -0.1629
vn -0.7130 -0.6699 0.2070
vn -0.7796 0.6089 -0.1467
vn 0.0561 -0.0273 0.9981
vn -0.1663 0.8247 0.5406
vn 0.0159 0.0579 -0.9982
vt 0.408262 0.769743
vt 0.409681 0.770881
vt 0.408208 0.770847
vt 0.409284 0.770812
vt 0.410794 0.769971
vt 0.409475 0.768863
vt 0.408424 0.768650
vt 0.409872 0.768932
vt 0.411329 0.770064
vt 0.408692 0.767578
vt 0.411116 0.768347
vt 0.410043 0.766990
vt 0.409064 0.766537
vt 0.410439 0.767059
vt 0.411652 0.768440
vt 0.409536 0.765538
vt 0.411749 0.766817
vt 0.410964 0.765263
vt 0.410103 0.764590
vt 0.411361 0.765332
vt 0.412284 0.766910
vt 0.410761 0.763702
vt 0.412667 0.765440
vt 0.412205 0.763750
vt 0.411502 0.762883
vt 0.412601 0.763819
vt 0.413203 0.765533
vt 0.412320 0.762140
vt 0.413836 0.764269
vt 0.413716 0.762507
vt 0.413206 0.761482
vt 0.412323 0.779549
vt 0.412207 0.777870
vt 0.411505 0.778807
vt 0.410763 0.777989
vt 0.412604 0.777939
vt 0.412669 0.776155
vt 0.410966 0.776358
vt 0.410105 0.777102
vt 0.411363 0.776427
vt 0.413205 0.776248
vt 0.409538 0.776154
vt 0.411750 0.774779
vt 0.410044 0.774632
vt 0.409066 0.775155
vt 0.410441 0.774701
vt 0.412286 0.774872
vt 0.411330 0.771719
vt 0.408263 0.771950
vt 0.409873 0.772828
vt 0.408425 0.773043
vt 0.409476 0.772759
vt 0.410794 0.771626
vt 0.408694 0.774115
vt 0.411117 0.773250
vt 0.411653 0.773343
vt 0.296882 0.754862
vt 0.298399 0.750495
vt 0.297530 0.748755
vt 0.299023 0.755187
vt 0.297963 0.755027
vt 0.297035 0.759483
vt 0.297294 0.761131
vt 0.298887 0.759764
vt 0.300051 0.755343
vt 0.300251 0.750777
vt 0.299136 0.748998
vt 0.301039 0.755493
vt 0.298806 0.761361
vt 0.300594 0.760023
vt 0.301976 0.755636
vt 0.301958 0.751036
vt 0.300648 0.749228
vt 0.302854 0.755769
vt 0.300167 0.761567
vt 0.302090 0.760250
vt 0.303663 0.755892
vt 0.303454 0.751262
vt 0.302009 0.749434
vt 0.304397 0.756003
vt 0.301325 0.761743
vt 0.303317 0.760436
vt 0.305048 0.756102
vt 0.304681 0.751449
vt 0.303166 0.749610
vt 0.305609 0.756187
vt 0.302234 0.761881
vt 0.304230 0.760575
vt 0.306077 0.756258
vt 0.305594 0.751587
vt 0.304076 0.749748
vt 0.306445 0.756314
vt 0.302860 0.761976
vt 0.304792 0.760660
vt 0.306710 0.756354
vt 0.306156 0.751673
vt 0.304702 0.749843
vt 0.306870 0.756378
vt 0.303180 0.762025
vt 0.304981 0.760689
vt 0.306924 0.756386
vt 0.306345 0.751701
vt 0.305021 0.749891
vt 0.304791 0.760660
vt 0.306155 0.751673
vt 0.303454 0.751263
vt 0.294563 0.762785
vt 0.297019 0.746608
vt 0.302516 0.748527
vt 0.298713 0.746893
vt 0.298545 0.747726
vt 0.302290 0.749648
vt 0.298044 0.750213
vt 0.302015 0.751014
vt 0.297729 0.751772
vt 0.301700 0.752572
vt 0.301359 0.754263
vt 0.297388 0.753462
vt 0.297034 0.755221
vt 0.301005 0.756022
vt 0.296679 0.756979
vt 0.300650 0.757780
vt 0.300309 0.759471
vt 0.296338 0.758670
vt 0.299995 0.761030
vt 0.296024 0.760229
vt 0.295749 0.761595
vt 0.299719 0.762396
vt 0.295522 0.762716
vt 0.299493 0.763516
vt 0.295354 0.763549
vt 0.299325 0.764349
vt 0.299222 0.764862
vt 0.295251 0.764062
vt 0.295216 0.764235
vt 0.299187 0.765036
vt 0.296243 0.761694
vt 0.296724 0.760370
vt 0.297117 0.758828
vt 0.297408 0.757126
vt 0.297585 0.755332
vt 0.297641 0.753513
vt 0.297600 0.752415
vt 0.298319 0.748847
vt 0.311134 0.767265
vt 0.312562 0.760183
vt 0.314700 0.749584
vt 0.302684 0.747694
vt 0.302788 0.747181
vt 0.302787 0.747181
vt 0.298817 0.746380
vt 0.302822 0.747008
vt 0.298852 0.746207
vt 0.314596 0.750097
vt 0.306487 0.749328
vt 0.314428 0.750929
vt 0.313927 0.753416
vt 0.306261 0.750449
vt 0.305985 0.751815
vt 0.313613 0.754975
vt 0.305671 0.753373
vt 0.313272 0.756666
vt 0.305330 0.755064
vt 0.312917 0.758424
vt 0.304975 0.756823
vt 0.304621 0.758581
vt 0.304280 0.760272
vt 0.312221 0.761873
vt 0.303966 0.761830
vt 0.311907 0.763432
vt 0.311632 0.764798
vt 0.303690 0.763196
vt 0.311406 0.765919
vt 0.303464 0.764317
vt 0.311238 0.766752
vt 0.303296 0.765150
vt 0.303193 0.765663
vt 0.311099 0.767438
vt 0.303158 0.765836
vt 0.314202 0.752050
vt 0.306655 0.748495
vt 0.306758 0.747982
vt 0.306793 0.747809
vt 0.314735 0.749410
vt 0.301700 0.752573
vt 0.306966 0.749214
vt 0.306291 0.755791
vt 0.305289 0.755785
vt 0.310928 0.756727
vt 0.313017 0.750254
vt 0.314848 0.745074
vt 0.307645 0.749120
vt 0.359023 0.756476
vt 0.384036 0.766867
vt 0.385441 0.760200
vt 0.403996 0.769655
vt 0.405335 0.763046
vt 0.401217 0.758519
vt 0.386637 0.755039
vt 0.360581 0.751259
vt 0.412620 0.763972
vt 0.411540 0.770717
vt 0.413420 0.764049
vt 0.407550 0.763186
vt 0.408411 0.757945
vt 0.335249 0.753082
vt 0.360029 0.763352
vt 0.333261 0.759663
vt 0.315233 0.750393
vt 0.321341 0.747330
vt 0.336681 0.747984
vt 0.361708 0.756645
vt 0.387996 0.752973
vt 0.362405 0.748644
vt 0.361663 0.749008
vt 0.407165 0.757867
vt 0.389031 0.752734
vt 0.328287 0.773796
vt 0.354379 0.777442
vt 0.328062 0.773478
vt 0.328444 0.771352
vt 0.314097 0.767887
vt 0.308826 0.768581
vt 0.309006 0.768733
vt 0.308227 0.749293
vt 0.313178 0.756868
vt 0.306566 0.755865
vt 0.315121 0.744863
vt 0.316093 0.745152
vt 0.311880 0.763479
vt 0.310071 0.768658
vt 0.304833 0.762540
vt 0.304210 0.762530
vt 0.303572 0.762462
vt 0.309665 0.763340
vt 0.330576 0.759495
vt 0.332626 0.752917
vt 0.357267 0.763178
vt 0.334466 0.747845
vt 0.319394 0.747208
vt 0.329232 0.766165
vt 0.354466 0.775129
vt 0.355588 0.769885
vt 0.380615 0.778546
vt 0.382048 0.773448
vt 0.395919 0.779198
vt 0.401982 0.776132
vt 0.410264 0.770637
vt 0.412159 0.763971
vt 0.410294 0.770697
vt 0.408190 0.757790
vt 0.401144 0.781374
vt 0.408766 0.777219
vt 0.402075 0.781660
vt 0.409184 0.777382
vt 0.402389 0.781451
vt 0.410027 0.777297
vt 0.404198 0.776272
vt 0.406246 0.769796
vt 0.388065 0.760365
vt 0.386721 0.767035
vt 0.362831 0.751401
vt 0.388853 0.755179
vt 0.403164 0.758641
vt 0.384671 0.773613
vt 0.397866 0.779320
vt 0.382831 0.778685
vt 0.358273 0.770054
vt 0.331855 0.766330
vt 0.356716 0.775271
vt 0.330660 0.771491
vt 0.316043 0.768010
vt 0.362939 0.749088
vt 0.389257 0.753052
vt 0.336441 0.745769
vt 0.335571 0.745362
vt 0.335180 0.745691
vt 0.355655 0.777522
vt 0.329323 0.773557
vt 0.354914 0.777886
vt 0.382138 0.780840
vt 0.381747 0.781168
vt 0.380877 0.780761
vt 0.414372 0.764362
vt 0.413839 0.777325
vt 0.295693 0.762750
s 1
usemtl joints.005
f 1/1/1 173/2/2 56/3/3
f 1/1/1 174/4/4 55/5/5
f 1/1/1 176/6/6 57/7/7
f 1/1/1 175/8/8 54/9/9
f 2/10/10 175/8/8 57/7/7
f 2/10/10 176/6/6 59/11/11
f 2/10/10 178/12/12 60/13/13
f 2/10/10 177/14/14 58/15/15
f 3/16/16 177/14/14 60/13/13
f 3/16/16 178/12/12 62/17/17
f 3/16/16 180/18/18 63/19/19
f 3/16/16 179/20/20 61/21/21
f 4/22/22 179/20/20 63/19/19
f 4/22/22 180/18/18 65/23/23
f 4/22/22 182/24/24 66/25/25
f 4/22/22 181/26/26 64/27/27
f 5/28/28 181/26/26 66/25/25
f 5/28/28 182/24/24 68/29/29
f 5/28/28 183/30/30 69/31/31
f 6/32/32 185/33/33 71/34/34
f 7/35/35 184/36/36 71/34/34
f 7/35/35 185/33/33 73/37/37
f 7/35/35 187/38/38 74/39/39
f 7/35/35 186/40/40 72/41/41
f 8/42/42 186/40/40 74/39/39
f 8/42/42 187/38/38 76/43/43
f 8/42/42 189/44/44 77/45/45
f 8/42/42 188/46/46 75/47/47
f 173/2/2 304/48/48 81/48/49
f 173/2/2 9/9/50 305/2/51
f 10/49/52 190/50/53 80/51/54
f 10/49/52 191/52/55 82/53/56
f 10/49/52 174/4/4 56/3/3
f 10/49/52 173/2/2 81/48/49
f 11/54/57 188/46/46 77/45/45
f 11/54/57 189/44/44 79/55/58
f 11/54/57 191/52/55 80/51/54
f 11/54/57 190/50/53 78/56/59
f 190/50/53 304/48/48 308/50/60
f 190/50/53 303/56/61 78/56/59
f 175/8/8 9/9/50 54/9/9
f 177/14/14 12/15/62 58/15/15
f 37/57/63 218/58/64 131/59/65
f 38/60/66 218/58/64 132/61/67
f 38/60/66 219/62/68 134/63/69
f 38/60/66 221/64/70 135/65/71
f 38/60/66 220/66/72 133/67/73
f 39/68/74 220/66/72 135/65/71
f 39/68/74 221/64/70 137/69/75
f 39/68/74 223/70/76 138/71/77
f 39/68/74 222/72/78 136/73/79
f 40/74/80 222/72/78 138/71/77
f 40/74/80 223/70/76 140/75/81
f 40/74/80 225/76/82 141/77/83
f 40/74/80 224/78/84 139/79/85
f 41/80/86 224/78/84 141/77/83
f 41/80/86 225/76/82 143/81/87
f 41/80/86 227/82/88 144/83/89
f 41/80/86 226/84/90 142/85/91
f 42/86/92 226/84/90 144/83/89
f 42/86/92 227/82/88 146/87/93
f 42/86/92 229/88/94 147/89/95
f 42/86/92 228/90/96 145/91/97
f 43/92/98 228/90/96 147/89/95
f 43/92/98 229/88/94 149/93/99
f 43/92/98 231/94/100 150/95/101
f 43/92/98 230/96/102 148/97/103
f 44/98/104 230/96/102 150/95/101
f 44/98/104 231/94/100 152/99/105
f 44/98/104 233/100/106 153/101/107
f 44/98/104 232/102/108 151/103/109
f 45/98/110 232/102/108 153/101/107
f 45/98/110 233/100/106 155/99/111
f 45/98/110 235/104/112 156/95/113
f 45/98/110 234/105/114 154/103/115
f 46/92/116 234/105/114 156/95/113
f 46/92/116 235/104/112 158/93/117
f 46/92/116 237/88/118 159/89/119
f 46/92/116 236/90/120 157/97/121
f 47/86/122 236/90/120 159/89/119
f 47/86/122 237/88/118 161/87/123
f 47/86/122 239/82/124 162/83/125
f 47/86/122 238/84/126 160/91/127
f 48/80/128 238/84/126 162/83/125
f 48/80/128 239/82/124 164/81/129
f 48/80/128 241/76/130 165/77/131
f 48/80/128 240/106/132 163/85/133
f 49/74/134 240/106/132 165/77/131
f 49/74/134 241/76/130 167/75/135
f 49/74/134 243/70/136 168/71/137
f 49/74/134 242/72/138 166/79/139
f 50/68/140 242/72/138 168/71/137
f 50/68/140 243/70/136 170/69/141
f 50/68/140 245/64/142 171/65/143
f 50/68/140 244/66/144 169/73/145
f 51/60/146 244/66/144 171/65/143
f 167/75/135 164/81/129 52/107/147
f 164/81/129 161/87/123 52/107/147
f 161/87/123 158/93/117 52/107/147
f 158/93/117 155/99/111 52/107/147
f 155/99/111 152/99/105 52/107/147
f 152/99/105 149/93/99 52/107/147
f 149/93/99 146/87/93 52/107/147
f 146/87/93 143/81/87 52/107/147
f 143/81/87 140/75/81 52/107/147
f 140/75/81 137/69/75 52/107/147
f 131/59/65 133/67/73 53/108/148
f 133/67/73 136/73/79 53/108/148
f 136/73/79 139/79/85 53/108/148
f 139/79/85 142/85/91 53/108/148
f 142/85/91 145/91/97 53/108/148
f 145/91/97 148/97/103 53/108/148
f 148/97/103 151/103/109 53/108/148
f 151/103/109 154/103/115 53/108/148
f 154/103/115 157/97/121 53/108/148
f 157/97/121 160/91/127 53/108/148
f 160/91/127 163/85/133 53/108/148
f 163/85/133 166/79/139 53/108/148
f 166/79/139 169/73/145 53/108/148
f 169/73/145 172/67/149 53/108/148
f 398/109/150 300/110/151 298/111/152
f 397/112/153 294/113/154 396/114/155
f 396/114/155 292/115/156 395/116/157
f 394/117/158 292/115/156 290/118/159
f 394/117/158 288/119/160 393/120/161
f 393/120/161 286/121/162 392/122/163
f 391/123/164 286/121/162 284/124/165
f 370/125/166 284/124/165 282/126/167
f 370/125/166 280/127/168 372/128/169
f 372/128/169 278/129/170 374/130/171
f 374/130/171 276/131/172 376/132/173
f 378/133/174 276/131/172 274/134/175
f 378/133/174 272/135/176 380/136/177
f 382/133/178 272/135/176 270/134/179
f 382/133/178 268/131/180 384/132/181
f 386/130/182 470/137/183 388/128/184
f 388/128/184 472/138/185 390/125/186
f 390/125/186 465/139/187 371/123/188
f 373/122/189 465/139/187 467/140/190
f 375/120/191 467/140/190 469/141/192
f 377/117/193 469/141/192 471/142/194
f 377/117/193 466/143/195 259/115/196
f 381/114/197 259/115/196 257/113/198
f 383/112/199 257/113/198 255/144/200
f 383/112/199 253/111/201 385/109/202
f 273/145/203 262/146/204 248/147/205
f 385/109/202 251/110/206 387/148/207
f 400/149/208 300/110/151 399/148/209
f 389/150/210 251/110/206 249/151/211
f 369/152/212 302/151/213 400/149/208
f 369/152/212 249/151/211 246/153/214
f 398/109/150 296/144/215 397/112/153
f 175/8/8 12/15/62 306/8/216
f 189/44/44 315/55/217 79/55/58
f 174/4/4 316/53/218 317/4/219
f 187/38/38 313/37/220 323/38/221
f 180/18/18 312/23/222 65/23/23
f 178/12/12 310/11/223 319/12/224
f 176/6/6 309/5/225 318/6/226
f 187/38/38 314/43/227 76/43/43
f 191/52/55 315/55/217 325/52/228
f 178/12/12 311/17/229 62/17/17
f 182/24/24 312/23/222 321/24/230
f 191/52/55 316/53/218 82/53/56
f 185/33/33 313/37/220 73/37/37
f 189/44/44 314/43/227 324/44/231
f 176/6/6 310/11/223 59/11/11
f 180/18/18 311/17/229 320/18/232
f 174/4/4 309/5/225 55/5/5
f 319/12/224 328/17/233 311/17/229
f 319/12/224 327/11/234 334/12/235
f 324/44/231 330/55/236 315/55/217
f 324/44/231 329/43/237 335/44/238
f 325/52/228 331/53/239 316/53/218
f 317/4/219 326/5/240 309/5/225
f 325/52/228 330/55/236 336/52/241
f 318/6/226 327/11/234 310/11/223
f 317/4/219 331/53/239 332/4/242
f 318/6/226 326/5/240 333/6/243
f 299/154/244 366/155/245 297/156/246
f 293/157/247 365/158/248 364/159/249
f 291/160/250 364/159/249 363/161/251
f 289/162/252 363/161/251 362/163/253
f 287/164/254 362/163/253 361/165/255
f 287/164/254 360/166/256 285/146/257
f 285/146/257 359/167/258 283/168/259
f 283/168/259 337/169/260 281/170/261
f 279/171/262 337/169/260 339/172/263
f 277/173/264 339/172/263 341/174/265
f 275/175/266 341/174/265 343/176/267
f 275/175/266 345/177/268 273/145/203
f 271/178/269 345/177/268 347/179/270
f 271/178/269 349/177/271 269/145/272
f 267/175/273 349/177/271 351/176/274
f 267/175/273 353/174/275 266/173/276
f 266/173/276 355/172/277 265/171/278
f 265/171/278 358/169/279 264/170/280
f 263/168/281 358/169/279 338/167/282
f 262/146/204 338/167/282 340/166/283
f 261/164/284 340/166/283 342/165/285
f 261/164/284 344/163/286 260/162/287
f 260/162/287 346/161/288 258/160/289
f 258/160/289 348/159/290 256/157/291
f 256/157/291 350/158/292 254/180/293
f 254/180/293 352/155/294 252/156/295
f 250/154/296 352/155/294 354/181/297
f 299/154/244 368/182/298 367/181/299
f 250/154/296 356/182/300 248/147/205
f 301/147/301 357/183/302 368/182/298
f 248/147/205 357/183/302 247/184/303
f 295/180/304 366/155/245 365/158/248
f 378/133/174 444/136/305 442/133/306
f 369/152/212 453/150/307 389/150/210
f 358/169/279 419/172/308 422/169/309
f 391/123/164 434/125/310 455/123/311
f 383/112/199 449/109/312 447/112/313
f 345/177/268 411/179/314 347/179/270
f 357/183/302 420/182/315 421/183/316
f 395/116/157 460/114/317 396/114/155
f 375/120/191 437/122/318 373/122/189
f 359/167/258 401/169/319 337/169/260
f 350/158/292 416/155/320 352/155/294
f 384/132/181 450/130/321 448/132/322
f 363/161/251 428/159/323 427/161/324
f 342/165/285 404/166/325 406/165/326
f 374/130/171 440/132/327 438/130/328
f 389/150/210 451/148/329 387/148/207
f 351/176/274 417/174/330 353/174/275
f 393/120/161 456/122/331 457/120/332
f 379/185/333 445/114/334 443/185/335
f 341/174/265 407/176/336 343/176/267
f 356/182/300 418/181/337 420/182/315
f 398/109/150 463/148/338 399/148/209
f 371/123/188 454/125/339 390/125/186
f 361/165/255 424/166/340 360/166/256
f 346/161/288 412/159/341 348/159/290
f 380/136/177 446/133/342 444/136/305
f 397/112/153 462/109/343 398/109/150
f 366/155/245 431/181/344 430/155/345
f 338/167/282 422/169/309 402/167/346
f 370/125/166 436/128/347 434/125/310
f 387/148/207 449/109/312 385/109/202
f 347/179/270 413/177/348 349/177/271
f 430/155/345 463/148/338 462/109/343
f 429/158/349 460/114/317 428/159/323
f 427/161/324 460/114/317 459/116/350
f 427/161/324 458/117/351 426/163/352
f 426/163/352 457/120/332 425/165/353
f 424/166/340 457/120/332 456/122/331
f 423/167/354 456/122/331 455/123/311
f 423/167/354 434/125/310 401/169/319
f 401/169/319 436/128/347 403/172/355
f 405/174/356 436/128/347 438/130/328
f 407/176/336 438/130/328 440/132/327
f 409/177/357 440/132/327 442/133/306
f 411/179/314 442/133/306 444/136/305
f 411/179/314 446/133/342 413/177/348
f 415/176/358 446/133/342 448/132/322
f 415/176/358 450/130/321 417/174/330
f 417/174/330 452/128/359 419/172/308
f 422/169/309 452/128/359 454/125/339
f 402/167/346 454/125/339 435/123/360
f 402/167/346 437/122/318 404/166/325
f 404/166/325 439/120/361 406/165/326
f 408/163/362 439/120/361 441/117/363
f 410/161/364 441/117/363 443/185/335
f 410/161/364 445/114/334 412/159/341
f 412/159/341 447/112/313 414/158/365
f 414/158/365 449/109/312 416/155/320
f 418/181/337 449/109/312 451/148/329
f 431/181/344 464/149/366 463/148/338
f 418/181/337 453/150/307 420/182/315
f 421/183/316 464/149/366 432/182/367
f 421/183/316 453/150/307 433/152/368
f 430/155/345 461/112/369 429/158/349
f 344/163/286 410/161/364 346/161/288
f 361/165/255 426/163/352 425/165/353
f 390/125/186 452/128/359 388/128/184
f 367/181/299 432/182/367 431/181/344
f 339/172/263 405/174/356 341/174/265
f 377/117/193 443/185/335 441/117/363
f 393/120/161 458/117/351 394/117/158
f 349/177/271 415/176/358 351/176/274
f 399/148/209 464/149/366 400/149/208
f 372/128/169 438/130/328 436/128/347
f 340/166/283 402/167/346 404/166/325
f 364/159/249 429/158/349 428/159/323
f 382/133/178 448/132/322 446/133/342
f 348/159/290 414/158/365 350/158/292
f 360/166/256 423/167/354 359/167/258
f 373/122/189 435/123/360 371/123/188
f 396/114/155 461/112/369 397/112/153
f 368/182/298 421/183/316 432/182/367
f 343/176/267 409/177/357 345/177/268
f 381/114/197 447/112/313 445/114/334
f 392/122/163 455/123/311 456/122/331
f 355/172/277 417/174/330 419/172/308
f 400/149/208 433/152/368 369/152/212
f 376/132/173 442/133/306 440/132/327
f 342/165/285 408/163/362 344/163/286
f 362/163/253 427/161/324 426/163/352
f 388/128/184 450/130/321 386/130/182
f 354/181/297 416/155/320 418/181/337
f 337/169/260 403/172/355 339/172/263
f 375/120/191 441/117/363 439/120/361
f 394/117/158 459/116/350 395/116/157
f 365/158/248 430/155/345 429/158/349
f 1/1/1 54/9/9 173/2/2
f 1/1/1 56/3/3 174/4/4
f 1/1/1 55/5/5 176/6/6
f 1/1/1 57/7/7 175/8/8
f 2/10/10 58/15/15 175/8/8
f 2/10/10 57/7/7 176/6/6
f 2/10/10 59/11/11 178/12/12
f 2/10/10 60/13/13 177/14/14
f 3/16/16 61/21/21 177/14/14
f 3/16/16 60/13/13 178/12/12
f 3/16/16 62/17/17 180/18/18
f 3/16/16 63/19/19 179/20/20
f 4/22/22 64/27/27 179/20/20
f 4/22/22 63/19/19 180/18/18
f 4/22/22 65/23/23 182/24/24
f 4/22/22 66/25/25 181/26/26
f 5/28/28 67/284/468 181/26/26
f 5/28/28 66/25/25 182/24/24
f 5/28/28 68/29/29 183/30/30
f 6/32/32 70/285/469 185/33/33
f 7/35/35 72/41/41 184/36/36
f 7/35/35 71/34/34 185/33/33
f 7/35/35 73/37/37 187/38/38
f 7/35/35 74/39/39 186/40/40
f 8/42/42 75/47/47 186/40/40
f 8/42/42 74/39/39 187/38/38
f 8/42/42 76/43/43 189/44/44
f 8/42/42 77/45/45 188/46/46
f 173/2/2 305/2/51 304/48/48
f 173/2/2 54/9/9 9/9/50
f 10/49/52 81/48/49 190/50/53
f 10/49/52 80/51/54 191/52/55
f 10/49/52 82/53/56 174/4/4
f 10/49/52 56/3/3 173/2/2
f 11/54/57 78/56/59 188/46/46
f 11/54/57 77/45/45 189/44/44
f 11/54/57 79/55/58 191/52/55
f 11/54/57 80/51/54 190/50/53
f 190/50/53 81/48/49 304/48/48
f 190/50/53 308/50/60 303/56/61
f 175/8/8 306/8/216 9/9/50
f 177/14/14 307/14/470 12/15/62
f 37/57/63 132/61/67 218/58/64
f 38/60/66 133/67/73 218/58/64
f 38/60/66 132/61/67 219/62/68
f 38/60/66 134/63/69 221/64/70
f 38/60/66 135/65/71 220/66/72
f 39/68/74 136/73/79 220/66/72
f 39/68/74 135/65/71 221/64/70
f 39/68/74 137/69/75 223/70/76
f 39/68/74 138/71/77 222/72/78
f 40/74/80 139/79/85 222/72/78
f 40/74/80 138/71/77 223/70/76
f 40/74/80 140/75/81 225/76/82
f 40/74/80 141/77/83 224/78/84
f 41/80/86 142/85/91 224/78/84
f 41/80/86 141/77/83 225/76/82
f 41/80/86 143/81/87 227/82/88
f 41/80/86 144/83/89 226/84/90
f 42/86/92 145/91/97 226/84/90
f 42/86/92 144/83/89 227/82/88
f 42/86/92 146/87/93 229/88/94
f 42/86/92 147/89/95 228/90/96
f 43/92/98 148/97/103 228/90/96
f 43/92/98 147/89/95 229/88/94
f 43/92/98 149/93/99 231/94/100
f 43/92/98 150/95/101 230/96/102
f 44/98/104 151/103/109 230/96/102
f 44/98/104 150/95/101 231/94/100
f 44/98/104 152/99/105 233/100/106
f 44/98/104 153/101/107 232/102/108
f 45/98/110 154/103/115 232/102/108
f 45/98/110 153/101/107 233/100/106
f 45/98/110 155/99/111 235/104/112
f 45/98/110 156/95/113 234/105/114
f 46/92/116 157/97/121 234/105/114
f 46/92/116 156/95/113 235/104/112
f 46/92/116 158/93/117 237/88/118
f 46/92/116 159/89/119 236/90/120
f 47/86/122 160/91/127 236/90/120
f 47/86/122 159/89/119 237/88/118
f 47/86/122 161/87/123 239/82/124
f 47/86/122 162/83/125 238/84/126
f 48/80/128 163/85/133 238/84/126
f 48/80/128 162/83/125 239/82/124
f 48/80/128 164/81/129 241/76/130
f 48/80/128 165/77/131 240/106/132
f 49/74/134 166/79/139 240/106/132
f 49/74/134 165/77/131 241/76/130
f 49/74/134 167/75/135 243/70/136
f 49/74/134 168/71/137 242/72/138
f 50/68/140 169/73/145 242/72/138
f 50/68/140 168/71/137 243/70/136
f 50/68/140 170/69/141 245/64/142
f 50/68/140 171/65/143 244/66/144
f 51/60/146 172/67/149 244/66/144
f 167/75/135 241/76/130 164/81/129
f 164/81/129 239/82/124 161/87/123
f 161/87/123 237/88/118 158/93/117
f 158/93/117 235/104/112 155/99/111
f 155/99/111 233/100/106 152/99/105
f 152/99/105 231/94/100 149/93/99
f 149/93/99 229/88/94 146/87/93
f 146/87/93 227/82/88 143/81/87
f 143/81/87 225/76/82 140/75/81
f 140/75/81 223/70/76 137/69/75
f 131/59/65 218/58/64 133/67/73
f 133/67/73 220/66/72 136/73/79
f 136/73/79 222/72/78 139/79/85
f 139/79/85 224/78/84 142/85/91
f 142/85/91 226/84/90 145/91/97
f 145/91/97 228/90/96 148/97/103
f 148/97/103 230/96/102 151/103/109
f 151/103/109 232/102/108 154/103/115
f 154/103/115 234/105/114 157/97/121
f 157/97/121 236/90/120 160/91/127
f 160/91/127 238/84/126 163/85/133
f 163/85/133 240/106/132 166/79/139
f 166/79/139 242/72/138 169/73/145
f 169/73/145 244/66/144 172/67/149
f 398/109/150 399/148/209 300/110/151
f 397/112/153 296/144/215 294/113/154
f 396/114/155 294/113/154 292/115/156
f 394/117/158 395/116/157 292/115/156
f 394/117/158 290/118/159 288/119/160
f 393/120/161 288/119/160 286/121/162
f 391/123/164 392/122/163 286/121/162
f 370/125/166 391/123/164 284/124/165
f 370/125/166 282/126/167 280/127/168
f 372/128/169 280/127/168 278/129/170
f 374/130/171 278/129/170 276/131/172
f 378/133/174 376/132/173 276/131/172
f 378/133/174 274/134/175 272/135/176
f 382/133/178 380/136/177 272/135/176
f 382/133/178 270/134/179 268/131/180
f 386/130/182 468/286/471 470/137/183
f 388/128/184 470/137/183 472/138/185
f 390/125/186 472/138/185 465/139/187
f 373/122/189 371/123/188 465/139/187
f 375/120/191 373/122/189 467/140/190
f 377/117/193 375/120/191 469/141/192
f 259/115/196 379/185/333 377/117/193
f 377/117/193 471/142/194 466/143/195
f 381/114/197 379/185/333 259/115/196
f 383/112/199 381/114/197 257/113/198
f 383/112/199 255/144/200 253/111/201
f 248/147/205 247/184/303 301/147/301
f 301/147/301 299/154/244 297/156/246
f 297/156/246 295/180/304 293/157/247
f 293/157/247 291/160/250 289/162/252
f 289/162/252 287/164/254 285/146/257
f 285/146/257 283/168/259 281/170/261
f 281/170/261 279/171/262 277/173/264
f 277/173/264 275/175/266 273/145/203
f 273/145/203 271/178/269 269/145/272
f 269/145/272 267/175/273 266/173/276
f 266/173/276 265/171/278 264/170/280
f 264/170/280 263/168/281 262/146/204
f 262/146/204 261/164/284 260/162/287
f 260/162/287 258/160/289 256/157/291
f 256/157/291 254/180/293 252/156/295
f 252/156/295 250/154/296 248/147/205
f 248/147/205 301/147/301 297/156/246
f 297/156/246 293/157/247 289/162/252
f 289/162/252 285/146/257 281/170/261
f 281/170/261 277/173/264 273/145/203
f 273/145/203 269/145/272 266/173/276
f 266/173/276 264/170/280 262/146/204
f 262/146/204 260/162/287 256/157/291
f 256/157/291 252/156/295 248/147/205
f 248/147/205 297/156/246 289/162/252
f 289/162/252 281/170/261 273/145/203
f 273/145/203 266/173/276 262/146/204
f 262/146/204 256/157/291 248/147/205
f 248/147/205 289/162/252 273/145/203
f 385/109/202 253/111/201 251/110/206
f 400/149/208 302/151/213 300/110/151
f 389/150/210 387/148/207 251/110/206
f 369/152/212 246/153/214 302/151/213
f 369/152/212 389/150/210 249/151/211
f 398/109/150 298/111/152 296/144/215
f 175/8/8 58/15/15 12/15/62
f 189/44/44 324/44/231 315/55/217
f 174/4/4 82/53/56 316/53/218
f 187/38/38 73/37/37 313/37/220
f 180/18/18 320/18/232 312/23/222
f 178/12/12 59/11/11 310/11/223
f 176/6/6 55/5/5 309/5/225
f 187/38/38 323/38/221 314/43/227
f 191/52/55 79/55/58 315/55/217
f 178/12/12 319/12/224 311/17/229
f 182/24/24 65/23/23 312/23/222
f 191/52/55 325/52/228 316/53/218
f 185/33/33 322/33/472 313/37/220
f 189/44/44 76/43/43 314/43/227
f 176/6/6 318/6/226 310/11/223
f 180/18/18 62/17/17 311/17/229
f 174/4/4 317/4/219 309/5/225
f 319/12/224 334/12/235 328/17/233
f 319/12/224 310/11/223 327/11/234
f 324/44/231 335/44/238 330/55/236
f 324/44/231 314/43/227 329/43/237
f 325/52/228 336/52/241 331/53/239
f 317/4/219 332/4/242 326/5/240
f 325/52/228 315/55/217 330/55/236
f 318/6/226 333/6/243 327/11/234
f 317/4/219 316/53/218 331/53/239
f 318/6/226 309/5/225 326/5/240
f 299/154/244 367/181/299 366/155/245
f 293/157/247 295/180/304 365/158/248
f 291/160/250 293/157/247 364/159/249
f 289/162/252 291/160/250 363/161/251
f 287/164/254 289/162/252 362/163/253
f 287/164/254 361/165/255 360/166/256
f 285/146/257 360/166/256 359/167/258
f 283/168/259 359/167/258 337/169/260
f 279/171/262 281/170/261 337/169/260
f 277/173/264 279/171/262 339/172/263
f 275/175/266 277/173/264 341/174/265
f 275/175/266 343/176/267 345/177/268
f 271/178/269 273/145/203 345/177/268
f 271/178/269 347/179/270 349/177/271
f 267/175/273 269/145/272 349/177/271
f 267/175/273 351/176/274 353/174/275
f 266/173/276 353/174/275 355/172/277
f 265/171/278 355/172/277 358/169/279
f 263/168/281 264/170/280 358/169/279
f 262/146/204 263/168/281 338/167/282
f 261/164/284 262/146/204 340/166/283
f 261/164/284 342/165/285 344/163/286
f 260/162/287 344/163/286 346/161/288
f 258/160/289 346/161/288 348/159/290
f 256/157/291 348/159/290 350/158/292
f 254/180/293 350/158/292 352/155/294
f 250/154/296 252/156/295 352/155/294
f 299/154/244 301/147/301 368/182/298
f 250/154/296 354/181/297 356/182/300
f 301/147/301 247/184/303 357/183/302
f 248/147/205 356/182/300 357/183/302
f 295/180/304 297/156/246 366/155/245
f 378/133/174 380/136/177 444/136/305
f 369/152/212 433/152/368 453/150/307
f 358/169/279 355/172/277 419/172/308
f 391/123/164 370/125/166 434/125/310
f 383/112/199 385/109/202 449/109/312
f 345/177/268 409/177/357 411/179/314
f 357/183/302 356/182/300 420/182/315
f 395/116/157 459/116/350 460/114/317
f 375/120/191 439/120/361 437/122/318
f 359/167/258 423/167/354 401/169/319
f 350/158/292 414/158/365 416/155/320
f 384/132/181 386/130/182 450/130/321
f 363/161/251 364/159/249 428/159/323
f 342/165/285 340/166/283 404/166/325
f 374/130/171 376/132/173 440/132/327
f 389/150/210 453/150/307 451/148/329
f 351/176/274 415/176/358 417/174/330
f 393/120/161 392/122/163 456/122/331
f 379/185/333 381/114/197 445/114/334
f 341/174/265 405/174/356 407/176/336
f 356/182/300 354/181/297 418/181/337
f 398/109/150 462/109/343 463/148/338
f 371/123/188 435/123/360 454/125/339
f 361/165/255 425/165/353 424/166/340
f 346/161/288 410/161/364 412/159/341
f 380/136/177 382/133/178 446/133/342
f 397/112/153 461/112/369 462/109/343
f 366/155/245 367/181/299 431/181/344
f 338/167/282 358/169/279 422/169/309
f 370/125/166 372/128/169 436/128/347
f 387/148/207 451/148/329 449/109/312
f 347/179/270 411/179/314 413/177/348
f 430/155/345 431/181/344 463/148/338
f 429/158/349 461/112/369 460/114/317
f 427/161/324 428/159/323 460/114/317
f 427/161/324 459/116/350 458/117/351
f 426/163/352 458/117/351 457/120/332
f 424/166/340 425/165/353 457/120/332
f 423/167/354 424/166/340 456/122/331
f 423/167/354 455/123/311 434/125/310
f 401/169/319 434/125/310 436/128/347
f 405/174/356 403/172/355 436/128/347
f 407/176/336 405/174/356 438/130/328
f 409/177/357 407/176/336 440/132/327
f 411/179/314 409/177/357 442/133/306
f 411/179/314 444/136/305 446/133/342
f 415/176/358 413/177/348 446/133/342
f 415/176/358 448/132/322 450/130/321
f 417/174/330 450/130/321 452/128/359
f 422/169/309 419/172/308 452/128/359
f 402/167/346 422/169/309 454/125/339
f 402/167/346 435/123/360 437/122/318
f 404/166/325 437/122/318 439/120/361
f 408/163/362 406/165/326 439/120/361
f 410/161/364 408/163/362 441/117/363
f 410/161/364 443/185/335 445/114/334
f 412/159/341 445/114/334 447/112/313
f 414/158/365 447/112/313 449/109/312
f 418/181/337 416/155/320 449/109/312
f 431/181/344 432/182/367 464/149/366
f 418/181/337 451/148/329 453/150/307
f 421/183/316 433/152/368 464/149/366
f 421/183/316 420/182/315 453/150/307
f 430/155/345 462/109/343 461/112/369
f 344/163/286 408/163/362 410/161/364
f 361/165/255 362/163/253 426/163/352
f 390/125/186 454/125/339 452/128/359
f 367/181/299 368/182/298 432/182/367
f 339/172/263 403/172/355 405/174/356
f 377/117/193 379/185/333 443/185/335
f 393/120/161 457/120/332 458/117/351
f 349/177/271 413/177/348 415/176/358
f 399/148/209 463/148/338 464/149/366
f 372/128/169 374/130/171 438/130/328
f 340/166/283 338/167/282 402/167/346
f 364/159/249 365/158/248 429/158/349
f 382/133/178 384/132/181 448/132/322
f 348/159/290 412/159/341 414/158/365
f 360/166/256 424/166/340 423/167/354
f 373/122/189 437/122/318 435/123/360
f 396/114/155 460/114/317 461/112/369
f 368/182/298 357/183/302 421/183/316
f 343/176/267 407/176/336 409/177/357
f 381/114/197 383/112/199 447/112/313
f 392/122/163 391/123/164 455/123/311
f 355/172/277 353/174/275 417/174/330
f 400/149/208 464/149/366 433/152/368
f 376/132/173 378/133/174 442/133/306
f 342/165/285 406/165/326 408/163/362
f 362/163/253 363/161/251 427/161/324
f 388/128/184 452/128/359 450/130/321
f 354/181/297 352/155/294 416/155/320
f 337/169/260 401/169/319 403/172/355
f 375/120/191 377/117/193 441/117/363
f 394/117/158 458/117/351 459/116/350
f 365/158/248 366/155/245 430/155/345
usemtl limbs.006
f 13/186/370 212/187/371 110/188/372
f 13/186/370 201/189/373 84/190/374
f 84/190/374 97/191/375 13/186/370
f 97/191/375 107/192/376 13/186/370
f 111/193/377 114/194/378 14/195/379
f 14/195/379 205/196/380 88/197/381
f 14/195/379 194/198/382 101/199/383
f 14/195/379 206/200/384 111/193/377
f 115/201/385 118/202/386 15/203/387
f 118/202/386 91/204/388 15/203/387
f 91/204/388 104/205/389 15/203/387
f 104/205/389 115/201/385 15/203/387
f 16/206/390 215/207/391 122/208/392
f 122/208/392 98/209/393 16/206/390
f 16/206/390 192/210/394 106/211/395
f 106/211/395 119/212/396 16/206/390
f 17/213/397 216/214/398 126/215/399
f 126/215/399 101/199/383 17/213/397
f 17/213/397 194/198/382 92/216/400
f 92/216/400 123/217/401 17/213/397
f 127/218/402 130/219/403 18/220/404
f 130/219/403 99/221/405 18/220/404
f 18/220/404 197/222/406 83/223/407
f 18/220/404 200/224/408 127/218/402
f 19/225/409 203/226/410 109/227/411
f 19/225/409 212/187/371 107/192/376
f 19/225/409 202/228/412 85/229/413
f 85/229/413 98/209/393 19/225/409
f 86/230/414 95/231/415 20/232/416
f 20/232/416 200/224/408 108/233/417
f 20/232/416 212/187/371 109/227/411
f 109/227/411 86/230/414 20/232/416
f 108/233/417 83/223/407 21/234/418
f 83/223/407 96/235/419 21/234/418
f 21/234/418 201/189/373 110/188/372
f 110/188/372 108/233/417 21/234/418
f 84/190/374 113/236/420 22/237/421
f 22/237/421 213/238/422 111/193/377
f 111/193/377 89/239/423 22/237/421
f 22/237/421 193/240/424 84/190/374
f 23/241/425 197/222/406 99/221/405
f 23/241/425 204/242/426 112/243/427
f 112/243/427 113/236/420 23/241/425
f 113/236/420 96/235/419 23/241/425
f 112/243/427 87/244/428 24/245/429
f 24/245/429 198/246/430 100/247/431
f 100/247/431 114/194/378 24/245/429
f 24/245/429 213/238/422 112/243/427
f 88/197/381 117/248/432 25/249/433
f 25/249/433 214/250/434 115/201/385
f 25/249/433 209/251/435 92/216/400
f 92/216/400 88/197/381 25/249/433
f 100/247/431 102/252/436 26/253/437
f 26/253/437 207/254/438 116/255/439
f 26/253/437 214/250/434 117/248/432
f 26/253/437 205/196/380 100/247/431
f 116/255/439 90/256/440 27/257/441
f 90/256/440 103/258/442 27/257/441
f 27/257/441 208/259/443 118/202/386
f 27/257/441 214/250/434 116/255/439
f 28/260/444 208/259/443 121/261/445
f 121/261/445 119/212/396 28/260/444
f 28/260/444 211/262/446 94/263/447
f 28/260/444 195/264/448 91/204/388
f 29/265/449 199/266/450 105/267/451
f 105/267/451 120/268/452 29/265/449
f 29/265/449 215/207/391 121/261/445
f 121/261/445 103/258/442 29/265/449
f 30/269/453 210/270/454 93/271/455
f 30/269/453 196/272/456 86/230/414
f 30/269/453 203/226/410 122/208/392
f 122/208/392 120/268/452 30/269/453
f 94/263/447 125/273/457 31/274/458
f 125/273/457 123/217/401 31/274/458
f 31/274/458 209/251/435 104/205/389
f 31/274/458 195/264/448 94/263/447
f 32/275/459 192/210/394 85/229/413
f 85/229/413 124/276/460 32/275/459
f 32/275/459 216/214/398 125/273/457
f 125/273/457 106/211/395 32/275/459
f 33/277/461 202/228/412 97/191/375
f 33/277/461 193/240/424 89/239/423
f 33/277/461 206/200/384 126/215/399
f 126/215/399 124/276/460 33/277/461
f 93/271/455 129/278/462 34/279/463
f 34/279/463 217/280/464 127/218/402
f 127/218/402 95/231/415 34/279/463
f 34/279/463 196/272/456 93/271/455
f 35/281/465 199/266/450 90/256/440
f 35/281/465 207/254/438 128/282/466
f 128/282/466 129/278/462 35/281/465
f 35/281/465 210/270/454 105/267/451
f 128/282/466 102/252/436 36/283/467
f 36/283/467 198/246/430 87/244/428
f 87/244/428 130/219/403 36/283/467
f 36/283/467 217/280/464 128/282/466
f 13/186/370 107/192/376 212/187/371
f 13/186/370 110/188/372 201/189/373
f 84/190/374 193/240/424 97/191/375
f 97/191/375 202/228/412 107/192/376
f 111/193/377 213/238/422 114/194/378
f 14/195/379 114/194/378 205/196/380
f 14/195/379 88/197/381 194/198/382
f 14/195/379 101/199/383 206/200/384
f 115/201/385 214/250/434 118/202/386
f 118/202/386 208/259/443 91/204/388
f 91/204/388 195/264/448 104/205/389
f 104/205/389 209/251/435 115/201/385
f 16/206/390 119/212/396 215/207/391
f 122/208/392 203/226/410 98/209/393
f 16/206/390 98/209/393 192/210/394
f 106/211/395 211/262/446 119/212/396
f 17/213/397 123/217/401 216/214/398
f 126/215/399 206/200/384 101/199/383
f 17/213/397 101/199/383 194/198/382
f 92/216/400 209/251/435 123/217/401
f 127/218/402 217/280/464 130/219/403
f 130/219/403 204/242/426 99/221/405
f 18/220/404 99/221/405 197/222/406
f 18/220/404 83/223/407 200/224/408
f 19/225/409 98/209/393 203/226/410
f 19/225/409 109/227/411 212/187/371
f 19/225/409 107/192/376 202/228/412
f 85/229/413 192/210/394 98/209/393
f 86/230/414 196/272/456 95/231/415
f 20/232/416 95/231/415 200/224/408
f 20/232/416 108/233/417 212/187/371
f 109/227/411 203/226/410 86/230/414
f 108/233/417 200/224/408 83/223/407
f 83/223/407 197/222/406 96/235/419
f 21/234/418 96/235/419 201/189/373
f 110/188/372 212/187/371 108/233/417
f 84/190/374 201/189/373 113/236/420
f 22/237/421 113/236/420 213/238/422
f 111/193/377 206/200/384 89/239/423
f 22/237/421 89/239/423 193/240/424
f 23/241/425 96/235/419 197/222/406
f 23/241/425 99/221/405 204/242/426
f 112/243/427 213/238/422 113/236/420
f 113/236/420 201/189/373 96/235/419
f 112/243/427 204/242/426 87/244/428
f 24/245/429 87/244/428 198/246/430
f 100/247/431 205/196/380 114/194/378
f 24/245/429 114/194/378 213/238/422
f 88/197/381 205/196/380 117/248/432
f 25/249/433 117/248/432 214/250/434
f 25/249/433 115/201/385 209/251/435
f 92/216/400 194/198/382 88/197/381
f 100/247/431 198/246/430 102/252/436
f 26/253/437 102/252/436 207/254/438
f 26/253/437 116/255/439 214/250/434
f 26/253/437 117/248/432 205/196/380
f 116/255/439 207/254/438 90/256/440
f 90/256/440 199/266/450 103/258/442
f 27/257/441 103/258/442 208/259/443
f 27/257/441 118/202/386 214/250/434
f 28/260/444 91/204/388 208/259/443
f 121/261/445 215/207/391 119/212/396
f 28/260/444 119/212/396 211/262/446
f 28/260/444 94/263/447 195/264/448
f 29/265/449 103/258/442 199/266/450
f 105/267/451 210/270/454 120/268/452
f 29/265/449 120/268/452 215/207/391
f 121/261/445 208/259/443 103/258/442
f 30/269/453 120/268/452 210/270/454
f 30/269/453 93/271/455 196/272/456
f 30/269/453 86/230/414 203/226/410
f 122/208/392 215/207/391 120/268/452
f 94/263/447 211/262/446 125/273/457
f 125/273/457 216/214/398 123/217/401
f 31/274/458 123/217/401 209/251/435
f 31/274/458 104/205/389 195/264/448
f 32/275/459 106/211/395 192/210/394
f 85/229/413 202/228/412 124/276/460
f 32/275/459 124/276/460 216/214/398
f 125/273/457 211/262/446 106/211/395
f 33/277/461 124/276/460 202/228/412
f 33/277/461 97/191/375 193/240/424
f 33/277/461 89/239/423 206/200/384
f 126/215/399 216/214/398 124/276/460
f 93/271/455 210/270/454 129/278/462
f 34/279/463 129/278/462 217/280/464
f 127/218/402 200/224/408 95/231/415
f 34/279/463 95/231/415 196/272/456
f 35/281/465 105/267/451 199/266/450
f 35/281/465 90/256/440 207/254/438
f 128/282/466 217/280/464 129/278/462
f 35/281/465 129/278/462 210/270/454
f 128/282/466 207/254/438 102/252/436
f 36/283/467 102/252/436 198/246/430
f 87/244/428 204/242/426 130/219/403
f 36/283/467 130/219/403 217/280/464
