# Blender 4.3.2
# www.blender.org
mtllib left_leg.mtl
o body.009
v 1.484880 -4.349760 -0.508940
v -0.110480 -4.681580 -1.066940
v -0.629700 -4.736800 0.478720
v 1.119080 -4.431880 1.209400
v 0.314480 -6.915020 -0.461598
v 1.484880 -4.349760 0.476680
v 1.154740 -0.604760 0.675520
v 1.154720 -0.604240 -0.627760
v 0.617280 -4.592920 -0.322600
v -0.019900 -0.947420 -1.706260
v -0.741960 -1.071940 -1.431760
v -0.629700 -4.736800 -0.506880
v -1.264460 -1.110040 -0.623920
v -1.264460 -1.110720 0.678660
v 0.305640 -4.650520 1.406300
v -0.331680 -1.005200 1.790580
v 0.639700 -0.763700 1.591580
v 0.314480 -6.915020 0.343242
v 1.013280 -6.931400 0.428062
v 1.013280 -6.931400 -0.131098
v 0.130060 -4.665360 -0.751160
v 0.516500 -6.953460 -0.296538
v -0.504460 -1.036940 -1.680920
v -0.110480 -4.681580 1.209740
v -0.741960 -1.072960 1.591660
v 0.516500 -6.953460 0.423522
v -0.954500 0.338280 -0.806780
v 0.781240 -4.545420 1.385180
v 1.119080 -4.431880 -1.068660
v 0.639660 -0.762960 -1.434460
v 0.146960 -0.917300 1.767060
v 1.344420 -6.726360 0.343381
v 1.344420 -6.726360 -0.461739
v 0.130060 -4.665360 1.384320
v -0.504460 -1.037580 1.765420
v 0.305640 -4.650520 -0.322440
v 0.701420 -6.988640 -0.131078
v -0.331680 -1.004900 -1.706080
v 0.701420 -6.988640 0.428022
v 0.781240 -4.545420 -0.752020
v 0.146940 -0.916820 -1.681900
v 1.168340 -6.835380 0.423681
v 1.168340 -6.835380 -0.296719
v 0.617280 -4.592920 1.406480
v -0.019900 -0.947640 1.791080
v 1.455260 -2.041280 -0.562080
v -0.535300 -2.517600 -1.310360
v -1.127420 -2.559920 0.695340
v 0.919640 -2.203140 1.638000
v 1.455260 -2.041280 0.691240
v 0.251080 -2.390640 -1.044680
v -1.127420 -2.559920 -0.557960
v -0.068140 -2.449800 1.863080
v -0.244820 -2.482200 -1.289920
v -0.535300 -2.517600 1.638960
v 0.422140 -2.358640 1.829220
v 0.919640 -2.203140 -1.313520
v -0.244820 -2.482200 1.827840
v -0.068140 -2.449800 -1.044400
v 0.422140 -2.358640 -1.291300
v 0.251080 -2.390640 1.863340
v 0.812920 0.410100 -0.705200
v 1.373600 -4.356280 -0.862440
v 1.462040 -6.081120 0.336720
v 1.008880 -0.648260 1.275680
v -0.895480 -0.013360 -1.334820
v -0.285460 -4.702800 -0.860480
v 1.272400 -6.103020 -0.795919
v -1.319300 -0.041060 0.684800
v -0.285460 -4.702800 0.940720
v -0.214960 -6.352880 -0.470660
v 0.437120 0.291720 1.353720
v 0.205220 -6.305140 0.779920
v 0.812940 0.409280 0.682820
v 1.008840 -0.647440 -1.109940
v 1.462040 -6.081120 -0.471220
v 1.373600 -4.356280 0.939080
v 0.437060 0.292860 -1.337100
v -0.916360 -1.097480 -1.106380
v 0.205220 -6.305140 -0.795300
v -1.319300 -0.039940 -0.701980
v -0.916360 -1.098600 1.277700
v -0.214960 -6.352880 0.337200
v -0.895480 -0.014880 1.353480
v 1.272400 -6.103020 0.780001
v 1.504720 -4.363780 -0.048960
v 1.171840 -0.600860 -0.021440
v 1.377580 -1.665120 0.687940
v 1.377580 -1.664980 -0.579140
v 0.463220 -4.629400 -0.332460
v -0.175340 -0.975980 -1.717520
v 0.846940 -1.826260 -1.345160
v -0.136960 -2.071420 -1.492240
v -0.643200 -4.756980 -0.046920
v -1.280980 -1.113260 -0.017780
v -1.164860 -2.180540 -0.575100
v -1.164860 -2.180700 0.691820
v 0.463220 -4.629400 1.416320
v -0.175320 -0.976120 1.802100
v -0.589920 -2.139640 1.628540
v 0.180480 -2.012740 1.846940
v 0.317500 -6.966540 -0.078018
v 1.360080 -6.776080 -0.078018
v 0.863300 -6.990300 0.430062
v 0.863300 -6.990300 -0.133118
v -0.525880 0.053080 -1.561240
v 0.588540 -6.318280 0.935021
v 0.588540 -6.318280 -0.196020
v -0.525880 0.052620 1.511440
v -0.589920 -2.139380 -1.342120
v -0.136960 -2.071500 1.846620
v 0.715340 -7.074480 0.025822
v 0.061820 -4.670100 -1.054460
v 0.457440 -6.942220 -0.422578
v -0.571820 -1.047160 -1.617480
v 0.061820 -4.670100 1.339660
v -0.571820 -1.047920 1.720820
v 0.457440 -6.942220 0.403242
v 0.896520 -6.261520 -0.196120
v -0.217880 0.109400 1.512040
v -0.217900 0.109740 -1.561360
v 0.896520 -6.261520 0.935100
v 0.180480 -2.012680 -1.492500
v 0.846940 -1.826440 1.627800
v 1.031020 -7.016660 0.025822
v 0.871540 -4.515340 1.340460
v 0.871540 -4.515340 -1.055780
v 0.276060 -0.877260 -1.619180
v 0.276100 -0.877820 1.722340
v 1.217880 -6.804720 0.403462
v 1.217880 -6.804720 -0.422798
v -0.312660 -2.103900 -1.529600
v -0.696700 0.021340 -1.545680
v 0.411180 -6.312000 0.923900
v 0.411180 -6.312000 -0.510040
v -0.696700 0.020360 1.495900
v -0.312660 -2.104060 1.813780
v 0.525200 -7.022900 -0.016678
v 0.182060 -4.660980 1.390840
v -0.453280 -1.028000 1.772880
v 0.182060 -4.660980 -0.419640
v 0.571260 -6.963880 -0.170398
v -0.453280 -1.027440 -1.688380
v 0.571260 -6.963880 0.424842
v 0.350560 -1.981300 1.815220
v 1.054780 -6.194280 -0.510480
v -0.053180 0.138980 1.497480
v -0.053200 0.139700 -1.546300
v 1.054780 -6.194280 0.924320
v 0.350540 -1.981180 -1.530880
v 1.185120 -6.904000 -0.016678
v 0.734420 -4.558980 -0.420060
v 0.099280 -0.925560 -1.688860
v 1.124040 -6.862820 0.424940
v 1.124040 -6.862820 -0.170478
v 0.734420 -4.558980 1.391260
v 0.099300 -0.925960 1.773920
v 1.296200 -2.086080 -0.997600
v -0.753420 -2.544380 -0.993740
v -0.753420 -2.544380 1.310240
v 1.296200 -2.086080 1.306920
v 1.480400 -2.036940 -0.001080
v 0.091840 -2.420300 -1.060460
v -1.152440 -2.564880 0.003020
v 0.091840 -2.420300 1.879120
v -0.325600 -2.492540 -1.433780
v -0.325600 -2.492540 1.779000
v 0.552600 -2.318620 1.780200
v 0.552600 -2.318620 -1.436000
v -0.192480 -2.472600 1.838280
v -0.192480 -2.472600 -1.089800
v 0.373280 -2.367780 -1.090480
v 0.373280 -2.367780 1.838960
v 1.465200 -2.635440 -0.548160
v -0.426140 -3.075380 -1.248100
v -0.999800 -3.121060 0.640560
v 0.972220 -2.777180 1.529440
v 1.465200 -2.635440 0.636960
v 0.345480 -2.958380 -0.581740
v -0.999800 -3.121060 -0.544560
v 0.028220 -3.017120 1.747200
v -0.148160 -3.044960 -1.013320
v -0.426140 -3.075380 1.530240
v 0.514700 -2.922340 1.716660
v 0.972220 -2.777180 -1.250880
v -0.148160 -3.044960 1.715420
v 0.028220 -3.017120 -0.581500
v 0.514700 -2.922340 -1.014560
v 0.345480 -2.958380 1.747460
v 1.387100 -5.628180 0.688200
v 1.387100 -5.628180 -0.719880
v 0.005400 -5.901100 -0.718940
v 0.005400 -5.901100 0.688840
v 0.762560 0.103660 1.138120
v 0.762500 0.104680 -1.082000
v -0.973320 -0.306600 -1.078920
v -0.973320 -0.307960 1.139380
v 0.823340 0.412420 -0.038760
v 1.221740 -1.709600 -1.026840
v 1.478240 -6.113060 -0.080160
v 1.221740 -1.709800 1.300260
v -0.371360 0.081660 -1.568320
v -0.797180 -2.165920 -1.023060
v 0.746040 -6.306940 -0.201100
v -1.328800 -0.041920 -0.035860
v -0.797180 -2.166180 1.303260
v -0.218680 -6.388360 -0.079660
v -0.371360 0.081460 1.518660
v 0.746040 -6.306940 0.940100
v 1.400760 -1.660720 -0.006180
v 0.022140 -2.042000 -1.507200
v -1.187860 -2.184920 -0.002180
v 0.022140 -2.042020 1.861600
v 0.880540 -7.083420 0.025822
v -0.754280 0.011200 -1.492260
v 0.351480 -6.310000 0.887380
v 0.351480 -6.310000 -0.743420
v -0.754280 0.010060 1.459580
v -0.390100 -2.114280 -1.516300
v -0.390100 -2.114460 1.765960
v 0.464500 -7.006420 -0.053258
v 1.114820 -6.169060 -0.744020
v 0.075260 0.178220 1.461020
v 0.075220 0.179040 -1.493460
v 1.114820 -6.169060 0.887860
v 0.480700 -1.941320 -1.518400
v 0.480700 -1.941460 1.767240
v 1.234340 -6.868020 -0.053258
v -0.260620 -2.094280 -1.486680
v -0.646100 0.030740 -1.550300
v 0.463720 -6.313860 0.927200
v 0.463720 -6.313860 -0.269480
v -0.646100 0.029920 1.500500
v -0.260620 -2.094420 1.823520
v 0.581520 -7.038160 0.015182
v 0.301980 -1.990280 1.824280
v 1.009580 -6.213480 -0.269700
v -0.100220 0.130540 1.501640
v -0.100240 0.131140 -1.550600
v 1.009580 -6.213480 0.927400
v 0.301960 -1.990160 -1.487320
v 1.141100 -6.936180 0.015182
v 1.318200 -2.670440 -0.962660
v -0.633420 -3.100740 -0.959260
v -0.633420 -3.100740 1.216700
v 1.318200 -2.670440 1.213800
v 1.488980 -2.635860 -0.013060
v 0.187580 -2.989800 -0.595980
v -1.021840 -3.129980 -0.009460
v 0.187580 -2.989800 1.761700
v -0.225800 -3.053860 -1.302360
v -0.225800 -3.053860 1.667660
v 0.635100 -2.884760 1.668760
v 0.635100 -2.884760 -1.304340
v -0.095920 -3.036720 1.724840
v -0.095920 -3.036720 -0.675020
v 0.466360 -2.932640 -0.675640
v 0.466360 -2.932640 1.725460
v 1.155040 -7.511840 -0.622798
v 1.628440 -7.229780 -0.778698
v 0.383780 -7.531720 -0.707918
v 1.596300 -7.097220 -0.728098
v 0.351640 -7.399140 -0.657318
v 1.568700 -6.976380 -0.651918
v 0.324040 -7.278300 -0.581138
v 1.546700 -6.871920 -0.553058
v 0.302040 -7.173840 -0.482278
v 1.531160 -6.787860 -0.435318
v 0.286480 -7.089780 -0.364538
v 1.522640 -6.727420 -0.303258
v 0.277980 -7.029340 -0.232478
v 1.521500 -6.692940 -0.161919
v 0.276840 -6.994860 -0.091138
v 1.527780 -6.685720 -0.016738
v 0.283120 -6.987640 0.054042
v 1.541220 -6.706040 0.126702
v 0.296560 -7.007960 0.197482
v 1.561320 -6.753140 0.262882
v 0.316660 -7.055080 0.333662
v 1.587320 -6.825200 0.386580
v 0.342660 -7.127140 0.457362
v 1.618180 -6.919460 0.493022
v 0.373520 -7.221380 0.563802
v 1.652760 -7.032260 0.578141
v 0.408100 -7.334200 0.648922
v 1.689700 -7.159320 0.638661
v 0.445040 -7.461240 0.709442
v 1.727580 -7.295720 0.672262
v 1.764980 -7.436220 0.677622
v 1.663880 -7.368999 -0.801758
v 0.419220 -7.670920 -0.730978
v 1.205100 -7.454240 0.535422
v 1.175320 -7.347080 0.509022
v 1.146300 -7.247240 0.461482
v 1.119140 -7.158600 0.394582
v 1.094880 -7.084540 0.310942
v 1.074460 -7.027920 0.213742
v 1.058660 -6.990920 0.106742
v 1.048100 -6.974940 -0.005958
v 1.043160 -6.980620 -0.120038
v 1.044060 -7.007720 -0.231098
v 1.050740 -7.055200 -0.334878
v 1.062960 -7.121260 -0.427378
v 1.080240 -7.203340 -0.505058
v 1.101940 -7.298280 -0.564918
v 1.127180 -7.402440 -0.604678
v 1.013860 -7.504720 0.546202
v 0.984100 -7.397540 0.519802
v 0.955060 -7.297720 0.472242
v 0.927900 -7.209080 0.405362
v 0.903640 -7.135020 0.321722
v 0.883220 -7.078400 0.224522
v 0.867420 -7.041380 0.117522
v 0.856860 -7.025420 0.004822
v 0.851920 -7.031080 -0.109258
v 0.852820 -7.058180 -0.220318
v 0.859520 -7.105680 -0.324098
v 0.871740 -7.171721 -0.416598
v 0.889020 -7.253800 -0.494278
v 0.910700 -7.348740 -0.554138
v 0.935960 -7.452920 -0.593898
v 0.963800 -7.562300 -0.612018
v 1.181980 -7.496180 -0.774598
v 1.283080 -7.563400 0.704782
v 1.245680 -7.422900 0.699402
v 1.207800 -7.286500 0.665822
v 1.170860 -7.159440 0.605302
v 1.136280 -7.046640 0.520182
v 1.105420 -6.952380 0.413722
v 1.079420 -6.880320 0.290042
v 1.059320 -6.833220 0.153862
v 1.045880 -6.812900 0.010422
v 1.039600 -6.820120 -0.134758
v 1.040740 -6.854600 -0.276100
v 1.049240 -6.915040 -0.408178
v 1.064800 -6.999100 -0.525898
v 1.086800 -7.103560 -0.624758
v 1.114400 -7.224400 -0.700959
v 1.146520 -7.356960 -0.751538
v 0.976000 -7.494060 0.714602
v 0.938100 -7.357680 0.681022
v 0.901160 -7.230620 0.620502
v 0.866600 -7.117820 0.535382
v 0.835720 -7.023560 0.428922
v 0.809740 -6.951500 0.305222
v 0.789640 -6.904400 0.169042
v 0.776180 -6.884080 0.025622
v 0.769920 -6.891280 -0.119558
v 0.771040 -6.925780 -0.260898
v 0.779560 -6.986220 -0.392978
v 0.795120 -7.070280 -0.510698
v 0.817100 -7.174740 -0.609558
v 0.844700 -7.295580 -0.685758
v 0.876840 -7.428140 -0.736358
v 0.912280 -7.567360 -0.759398
v 1.703660 -7.518160 -0.794258
v 1.221760 -7.645340 -0.767098
v 0.612600 -5.522160 -0.867800
v 0.632960 -5.518500 -0.869840
v 0.632960 -5.518500 -0.969760
v 0.068540 -2.391760 -0.969760
v 0.593420 -5.525640 -0.965820
v 0.028980 -2.398900 -0.965820
v 0.555400 -5.532500 -0.954080
v -0.009040 -2.405760 -0.954080
v 0.520340 -5.538820 -0.935060
v -0.044080 -2.412080 -0.935060
v 0.489620 -5.544360 -0.909440
v -0.074800 -2.417640 -0.909440
v 0.464420 -5.548920 -0.878220
v -0.100020 -2.422180 -0.878220
v 0.445680 -5.552300 -0.842600
v -0.118740 -2.425560 -0.842600
v 0.434140 -5.554380 -0.803960
v -0.130280 -2.427660 -0.803960
v 0.430260 -5.555080 -0.763780
v -0.134180 -2.428360 -0.763780
v 0.434140 -5.554380 -0.723600
v -0.130280 -2.427660 -0.723600
v 0.445680 -5.552300 -0.684940
v -0.118740 -2.425560 -0.684940
v 0.464420 -5.548920 -0.649340
v -0.100020 -2.422180 -0.649340
v 0.489620 -5.544360 -0.618120
v -0.074800 -2.417640 -0.618120
v 0.520340 -5.538820 -0.592500
v -0.044080 -2.412080 -0.592500
v 0.555400 -5.532500 -0.573460
v -0.009040 -2.405760 -0.573460
v 0.593420 -5.525640 -0.561740
v 0.028980 -2.398900 -0.561740
v 0.632960 -5.518500 -0.557780
v 0.068540 -2.391760 -0.557780
v 0.672520 -5.511360 -0.561740
v 0.108080 -2.384620 -0.561740
v 0.710540 -5.504480 -0.573460
v 0.146120 -2.377760 -0.573460
v 0.745600 -5.498160 -0.592500
v 0.181160 -2.371420 -0.592500
v 0.776300 -5.492620 -0.618120
v 0.211880 -2.365880 -0.618120
v 0.801520 -5.488060 -0.649340
v 0.237080 -2.361340 -0.649340
v 0.820260 -5.484680 -0.684940
v 0.255820 -2.357960 -0.684940
v 0.831780 -5.482600 -0.723600
v 0.267360 -2.355860 -0.723600
v 0.835680 -5.481900 -0.763780
v 0.271260 -2.355160 -0.763780
v 0.831780 -5.482600 -0.803960
v 0.267360 -2.355860 -0.803960
v 0.820260 -5.484680 -0.842600
v 0.255820 -2.357960 -0.842600
v 0.801520 -5.488060 -0.878220
v 0.237080 -2.361340 -0.878220
v 0.776300 -5.492620 -0.909440
v 0.211880 -2.365880 -0.909440
v 0.745600 -5.498160 -0.935060
v 0.181160 -2.371420 -0.935060
v 0.710540 -5.504480 -0.954080
v 0.146120 -2.377760 -0.954080
v 0.672520 -5.511360 -0.965820
v 0.108080 -2.384620 -0.965820
v 0.593020 -5.525700 -0.861780
v 0.574980 -5.528960 -0.851980
v 0.559160 -5.531820 -0.838780
v 0.546180 -5.534160 -0.822700
v 0.536540 -5.535900 -0.804360
v 0.530600 -5.536980 -0.784480
v 0.528580 -5.537340 -0.763780
v 0.530600 -5.536980 -0.743080
v 0.536540 -5.535900 -0.723180
v 0.546180 -5.534160 -0.704860
v 0.559160 -5.531820 -0.688780
v 0.574980 -5.528960 -0.675580
v 0.593020 -5.525700 -0.665780
v 0.612600 -5.522160 -0.659740
v 0.632960 -5.518500 -0.657720
v 0.653340 -5.514820 -0.659740
v 0.672920 -5.511280 -0.665780
v 0.690960 -5.508020 -0.675580
v 0.706780 -5.505160 -0.688780
v 0.719760 -5.502820 -0.704860
v 0.729400 -5.501080 -0.723180
v 0.735340 -5.500020 -0.743080
v 0.737340 -5.499660 -0.763780
v 0.735340 -5.500020 -0.784480
v 0.729400 -5.501080 -0.804360
v 0.719760 -5.502820 -0.822700
v 0.706780 -5.505160 -0.838780
v 0.690960 -5.508020 -0.851980
v 0.672920 -5.511280 -0.861780
v 0.653340 -5.514820 -0.867800
v 1.298940 -8.703220 -0.899778
v 1.319300 -8.699560 -0.901798
v 1.279360 -8.706759 -0.893738
v 1.261300 -8.710020 -0.883938
v 1.245480 -8.712880 -0.870738
v 1.232500 -8.715220 -0.854678
v 1.222860 -8.716960 -0.836338
v 1.216920 -8.718019 -0.816438
v 1.214920 -8.718400 -0.795738
v 1.216920 -8.718019 -0.775038
v 1.222860 -8.716960 -0.755158
v 1.232500 -8.715220 -0.736818
v 1.245480 -8.712880 -0.720738
v 1.261300 -8.710020 -0.707538
v 1.279360 -8.706759 -0.697738
v 1.298940 -8.703220 -0.691718
v 1.319300 -8.699560 -0.689678
v 1.339660 -8.695880 -0.691718
v 1.359240 -8.692340 -0.697738
v 1.377280 -8.689080 -0.707538
v 1.393100 -8.686220 -0.720738
v 1.406080 -8.683880 -0.736818
v 1.415740 -8.682140 -0.755158
v 1.421680 -8.681060 -0.775038
v 1.423680 -8.680700 -0.795738
v 1.421680 -8.681060 -0.816438
v 1.415740 -8.682140 -0.836338
v 1.406080 -8.683880 -0.854678
v 1.393100 -8.686220 -0.870738
v 1.377280 -8.689080 -0.883938
v 1.359240 -8.692340 -0.893738
v 1.339660 -8.695880 -0.899778
v -1.608720 0.400500 -2.307420
v -2.069380 0.638360 -1.983460
v 0.566700 0.036020 -1.737940
v 0.149600 -0.255580 -1.902240
v -1.723920 0.079660 -1.548360
v -1.717220 -0.160640 -0.013200
v 0.140160 0.452880 -2.422020
v -0.554400 -0.312800 -2.200960
v 0.103880 -0.214760 -2.129280
v -1.275780 -0.211920 -1.898260
v -0.733140 0.302260 -2.553100
v 0.509900 0.026120 -1.836480
v -1.078040 -0.328060 -1.576320
v -1.601120 -0.139040 -0.926660
v -0.444620 -0.375140 -1.892560
v -1.666620 -0.043260 0.705240
v -2.027360 0.231540 -0.815900
v -1.909700 0.057020 0.114640
v -1.949460 0.081300 -0.502440
v -1.896480 0.010100 0.098520
v -2.041660 0.388700 -1.350340
v -1.922060 0.039740 -0.556620
v -1.825400 0.116420 0.740480
v -1.532300 0.469980 -2.202080
v 0.444080 0.091600 -1.677660
v 0.083560 -0.129440 -1.863700
v -1.629620 0.187540 -1.513280
v -1.634280 -0.038680 -0.015800
v 0.065260 0.481500 -2.298200
v -0.548080 -0.194980 -2.112400
v 0.041140 -0.113860 -2.041860
v -1.210420 -0.093320 -1.839760
v -0.724420 0.358480 -2.417000
v 0.399620 0.096300 -1.768140
v -1.022740 -0.193120 -1.554200
v -1.510340 -0.024680 -0.905760
v -0.445140 -0.231040 -1.861060
v -1.591820 0.072960 0.653680
v -1.787660 0.105260 0.086720
v -1.818160 0.142580 -0.545000
v 1.655140 -7.284040 -0.558818
v 1.633460 -7.194620 -0.524678
v 1.614840 -7.113100 -0.473278
v 1.600000 -7.042620 -0.406598
v 1.589520 -6.985900 -0.327158
v 1.583780 -6.945140 -0.238058
v 1.583000 -6.921860 -0.142718
v 1.587240 -6.917000 -0.044778
v 1.596320 -6.930720 0.052002
v 1.609880 -6.962500 0.143862
v 1.627400 -7.011100 0.227322
v 1.648240 -7.074680 0.299142
v 1.671560 -7.150800 0.356562
v 1.696480 -7.236500 0.397382
v 1.722040 -7.328520 0.420042
v 1.747260 -7.423320 0.423682
v 1.729840 -7.564780 -0.548098
v 1.679060 -7.377960 -0.574379
v 1.705900 -7.478600 -0.569318
v 0.415080 -7.595320 -0.450178
v 0.395200 -7.513300 -0.418878
v 0.378120 -7.438560 -0.371738
v 0.364520 -7.373940 -0.310598
v 0.354900 -7.321940 -0.237758
v 0.349640 -7.284540 -0.156058
v 0.348940 -7.263200 -0.068618
v 0.352820 -7.258740 0.021182
v 0.361140 -7.271320 0.109922
v 0.373560 -7.300460 0.194162
v 0.389640 -7.345040 0.270682
v 0.408740 -7.403340 0.336542
v 0.430120 -7.473120 0.389182
v 0.452980 -7.551720 0.426622
v 0.556100 -7.559980 -0.436158
v 0.536220 -7.477960 -0.404858
v 0.519160 -7.403220 -0.357718
v 0.505540 -7.338600 -0.296558
v 0.495920 -7.286600 -0.223738
v 0.490660 -7.249220 -0.142038
v 0.489960 -7.227880 -0.054598
v 0.493840 -7.223400 0.035202
v 0.502160 -7.235980 0.123942
v 0.514600 -7.265120 0.208182
v 0.530680 -7.309700 0.284702
v 0.549780 -7.368000 0.350562
v 0.571160 -7.437800 0.403222
v 1.518700 -7.320060 -0.551138
v 1.497020 -7.230620 -0.516998
v 1.478400 -7.149100 -0.465598
v 1.463560 -7.078640 -0.398898
v 1.453060 -7.021920 -0.319478
v 1.447320 -6.981140 -0.230378
v 1.446560 -6.957880 -0.135018
v 1.450800 -6.953000 -0.037078
v 1.459860 -6.966720 0.059682
v 1.473420 -6.998500 0.151562
v 1.490960 -7.047120 0.235002
v 1.511780 -7.110700 0.306822
v 1.535100 -7.186800 0.364242
v 1.560020 -7.272520 0.405082
v 1.585600 -7.364540 0.427742
v 1.610820 -7.459320 0.431362
v 1.593400 -7.600780 -0.540398
v 1.542600 -7.413980 -0.566678
v 1.569440 -7.514600 -0.561618
v 1.525160 -7.333179 -0.497938
v 1.506000 -7.254180 -0.467798
v 1.489560 -7.182180 -0.422378
v 1.476460 -7.119920 -0.363478
v 1.467180 -7.069820 -0.293318
v 1.462120 -7.033820 -0.214618
v 1.461440 -7.013260 -0.130378
v 1.465180 -7.008960 -0.043858
v 1.473180 -7.021080 0.041622
v 1.485160 -7.049140 0.122762
v 1.500660 -7.092080 0.196482
v 1.519060 -7.148240 0.259922
v 1.539660 -7.215480 0.310642
v 1.561660 -7.291180 0.346722
v 1.584240 -7.372480 0.366722
v 1.606520 -7.456200 0.369922
v 1.627640 -7.539160 0.356182
v 1.591140 -7.581160 -0.488458
v 1.546280 -7.416140 -0.511678
v 1.570000 -7.505040 -0.507218
v 1.623480 -7.307240 -0.503478
v 1.604340 -7.228220 -0.473338
v 1.587900 -7.156220 -0.427918
v 1.574780 -7.093980 -0.369018
v 1.565520 -7.043880 -0.298858
v 1.560440 -7.007860 -0.220158
v 1.559760 -6.987300 -0.135918
v 1.563500 -6.983000 -0.049398
v 1.571520 -6.995120 0.036082
v 1.583500 -7.023180 0.117222
v 1.598980 -7.066140 0.190942
v 1.617380 -7.122300 0.254382
v 1.637980 -7.189520 0.305102
v 1.660000 -7.265240 0.341182
v 1.682580 -7.346520 0.361182
v 1.704860 -7.430260 0.364382
v 1.725980 -7.513220 0.350642
v 1.745120 -7.592220 0.320502
v 1.761580 -7.664220 0.275102
v 1.774680 -7.726480 0.216182
v 1.783960 -7.776580 0.146022
v 1.789020 -7.812580 0.067322
v 1.789700 -7.833140 -0.016918
v 1.785960 -7.837440 -0.103438
v 1.777940 -7.825320 -0.188898
v 1.765960 -7.797260 -0.270058
v 1.750480 -7.754320 -0.343778
v 1.732080 -7.698160 -0.407218
v 1.711480 -7.630920 -0.457938
v 1.689460 -7.555220 -0.493998
v 1.644600 -7.390200 -0.517218
v 1.668320 -7.479080 -0.512758
v 0.561080 -7.570060 -0.395278
v 0.543140 -7.496080 -0.367038
v 0.527740 -7.428620 -0.324518
v 0.515460 -7.370320 -0.269338
v 0.506780 -7.323420 -0.203638
v 0.502020 -7.289680 -0.129918
v 0.501380 -7.270420 -0.051018
v 0.504900 -7.266400 0.030002
v 0.512400 -7.277740 0.110062
v 0.523620 -7.304040 0.186062
v 0.538120 -7.344260 0.255102
v 0.555360 -7.396860 0.314522
v 0.574640 -7.459820 0.362022
v 0.451740 -7.520200 -0.361898
v 0.436340 -7.452740 -0.319358
v 0.424060 -7.394460 -0.264198
v 0.415380 -7.347540 -0.198478
v 0.410640 -7.313800 -0.124758
v 0.410000 -7.294540 -0.045878
v 0.413500 -7.290520 0.035142
v 0.421000 -7.301860 0.115202
v 0.432220 -7.328160 0.191222
v 0.446740 -7.368380 0.260262
v 0.463960 -7.420979 0.319662
v 0.483260 -7.483940 0.367182
vn -0.7344 0.1570 -0.6603
vn -0.6683 0.0352 -0.7431
vn -0.7007 0.0190 -0.7132
vn -0.6819 -0.0528 -0.7295
vn 0.4190 0.6118 -0.6710
vn -0.7721 0.1314 -0.6217
vn -0.7968 0.2532 -0.5486
vn -0.7869 0.3911 -0.4774
vn -0.7334 0.3093 -0.6054
vn -0.7635 0.2827 -0.5807
vn -0.8038 0.4779 -0.3544
vn -0.7576 0.4218 -0.4981
vn -0.8133 0.5400 -0.2167
vn -0.7750 0.5120 -0.3704
vn -0.8152 0.5750 -0.0696
vn -0.7848 0.5765 -0.2274
vn -0.8095 0.5814 0.0812
vn -0.7867 0.6128 -0.0746
vn -0.7964 0.5594 0.2299
vn -0.7807 0.6196 0.0819
vn -0.7764 0.5097 0.3708
vn -0.7669 0.5967 0.2363
vn -0.7502 0.4343 0.4986
vn -0.7460 0.5450 0.3827
vn -0.7189 0.3363 0.6083
vn -0.7187 0.4668 0.5154
vn -0.6838 0.2191 0.6960
vn -0.6862 0.3649 0.6293
vn -0.6460 0.0876 0.7583
vn -0.6495 0.2434 0.7203
vn -0.6277 0.0173 0.7783
vn -0.6104 0.1068 0.7849
vn 0.4747 0.4806 -0.7373
vn 0.4754 0.3364 -0.8129
vn 0.4446 0.4810 -0.7556
vn 0.5259 0.2676 -0.8074
vn 0.4990 0.2636 -0.8255
vn -0.7032 0.1787 -0.6882
vn 0.4237 0.7181 -0.5521
vn 0.3993 0.7240 -0.5624
vn 0.4082 0.8065 -0.4277
vn 0.3862 0.8138 -0.4343
vn 0.4005 0.8697 -0.2884
vn 0.3802 0.8777 -0.2917
vn 0.4006 0.9055 -0.1396
vn 0.3814 0.9138 -0.1397
vn 0.4084 0.9127 0.0129
vn 0.3897 0.9208 0.0158
vn 0.4239 0.8909 0.1633
vn 0.4048 0.8987 0.1691
vn 0.4462 0.8410 0.3059
vn 0.4260 0.8482 0.3148
vn 0.4745 0.7652 0.4351
vn 0.4527 0.7713 0.4475
vn 0.5078 0.6663 0.5460
vn 0.4839 0.6706 0.5623
vn 0.5447 0.5482 0.6346
vn 0.5184 0.5498 0.6549
vn 0.5839 0.4153 0.6975
vn 0.7299 0.4389 0.5239
vn 0.6050 0.3448 0.7177
vn 0.9328 0.3061 0.1903
vn 0.5777 0.3442 -0.7401
vn -0.4291 -0.0499 -0.9019
vn 0.4461 0.6080 -0.6567
vn 0.4975 0.6952 -0.5188
vn 0.4823 0.7776 -0.4034
vn 0.4728 0.8707 -0.1352
vn 0.4921 0.8579 0.1478
vn 0.5119 0.8117 0.2814
vn 0.5676 0.6486 0.5071
vn 0.6378 0.4133 0.6499
vn 0.6749 0.2796 0.6829
vn -0.3538 0.0443 0.9343
vn 0.0431 0.0497 0.9978
vn -0.6789 0.1455 0.7197
vn -0.7140 0.1973 0.6717
vn -0.7459 0.3114 0.5888
vn -0.7746 0.4072 0.4840
vn -0.7991 0.4807 0.3611
vn -0.8182 0.5290 0.2252
vn -0.8313 0.5497 0.0817
vn -0.8379 0.5422 -0.0635
vn -0.8374 0.5068 -0.2046
vn -0.8303 0.4449 -0.3358
vn -0.8165 0.3592 -0.4520
vn -0.0866 0.1413 -0.9862
vn -0.5107 0.1072 -0.8531
vn 0.6122 0.2033 -0.7641
vn 0.4728 0.2526 0.8442
vn 0.6263 0.1284 -0.7689
vn 0.8388 -0.2066 0.5037
vn 0.5462 0.4742 -0.6905
vn 0.5191 0.5927 -0.6158
vn 0.5083 0.3407 -0.7909
vn 0.7614 -0.1551 -0.6294
vn 0.7933 -0.2590 -0.5510
vn 0.4739 0.8369 -0.2738
vn 0.8824 -0.4677 0.0523
vn 0.8812 -0.4360 0.1825
vn 0.7515 0.1593 0.6403
vn 0.5374 0.7410 0.4027
vn 0.8217 -0.3459 -0.4529
vn 0.8735 -0.3803 0.3040
vn -0.6208 -0.5594 0.5493
vn 0.8456 -0.4123 -0.3389
vn 0.8591 -0.3029 0.4125
vn 0.6747 0.1518 -0.7223
vn 0.6925 0.0874 -0.7161
vn 0.8642 -0.4556 -0.2136
vn 0.7274 -0.0381 -0.6852
vn 0.4790 0.8778 0.0071
vn 0.8765 -0.4744 -0.0815
vn 0.6015 0.5380 0.5906
vn 0.8134 -0.0954 0.5738
vn 0.7838 0.0268 0.6204
vn -0.5406 -0.7989 -0.2636
vn -0.5950 -0.6520 0.4699
vn -0.5339 -0.8354 -0.1308
vn -0.7774 -0.4528 0.4366
vn -0.5707 -0.5810 0.5803
vn -0.9654 -0.2548 0.0544
vn -0.5343 -0.8453 0.0045
vn -0.8207 -0.4270 0.3797
vn -0.8043 -0.4948 -0.3291
vn -0.5413 -0.8297 0.1367
vn -0.5748 -0.6493 -0.4980
vn -0.5543 -0.7904 0.2609
vn -0.5543 -0.7364 -0.3879
vn -0.5725 -0.7302 0.3730
vn -0.5427 -0.6806 0.4922
vn -0.8735 0.3802 -0.3041
vn -0.5188 -0.7632 0.3852
vn -0.4802 -0.8771 -0.0139
vn -0.4809 -0.8625 -0.1574
vn 0.7095 0.1456 0.6895
vn 0.4218 0.2431 0.8735
vn -0.4999 -0.8253 0.2624
vn -0.4891 -0.8202 -0.2967
vn -0.5045 -0.7512 -0.4256
vn 0.7778 -0.1249 0.6160
vn -0.4868 -0.8641 0.1279
vn -0.5265 -0.6576 -0.5388
vn -0.5520 -0.6033 -0.5756
vn 0.8418 -0.4281 0.3288
vn 0.8266 -0.3456 0.4442
vn 0.8318 -0.5085 -0.2224
vn 0.5704 0.5785 -0.5830
vn 0.5959 0.4673 -0.6531
vn 0.6863 -0.0639 -0.7245
vn 0.7463 0.0052 0.6656
vn 0.8501 -0.4874 0.1992
vn 0.7565 -0.2991 -0.5816
vn 0.7867 -0.3915 -0.4773
vn 0.8049 -0.2433 0.5412
vn 0.8450 -0.5285 -0.0817
vn 0.4441 -0.0107 -0.8959
vn 0.7226 -0.1885 -0.6651
vn 0.8121 -0.4622 -0.3560
vn -0.0077 0.2371 0.9715
vn 0.6490 0.0699 -0.7576
vn 0.8513 -0.5212 0.0605
vn 0.5452 0.8275 0.1342
vn 0.5327 0.8463 0.0021
vn 0.6120 0.2033 -0.7643
vn 0.6514 0.0663 -0.7558
vn 0.6819 0.4100 0.6057
vn 0.6477 0.5271 0.5501
vn 0.6604 0.2134 -0.7199
vn 0.5278 0.8080 -0.2619
vn 0.5359 0.7522 -0.3835
vn 0.5875 0.7179 0.3735
vn 0.5636 0.7842 0.2595
vn 0.5159 0.0804 0.8529
vn 0.7168 0.2844 0.6366
vn 0.5464 0.4742 -0.6904
vn 0.5269 0.8397 -0.1317
vn 0.6159 0.6310 0.4717
vn 0.5501 0.6748 -0.4920
vn 0.6254 0.3452 -0.6998
vn 0.6749 0.2795 0.6829
vn 0.9655 0.2548 -0.0544
vn 0.6377 0.4133 0.6500
vn 0.5775 0.3441 -0.7403
vn 0.4737 0.8370 -0.2739
vn 0.5122 0.8115 0.2813
vn 0.8552 0.1128 -0.5059
vn 0.0079 -0.2372 -0.9714
vn -0.8389 0.2065 -0.5035
vn 0.4727 0.8708 -0.1352
vn 0.5677 0.6486 0.5070
vn 0.4970 0.6953 -0.5191
vn 0.4922 0.8578 0.1478
vn 0.5373 0.7410 0.4027
vn 0.0924 -0.1398 0.9859
vn 0.7116 0.1417 0.6882
vn 0.5191 0.5928 -0.6157
vn 0.4788 0.8779 0.0072
vn -0.8456 0.4123 0.3391
vn -0.9496 -0.0197 -0.3127
vn -0.1964 0.5743 -0.7948
vn -0.9655 -0.2548 0.0542
vn -0.8823 0.4678 -0.0522
vn -0.7933 0.2591 0.5510
vn -0.8592 0.3027 -0.4125
vn -0.8642 0.4556 0.2136
vn -0.8813 0.4359 -0.1825
vn -0.8216 0.3460 0.4531
vn -0.8765 0.4744 0.0815
vn -0.7821 0.2046 0.5886
vn -0.2062 0.8751 0.4379
vn -0.1712 0.7780 0.6045
vn -0.2515 0.9659 0.0611
vn -0.1297 0.6510 0.7479
vn -0.1069 0.5779 0.8091
vn -0.2470 0.8283 -0.5029
vn -0.2334 0.9385 0.2543
vn -0.2585 0.9097 -0.3250
vn -0.2600 0.9562 -0.1346
vn -0.2261 0.7150 -0.6615
vn 0.9845 -0.0037 -0.1751
vn 0.9999 0.0119 -0.0039
vn 1.0000 -0.0032 -0.0026
vn 0.8230 -0.0070 -0.5681
vn 0.9812 0.0106 -0.1927
vn 0.8451 -0.0502 -0.5323
vn 0.8287 -0.0289 -0.5590
vn 0.9591 -0.1124 -0.2599
vn -0.3689 -0.2056 -0.9065
vn 0.5149 -0.0876 -0.8528
vn 0.6547 -0.0090 -0.7559
vn -0.7559 -0.2016 -0.6228
vn -0.5561 -0.2197 -0.8015
vn -0.6615 -0.2049 -0.7215
vn -0.7104 -0.2234 -0.6674
vn -0.1423 -0.3142 -0.9387
vn -0.9056 -0.2630 0.3327
vn -0.9743 -0.2254 -0.0037
vn -0.9710 -0.2389 -0.0023
vn -0.7805 -0.2798 0.5590
vn -0.9233 -0.2457 0.2951
vn -0.7464 -0.2575 0.6137
vn -0.8230 -0.4417 0.3572
vn 0.6241 -0.1157 0.7727
vn 0.4079 -0.1236 0.9046
vn 0.4880 -0.1348 0.8624
vn 0.8804 -0.0608 0.4704
vn 0.5575 -0.1082 0.8231
vn 0.9018 -0.0727 0.4260
vn 0.7601 -0.2176 0.6123
vn 0.4803 -0.6807 -0.5531
vn -0.4996 -0.8660 -0.0203
vn -0.3062 -0.7705 -0.5590
vn 0.7160 -0.1308 -0.6857
vn -0.7991 -0.4213 -0.4289
vn -0.8702 -0.4926 -0.0021
vn 0.9899 0.0017 0.1418
vn 0.9906 -0.0133 0.1365
vn 0.9738 -0.1127 0.1977
vn 0.9517 0.2486 0.1800
vn 0.7934 0.3158 0.5203
vn 0.7966 0.2660 0.5429
vn 0.9782 0.2076 -0.0050
vn 0.9688 0.2475 -0.0121
vn 0.9684 0.2026 0.1452
vn 0.9529 0.2517 -0.1692
vn 0.9471 0.3203 -0.0200
vn 0.7994 0.2506 -0.5460
vn 0.9400 0.3051 -0.1527
vn 0.8117 0.1194 -0.5717
vn 0.8058 0.2009 -0.5571
vn 0.9624 0.1907 -0.1934
vn -0.1757 -0.4101 -0.8950
vn -0.8382 -0.2052 -0.5052
vn -0.2665 -0.1584 -0.9507
vn 0.0740 -0.4014 -0.9129
vn -0.2130 -0.1342 -0.9678
vn 0.0205 -0.1128 -0.9934
vn -0.7904 -0.2098 -0.5755
vn 0.0439 0.1410 -0.9890
vn 0.1333 0.0065 -0.9911
vn 0.1094 -0.0085 -0.9940
vn -0.0245 0.1317 -0.9910
vn 0.0896 -0.4868 -0.8689
vn 0.0045 -0.0263 -0.9996
vn 0.1388 -0.4749 -0.8690
vn -0.8025 -0.1136 -0.5858
vn -0.7104 -0.0383 -0.7028
vn -0.6920 -0.1205 -0.7117
vn -0.8646 0.0068 -0.5024
vn -0.8991 -0.0018 -0.4376
vn -0.7263 -0.1735 -0.6651
vn -0.8401 -0.0957 -0.5340
vn -0.3997 -0.2006 -0.8944
vn -0.8869 -0.2396 -0.3951
vn -0.9038 -0.2175 -0.3685
vn -0.9416 -0.0841 -0.3261
vn -0.9989 -0.0472 -0.0029
vn -0.8677 0.0787 -0.4909
vn -0.9279 -0.1070 -0.3571
vn -0.9977 -0.0680 -0.0038
vn -0.7967 -0.1339 -0.5894
vn -0.9628 -0.0482 0.2658
vn -0.9583 -0.0558 0.2802
vn -0.8744 -0.0266 0.4845
vn -0.9550 -0.0897 0.2827
vn -0.8678 -0.0298 0.4960
vn -0.9958 -0.0914 -0.0051
vn -0.0960 -0.2157 0.9717
vn -0.0997 -0.2512 0.9628
vn -0.0640 -0.2483 0.9666
vn 0.0356 -0.1970 0.9798
vn -0.0360 -0.4565 0.8890
vn 0.0427 -0.2329 0.9716
vn -0.0728 -0.4587 0.8856
vn -0.1120 0.2316 0.9663
vn -0.1643 0.1189 0.9792
vn -0.1317 0.1292 0.9828
vn -0.0473 0.2471 0.9678
vn -0.1428 0.0214 0.9895
vn -0.0292 0.1508 0.9881
vn -0.1848 0.0098 0.9827
vn 0.4417 0.2085 0.8726
vn 0.2000 0.2626 0.9439
vn 0.2744 0.1884 0.9430
vn 0.4066 0.2744 0.8714
vn 0.8244 0.1768 0.5377
vn 0.4835 0.1213 0.8669
vn -0.3365 -0.8242 0.4555
vn -0.6053 -0.4144 0.6796
vn -0.5061 -0.7829 0.3620
vn -0.2140 -0.9749 -0.0610
vn 0.4636 -0.7287 0.5040
vn 0.1975 -0.4159 0.8877
vn 0.3925 -0.7606 0.5171
vn 0.5573 -0.8257 -0.0871
vn 0.1532 -0.8347 0.5289
vn 0.4812 -0.8664 -0.1331
vn 0.0815 -0.4420 0.8933
vn 0.2056 -0.5693 -0.7960
vn -0.2345 -0.7491 -0.6196
vn 0.0156 -0.0854 -0.9962
vn 0.1043 -0.5682 -0.8163
vn 0.9726 0.1367 -0.1879
vn 0.8391 -0.1137 -0.5319
vn 0.8545 0.0785 -0.5135
vn 0.9740 0.0921 -0.2071
vn 0.9675 0.0967 -0.2338
vn 0.4619 -0.6321 -0.6222
vn -0.1835 -0.9785 -0.0943
vn 0.7213 -0.5855 -0.3701
vn 0.8087 0.0592 -0.5853
vn -0.4138 -0.0811 -0.9068
vn -0.1108 0.1075 -0.9880
vn -0.1264 -0.0418 -0.9911
vn -0.4240 0.0382 -0.9048
vn 0.3028 -0.1863 -0.9347
vn -0.6873 -0.2901 0.6659
vn -0.8047 -0.2615 0.5330
vn -0.5365 -0.2866 0.7937
vn -0.6733 -0.2665 0.6896
vn -0.5038 -0.4548 0.7343
vn -0.7506 -0.0117 0.6607
vn -0.5796 0.0995 0.8088
vn -0.7519 0.0391 0.6582
vn -0.7116 -0.0801 0.6980
vn -0.5782 0.0205 0.8156
vn -0.8459 -0.0883 0.5259
vn -0.2434 -0.8268 0.5072
vn -0.2719 -0.4581 0.8463
vn -0.2236 -0.9706 -0.0887
vn -0.1714 -0.8453 0.5060
vn -0.7784 0.2632 -0.5699
vn 0.3330 -0.1698 0.9275
vn 0.2098 -0.1609 0.9644
vn 0.1841 -0.2033 0.9616
vn 0.3067 -0.1410 0.9413
vn 0.5981 -0.2783 0.7516
vn 0.4041 -0.3441 0.8475
vn 0.4483 -0.0760 -0.8907
vn 0.3458 -0.1090 -0.9320
vn -0.4231 -0.2547 -0.8695
vn 0.3817 -0.2710 -0.8836
vn -0.5710 -0.2174 -0.7916
vn 0.5287 0.1194 -0.8403
vn 0.3472 0.1656 -0.9231
vn 0.4971 0.1738 -0.8501
vn 0.5361 0.0318 -0.8435
vn 0.4162 0.0950 -0.9043
vn 0.1905 0.1758 0.9658
vn 0.0403 0.2554 0.9660
vn 0.1095 0.1696 0.9794
vn 0.1192 0.2634 0.9573
vn 0.3229 0.0977 0.9414
vn 0.2444 0.0862 0.9658
vn 0.8060 -0.4933 0.3273
vn 0.9949 -0.1008 -0.0020
vn 0.5472 -0.8346 -0.0627
vn 0.8333 -0.5524 -0.0206
vn 0.6079 -0.6558 0.4477
vn 0.6294 -0.5549 -0.5440
vn -0.6070 -0.3564 -0.7103
vn -0.2211 -0.8019 -0.5551
vn -0.3114 -0.2730 0.9102
vn -0.5060 -0.2561 0.8236
vn -0.1394 -0.2196 0.9656
vn -0.3178 -0.2403 0.9172
vn -0.3559 0.1687 0.9192
vn -0.3628 0.0715 0.9291
vn -0.1309 0.2236 0.9659
vn -0.3574 -0.0247 0.9336
vn -0.5391 -0.0588 0.8402
vn 0.3011 -0.0627 -0.9515
vn 0.3043 -0.3281 -0.8943
vn 0.2427 -0.0566 -0.9684
vn -0.1404 -0.9811 -0.1331
vn 0.0104 -0.6056 -0.7957
vn -0.0993 -0.0472 -0.9939
vn -0.0912 0.1158 -0.9891
vn 0.0388 -0.4934 -0.8689
vn -0.0955 -0.8498 0.5184
vn -0.9339 -0.2407 -0.2644
vn -0.9566 -0.1905 -0.2205
vn -0.7578 -0.3836 -0.5278
vn -0.9449 -0.2264 -0.2364
vn 0.2073 0.1591 -0.9653
vn 0.2705 0.0518 -0.9613
vn 0.0655 0.1405 -0.9879
vn -0.2663 -0.3068 -0.9138
vn 0.2822 -0.0908 -0.9550
vn 0.5244 -0.6862 0.5041
vn 0.5172 -0.8503 -0.0972
vn 0.2335 -0.4053 0.8838
vn -0.4905 -0.7935 -0.3603
vn 0.1491 -0.2123 0.9658
vn 0.1674 -0.1716 0.9708
vn 0.0748 0.1674 0.9830
vn 0.0192 0.2559 0.9665
vn 0.1689 0.0751 0.9828
vn 0.1249 0.0707 0.9896
vn 0.9750 0.1033 -0.1966
vn 0.9938 0.1110 -0.0043
vn 0.8203 0.0587 -0.5689
vn 0.2411 -0.1903 -0.9517
vn -0.6626 -0.1796 -0.7271
vn -0.7751 -0.1677 -0.6092
vn -0.9872 -0.1596 -0.0043
vn -0.9416 -0.1677 0.2920
vn -0.8269 -0.1791 0.5330
vn 0.5178 0.0055 0.8555
vn 0.3624 -0.0160 0.9319
vn 0.8426 0.0661 0.5345
vn 0.8607 -0.0493 0.5068
vn 0.9834 0.1039 0.1485
vn -0.5909 -0.5922 -0.5478
vn 0.0188 -0.6836 -0.7296
vn 0.1271 -0.6867 -0.7157
vn -0.9195 -0.1596 -0.3593
vn -0.1742 -0.1088 0.9787
vn -0.1277 -0.1005 0.9867
vn -0.0097 0.0482 0.9988
vn 0.0136 -0.0754 0.9971
vn 0.9313 -0.0404 -0.3620
vn 0.4190 -0.3447 -0.8400
vn 0.7509 -0.3618 -0.5525
vn -0.6835 -0.1737 0.7090
vn -0.5156 -0.1580 0.8421
vn 0.2803 -0.0317 0.9594
vn 0.2020 -0.0425 0.9785
vn 0.5127 -0.0248 -0.8582
vn -0.1265 -0.2922 -0.9480
vn -0.3359 -0.1346 0.9322
vn 0.2221 -0.6480 -0.7285
vn -0.8072 -0.3796 -0.4520
vn -0.2896 -0.4729 -0.8322
vn 0.1556 -0.0501 0.9865
vn 0.3133 -0.8680 0.3853
vn 0.6224 -0.7305 -0.2809
vn 0.3826 -0.8039 0.4555
vn -0.6378 -0.7348 -0.2310
vn 0.0538 -0.9298 0.3640
vn -0.0313 -0.9943 0.1023
vn -0.5211 -0.6696 -0.5292
vn -0.4628 -0.8069 -0.3669
vn 0.1719 -0.8916 0.4188
vn 0.2991 -0.7834 -0.5449
vn -0.0985 -0.5450 -0.8326
vn -0.0567 -0.7922 -0.6076
vn 0.1840 -0.4231 -0.8872
vn -0.6684 -0.7384 -0.0894
vn -0.7412 -0.6485 -0.1734
vn -0.7915 -0.6047 0.0885
vn -0.8362 -0.5484 0.0088
vn 0.0836 -0.9935 0.0779
vn -0.0065 -0.9835 0.1808
vn -0.6128 0.7222 0.3207
vn -0.3836 0.3797 0.8418
vn -0.2005 -0.2634 0.9436
vn 0.6663 0.4214 0.6152
vn 0.5334 0.8376 0.1179
vn 0.8966 -0.1610 0.4126
vn -0.2897 0.8111 0.5082
vn 0.1565 0.5917 0.7908
vn 0.1126 0.5364 0.8364
vn 0.3993 0.8472 0.3505
vn 0.0545 0.8013 0.5958
vn -0.1817 0.4102 0.8937
vn 0.5782 0.8122 0.0773
vn 0.9947 -0.0764 0.0691
vn 0.8439 -0.5358 0.0290
vn -0.0033 -0.7412 -0.6712
vn -0.3738 -0.0714 -0.9247
vn -0.1280 -0.7662 -0.6297
vn -0.1523 -0.7243 0.6724
vn -0.0006 -0.7476 0.6642
vn -0.0179 -0.7001 0.7138
vn 0.1218 -0.6749 -0.7278
vn -0.2615 0.6494 -0.7141
vn -0.1218 0.6749 -0.7278
vn 0.1273 -0.7152 -0.6872
vn -0.1901 -0.0312 -0.9813
vn -0.0180 -0.7000 -0.7139
vn -0.1523 -0.7244 -0.6723
vn 0.3876 -0.6641 -0.6393
vn 0.1906 0.0510 -0.9803
vn 0.2596 -0.6890 -0.6766
vn 0.1218 -0.6748 0.7279
vn 0.2593 -0.6960 0.6696
vn 0.2617 -0.6496 0.7138
vn -0.2762 -0.7466 -0.6053
vn -0.3960 0.6255 -0.6722
vn 0.5064 -0.6408 -0.5770
vn 0.3742 0.0900 -0.9230
vn 0.3960 -0.6252 0.6726
vn -0.6283 0.5833 -0.5147
vn -0.5195 0.6039 -0.6045
vn 0.6109 -0.6206 -0.4916
vn 0.5430 0.1255 -0.8303
vn 0.3862 -0.6706 0.6334
vn 0.5198 -0.6029 0.6052
vn -0.4737 -0.7824 -0.4043
vn -0.3848 -0.7661 -0.5147
vn 0.6967 -0.6041 -0.3868
vn 0.6907 0.1561 -0.7061
vn 0.5038 -0.6470 0.5723
vn 0.6284 -0.5834 0.5145
vn -0.5400 -0.7942 -0.2786
vn -0.7171 0.5679 -0.4041
vn 0.7605 -0.5921 -0.2667
vn 0.8119 0.1808 -0.5550
vn 0.6078 -0.6261 0.4885
vn 0.7173 -0.5673 0.4045
vn -0.8250 0.5469 -0.1422
vn -0.7834 0.5557 -0.2784
vn 0.7996 -0.5849 -0.1359
vn 0.9024 0.1985 -0.3825
vn 0.7581 -0.5952 0.2664
vn 0.7837 -0.5553 0.2785
vn -0.5944 -0.8041 -0.0000
vn -0.5809 -0.8015 -0.1419
vn 0.9775 0.2109 -0.0006
vn 0.8125 -0.5830 0.0004
vn 0.8244 -0.5480 0.1419
vn -0.8250 0.5469 0.1421
vn -0.8382 0.5454 -0.0000
vn 0.9593 0.2050 0.1940
vn 0.7984 -0.5865 0.1363
vn 0.8382 -0.5454 -0.0000
vn -0.5399 -0.7944 0.2782
vn -0.5809 -0.8015 0.1418
vn 0.9043 0.1913 0.3817
vn 0.8244 -0.5480 -0.1420
vn -0.7170 0.5679 0.4042
vn -0.7834 0.5557 0.2784
vn 0.8148 0.1702 0.5541
vn 0.6938 -0.6084 0.3854
vn 0.7837 -0.5554 -0.2780
vn -0.4740 -0.7821 0.4045
vn -0.6283 0.5833 0.5147
vn 0.6942 0.1427 0.7055
vn 0.7174 -0.5672 -0.4045
vn -0.2762 -0.7466 0.6052
vn -0.3848 -0.7661 0.5147
vn 0.5466 0.1096 0.8302
vn 0.6284 -0.5834 -0.5145
vn -0.3960 0.6254 0.6723
vn -0.5196 0.6039 0.6044
vn 0.3779 0.0723 0.9230
vn 0.5197 -0.6029 -0.6053
vn -0.2615 0.6495 0.7140
vn 0.1943 0.0321 0.9804
vn 0.3957 -0.6253 -0.6727
vn 0.0003 0.0101 -0.9999
vn 0.2617 -0.6495 -0.7139
vn -0.1218 0.6748 0.7279
vn 0.0038 -0.0092 1.0000
vn 0.1285 -0.7216 0.6803
vn 0.0178 0.7005 0.7135
vn -0.1874 -0.0502 0.9810
vn 0.1524 0.7241 0.6727
vn -0.3705 -0.0892 0.9245
vn -0.1244 -0.7717 0.6237
vn -0.2425 -0.7891 -0.5643
vn 0.3848 0.7662 0.5146
vn 0.2755 0.7475 0.6045
vn -0.5405 -0.1250 0.8320
vn -0.2379 -0.7939 0.5597
vn 0.4740 0.7821 0.4044
vn -0.6895 -0.1559 0.7073
vn -0.3369 -0.8130 0.4748
vn -0.3417 -0.8092 -0.4780
vn 0.5402 0.7940 0.2788
vn -0.8112 -0.1808 0.5561
vn -0.4179 -0.8286 0.3725
vn -0.4223 -0.8257 -0.3740
vn -0.9023 -0.1985 0.3826
vn -0.4780 -0.8400 0.2567
vn -0.5174 -0.8457 -0.1308
vn 0.5945 0.8041 -0.0000
vn 0.5797 0.8024 0.1420
vn -0.9584 -0.2087 0.1948
vn -0.5157 -0.8466 0.1312
vn -0.5287 -0.8488 0.0004
vn 0.5402 0.7940 -0.2788
vn 0.5797 0.8024 -0.1420
vn -0.9775 -0.2109 -0.0006
vn -0.4814 -0.8380 -0.2571
vn -0.9590 -0.2049 -0.1958
vn 0.4741 0.7821 -0.4044
vn 0.3848 0.7662 -0.5146
vn -0.9035 -0.1911 -0.3836
vn 0.1524 0.7242 -0.6726
vn 0.2754 0.7474 -0.6046
vn 0.0178 0.7004 -0.7136
vn -0.5430 -0.1088 -0.8326
vn -0.6914 -0.1420 -0.7084
vn -0.8131 -0.1698 -0.5569
vn 0.6906 0.2102 0.6920
vn -0.9655 -0.2548 0.0544
vn 0.6274 0.1377 -0.7664
vn 0.8954 0.1590 0.4160
vn 0.9657 0.2542 -0.0530
vn 0.9657 0.2539 -0.0536
vn 0.9656 0.2544 -0.0543
vn 0.9654 0.2551 -0.0544
vn 0.9655 0.2547 -0.0544
vn 0.9656 0.2544 -0.0546
vn 0.9655 0.2545 -0.0547
vn 0.9655 0.2548 -0.0545
vn -0.1785 0.4954 -0.8501
vn -0.9655 -0.2548 0.0543
vn -0.0401 -0.0609 -0.9973
vn 0.9037 0.3024 0.3030
vn 0.1789 -0.9731 -0.1452
vn -0.6220 -0.6829 -0.3831
vn -0.7507 -0.6390 -0.1678
vn -0.9567 -0.2868 0.0504
vn -0.6742 -0.7129 0.1927
vn 0.2799 0.6274 0.7267
vn 0.6877 0.7259 0.0097
vn 0.9583 0.2087 -0.1950
vt 0.567089 0.339383
vt 0.568133 0.338008
vt 0.567680 0.336943
vt 0.568332 0.334381
vt 0.560417 0.342277
vt 0.549514 0.337020
vt 0.548868 0.339851
vt 0.566176 0.343529
vt 0.566734 0.343944
vt 0.566581 0.341607
vt 0.565890 0.345077
vt 0.566219 0.346391
vt 0.565733 0.346189
vt 0.565855 0.348360
vt 0.565712 0.346824
vt 0.565655 0.349775
vt 0.565828 0.346957
vt 0.565629 0.350583
vt 0.566075 0.346582
vt 0.565776 0.350752
vt 0.566445 0.345715
vt 0.566091 0.350276
vt 0.566923 0.344389
vt 0.566561 0.349173
vt 0.567492 0.342655
vt 0.567170 0.347485
vt 0.568128 0.340578
vt 0.567893 0.345277
vt 0.568808 0.338240
vt 0.568703 0.342635
vt 0.569505 0.335730
vt 0.569568 0.339659
vt 0.562609 0.338201
vt 0.561816 0.336341
vt 0.561064 0.339446
vt 0.563853 0.333199
vt 0.562647 0.333080
vt 0.567381 0.341113
vt 0.561697 0.342347
vt 0.559902 0.344723
vt 0.561410 0.343894
vt 0.559538 0.346692
vt 0.561254 0.345007
vt 0.559338 0.348108
vt 0.561233 0.345642
vt 0.559312 0.348916
vt 0.561348 0.345774
vt 0.559459 0.349085
vt 0.561596 0.345400
vt 0.559774 0.348609
vt 0.561966 0.344533
vt 0.560245 0.347506
vt 0.562444 0.343207
vt 0.560853 0.345818
vt 0.563012 0.341472
vt 0.561576 0.343610
vt 0.563649 0.339396
vt 0.562386 0.340968
vt 0.564328 0.337058
vt 0.563251 0.337992
vt 0.565026 0.334547
vt 0.564139 0.334797
vt 0.579421 0.340987
vt 0.568964 0.334747
vt 0.562101 0.340425
vt 0.577507 0.349370
vt 0.577142 0.351339
vt 0.576916 0.353562
vt 0.577378 0.353255
vt 0.577849 0.352152
vt 0.579181 0.348256
vt 0.580856 0.342638
vt 0.581744 0.339443
vt 0.570456 0.336464
vt 0.571332 0.333173
vt 0.551702 0.335566
vt 0.550837 0.338542
vt 0.550027 0.341184
vt 0.549304 0.343392
vt 0.548695 0.345080
vt 0.548224 0.346183
vt 0.547909 0.346659
vt 0.547762 0.346490
vt 0.547789 0.345682
vt 0.547988 0.344267
vt 0.548352 0.342297
vt 0.551097 0.330654
vt 0.550267 0.333915
vt 0.580251 0.337726
vt 0.581236 0.335159
vt 0.581183 0.334233
vt 0.579103 0.343721
vt 0.578668 0.344093
vt 0.578022 0.346923
vt 0.563201 0.335761
vt 0.580431 0.342838
vt 0.579885 0.344620
vt 0.576943 0.352754
vt 0.578357 0.348200
vt 0.578375 0.347655
vt 0.580607 0.337516
vt 0.578458 0.350464
vt 0.579397 0.346110
vt 0.578510 0.346700
vt 0.550135 0.336097
vt 0.578986 0.347248
vt 0.578755 0.345371
vt 0.582204 0.336454
vt 0.581614 0.338674
vt 0.578669 0.347993
vt 0.581015 0.340830
vt 0.577063 0.353731
vt 0.578456 0.348314
vt 0.579991 0.345614
vt 0.579539 0.341811
vt 0.580047 0.339716
vt 0.550028 0.339332
vt 0.549816 0.337611
vt 0.549737 0.340014
vt 0.553838 0.335174
vt 0.553438 0.336925
vt 0.551888 0.333446
vt 0.549542 0.340309
vt 0.550535 0.334346
vt 0.551353 0.335287
vt 0.549451 0.340204
vt 0.550852 0.336922
vt 0.549467 0.339705
vt 0.550404 0.338288
vt 0.549591 0.338829
vt 0.553119 0.338438
vt 0.552894 0.339657
vt 0.552845 0.341137
vt 0.553040 0.340842
vt 0.577411 0.336673
vt 0.578040 0.334316
vt 0.552771 0.340532
vt 0.553331 0.340160
vt 0.553708 0.339115
vt 0.576343 0.340968
vt 0.552754 0.341032
vt 0.554155 0.337750
vt 0.554656 0.336115
vt 0.575313 0.345856
vt 0.575559 0.344528
vt 0.575473 0.347149
vt 0.575907 0.342877
vt 0.577819 0.339986
vt 0.576851 0.338873
vt 0.575179 0.346811
vt 0.576689 0.343777
vt 0.576201 0.345266
vt 0.575260 0.347470
vt 0.577235 0.341994
vt 0.575790 0.346405
vt 0.578600 0.332297
vt 0.581796 0.333141
vt 0.578418 0.337831
vt 0.575161 0.347356
vt 0.579008 0.335611
vt 0.581258 0.324927
vt 0.579569 0.333411
vt 0.554304 0.333253
vt 0.576059 0.408447
vt 0.576154 0.448593
vt 0.576524 0.408119
vt 0.572154 0.447783
vt 0.575598 0.448603
vt 0.573768 0.378502
vt 0.573452 0.408295
vt 0.575524 0.367893
vt 0.538690 0.400675
vt 0.535988 0.438802
vt 0.542726 0.400944
vt 0.526441 0.437704
vt 0.531296 0.438298
vt 0.541404 0.372110
vt 0.534591 0.400178
vt 0.546085 0.362646
vt 0.532803 0.399382
vt 0.523618 0.437019
vt 0.532487 0.398909
vt 0.524134 0.437228
vt 0.542518 0.361528
vt 0.567490 0.406524
vt 0.556154 0.442763
vt 0.561692 0.404569
vt 0.564050 0.445283
vt 0.571082 0.367380
vt 0.551993 0.347723
vt 0.548715 0.347153
vt 0.548644 0.348360
vt 0.549511 0.362532
vt 0.542431 0.360696
vt 0.568326 0.496168
vt 0.559139 0.512762
vt 0.564909 0.495150
vt 0.574088 0.471434
vt 0.568726 0.496260
vt 0.573545 0.471331
vt 0.568325 0.496180
vt 0.560563 0.519994
vt 0.559138 0.512786
vt 0.560319 0.519940
vt 0.569895 0.470289
vt 0.564908 0.495169
vt 0.573545 0.471334
vt 0.549370 0.441039
vt 0.558480 0.403547
vt 0.555736 0.402752
vt 0.545672 0.440303
vt 0.562277 0.363667
vt 0.552128 0.401898
vt 0.564925 0.364793
vt 0.536174 0.512904
vt 0.543603 0.488654
vt 0.540811 0.488142
vt 0.532579 0.512247
vt 0.541796 0.462503
vt 0.537171 0.487473
vt 0.545505 0.463190
vt 0.523898 0.485225
vt 0.523610 0.510596
vt 0.527883 0.485806
vt 0.518479 0.503152
vt 0.520302 0.510021
vt 0.527460 0.460222
vt 0.519813 0.484627
vt 0.532140 0.460810
vt 0.517935 0.484333
vt 0.516428 0.509352
vt 0.516651 0.509398
vt 0.520268 0.459258
vt 0.517548 0.484258
vt 0.522605 0.459601
vt 0.516651 0.509372
vt 0.517935 0.484317
vt 0.518479 0.503120
vt 0.520268 0.459254
vt 0.519813 0.484601
vt 0.519729 0.459156
vt 0.541939 0.439663
vt 0.545542 0.401158
vt 0.548437 0.401402
vt 0.555063 0.362338
vt 0.552139 0.362441
vt 0.528960 0.511567
vt 0.530660 0.486255
vt 0.533508 0.486789
vt 0.532579 0.512242
vt 0.538070 0.461812
vt 0.537171 0.487470
vt 0.535173 0.461275
vt 0.556262 0.492445
vt 0.543041 0.514508
vt 0.547745 0.489772
vt 0.551516 0.517167
vt 0.569895 0.470284
vt 0.561116 0.467552
vt 0.552158 0.346219
vt 0.567607 0.349583
vt 0.565012 0.347976
vt 0.568006 0.347865
vt 0.561499 0.346597
vt 0.565428 0.345979
vt 0.558752 0.362603
vt 0.544324 0.401055
vt 0.539031 0.439203
vt 0.537807 0.439010
vt 0.550909 0.362485
vt 0.554659 0.347216
vt 0.553580 0.345833
vt 0.553376 0.347460
vt 0.529461 0.486045
vt 0.526144 0.511054
vt 0.530660 0.486268
vt 0.524959 0.510834
vt 0.533954 0.461053
vt 0.523898 0.485202
vt 0.523610 0.510570
vt 0.520302 0.509985
vt 0.527460 0.460216
vt 0.527883 0.485788
vt 0.522605 0.459594
vt 0.554899 0.345476
vt 0.518920 0.518258
vt 0.559577 0.403865
vt 0.552202 0.441641
vt 0.553334 0.441883
vt 0.567391 0.365833
vt 0.565984 0.365242
vt 0.556261 0.492463
vt 0.543040 0.514528
vt 0.551515 0.517194
vt 0.561116 0.467557
vt 0.547744 0.489785
vt 0.544720 0.488848
vt 0.538930 0.513391
vt 0.543604 0.488645
vt 0.540032 0.513589
vt 0.552537 0.464858
vt 0.549489 0.463925
vt 0.572768 0.352779
vt 0.575903 0.367145
vt 0.570190 0.349461
vt 0.573135 0.351615
vt 0.569805 0.350944
vt 0.524959 0.510811
vt 0.529461 0.486030
vt 0.526144 0.511035
vt 0.533954 0.461050
vt 0.532140 0.460806
vt 0.558033 0.344625
vt 0.557707 0.346636
vt 0.533508 0.486796
vt 0.528960 0.511578
vt 0.538070 0.461814
vt 0.540031 0.513606
vt 0.544719 0.488859
vt 0.538930 0.513406
vt 0.549489 0.463928
vt 0.552537 0.464862
vt 0.568644 0.350225
vt 0.569037 0.348618
vt 0.540812 0.488137
vt 0.536174 0.512896
vt 0.548351 0.463715
vt 0.545505 0.463189
vt 0.575365 0.462520
vt 0.575954 0.462622
vt 0.571639 0.461471
vt 0.533651 0.451950
vt 0.528739 0.451363
vt 0.523630 0.450736
vt 0.520559 0.450255
vt 0.521145 0.450372
vt 0.562819 0.458729
vt 0.554222 0.456024
vt 0.550021 0.454872
vt 0.547159 0.454337
vt 0.543429 0.453642
vt 0.536769 0.452417
vt 0.539681 0.452951
vt 0.535543 0.452192
vt 0.535173 0.461279
vt 0.551165 0.455087
vt 0.548351 0.463717
vt 0.544782 0.504347
vt 0.553221 0.510946
vt 0.554552 0.511178
vt 0.500897 0.512200
vt 0.516026 0.502650
vt 0.503774 0.507077
vt 0.503596 0.519715
vt 0.511394 0.505370
vt 0.530863 0.501547
vt 0.543711 0.505304
vt 0.524105 0.517414
vt 0.528292 0.503007
vt 0.544561 0.520942
vt 0.495731 0.511020
vt 0.491881 0.520688
vt 0.496258 0.510770
vt 0.495350 0.511427
vt 0.501054 0.506571
vt 0.502240 0.509321
vt 0.550638 0.512590
vt 0.543235 0.507302
vt 0.551679 0.512480
vt 0.517322 0.505811
vt 0.503106 0.514727
vt 0.505900 0.509756
vt 0.542241 0.507667
vt 0.530851 0.504922
vt 0.524309 0.518731
vt 0.512925 0.508148
vt 0.528440 0.505767
vt 0.542806 0.521612
vt 0.498126 0.513492
vt 0.502997 0.509428
vt 0.503992 0.512043
vt 0.555627 0.380986
vt 0.571244 0.306391
vt 0.555168 0.380903
vt 0.554287 0.380744
vt 0.555178 0.380905
vt 0.556104 0.381072
vt 0.541957 0.454143
vt 0.542883 0.454311
vt 0.571703 0.306474
vt 0.557040 0.381241
vt 0.572657 0.306646
vt 0.556581 0.381158
vt 0.557030 0.381239
vt 0.553466 0.380596
vt 0.541066 0.453983
vt 0.557462 0.381317
vt 0.573116 0.306729
vt 0.557921 0.381400
vt 0.539525 0.453705
vt 0.540245 0.453835
vt 0.557833 0.381384
vt 0.573538 0.306805
vt 0.558742 0.381548
vt 0.552156 0.380359
vt 0.552746 0.380466
vt 0.558137 0.381439
vt 0.573909 0.306872
vt 0.559461 0.381678
vt 0.551717 0.380280
vt 0.538935 0.453598
vt 0.558363 0.381479
vt 0.574213 0.306927
vt 0.560052 0.381784
vt 0.538226 0.453470
vt 0.538496 0.453519
vt 0.558502 0.381505
vt 0.574439 0.306968
vt 0.560491 0.381864
vt 0.551356 0.380215
vt 0.551447 0.380231
vt 0.574625 0.307002
vt 0.558549 0.381513
vt 0.560761 0.381912
vt 0.538135 0.453454
vt 0.574578 0.306993
vt 0.560852 0.381929
vt 0.572180 0.306560
vt 0.543809 0.454478
vt 0.544700 0.454639
vt 0.554745 0.380826
vt 0.546241 0.454917
vt 0.545521 0.454787
vt 0.570822 0.306315
vt 0.546831 0.455023
vt 0.570451 0.306248
vt 0.554375 0.380760
vt 0.547270 0.455103
vt 0.570147 0.306193
vt 0.554071 0.380705
vt 0.569921 0.306152
vt 0.553845 0.380664
vt 0.553706 0.380639
vt 0.547631 0.455168
vt 0.547540 0.455151
vt 0.569782 0.306127
vt 0.553659 0.380630
vt 0.569735 0.306119
vt 0.582619 0.336152
vt 0.551000 0.332425
vt 0.580076 0.331316
vt 0.580512 0.329406
vt 0.580860 0.327756
vt 0.581106 0.326427
vt 0.581240 0.325472
vt 0.581159 0.324813
vt 0.580947 0.325134
vt 0.580629 0.325879
vt 0.580218 0.327017
vt 0.579730 0.328507
vt 0.579184 0.330290
vt 0.569895 0.331254
vt 0.560320 0.519921
vt 0.561903 0.344415
vt 0.492805 0.525286
vt 0.491744 0.516766
vt 0.496054 0.511383
vt 0.496974 0.512512
vt 0.505386 0.521343
vt 0.498836 0.513057
s 1
usemtl joints.004
f 305/1/1 339/2/2 306/3/3
f 339/2/2 259/4/4 306/3/3
f 352/5/5 263/6/6 265/7/7
f 303/8/8 337/9/9 304/10/10
f 302/11/11 336/12/12 303/8/8
f 301/13/13 335/14/14 302/11/11
f 300/15/15 334/16/16 301/13/13
f 299/17/17 333/18/18 300/15/15
f 298/19/19 332/20/20 299/17/17
f 297/21/21 331/22/22 298/19/19
f 296/23/23 330/24/24 297/21/21
f 295/25/25 329/26/26 296/23/23
f 294/27/27 328/28/28 295/25/25
f 293/29/29 327/30/30 294/27/27
f 292/31/31 326/32/32 293/29/29
f 320/33/33 354/34/34 353/35/35
f 354/34/34 322/36/36 355/37/37
f 304/10/10 338/38/38 305/1/1
f 318/39/39 352/5/5 351/40/40
f 317/41/41 351/40/40 350/42/42
f 316/43/43 350/42/42 349/44/44
f 315/45/45 349/44/44 348/46/46
f 314/47/47 348/46/46 347/48/48
f 313/49/49 347/48/48 346/50/50
f 312/51/51 346/50/50 345/52/52
f 311/53/53 345/52/52 344/54/54
f 310/55/55 344/54/54 343/56/56
f 309/57/57 343/56/56 342/58/58
f 308/59/59 342/58/58 341/60/60
f 307/61/61 341/60/60 340/62/62
f 338/38/38 260/63/63 339/2/2
f 260/63/63 323/64/64 339/2/2
f 319/65/65 353/35/35 352/5/5
f 266/66/66 337/9/9 336/12/12
f 335/14/14 266/66/66 336/12/12
f 334/16/16 268/67/67 335/14/14
f 272/68/68 334/16/16 333/18/18
f 332/20/20 272/68/68 333/18/18
f 276/69/69 332/20/20 331/22/22
f 278/70/70 331/22/22 330/24/24
f 329/26/26 278/70/70 330/24/24
f 282/71/71 329/26/26 328/28/28
f 327/30/30 282/71/71 328/28/28
f 286/72/72 327/30/30 326/32/32
f 288/73/73 326/32/32 325/74/74
f 324/75/75 288/73/73 325/74/74
f 287/76/76 342/58/58 285/77/77
f 285/77/77 343/56/56 283/78/78
f 283/78/78 344/54/54 281/79/79
f 281/79/79 345/52/52 279/80/80
f 279/80/80 346/50/50 277/81/81
f 277/81/81 347/48/48 275/82/82
f 347/48/48 273/83/83 275/82/82
f 348/46/46 271/84/84 273/83/83
f 349/44/44 269/85/85 271/84/84
f 350/42/42 267/86/86 269/85/85
f 351/40/40 265/7/7 267/86/86
f 304/10/10 320/33/33 319/65/65
f 354/34/34 291/87/87 261/88/88
f 353/35/35 261/88/88 263/6/6
f 290/89/89 544/90/90 356/91/91
f 292/31/31 308/59/59 307/61/61
f 308/59/59 294/27/27 309/57/57
f 294/27/27 310/55/55 309/57/57
f 295/25/25 311/53/53 310/55/55
f 296/23/23 312/51/51 311/53/53
f 312/51/51 298/19/19 313/49/49
f 298/19/19 314/47/47 313/49/49
f 314/47/47 300/15/15 315/45/45
f 300/15/15 316/43/43 315/45/45
f 301/13/13 317/41/41 316/43/43
f 302/11/11 318/39/39 317/41/41
f 318/39/39 304/10/10 319/65/65
f 528/92/92 262/93/93 264/94/94
f 306/3/3 322/36/36 321/95/95
f 320/33/33 306/3/3 321/95/95
f 282/71/71 538/96/96 537/97/97
f 270/98/98 532/99/99 531/100/100
f 260/63/63 543/101/101 290/89/89
f 280/102/102 537/97/97 536/103/103
f 268/67/67 531/100/100 530/104/104
f 263/6/6 547/105/105 265/7/7
f 278/70/70 536/103/103 535/106/106
f 266/66/66 530/104/104 529/107/107
f 288/73/73 541/108/108 540/109/109
f 276/69/69 535/106/106 534/110/110
f 264/94/94 529/107/107 528/92/92
f 286/72/72 540/109/109 539/111/111
f 274/112/112 534/110/110 533/113/113
f 284/114/114 539/111/111 538/96/96
f 272/68/68 533/113/113 532/99/99
f 260/63/63 527/115/115 526/116/116
f 277/81/81 554/117/117 279/80/80
f 265/7/7 548/118/118 267/86/86
f 275/82/82 553/119/119 277/81/81
f 547/105/105 560/120/120 561/121/121
f 285/77/77 558/122/122 287/76/76
f 273/83/83 552/123/123 275/82/82
f 261/88/88 546/124/124 263/6/6
f 283/78/78 557/125/125 285/77/77
f 271/84/84 551/126/126 273/83/83
f 281/79/79 556/127/127 283/78/78
f 269/85/85 550/128/128 271/84/84
f 279/80/80 555/129/129 281/79/79
f 267/86/86 549/130/130 269/85/85
f 562/131/131 647/132/132 563/132/133
f 553/119/119 566/133/134 567/134/135
f 544/90/90 589/135/136 590/136/137
f 550/128/128 563/132/133 564/137/138
f 555/129/129 568/138/139 569/139/140
f 528/92/92 573/140/141 527/115/115
f 552/123/123 565/141/142 566/133/134
f 557/125/125 570/142/143 571/143/144
f 549/130/130 562/131/131 563/132/133
f 554/117/117 567/134/135 568/138/139
f 551/126/126 564/137/138 565/141/142
f 556/127/127 569/139/140 570/142/143
f 548/118/118 561/121/121 562/131/131
f 529/107/107 576/144/145 575/145/146
f 535/106/106 580/146/147 534/110/110
f 573/140/141 593/147/148 592/140/149
f 540/109/109 585/148/150 539/111/111
f 526/116/116 573/140/141 572/149/151
f 532/99/99 577/150/152 531/100/100
f 536/103/103 583/151/153 582/152/154
f 529/107/107 574/147/155 528/92/92
f 534/110/110 579/153/156 533/113/113
f 589/135/136 610/136/157 590/136/137
f 538/96/96 585/148/150 584/154/158
f 543/101/101 572/149/151 589/135/136
f 530/104/104 577/150/152 576/144/145
f 536/103/103 581/155/159 535/106/106
f 544/90/90 588/156/160 542/157/160
f 541/108/108 586/158/161 540/109/109
f 533/113/113 578/159/162 532/99/99
f 537/97/97 584/154/158 583/151/153
f 579/153/156 599/146/163 598/153/164
f 610/136/157 641/135/165 642/136/166
f 584/154/158 604/148/167 603/154/168
f 572/149/151 609/135/169 589/135/136
f 576/144/145 596/150/170 595/144/171
f 581/155/159 601/152/172 600/155/173
f 586/158/161 606/160/174 605/158/175
f 593/147/148 612/140/176 592/140/149
f 578/159/162 598/153/164 597/159/177
f 583/151/153 603/154/168 602/151/178
f 575/145/146 595/144/171 594/145/179
f 580/146/147 600/155/173 599/146/163
f 585/148/150 605/158/175 604/148/167
f 572/149/151 592/140/149 591/149/180
f 577/150/152 597/159/177 596/150/170
f 582/152/154 602/151/178 601/152/172
f 574/147/155 594/145/179 593/147/148
f 625/158/181 633/161/182 642/136/166
f 603/154/168 624/148/183 623/154/114
f 609/135/169 611/149/184 641/135/165
f 595/144/171 616/150/185 615/144/67
f 601/152/172 620/155/186 600/155/173
f 610/136/157 640/156/187 608/156/188
f 606/160/174 625/158/181 605/158/175
f 560/120/120 645/121/189 561/121/121
f 598/153/164 617/159/190 597/159/177
f 602/151/178 623/154/114 622/151/191
f 594/145/179 615/144/67 614/145/192
f 600/155/173 619/146/193 599/146/163
f 605/158/175 624/148/183 604/148/167
f 592/140/149 611/149/184 591/149/180
f 597/159/177 616/150/185 596/150/170
f 602/151/178 621/152/194 601/152/172
f 607/162/195 626/160/196 606/160/174
f 593/147/148 614/145/192 613/147/197
f 598/153/164 619/146/193 618/153/198
f 567/134/135 652/138/199 568/138/139
f 644/120/200 657/121/201 645/121/189
f 559/163/202 644/120/200 560/120/120
f 564/137/138 649/141/203 565/141/142
f 569/139/140 654/142/204 570/142/143
f 561/121/121 646/131/205 562/131/131
f 566/133/134 651/134/206 567/134/135
f 563/132/133 648/137/207 564/137/138
f 568/138/139 653/139/208 569/139/140
f 565/141/142 650/133/209 566/133/134
f 570/142/143 655/143/210 571/143/144
f 653/139/208 664/138/211 665/139/212
f 356/91/91 323/64/64 290/89/89
f 649/141/203 662/133/213 650/133/209
f 655/143/210 666/142/214 667/143/215
f 646/131/205 659/132/216 647/132/132
f 652/138/199 663/134/217 664/138/211
f 649/141/203 660/137/218 661/141/219
f 653/139/208 666/142/214 654/142/204
f 645/121/189 658/131/220 646/131/205
f 650/133/209 663/134/217 651/134/206
f 648/137/207 659/132/216 660/137/218
f 264/94/94 338/38/38 337/9/9
f 305/1/1 338/38/38 339/2/2
f 339/2/2 323/64/64 259/4/4
f 352/5/5 353/35/35 263/6/6
f 303/8/8 336/12/12 337/9/9
f 302/11/11 335/14/14 336/12/12
f 301/13/13 334/16/16 335/14/14
f 300/15/15 333/18/18 334/16/16
f 299/17/17 332/20/20 333/18/18
f 298/19/19 331/22/22 332/20/20
f 297/21/21 330/24/24 331/22/22
f 296/23/23 329/26/26 330/24/24
f 295/25/25 328/28/28 329/26/26
f 294/27/27 327/30/30 328/28/28
f 293/29/29 326/32/32 327/30/30
f 292/31/31 325/74/74 326/32/32
f 320/33/33 321/95/95 354/34/34
f 354/34/34 321/95/95 322/36/36
f 304/10/10 337/9/9 338/38/38
f 318/39/39 319/65/65 352/5/5
f 317/41/41 318/39/39 351/40/40
f 316/43/43 317/41/41 350/42/42
f 315/45/45 316/43/43 349/44/44
f 314/47/47 315/45/45 348/46/46
f 313/49/49 314/47/47 347/48/48
f 312/51/51 313/49/49 346/50/50
f 311/53/53 312/51/51 345/52/52
f 310/55/55 311/53/53 344/54/54
f 309/57/57 310/55/55 343/56/56
f 308/59/59 309/57/57 342/58/58
f 307/61/61 308/59/59 341/60/60
f 338/38/38 262/93/93 260/63/63
f 260/63/63 290/89/89 323/64/64
f 319/65/65 320/33/33 353/35/35
f 266/66/66 264/94/94 337/9/9
f 335/14/14 268/67/67 266/66/66
f 334/16/16 270/98/98 268/67/67
f 272/68/68 270/98/98 334/16/16
f 332/20/20 274/112/112 272/68/68
f 276/69/69 274/112/112 332/20/20
f 278/70/70 276/69/69 331/22/22
f 329/26/26 280/102/102 278/70/70
f 282/71/71 280/102/102 329/26/26
f 327/30/30 284/114/114 282/71/71
f 286/72/72 284/114/114 327/30/30
f 288/73/73 286/72/72 326/32/32
f 324/75/75 289/449/638 288/73/73
f 287/76/76 341/60/60 342/58/58
f 285/77/77 342/58/58 343/56/56
f 283/78/78 343/56/56 344/54/54
f 281/79/79 344/54/54 345/52/52
f 279/80/80 345/52/52 346/50/50
f 277/81/81 346/50/50 347/48/48
f 347/48/48 348/46/46 273/83/83
f 348/46/46 349/44/44 271/84/84
f 349/44/44 350/42/42 269/85/85
f 350/42/42 351/40/40 267/86/86
f 351/40/40 352/5/5 265/7/7
f 304/10/10 305/1/1 320/33/33
f 354/34/34 355/37/37 291/87/87
f 353/35/35 354/34/34 261/88/88
f 290/89/89 543/101/101 544/90/90
f 292/31/31 293/29/29 308/59/59
f 308/59/59 293/29/29 294/27/27
f 294/27/27 295/25/25 310/55/55
f 295/25/25 296/23/23 311/53/53
f 296/23/23 297/21/21 312/51/51
f 312/51/51 297/21/21 298/19/19
f 298/19/19 299/17/17 314/47/47
f 314/47/47 299/17/17 300/15/15
f 300/15/15 301/13/13 316/43/43
f 301/13/13 302/11/11 317/41/41
f 302/11/11 303/8/8 318/39/39
f 318/39/39 303/8/8 304/10/10
f 528/92/92 527/115/115 262/93/93
f 306/3/3 259/4/4 322/36/36
f 320/33/33 305/1/1 306/3/3
f 282/71/71 284/114/114 538/96/96
f 270/98/98 272/68/68 532/99/99
f 260/63/63 526/116/116 543/101/101
f 280/102/102 282/71/71 537/97/97
f 268/67/67 270/98/98 531/100/100
f 263/6/6 546/124/124 547/105/105
f 278/70/70 280/102/102 536/103/103
f 266/66/66 268/67/67 530/104/104
f 288/73/73 289/449/638 541/108/108
f 276/69/69 278/70/70 535/106/106
f 264/94/94 266/66/66 529/107/107
f 286/72/72 288/73/73 540/109/109
f 274/112/112 276/69/69 534/110/110
f 284/114/114 286/72/72 539/111/111
f 272/68/68 274/112/112 533/113/113
f 260/63/63 262/93/93 527/115/115
f 277/81/81 553/119/119 554/117/117
f 265/7/7 547/105/105 548/118/118
f 275/82/82 552/123/123 553/119/119
f 547/105/105 546/124/124 560/120/120
f 285/77/77 557/125/125 558/122/122
f 273/83/83 551/126/126 552/123/123
f 261/88/88 545/450/639 546/124/124
f 283/78/78 556/127/127 557/125/125
f 271/84/84 550/128/128 551/126/126
f 281/79/79 555/129/129 556/127/127
f 269/85/85 549/130/130 550/128/128
f 279/80/80 554/117/117 555/129/129
f 267/86/86 548/118/118 549/130/130
f 562/131/131 646/131/205 647/132/132
f 553/119/119 552/123/123 566/133/134
f 544/90/90 543/101/101 589/135/136
f 550/128/128 549/130/130 563/132/133
f 555/129/129 554/117/117 568/138/139
f 528/92/92 574/147/155 573/140/141
f 552/123/123 551/126/126 565/141/142
f 557/125/125 556/127/127 570/142/143
f 549/130/130 548/118/118 562/131/131
f 554/117/117 553/119/119 567/134/135
f 551/126/126 550/128/128 564/137/138
f 556/127/127 555/129/129 569/139/140
f 548/118/118 547/105/105 561/121/121
f 529/107/107 530/104/104 576/144/145
f 535/106/106 581/155/159 580/146/147
f 573/140/141 574/147/155 593/147/148
f 540/109/109 586/158/161 585/148/150
f 526/116/116 527/115/115 573/140/141
f 532/99/99 578/159/162 577/150/152
f 536/103/103 537/97/97 583/151/153
f 529/107/107 575/145/146 574/147/155
f 534/110/110 580/146/147 579/153/156
f 589/135/136 609/135/169 610/136/157
f 538/96/96 539/111/111 585/148/150
f 543/101/101 526/116/116 572/149/151
f 530/104/104 531/100/100 577/150/152
f 536/103/103 582/152/154 581/155/159
f 544/90/90 590/136/137 588/156/160
f 541/108/108 587/160/640 586/158/161
f 533/113/113 579/153/156 578/159/162
f 537/97/97 538/96/96 584/154/158
f 579/153/156 580/146/147 599/146/163
f 610/136/157 609/135/169 641/135/165
f 584/154/158 585/148/150 604/148/167
f 572/149/151 591/149/180 609/135/169
f 576/144/145 577/150/152 596/150/170
f 581/155/159 582/152/154 601/152/172
f 586/158/161 587/160/640 606/160/174
f 593/147/148 613/147/197 612/140/176
f 578/159/162 579/153/156 598/153/164
f 583/151/153 584/154/158 603/154/168
f 575/145/146 576/144/145 595/144/171
f 580/146/147 581/155/159 600/155/173
f 585/148/150 586/158/161 605/158/175
f 572/149/151 573/140/141 592/140/149
f 577/150/152 578/159/162 597/159/177
f 582/152/154 583/151/153 602/151/178
f 574/147/155 575/145/146 594/145/179
f 642/136/166 641/135/165 611/149/184
f 611/149/184 612/140/176 613/147/197
f 613/147/197 614/145/192 615/144/67
f 615/144/67 616/150/185 617/159/190
f 617/159/190 618/153/198 619/146/193
f 619/146/193 620/155/186 621/152/194
f 621/152/194 622/151/191 623/154/114
f 623/154/114 624/148/183 625/158/181
f 625/158/181 626/160/196 627/162/641
f 627/162/641 628/451/642 629/452/182
f 629/452/182 630/453/643 631/454/182
f 631/454/182 632/455/644 633/161/182
f 633/161/182 634/456/645 635/457/646
f 635/457/646 636/458/647 637/459/182
f 637/459/182 638/460/648 639/461/649
f 639/461/649 640/156/187 642/136/166
f 642/136/166 611/149/184 613/147/197
f 613/147/197 615/144/67 617/159/190
f 617/159/190 619/146/193 621/152/194
f 621/152/194 623/154/114 625/158/181
f 625/158/181 627/162/641 629/452/182
f 629/452/182 631/454/182 633/161/182
f 633/161/182 635/457/646 637/459/182
f 637/459/182 639/461/649 642/136/166
f 642/136/166 613/147/197 617/159/190
f 617/159/190 621/152/194 625/158/181
f 625/158/181 629/452/182 633/161/182
f 633/161/182 637/459/182 642/136/166
f 642/136/166 617/159/190 625/158/181
f 603/154/168 604/148/167 624/148/183
f 609/135/169 591/149/180 611/149/184
f 595/144/171 596/150/170 616/150/185
f 601/152/172 621/152/194 620/155/186
f 610/136/157 642/136/166 640/156/187
f 606/160/174 626/160/196 625/158/181
f 560/120/120 644/120/200 645/121/189
f 598/153/164 618/153/198 617/159/190
f 602/151/178 603/154/168 623/154/114
f 594/145/179 595/144/171 615/144/67
f 600/155/173 620/155/186 619/146/193
f 605/158/175 625/158/181 624/148/183
f 592/140/149 612/140/176 611/149/184
f 597/159/177 617/159/190 616/150/185
f 602/151/178 622/151/191 621/152/194
f 607/162/195 627/162/641 626/160/196
f 593/147/148 594/145/179 614/145/192
f 598/153/164 599/146/163 619/146/193
f 567/134/135 651/134/206 652/138/199
f 644/120/200 656/120/650 657/121/201
f 559/163/202 643/163/651 644/120/200
f 564/137/138 648/137/207 649/141/203
f 569/139/140 653/139/208 654/142/204
f 561/121/121 645/121/189 646/131/205
f 566/133/134 650/133/209 651/134/206
f 563/132/133 647/132/132 648/137/207
f 568/138/139 652/138/199 653/139/208
f 565/141/142 649/141/203 650/133/209
f 570/142/143 654/142/204 655/143/210
f 653/139/208 652/138/199 664/138/211
f 356/91/91 357/462/652 323/64/64
f 649/141/203 661/141/219 662/133/213
f 655/143/210 654/142/204 666/142/214
f 646/131/205 658/131/220 659/132/216
f 652/138/199 651/134/206 663/134/217
f 649/141/203 648/137/207 660/137/218
f 653/139/208 665/139/212 666/142/214
f 645/121/189 657/121/201 658/131/220
f 650/133/209 662/133/213 663/134/217
f 648/137/207 647/132/132 659/132/216
f 264/94/94 262/93/93 338/38/38
usemtl limbs.005
f 1/164/221 247/165/222 86/166/223
f 1/164/221 243/167/224 174/168/225
f 1/164/221 191/169/226 63/170/227
f 86/166/223 76/171/228 1/164/221
f 2/172/229 251/173/230 113/174/231
f 2/172/229 244/175/232 175/176/233
f 2/172/229 192/177/234 67/178/235
f 113/174/231 80/179/236 2/172/229
f 3/180/237 249/181/238 94/182/239
f 70/178/240 176/183/241 3/180/237
f 3/180/237 193/177/242 70/178/240
f 94/182/239 83/184/243 3/180/237
f 4/185/244 253/186/245 126/187/246
f 77/170/247 177/188/248 4/185/244
f 4/185/244 190/169/249 77/170/247
f 126/187/246 85/189/250 4/185/244
f 114/190/251 102/191/252 5/192/253
f 5/192/253 217/193/254 114/190/251
f 71/184/255 80/179/236 5/192/253
f 5/192/253 207/194/256 71/184/255
f 178/168/257 77/170/247 6/164/258
f 6/164/258 247/165/222 178/168/257
f 64/171/259 86/166/223 6/164/258
f 6/164/258 190/169/249 64/171/259
f 7/195/260 194/196/261 65/197/262
f 7/195/260 210/198/263 87/199/264
f 65/197/262 88/200/265 7/195/260
f 8/201/266 198/202/267 87/199/264
f 8/201/266 195/203/268 62/204/269
f 8/201/266 199/205/270 75/206/271
f 87/199/264 89/207/272 8/201/266
f 179/208/273 152/209/274 9/210/275
f 9/210/275 248/211/276 179/208/273
f 119/212/277 90/213/278 9/210/275
f 9/210/275 237/214/279 119/212/277
f 121/215/280 153/216/281 10/217/282
f 10/217/282 202/218/283 121/215/280
f 10/217/282 211/219/284 91/220/285
f 153/216/281 123/221/286 10/217/282
f 11/222/287 215/223/288 115/224/289
f 11/222/287 196/225/290 66/226/291
f 110/227/292 79/228/293 11/222/287
f 11/222/287 219/229/294 110/227/292
f 12/180/295 244/175/232 67/178/235
f 12/180/295 249/181/238 180/183/296
f 71/184/255 94/182/239 12/180/295
f 12/180/295 192/177/234 71/184/255
f 13/230/297 196/225/290 79/228/293
f 13/230/297 205/231/298 81/232/299
f 96/233/300 95/234/301 13/230/297
f 13/230/297 203/235/302 96/233/300
f 69/236/303 95/234/301 14/237/304
f 14/237/304 197/238/305 69/236/303
f 97/239/306 82/240/307 14/237/304
f 14/237/304 212/241/308 97/239/306
f 181/242/309 139/243/310 15/244/311
f 15/244/311 250/211/312 181/242/309
f 107/245/313 98/213/314 15/244/311
f 15/244/311 231/246/315 107/245/313
f 109/247/316 140/248/317 16/249/318
f 16/249/318 208/250/319 109/247/316
f 111/251/320 99/252/321 16/249/318
f 16/249/318 234/253/322 111/251/320
f 17/254/323 223/255/324 129/256/325
f 17/254/323 194/196/261 72/257/326
f 17/254/323 201/258/327 65/197/262
f 129/256/325 124/259/328 17/254/323
f 118/190/329 73/179/330 18/192/331
f 18/192/331 221/260/332 118/190/329
f 18/192/331 207/194/256 102/191/252
f 73/179/330 83/184/243 18/192/331
f 154/261/333 122/212/334 19/262/335
f 19/262/335 242/263/336 154/261/333
f 104/264/337 125/265/338 19/262/335
f 19/262/335 209/266/339 104/264/337
f 20/262/340 242/263/336 125/265/338
f 119/212/277 155/261/341 20/262/340
f 20/262/340 204/266/342 119/212/277
f 125/265/338 105/264/343 20/262/340
f 21/267/344 256/268/345 141/243/346
f 113/174/231 182/269/347 21/267/344
f 21/267/344 217/193/254 113/174/231
f 141/243/346 135/270/348 21/267/344
f 142/271/349 138/272/350 22/273/351
f 22/273/351 232/246/352 142/271/349
f 114/190/251 135/270/348 22/273/351
f 22/273/351 221/260/332 114/190/251
f 23/274/353 230/275/354 143/276/355
f 115/224/289 133/277/356 23/274/353
f 132/278/357 115/224/289 23/274/353
f 143/276/355 132/278/357 23/274/353
f 24/172/358 245/175/359 70/178/240
f 116/174/360 183/176/361 24/172/358
f 24/172/358 216/193/362 116/174/360
f 24/172/358 193/177/242 73/179/330
f 25/279/363 197/238/305 82/240/307
f 25/279/363 218/280/364 84/281/365
f 100/282/366 117/283/367 25/279/363
f 25/279/363 206/284/368 100/282/366
f 26/273/369 231/246/315 134/270/370
f 26/273/369 235/285/371 144/271/372
f 118/190/329 138/272/350 26/273/369
f 26/273/369 216/193/362 118/190/329
f 27/286/373 196/225/290 81/232/299
f 28/287/374 258/288/375 156/209/376
f 126/187/246 184/289/377 28/287/374
f 28/287/374 225/290/378 126/187/246
f 156/209/376 149/291/379 28/287/374
f 185/188/380 63/170/227 29/185/381
f 29/185/381 254/186/382 185/188/380
f 68/189/383 127/187/384 29/185/381
f 29/185/381 191/169/226 68/189/383
f 30/292/385 195/203/268 75/206/271
f 30/292/385 224/293/386 78/294/387
f 92/295/388 128/296/389 30/292/385
f 30/292/385 199/205/270 92/295/388
f 31/297/390 238/298/391 157/299/392
f 129/256/325 147/300/393 31/297/390
f 31/297/390 227/301/394 129/256/325
f 157/299/392 145/302/395 31/297/390
f 64/171/259 85/189/250 32/303/396
f 32/303/396 200/304/397 64/171/259
f 32/303/396 228/305/398 103/306/399
f 85/189/250 130/307/400 32/303/396
f 33/303/401 200/304/397 103/306/399
f 68/189/383 76/171/228 33/303/401
f 33/303/401 222/290/402 68/189/383
f 103/306/399 131/307/403 33/303/401
f 34/267/404 252/173/405 116/174/360
f 34/267/404 255/268/406 186/269/407
f 134/270/370 139/243/310 34/267/404
f 116/174/360 134/270/370 34/267/404
f 136/308/408 117/283/367 35/309/409
f 35/309/409 233/310/410 136/308/408
f 137/311/411 140/248/317 35/309/409
f 35/309/409 220/312/412 137/311/411
f 36/244/413 248/211/276 90/213/278
f 141/243/346 187/242/414 36/244/413
f 36/244/413 232/246/352 141/243/346
f 90/213/278 108/245/415 36/244/413
f 105/264/343 112/313/416 37/314/417
f 37/314/417 204/266/342 105/264/343
f 142/271/349 108/245/415 37/314/417
f 37/314/417 235/285/371 142/271/349
f 38/315/418 202/218/283 91/220/285
f 143/276/355 106/316/419 38/315/418
f 93/317/420 143/276/355 38/315/418
f 38/315/418 211/219/284 93/317/420
f 39/314/421 209/266/339 107/245/313
f 112/313/416 104/264/337 39/314/421
f 39/314/421 235/285/371 112/313/416
f 107/245/313 144/271/372 39/314/421
f 188/289/422 127/187/384 40/287/423
f 40/287/423 257/288/424 188/289/422
f 146/291/425 152/209/274 40/287/423
f 40/287/423 222/290/402 146/291/425
f 148/318/426 128/296/389 41/319/427
f 41/319/427 239/320/428 148/318/426
f 150/321/429 153/216/281 41/319/427
f 41/319/427 226/322/430 150/321/429
f 42/323/431 225/290/378 149/291/379
f 151/324/432 130/307/400 42/323/431
f 42/323/431 242/263/336 151/324/432
f 42/323/431 240/214/433 154/261/333
f 43/323/434 228/305/398 151/324/432
f 146/291/425 131/307/403 43/323/434
f 43/323/434 237/214/279 146/291/425
f 151/324/432 155/261/341 43/323/434
f 44/210/435 250/211/312 98/213/314
f 156/209/376 189/208/436 44/210/435
f 44/210/435 240/214/433 156/209/376
f 98/213/314 122/212/334 44/210/435
f 45/325/437 208/250/319 99/252/321
f 157/299/392 120/326/438 45/325/437
f 45/325/437 236/327/439 157/299/392
f 99/252/321 101/328/440 45/325/437
f 46/329/441 210/198/263 162/330/442
f 158/331/443 89/207/272 46/329/441
f 174/168/225 158/331/443 46/329/441
f 46/329/441 247/165/222 174/168/225
f 110/227/292 166/332/444 47/333/445
f 47/333/445 203/235/302 110/227/292
f 175/176/233 159/334/446 47/333/445
f 166/332/444 175/176/233 47/333/445
f 97/239/306 164/335/447 48/336/448
f 48/336/448 206/284/368 97/239/306
f 48/336/448 245/175/359 160/334/449
f 164/335/447 176/183/241 48/336/448
f 49/337/450 227/301/394 168/338/451
f 161/331/452 124/259/328 49/337/450
f 49/337/450 246/167/453 161/331/452
f 168/338/451 177/188/248 49/337/450
f 50/329/454 201/258/327 161/331/452
f 162/330/442 88/200/265 50/329/454
f 178/168/257 162/330/442 50/329/454
f 50/329/454 246/167/453 178/168/257
f 123/221/286 172/339/455 51/340/456
f 163/341/457 123/221/286 51/340/456
f 51/340/456 248/211/276 163/341/457
f 51/340/456 257/288/424 179/208/273
f 96/233/300 159/334/446 52/336/458
f 52/336/458 212/241/308 96/233/300
f 180/183/296 164/335/447 52/336/458
f 159/334/446 180/183/296 52/336/458
f 111/251/320 170/342/459 53/343/460
f 53/343/460 213/219/461 111/251/320
f 53/343/460 250/211/312 165/341/462
f 170/342/459 181/242/309 53/343/460
f 54/344/463 229/345/464 171/342/465
f 166/332/444 132/278/357 54/344/463
f 54/344/463 251/173/230 166/332/444
f 171/342/465 182/269/347 54/344/463
f 100/282/366 160/334/449 55/333/466
f 55/333/466 220/312/412 100/282/366
f 55/333/466 252/173/405 167/332/467
f 160/334/449 183/176/361 55/333/466
f 56/346/468 236/327/439 173/339/469
f 168/338/451 145/302/395 56/346/468
f 56/346/468 253/186/245 168/338/451
f 56/346/468 258/288/375 184/289/377
f 92/295/388 158/331/443 57/337/470
f 57/337/470 226/322/430 92/295/388
f 185/188/380 169/338/471 57/337/470
f 57/337/470 243/167/224 185/188/380
f 137/311/411 167/332/467 58/344/472
f 58/344/472 234/253/322 137/311/411
f 58/344/472 255/268/406 170/342/459
f 167/332/467 186/269/407 58/344/472
f 93/317/420 163/341/457 59/343/473
f 171/342/465 93/317/420 59/343/473
f 59/343/473 256/268/345 171/342/465
f 59/343/473 248/211/276 187/242/414
f 150/321/429 169/338/471 60/346/474
f 60/346/474 241/347/475 150/321/429
f 188/289/422 172/339/455 60/346/474
f 60/346/474 254/186/382 188/289/422
f 61/340/476 213/219/461 165/341/462
f 173/339/469 101/328/440 61/340/476
f 189/208/436 173/339/469 61/340/476
f 165/341/462 189/208/436 61/340/476
f 1/164/221 174/168/225 247/165/222
f 1/164/221 63/170/227 243/167/224
f 1/164/221 76/171/228 191/169/226
f 86/166/223 200/304/397 76/171/228
f 2/172/229 175/176/233 251/173/230
f 2/172/229 67/178/235 244/175/232
f 2/172/229 80/179/236 192/177/234
f 113/174/231 217/193/254 80/179/236
f 3/180/237 176/183/241 249/181/238
f 70/178/240 245/175/359 176/183/241
f 3/180/237 83/184/243 193/177/242
f 94/182/239 207/194/256 83/184/243
f 4/185/244 177/188/248 253/186/245
f 77/170/247 246/167/453 177/188/248
f 4/185/244 85/189/250 190/169/249
f 126/187/246 225/290/378 85/189/250
f 114/190/251 221/260/332 102/191/252
f 5/192/253 80/179/236 217/193/254
f 71/184/255 192/177/234 80/179/236
f 5/192/253 102/191/252 207/194/256
f 178/168/257 246/167/453 77/170/247
f 6/164/258 86/166/223 247/165/222
f 64/171/259 200/304/397 86/166/223
f 6/164/258 77/170/247 190/169/249
f 7/195/260 74/463/653 194/196/261
f 7/195/260 88/200/265 210/198/263
f 65/197/262 201/258/327 88/200/265
f 8/201/266 62/204/269 198/202/267
f 8/201/266 75/206/271 195/203/268
f 8/201/266 89/207/272 199/205/270
f 87/199/264 210/198/263 89/207/272
f 179/208/273 257/288/424 152/209/274
f 9/210/275 90/213/278 248/211/276
f 119/212/277 204/266/342 90/213/278
f 9/210/275 152/209/274 237/214/279
f 121/215/280 239/320/428 153/216/281
f 10/217/282 91/220/285 202/218/283
f 10/217/282 123/221/286 211/219/284
f 153/216/281 241/347/475 123/221/286
f 11/222/287 66/226/291 215/223/288
f 11/222/287 79/228/293 196/225/290
f 110/227/292 203/235/302 79/228/293
f 11/222/287 115/224/289 219/229/294
f 12/180/295 180/183/296 244/175/232
f 12/180/295 94/182/239 249/181/238
f 71/184/255 207/194/256 94/182/239
f 12/180/295 67/178/235 192/177/234
f 13/230/297 81/232/299 196/225/290
f 13/230/297 95/234/301 205/231/298
f 96/233/300 212/241/308 95/234/301
f 13/230/297 79/228/293 203/235/302
f 69/236/303 205/231/298 95/234/301
f 14/237/304 82/240/307 197/238/305
f 97/239/306 206/284/368 82/240/307
f 14/237/304 95/234/301 212/241/308
f 181/242/309 255/268/406 139/243/310
f 15/244/311 98/213/314 250/211/312
f 107/245/313 209/266/339 98/213/314
f 15/244/311 139/243/310 231/246/315
f 109/247/316 233/310/410 140/248/317
f 16/249/318 99/252/321 208/250/319
f 111/251/320 213/219/461 99/252/321
f 16/249/318 140/248/317 234/253/322
f 17/254/323 72/257/326 223/255/324
f 17/254/323 65/197/262 194/196/261
f 17/254/323 124/259/328 201/258/327
f 129/256/325 227/301/394 124/259/328
f 118/190/329 216/193/362 73/179/330
f 18/192/331 102/191/252 221/260/332
f 18/192/331 83/184/243 207/194/256
f 73/179/330 193/177/242 83/184/243
f 154/261/333 240/214/433 122/212/334
f 19/262/335 125/265/338 242/263/336
f 104/264/337 214/464/654 125/265/338
f 19/262/335 122/212/334 209/266/339
f 20/262/340 155/261/341 242/263/336
f 119/212/277 237/214/279 155/261/341
f 20/262/340 105/264/343 204/266/342
f 125/265/338 214/464/654 105/264/343
f 21/267/344 182/269/347 256/268/345
f 113/174/231 251/173/230 182/269/347
f 21/267/344 135/270/348 217/193/254
f 141/243/346 232/246/352 135/270/348
f 142/271/349 235/285/371 138/272/350
f 22/273/351 135/270/348 232/246/352
f 114/190/251 217/193/254 135/270/348
f 22/273/351 138/272/350 221/260/332
f 23/274/353 133/277/356 230/275/354
f 115/224/289 215/223/288 133/277/356
f 132/278/357 219/229/294 115/224/289
f 143/276/355 229/345/464 132/278/357
f 24/172/358 183/176/361 245/175/359
f 116/174/360 252/173/405 183/176/361
f 24/172/358 73/179/330 216/193/362
f 24/172/358 70/178/240 193/177/242
f 25/279/363 84/281/365 197/238/305
f 25/279/363 117/283/367 218/280/364
f 100/282/366 220/312/412 117/283/367
f 25/279/363 82/240/307 206/284/368
f 26/273/369 144/271/372 231/246/315
f 26/273/369 138/272/350 235/285/371
f 118/190/329 221/260/332 138/272/350
f 26/273/369 134/270/370 216/193/362
f 27/286/373 66/226/291 196/225/290
f 28/287/374 184/289/377 258/288/375
f 126/187/246 253/186/245 184/289/377
f 28/287/374 149/291/379 225/290/378
f 156/209/376 240/214/433 149/291/379
f 185/188/380 243/167/224 63/170/227
f 29/185/381 127/187/384 254/186/382
f 68/189/383 222/290/402 127/187/384
f 29/185/381 63/170/227 191/169/226
f 30/292/385 78/294/387 195/203/268
f 30/292/385 128/296/389 224/293/386
f 92/295/388 226/322/430 128/296/389
f 30/292/385 75/206/271 199/205/270
f 31/297/390 147/300/393 238/298/391
f 129/256/325 223/255/324 147/300/393
f 31/297/390 145/302/395 227/301/394
f 157/299/392 236/327/439 145/302/395
f 64/171/259 190/169/249 85/189/250
f 32/303/396 103/306/399 200/304/397
f 32/303/396 130/307/400 228/305/398
f 85/189/250 225/290/378 130/307/400
f 33/303/401 76/171/228 200/304/397
f 68/189/383 191/169/226 76/171/228
f 33/303/401 131/307/403 222/290/402
f 103/306/399 228/305/398 131/307/403
f 34/267/404 186/269/407 252/173/405
f 34/267/404 139/243/310 255/268/406
f 134/270/370 231/246/315 139/243/310
f 116/174/360 216/193/362 134/270/370
f 136/308/408 218/280/364 117/283/367
f 35/309/409 140/248/317 233/310/410
f 137/311/411 234/253/322 140/248/317
f 35/309/409 117/283/367 220/312/412
f 36/244/413 187/242/414 248/211/276
f 141/243/346 256/268/345 187/242/414
f 36/244/413 108/245/415 232/246/352
f 90/213/278 204/266/342 108/245/415
f 105/264/343 214/464/654 112/313/416
f 37/314/417 108/245/415 204/266/342
f 142/271/349 232/246/352 108/245/415
f 37/314/417 112/313/416 235/285/371
f 38/315/418 106/316/419 202/218/283
f 143/276/355 230/275/354 106/316/419
f 93/317/420 229/345/464 143/276/355
f 38/315/418 91/220/285 211/219/284
f 39/314/421 104/264/337 209/266/339
f 112/313/416 214/464/654 104/264/337
f 39/314/421 144/271/372 235/285/371
f 107/245/313 231/246/315 144/271/372
f 188/289/422 254/186/382 127/187/384
f 40/287/423 152/209/274 257/288/424
f 146/291/425 237/214/279 152/209/274
f 40/287/423 127/187/384 222/290/402
f 148/318/426 224/293/386 128/296/389
f 41/319/427 153/216/281 239/320/428
f 150/321/429 241/347/475 153/216/281
f 41/319/427 128/296/389 226/322/430
f 42/323/431 130/307/400 225/290/378
f 151/324/432 228/305/398 130/307/400
f 42/323/431 154/261/333 242/263/336
f 42/323/431 149/291/379 240/214/433
f 43/323/434 131/307/403 228/305/398
f 146/291/425 222/290/402 131/307/403
f 43/323/434 155/261/341 237/214/279
f 151/324/432 242/263/336 155/261/341
f 44/210/435 189/208/436 250/211/312
f 156/209/376 258/288/375 189/208/436
f 44/210/435 122/212/334 240/214/433
f 98/213/314 209/266/339 122/212/334
f 45/325/437 120/326/438 208/250/319
f 157/299/392 238/298/391 120/326/438
f 45/325/437 101/328/440 236/327/439
f 99/252/321 213/219/461 101/328/440
f 46/329/441 89/207/272 210/198/263
f 158/331/443 199/205/270 89/207/272
f 174/168/225 243/167/224 158/331/443
f 46/329/441 162/330/442 247/165/222
f 110/227/292 219/229/294 166/332/444
f 47/333/445 159/334/446 203/235/302
f 175/176/233 244/175/232 159/334/446
f 166/332/444 251/173/230 175/176/233
f 97/239/306 212/241/308 164/335/447
f 48/336/448 160/334/449 206/284/368
f 48/336/448 176/183/241 245/175/359
f 164/335/447 249/181/238 176/183/241
f 49/337/450 124/259/328 227/301/394
f 161/331/452 201/258/327 124/259/328
f 49/337/450 177/188/248 246/167/453
f 168/338/451 253/186/245 177/188/248
f 50/329/454 88/200/265 201/258/327
f 162/330/442 210/198/263 88/200/265
f 178/168/257 247/165/222 162/330/442
f 50/329/454 161/331/452 246/167/453
f 123/221/286 241/347/475 172/339/455
f 163/341/457 211/219/284 123/221/286
f 51/340/456 179/208/273 248/211/276
f 51/340/456 172/339/455 257/288/424
f 96/233/300 203/235/302 159/334/446
f 52/336/458 164/335/447 212/241/308
f 180/183/296 249/181/238 164/335/447
f 159/334/446 244/175/232 180/183/296
f 111/251/320 234/253/322 170/342/459
f 53/343/460 165/341/462 213/219/461
f 53/343/460 181/242/309 250/211/312
f 170/342/459 255/268/406 181/242/309
f 54/344/463 132/278/357 229/345/464
f 166/332/444 219/229/294 132/278/357
f 54/344/463 182/269/347 251/173/230
f 171/342/465 256/268/345 182/269/347
f 100/282/366 206/284/368 160/334/449
f 55/333/466 167/332/467 220/312/412
f 55/333/466 183/176/361 252/173/405
f 160/334/449 245/175/359 183/176/361
f 56/346/468 145/302/395 236/327/439
f 168/338/451 227/301/394 145/302/395
f 56/346/468 184/289/377 253/186/245
f 56/346/468 173/339/469 258/288/375
f 92/295/388 199/205/270 158/331/443
f 57/337/470 169/338/471 226/322/430
f 185/188/380 254/186/382 169/338/471
f 57/337/470 158/331/443 243/167/224
f 137/311/411 220/312/412 167/332/467
f 58/344/472 170/342/459 234/253/322
f 58/344/472 186/269/407 255/268/406
f 167/332/467 252/173/405 186/269/407
f 93/317/420 211/219/284 163/341/457
f 171/342/465 229/345/464 93/317/420
f 59/343/473 187/242/414 256/268/345
f 59/343/473 163/341/457 248/211/276
f 150/321/429 226/322/430 169/338/471
f 60/346/474 172/339/455 241/347/475
f 188/289/422 257/288/424 172/339/455
f 60/346/474 169/338/471 254/186/382
f 61/340/476 101/328/440 213/219/461
f 173/339/469 236/327/439 101/328/440
f 189/208/436 258/288/375 173/339/469
f 165/341/462 250/211/312 189/208/436
usemtl torso.001
f 489/348/477 497/349/478 488/350/479
f 490/351/480 498/352/481 499/353/482
f 490/351/480 486/354/483 495/355/484
f 500/356/485 494/357/486 489/348/477
f 495/355/484 496/358/487 493/359/488
f 493/359/488 492/360/489 494/357/486
f 498/352/481 493/359/488 500/356/485
f 507/361/490 506/362/491 490/351/480
f 505/363/492 504/364/493 507/361/490
f 491/365/494 507/361/490 499/353/482
f 501/366/495 505/363/492 491/365/494
f 519/367/496 511/368/497 510/369/498
f 520/370/499 512/371/500 521/372/501
f 516/373/502 522/374/503 511/368/497
f 518/375/504 517/376/505 515/377/506
f 514/378/507 515/377/506 516/373/502
f 515/377/506 520/370/499 522/374/503
f 525/379/508 513/380/509 521/372/501
f 489/348/477 510/369/498 511/368/497
f 499/353/482 513/380/509 491/365/494
f 491/365/494 523/381/510 501/366/495
f 500/356/485 511/368/497 522/374/503
f 500/356/485 520/370/499 498/352/481
f 498/352/481 521/372/501 499/353/482
f 489/348/477 494/357/486 497/349/478
f 490/351/480 495/355/484 498/352/481
f 490/351/480 487/465/655 486/354/483
f 500/356/485 493/359/488 494/357/486
f 495/355/484 486/354/483 496/358/487
f 493/359/488 496/358/487 492/360/489
f 498/352/481 495/355/484 493/359/488
f 490/351/480 499/353/482 507/361/490
f 507/361/490 502/466/656 506/362/491
f 505/363/492 503/467/657 504/364/493
f 491/365/494 505/363/492 507/361/490
f 501/366/495 508/468/658 505/363/492
f 519/367/496 516/373/502 511/368/497
f 520/370/499 517/376/505 512/371/500
f 516/373/502 515/377/506 522/374/503
f 518/375/504 509/469/659 517/376/505
f 514/378/507 518/375/504 515/377/506
f 515/377/506 517/376/505 520/370/499
f 525/379/508 524/470/660 513/380/509
f 489/348/477 488/350/479 510/369/498
f 499/353/482 521/372/501 513/380/509
f 491/365/494 513/380/509 523/381/510
f 500/356/485 489/348/477 511/368/497
f 500/356/485 522/374/503 520/370/499
f 498/352/481 520/370/499 521/372/501
usemtl hydraulics.003
f 358/382/511 456/383/512 424/384/513
f 388/385/514 437/382/515 390/386/516
f 360/387/517 363/388/518 361/389/519
f 359/387/520 454/390/521 358/382/511
f 360/387/517 358/382/511 362/386/522
f 364/385/523 363/388/518 362/386/522
f 452/391/524 485/392/525 453/393/526
f 392/387/527 439/393/528 394/394/529
f 366/395/530 365/396/531 364/385/523
f 451/397/532 484/398/533 452/391/524
f 439/393/528 396/399/534 394/394/529
f 366/395/530 369/400/535 367/401/536
f 450/402/537 483/403/538 451/397/532
f 440/391/539 398/404/540 396/399/534
f 370/405/541 369/400/535 368/406/542
f 449/407/543 482/408/544 450/402/537
f 441/397/545 400/409/546 398/404/540
f 372/410/547 371/411/548 370/405/541
f 448/412/549 481/413/550 449/407/543
f 442/402/551 402/414/552 400/409/546
f 372/410/547 375/415/553 373/416/554
f 447/417/555 480/418/556 448/412/549
f 402/414/552 444/412/557 404/419/558
f 376/420/559 375/415/553 374/421/560
f 478/422/561 447/417/555 446/423/562
f 444/412/557 406/424/563 404/419/558
f 376/420/559 379/415/564 377/425/565
f 477/426/566 446/423/562 445/417/567
f 445/417/567 408/427/568 406/424/563
f 380/410/569 379/415/564 378/421/570
f 476/418/571 445/417/567 444/412/557
f 408/427/568 447/417/555 410/424/572
f 380/410/569 383/411/573 381/416/574
f 475/413/575 444/412/557 443/407/576
f 410/424/572 448/412/549 412/419/577
f 382/405/578 385/400/579 383/411/573
f 474/408/580 443/407/576 442/402/551
f 412/419/577 449/407/543 414/414/581
f 386/395/582 385/400/579 384/406/583
f 473/403/584 442/402/551 441/397/545
f 414/414/581 450/402/537 416/409/585
f 386/395/582 389/396/586 387/401/587
f 472/398/588 441/397/545 440/391/539
f 416/409/585 451/397/532 418/404/589
f 388/385/514 391/388/590 389/396/586
f 471/392/591 440/391/539 439/393/528
f 451/397/532 420/399/592 418/404/589
f 392/387/527 391/388/590 390/386/516
f 453/393/526 455/428/593 359/387/520
f 452/391/524 422/394/594 420/399/592
f 394/394/529 393/389/595 392/387/527
f 470/428/596 439/393/528 438/387/597
f 453/393/526 360/387/517 422/394/594
f 396/399/534 395/429/598 394/394/529
f 469/390/599 438/387/597 437/382/515
f 362/386/522 424/384/513 364/385/523
f 398/404/540 397/430/600 396/399/534
f 468/383/601 437/382/515 436/384/602
f 364/385/523 425/431/603 366/395/530
f 398/404/540 401/432/604 399/433/605
f 467/434/606 436/384/602 435/431/607
f 425/431/603 368/406/542 366/395/530
f 400/409/546 403/435/608 401/432/604
f 466/436/609 435/431/607 434/437/610
f 426/437/611 370/405/541 368/406/542
f 402/414/552 405/438/612 403/435/608
f 465/439/613 434/437/610 433/440/614
f 427/440/615 372/410/547 370/405/541
f 406/424/563 405/438/612 404/419/558
f 464/441/616 433/440/614 432/442/617
f 372/410/547 429/443/618 374/421/560
f 406/424/563 409/444/619 407/445/620
f 463/446/621 432/442/617 431/443/622
f 374/421/560 430/447/623 376/420/559
f 410/424/572 409/444/619 408/427/568
f 430/447/623 463/446/621 431/443/622
f 430/447/623 378/421/570 376/420/559
f 410/424/572 413/438/624 411/445/625
f 429/443/618 462/448/626 430/447/623
f 431/443/622 380/410/569 378/421/570
f 414/414/581 413/438/624 412/419/577
f 428/442/627 461/446/628 429/443/618
f 432/442/617 382/405/578 380/410/569
f 416/409/585 415/435/629 414/414/581
f 382/405/578 434/437/610 384/406/583
f 418/404/589 417/432/630 416/409/585
f 386/395/582 436/384/602 388/385/514
f 427/440/615 460/441/631 428/442/627
f 418/404/589 421/430/632 419/433/633
f 393/389/595 409/444/619 361/389/519
f 422/394/594 361/389/519 423/429/634
f 420/399/592 423/429/634 421/430/632
f 424/384/513 457/434/635 425/431/603
f 437/382/515 392/387/527 390/386/516
f 384/406/583 435/431/607 386/395/582
f 425/431/603 458/436/636 426/437/611
f 426/437/611 459/439/637 427/440/615
f 358/382/511 454/390/521 456/383/512
f 388/385/514 436/384/602 437/382/515
f 360/387/517 362/386/522 363/388/518
f 359/387/520 455/428/593 454/390/521
f 360/387/517 359/387/520 358/382/511
f 364/385/523 365/396/531 363/388/518
f 452/391/524 484/398/533 485/392/525
f 392/387/527 438/387/597 439/393/528
f 366/395/530 367/401/536 365/396/531
f 451/397/532 483/403/538 484/398/533
f 439/393/528 440/391/539 396/399/534
f 366/395/530 368/406/542 369/400/535
f 450/402/537 482/408/544 483/403/538
f 440/391/539 441/397/545 398/404/540
f 370/405/541 371/411/548 369/400/535
f 449/407/543 481/413/550 482/408/544
f 441/397/545 442/402/551 400/409/546
f 372/410/547 373/416/554 371/411/548
f 448/412/549 480/418/556 481/413/550
f 442/402/551 443/407/576 402/414/552
f 372/410/547 374/421/560 375/415/553
f 447/417/555 479/426/661 480/418/556
f 402/414/552 443/407/576 444/412/557
f 376/420/559 377/425/565 375/415/553
f 478/422/561 479/426/661 447/417/555
f 444/412/557 445/417/567 406/424/563
f 376/420/559 378/421/570 379/415/564
f 477/426/566 478/422/561 446/423/562
f 445/417/567 446/423/562 408/427/568
f 380/410/569 381/416/574 379/415/564
f 476/418/571 477/426/566 445/417/567
f 408/427/568 446/423/562 447/417/555
f 380/410/569 382/405/578 383/411/573
f 475/413/575 476/418/571 444/412/557
f 410/424/572 447/417/555 448/412/549
f 382/405/578 384/406/583 385/400/579
f 474/408/580 475/413/575 443/407/576
f 412/419/577 448/412/549 449/407/543
f 386/395/582 387/401/587 385/400/579
f 473/403/584 474/408/580 442/402/551
f 414/414/581 449/407/543 450/402/537
f 386/395/582 388/385/514 389/396/586
f 472/398/588 473/403/584 441/397/545
f 416/409/585 450/402/537 451/397/532
f 388/385/514 390/386/516 391/388/590
f 471/392/591 472/398/588 440/391/539
f 451/397/532 452/391/524 420/399/592
f 392/387/527 393/389/595 391/388/590
f 453/393/526 485/392/525 455/428/593
f 452/391/524 453/393/526 422/394/594
f 394/394/529 395/429/598 393/389/595
f 470/428/596 471/392/591 439/393/528
f 453/393/526 359/387/520 360/387/517
f 396/399/534 397/430/600 395/429/598
f 469/390/599 470/428/596 438/387/597
f 362/386/522 358/382/511 424/384/513
f 398/404/540 399/433/605 397/430/600
f 468/383/601 469/390/599 437/382/515
f 364/385/523 424/384/513 425/431/603
f 398/404/540 400/409/546 401/432/604
f 467/434/606 468/383/601 436/384/602
f 425/431/603 426/437/611 368/406/542
f 400/409/546 402/414/552 403/435/608
f 466/436/609 467/434/606 435/431/607
f 426/437/611 427/440/615 370/405/541
f 402/414/552 404/419/558 405/438/612
f 465/439/613 466/436/609 434/437/610
f 427/440/615 428/442/627 372/410/547
f 406/424/563 407/445/620 405/438/612
f 464/441/616 465/439/613 433/440/614
f 372/410/547 428/442/627 429/443/618
f 406/424/563 408/427/568 409/444/619
f 463/446/621 464/441/616 432/442/617
f 374/421/560 429/443/618 430/447/623
f 410/424/572 411/445/625 409/444/619
f 430/447/623 462/448/626 463/446/621
f 430/447/623 431/443/622 378/421/570
f 410/424/572 412/419/577 413/438/624
f 429/443/618 461/446/628 462/448/626
f 431/443/622 432/442/617 380/410/569
f 414/414/581 415/435/629 413/438/624
f 428/442/627 460/441/631 461/446/628
f 432/442/617 433/440/614 382/405/578
f 416/409/585 417/432/630 415/435/629
f 382/405/578 433/440/614 434/437/610
f 418/404/589 419/433/633 417/432/630
f 386/395/582 435/431/607 436/384/602
f 427/440/615 459/439/637 460/441/631
f 418/404/589 420/399/592 421/430/632
f 361/389/519 363/388/518 365/396/531
f 365/396/531 367/401/536 369/400/535
f 369/400/535 371/411/548 373/416/554
f 373/416/554 375/415/553 377/425/565
f 377/425/565 379/415/564 381/416/574
f 381/416/574 383/411/573 385/400/579
f 385/400/579 387/401/587 389/396/586
f 389/396/586 391/388/590 393/389/595
f 393/389/595 395/429/598 397/430/600
f 397/430/600 399/433/605 401/432/604
f 401/432/604 403/435/608 405/438/612
f 405/438/612 407/445/620 409/444/619
f 409/444/619 411/445/625 413/438/624
f 413/438/624 415/435/629 417/432/630
f 417/432/630 419/433/633 421/430/632
f 421/430/632 423/429/634 361/389/519
f 361/389/519 365/396/531 369/400/535
f 369/400/535 373/416/554 377/425/565
f 377/425/565 381/416/574 385/400/579
f 385/400/579 389/396/586 393/389/595
f 393/389/595 397/430/600 401/432/604
f 401/432/604 405/438/612 409/444/619
f 409/444/619 413/438/624 417/432/630
f 417/432/630 421/430/632 361/389/519
f 361/389/519 369/400/535 377/425/565
f 377/425/565 385/400/579 393/389/595
f 393/389/595 401/432/604 409/444/619
f 409/444/619 417/432/630 361/389/519
f 361/389/519 377/425/565 393/389/595
f 422/394/594 360/387/517 361/389/519
f 420/399/592 422/394/594 423/429/634
f 424/384/513 456/383/512 457/434/635
f 437/382/515 438/387/597 392/387/527
f 384/406/583 434/437/610 435/431/607
f 425/431/603 457/434/635 458/436/636
f 426/437/611 458/436/636 459/439/637
